<?xml version="1.0" encoding="UTF-8" standalone="no"?><svg xmlns="http://www.w3.org/2000/svg" xmlns:xlink="http://www.w3.org/1999/xlink" clip-rule="evenodd" stroke-miterlimit="4.00" viewBox="0 0 1775 108"><desc>SVG generated by Keynote</desc><defs></defs><g transform="matrix(1.00, 0.00, -0.00, -1.00, 0.0, 108.0)"><g><clipPath id="clip-322"><path d="M 1.0 106.0 L 1774.0 106.0 L 1774.0 2.0 L 1.0 2.0 Z M 1.3 106.3 "></path></clipPath><g clip-path="url(#clip-322)"><g><clipPath id="clip-323"><path d="M 1.0 2.0 L 1774.0 2.0 L 1774.0 106.0 L 1.0 106.0 Z M 1.0 2.0 "></path></clipPath><g clip-path="url(#clip-323)"><path d="M 42.6 318.0 L 33.7 320.3 " fill="none" stroke="#000000" stroke-width="1.00" stroke-miterlimit="0.00" stroke-linecap="round" stroke-linejoin="round" transform="matrix(3.08, 0.00, 0.00, -3.06, -17.5, 1026.7)"></path><path d="M 62.4 40.8 L 88.6 38.0 L 84.0 55.8 Z M 62.4 40.8 " fill="#000000"></path><path d="M 25.9 322.3 L 34.4 323.2 L 32.9 317.4 Z M 25.9 322.3 " fill="none" stroke="#000000" stroke-width="1.00" stroke-miterlimit="0.00" transform="matrix(3.08, 0.00, 0.00, -3.06, -17.5, 1026.7)"></path><path d="M 8.7 52.5 L 55.0 52.5 L 55.0 9.6 L 8.7 9.6 Z M 7.6 54.6 " fill="#D5D5D5"></path><path d="M 8.5 318.5 L 23.5 318.5 L 23.5 332.5 L 8.5 332.5 Z M 8.1 317.8 " fill="none" stroke="#000000" stroke-width="1.00" stroke-miterlimit="0.00" stroke-linecap="round" stroke-linejoin="round" transform="matrix(3.08, 0.00, 0.00, -3.06, -17.5, 1026.7)"></path><text xml:space="preserve" font-family="Helvetica" font-size="9.0" fill="#000000" transform="matrix(3.08, 0.00, -0.00, -3.06, 23.7, 22.2)">0</text><path d="M 393.6 314.2 L 493.4 322.9 " fill="none" stroke="#000000" stroke-width="1.00" stroke-miterlimit="0.00" stroke-linecap="round" stroke-linejoin="round" transform="matrix(3.08, 0.00, 0.00, -3.06, -17.5, 1026.7)"></path><path d="M 1528.4 36.9 L 1504.7 48.2 L 1503.0 29.9 Z M 1528.4 36.9 " fill="#000000"></path><path d="M 501.4 323.6 L 493.7 319.9 L 493.1 325.9 Z M 501.4 323.6 " fill="none" stroke="#000000" stroke-width="1.00" stroke-miterlimit="0.00" transform="matrix(3.08, 0.00, 0.00, -3.06, -17.5, 1026.7)"></path><path d="M 393.6 314.7 L 475.6 322.9 " fill="none" stroke="#000000" stroke-width="1.00" stroke-miterlimit="0.00" stroke-linecap="round" stroke-linejoin="round" transform="matrix(3.08, 0.00, 0.00, -3.06, -17.5, 1026.7)"></path><path d="M 1473.5 36.4 L 1449.9 48.0 L 1448.0 29.7 Z M 1473.5 36.4 " fill="#000000"></path><path d="M 483.5 323.7 L 475.9 320.0 L 475.3 325.9 Z M 483.5 323.7 " fill="none" stroke="#000000" stroke-width="1.00" stroke-miterlimit="0.00" transform="matrix(3.08, 0.00, 0.00, -3.06, -17.5, 1026.7)"></path><path d="M 393.6 315.2 L 458.4 322.7 " fill="none" stroke="#000000" stroke-width="1.00" stroke-miterlimit="0.00" stroke-linecap="round" stroke-linejoin="round" transform="matrix(3.08, 0.00, 0.00, -3.06, -17.5, 1026.7)"></path><path d="M 1420.5 36.8 L 1397.1 48.7 L 1395.0 30.5 Z M 1420.5 36.8 " fill="#000000"></path><path d="M 466.4 323.6 L 458.8 319.7 L 458.1 325.7 Z M 466.4 323.6 " fill="none" stroke="#000000" stroke-width="1.00" stroke-miterlimit="0.00" transform="matrix(3.08, 0.00, 0.00, -3.06, -17.5, 1026.7)"></path><path d="M 1145.6 45.6 L 1126.9 64.1 L 1119.3 47.3 Z M 1145.6 45.6 " fill="#000000"></path><path d="M 377.2 320.7 L 371.1 314.7 L 368.7 320.2 Z M 377.2 320.7 " fill="none" stroke="#000000" stroke-width="1.00" stroke-miterlimit="0.00" transform="matrix(3.08, 0.00, 0.00, -3.06, -17.5, 1026.7)"></path><path d="M 355.3 310.8 L 356.0 311.5 " fill="none" stroke="#000000" stroke-width="1.00" stroke-miterlimit="0.00" stroke-linecap="round" stroke-linejoin="round" transform="matrix(3.08, 0.00, 0.00, -3.06, -17.5, 1026.7)"></path><path d="M 1099.0 58.1 L 1086.3 81.0 L 1074.3 67.1 Z M 1099.0 58.1 " fill="#000000"></path><path d="M 362.1 316.7 L 358.0 309.2 L 354.1 313.7 Z M 362.1 316.7 " fill="none" stroke="#000000" stroke-width="1.00" stroke-miterlimit="0.00" transform="matrix(3.08, 0.00, 0.00, -3.06, -17.5, 1026.7)"></path><path d="M 1080.4 38.7 L 1088.1 63.7 L 1069.7 62.6 Z M 1080.4 38.7 " fill="#000000"></path><path d="M 356.1 323.0 L 358.6 314.8 L 352.6 315.2 Z M 356.1 323.0 " fill="none" stroke="#000000" stroke-width="1.00" stroke-miterlimit="0.00" transform="matrix(3.08, 0.00, 0.00, -3.06, -17.5, 1026.7)"></path><path d="M 1061.1 59.7 L 1085.3 70.0 L 1072.4 83.2 Z M 1061.1 59.7 " fill="#000000"></path><path d="M 349.8 316.2 L 357.6 312.8 L 353.5 308.4 Z M 349.8 316.2 " fill="none" stroke="#000000" stroke-width="1.00" stroke-miterlimit="0.00" transform="matrix(3.08, 0.00, 0.00, -3.06, -17.5, 1026.7)"></path><path d="M 1015.9 47.3 L 1042.2 49.3 L 1034.4 65.9 Z M 1015.9 47.3 " fill="#000000"></path><path d="M 335.1 320.2 L 343.7 319.5 L 341.1 314.1 Z M 335.1 320.2 " fill="none" stroke="#000000" stroke-width="1.00" stroke-miterlimit="0.00" transform="matrix(3.08, 0.00, 0.00, -3.06, -17.5, 1026.7)"></path><path d="M 268.5 318.0 L 291.8 321.9 " fill="none" stroke="#000000" stroke-width="1.00" stroke-miterlimit="0.00" stroke-linecap="round" stroke-linejoin="round" transform="matrix(3.08, 0.00, 0.00, -3.06, -17.5, 1026.7)"></path><path d="M 906.5 38.1 L 883.7 51.1 L 880.7 33.0 Z M 906.5 38.1 " fill="#000000"></path><path d="M 299.7 323.2 L 292.3 318.9 L 291.3 324.9 Z M 299.7 323.2 " fill="none" stroke="#000000" stroke-width="1.00" stroke-miterlimit="0.00" transform="matrix(3.08, 0.00, 0.00, -3.06, -17.5, 1026.7)"></path><path d="M 260.7 318.0 L 276.4 321.2 " fill="none" stroke="#000000" stroke-width="1.00" stroke-miterlimit="0.00" stroke-linecap="round" stroke-linejoin="round" transform="matrix(3.08, 0.00, 0.00, -3.06, -17.5, 1026.7)"></path><path d="M 858.9 39.2 L 836.5 53.1 L 832.8 35.1 Z M 858.9 39.2 " fill="#000000"></path><path d="M 284.2 322.8 L 277.0 318.3 L 275.8 324.2 Z M 284.2 322.8 " fill="none" stroke="#000000" stroke-width="1.00" stroke-miterlimit="0.00" transform="matrix(3.08, 0.00, 0.00, -3.06, -17.5, 1026.7)"></path><path d="M 252.9 318.1 L 261.0 320.2 " fill="none" stroke="#000000" stroke-width="1.00" stroke-miterlimit="0.00" stroke-linecap="round" stroke-linejoin="round" transform="matrix(3.08, 0.00, 0.00, -3.06, -17.5, 1026.7)"></path><path d="M 811.3 41.0 L 789.8 56.1 L 785.0 38.4 Z M 811.3 41.0 " fill="#000000"></path><path d="M 268.8 322.2 L 261.8 317.3 L 260.3 323.1 Z M 268.8 322.2 " fill="none" stroke="#000000" stroke-width="1.00" stroke-miterlimit="0.00" transform="matrix(3.08, 0.00, 0.00, -3.06, -17.5, 1026.7)"></path><path d="M 245.1 318.1 L 245.9 318.4 " fill="none" stroke="#000000" stroke-width="1.00" stroke-miterlimit="0.00" stroke-linecap="round" stroke-linejoin="round" transform="matrix(3.08, 0.00, 0.00, -3.06, -17.5, 1026.7)"></path><path d="M 763.8 44.3 L 743.9 61.5 L 737.4 44.3 Z M 763.8 44.3 " fill="#000000"></path><path d="M 253.4 321.2 L 246.9 315.6 L 244.8 321.2 Z M 253.4 321.2 " fill="none" stroke="#000000" stroke-width="1.00" stroke-miterlimit="0.00" transform="matrix(3.08, 0.00, 0.00, -3.06, -17.5, 1026.7)"></path><path d="M 716.7 52.3 L 700.6 72.9 L 690.9 57.3 Z M 716.7 52.3 " fill="#000000"></path><path d="M 238.1 318.5 L 232.9 311.8 L 229.7 316.9 Z M 238.1 318.5 " fill="none" stroke="#000000" stroke-width="1.00" stroke-miterlimit="0.00" transform="matrix(3.08, 0.00, 0.00, -3.06, -17.5, 1026.7)"></path><path d="M 696.6 38.1 L 694.1 64.1 L 677.5 56.1 Z M 696.6 38.1 " fill="#000000"></path><path d="M 231.6 323.2 L 230.8 314.7 L 225.4 317.3 Z M 231.6 323.2 " fill="none" stroke="#000000" stroke-width="1.00" stroke-miterlimit="0.00" transform="matrix(3.08, 0.00, 0.00, -3.06, -17.5, 1026.7)"></path><path d="M 654.5 37.8 L 675.3 53.9 L 659.5 63.5 Z M 654.5 37.8 " fill="#000000"></path><path d="M 217.9 323.3 L 224.7 318.0 L 219.6 314.9 Z M 217.9 323.3 " fill="none" stroke="#000000" stroke-width="1.00" stroke-miterlimit="0.00" transform="matrix(3.08, 0.00, 0.00, -3.06, -17.5, 1026.7)"></path><path d="M 634.0 51.2 L 660.1 55.3 L 650.9 71.3 Z M 634.0 51.2 " fill="#000000"></path><path d="M 211.3 318.9 L 219.7 317.6 L 216.8 312.4 Z M 211.3 318.9 " fill="none" stroke="#000000" stroke-width="1.00" stroke-miterlimit="0.00" transform="matrix(3.08, 0.00, 0.00, -3.06, -17.5, 1026.7)"></path><path d="M 205.1 318.1 L 203.6 318.6 " fill="none" stroke="#000000" stroke-width="1.00" stroke-miterlimit="0.00" stroke-linecap="round" stroke-linejoin="round" transform="matrix(3.08, 0.00, 0.00, -3.06, -17.5, 1026.7)"></path><path d="M 586.9 43.8 L 613.2 43.4 L 607.1 60.7 Z M 586.9 43.8 " fill="#000000"></path><path d="M 196.0 321.3 L 204.6 321.5 L 202.5 315.8 Z M 196.0 321.3 " fill="none" stroke="#000000" stroke-width="1.00" stroke-miterlimit="0.00" transform="matrix(3.08, 0.00, 0.00, -3.06, -17.5, 1026.7)"></path><path d="M 197.3 318.0 L 188.4 320.3 " fill="none" stroke="#000000" stroke-width="1.00" stroke-miterlimit="0.00" stroke-linecap="round" stroke-linejoin="round" transform="matrix(3.08, 0.00, 0.00, -3.06, -17.5, 1026.7)"></path><path d="M 539.4 40.8 L 565.6 37.9 L 561.0 55.7 Z M 539.4 40.8 " fill="#000000"></path><path d="M 180.6 322.3 L 189.1 323.3 L 187.6 317.4 Z M 180.6 322.3 " fill="none" stroke="#000000" stroke-width="1.00" stroke-miterlimit="0.00" transform="matrix(3.08, 0.00, 0.00, -3.06, -17.5, 1026.7)"></path><path d="M 113.8 318.0 L 137.1 321.9 " fill="none" stroke="#000000" stroke-width="1.00" stroke-miterlimit="0.00" stroke-linecap="round" stroke-linejoin="round" transform="matrix(3.08, 0.00, 0.00, -3.06, -17.5, 1026.7)"></path><path d="M 429.5 38.1 L 406.7 51.1 L 403.7 33.0 Z M 429.5 38.1 " fill="#000000"></path><path d="M 145.0 323.2 L 137.6 318.9 L 136.6 324.9 Z M 145.0 323.2 " fill="none" stroke="#000000" stroke-width="1.00" stroke-miterlimit="0.00" transform="matrix(3.08, 0.00, 0.00, -3.06, -17.5, 1026.7)"></path><path d="M 106.0 318.0 L 121.7 321.2 " fill="none" stroke="#000000" stroke-width="1.00" stroke-miterlimit="0.00" stroke-linecap="round" stroke-linejoin="round" transform="matrix(3.08, 0.00, 0.00, -3.06, -17.5, 1026.7)"></path><path d="M 381.9 39.2 L 359.6 53.1 L 355.9 35.1 Z M 381.9 39.2 " fill="#000000"></path><path d="M 129.5 322.8 L 122.3 318.3 L 121.1 324.2 Z M 129.5 322.8 " fill="none" stroke="#000000" stroke-width="1.00" stroke-miterlimit="0.00" transform="matrix(3.08, 0.00, 0.00, -3.06, -17.5, 1026.7)"></path><path d="M 98.2 318.1 L 106.4 320.2 " fill="none" stroke="#000000" stroke-width="1.00" stroke-miterlimit="0.00" stroke-linecap="round" stroke-linejoin="round" transform="matrix(3.08, 0.00, 0.00, -3.06, -17.5, 1026.7)"></path><path d="M 334.3 41.0 L 312.8 56.1 L 308.1 38.4 Z M 334.3 41.0 " fill="#000000"></path><path d="M 114.1 322.2 L 107.1 317.3 L 105.6 323.1 Z M 114.1 322.2 " fill="none" stroke="#000000" stroke-width="1.00" stroke-miterlimit="0.00" transform="matrix(3.08, 0.00, 0.00, -3.06, -17.5, 1026.7)"></path><path d="M 90.4 318.1 L 91.2 318.4 " fill="none" stroke="#000000" stroke-width="1.00" stroke-miterlimit="0.00" stroke-linecap="round" stroke-linejoin="round" transform="matrix(3.08, 0.00, 0.00, -3.06, -17.5, 1026.7)"></path><path d="M 286.8 44.3 L 266.9 61.5 L 260.5 44.3 Z M 286.8 44.3 " fill="#000000"></path><path d="M 98.7 321.2 L 92.2 315.6 L 90.1 321.2 Z M 98.7 321.2 " fill="none" stroke="#000000" stroke-width="1.00" stroke-miterlimit="0.00" transform="matrix(3.08, 0.00, 0.00, -3.06, -17.5, 1026.7)"></path><path d="M 239.8 52.3 L 223.6 72.9 L 213.9 57.3 Z M 239.8 52.3 " fill="#000000"></path><path d="M 83.4 318.5 L 78.2 311.8 L 75.0 316.9 Z M 83.4 318.5 " fill="none" stroke="#000000" stroke-width="1.00" stroke-miterlimit="0.00" transform="matrix(3.08, 0.00, 0.00, -3.06, -17.5, 1026.7)"></path><path d="M 219.6 38.1 L 217.1 64.1 L 200.5 56.1 Z M 219.6 38.1 " fill="#000000"></path><path d="M 76.9 323.2 L 76.1 314.7 L 70.7 317.3 Z M 76.9 323.2 " fill="none" stroke="#000000" stroke-width="1.00" stroke-miterlimit="0.00" transform="matrix(3.08, 0.00, 0.00, -3.06, -17.5, 1026.7)"></path><path d="M 177.6 37.8 L 198.3 53.9 L 182.5 63.5 Z M 177.6 37.8 " fill="#000000"></path><path d="M 63.3 323.3 L 70.0 318.0 L 64.9 314.9 Z M 63.3 323.3 " fill="none" stroke="#000000" stroke-width="1.00" stroke-miterlimit="0.00" transform="matrix(3.08, 0.00, 0.00, -3.06, -17.5, 1026.7)"></path><path d="M 157.1 51.2 L 183.1 55.3 L 174.0 71.3 Z M 157.1 51.2 " fill="#000000"></path><path d="M 56.6 318.9 L 65.1 317.6 L 62.1 312.4 Z M 56.6 318.9 " fill="none" stroke="#000000" stroke-width="1.00" stroke-miterlimit="0.00" transform="matrix(3.08, 0.00, 0.00, -3.06, -17.5, 1026.7)"></path><path d="M 57.7 318.2 L 48.1 323.5 " fill="none" stroke="#000000" stroke-width="1.00" stroke-miterlimit="0.00" stroke-linecap="round" stroke-linejoin="round" transform="matrix(3.08, 0.00, 0.00, -3.06, -17.5, 1026.7)"></path><path d="M 109.4 25.2 L 135.5 29.1 L 126.4 45.1 Z M 109.4 25.2 " fill="#000000"></path><path d="M 41.2 327.4 L 49.6 326.1 L 46.7 320.9 Z M 41.2 327.4 " fill="none" stroke="#000000" stroke-width="1.00" stroke-miterlimit="0.00" transform="matrix(3.08, 0.00, 0.00, -3.06, -17.5, 1026.7)"></path><path d="M 437.3 52.5 L 486.6 52.5 L 486.6 9.6 L 437.3 9.6 Z M 436.8 54.6 " fill="#FEFFFF"></path><path d="M 147.5 318.5 L 163.5 318.5 L 163.5 332.5 L 147.5 332.5 Z M 147.3 317.8 " fill="none" stroke="#000000" stroke-width="1.00" stroke-miterlimit="0.00" stroke-linecap="round" stroke-linejoin="round" transform="matrix(3.08, 0.00, 0.00, -3.06, -17.5, 1026.7)"></path><text xml:space="preserve" font-family="Helvetica" font-size="9.0" fill="#000000" transform="matrix(3.08, 0.00, -0.00, -3.06, 453.0, 22.2)">9</text><path d="M 391.1 52.5 L 437.3 52.5 L 437.3 9.6 L 391.1 9.6 Z M 389.1 54.6 " fill="#FEFFFF"></path><path d="M 132.5 318.5 L 147.5 318.5 L 147.5 332.5 L 132.5 332.5 Z M 131.9 317.8 " fill="none" stroke="#000000" stroke-width="1.00" stroke-miterlimit="0.00" stroke-linecap="round" stroke-linejoin="round" transform="matrix(3.08, 0.00, 0.00, -3.06, -17.5, 1026.7)"></path><text xml:space="preserve" font-family="Helvetica" font-size="9.0" fill="#000000" transform="matrix(3.08, 0.00, -0.00, -3.06, 405.3, 22.2)">8</text><path d="M 341.7 52.5 L 391.1 52.5 L 391.1 9.6 L 341.7 9.6 Z M 341.4 54.6 " fill="#D5D5D5"></path><path d="M 116.5 318.5 L 132.5 318.5 L 132.5 332.5 L 116.5 332.5 Z M 116.4 317.8 " fill="none" stroke="#000000" stroke-width="1.00" stroke-miterlimit="0.00" stroke-linecap="round" stroke-linejoin="round" transform="matrix(3.08, 0.00, 0.00, -3.06, -17.5, 1026.7)"></path><text xml:space="preserve" font-family="Helvetica" font-size="9.0" fill="#000000" transform="matrix(3.08, 0.00, -0.00, -3.06, 357.6, 22.2)">7</text><path d="M 295.5 52.5 L 341.7 52.5 L 341.7 9.6 L 295.5 9.6 Z M 293.7 54.6 " fill="#D5D5D5"></path><path d="M 101.5 318.5 L 116.5 318.5 L 116.5 332.5 L 101.5 332.5 Z M 100.9 317.8 " fill="none" stroke="#000000" stroke-width="1.00" stroke-miterlimit="0.00" stroke-linecap="round" stroke-linejoin="round" transform="matrix(3.08, 0.00, 0.00, -3.06, -17.5, 1026.7)"></path><text xml:space="preserve" font-family="Helvetica" font-size="9.0" fill="#000000" transform="matrix(3.08, 0.00, -0.00, -3.06, 309.9, 22.2)">6</text><path d="M 246.1 52.5 L 295.5 52.5 L 295.5 9.6 L 246.1 9.6 Z M 246.0 54.6 " fill="#D5D5D5"></path><path d="M 85.5 318.5 L 101.5 318.5 L 101.5 332.5 L 85.5 332.5 Z M 85.5 317.8 " fill="none" stroke="#000000" stroke-width="1.00" stroke-miterlimit="0.00" stroke-linecap="round" stroke-linejoin="round" transform="matrix(3.08, 0.00, 0.00, -3.06, -17.5, 1026.7)"></path><text xml:space="preserve" font-family="Helvetica" font-size="9.0" fill="#000000" transform="matrix(3.08, 0.00, -0.00, -3.06, 262.2, 22.2)">5</text><path d="M 199.9 52.5 L 246.1 52.5 L 246.1 9.6 L 199.9 9.6 Z M 198.3 54.6 " fill="#D5D5D5"></path><path d="M 70.5 318.5 L 85.5 318.5 L 85.5 332.5 L 70.5 332.5 Z M 70.0 317.8 " fill="none" stroke="#000000" stroke-width="1.00" stroke-miterlimit="0.00" stroke-linecap="round" stroke-linejoin="round" transform="matrix(3.08, 0.00, 0.00, -3.06, -17.5, 1026.7)"></path><text xml:space="preserve" font-family="Helvetica" font-size="9.0" fill="#000000" transform="matrix(3.08, 0.00, -0.00, -3.06, 214.5, 22.2)">4</text><path d="M 150.5 52.5 L 199.9 52.5 L 199.9 9.6 L 150.5 9.6 Z M 150.6 54.6 " fill="#D5D5D5"></path><path d="M 54.5 318.5 L 70.5 318.5 L 70.5 332.5 L 54.5 332.5 Z M 54.5 317.8 " fill="none" stroke="#000000" stroke-width="1.00" stroke-miterlimit="0.00" stroke-linecap="round" stroke-linejoin="round" transform="matrix(3.08, 0.00, 0.00, -3.06, -17.5, 1026.7)"></path><text xml:space="preserve" font-family="Helvetica" font-size="9.0" fill="#000000" transform="matrix(3.08, 0.00, -0.00, -3.06, 166.8, 22.2)">3</text><path d="M 104.3 52.5 L 150.5 52.5 L 150.5 9.6 L 104.3 9.6 Z M 102.9 54.6 " fill="#D5D5D5"></path><path d="M 39.5 318.5 L 54.5 318.5 L 54.5 332.5 L 39.5 332.5 Z M 39.1 317.8 " fill="none" stroke="#000000" stroke-width="1.00" stroke-miterlimit="0.00" stroke-linecap="round" stroke-linejoin="round" transform="matrix(3.08, 0.00, 0.00, -3.06, -17.5, 1026.7)"></path><text xml:space="preserve" font-family="Helvetica" font-size="9.0" fill="#000000" transform="matrix(3.08, 0.00, -0.00, -3.06, 119.1, 22.2)">2</text><path d="M 55.0 52.5 L 104.3 52.5 L 104.3 9.6 L 55.0 9.6 Z M 55.2 54.6 " fill="#D5D5D5"></path><path d="M 23.5 318.5 L 39.5 318.5 L 39.5 332.5 L 23.5 332.5 Z M 23.6 317.8 " fill="none" stroke="#000000" stroke-width="1.00" stroke-miterlimit="0.00" stroke-linecap="round" stroke-linejoin="round" transform="matrix(3.08, 0.00, 0.00, -3.06, -17.5, 1026.7)"></path><text xml:space="preserve" font-family="Helvetica" font-size="9.0" fill="#000000" transform="matrix(3.08, 0.00, -0.00, -3.06, 71.4, 22.2)">1</text><path d="M 915.3 52.5 L 961.5 52.5 L 961.5 9.6 L 915.3 9.6 Z M 913.8 54.6 " fill="#D5D5D5"></path><path d="M 302.5 318.5 L 317.5 318.5 L 317.5 332.5 L 302.5 332.5 Z M 302.0 317.8 " fill="none" stroke="#000000" stroke-width="1.00" stroke-miterlimit="0.00" stroke-linecap="round" stroke-linejoin="round" transform="matrix(3.08, 0.00, 0.00, -3.06, -17.5, 1026.7)"></path><text xml:space="preserve" font-family="Helvetica" font-size="9.0" fill="#000000" transform="matrix(3.08, 0.00, -0.00, -3.06, 933.8, 22.2)">.</text><path d="M 865.9 52.5 L 915.3 52.5 L 915.3 9.6 L 865.9 9.6 Z M 866.1 54.6 " fill="#D5D5D5"></path><path d="M 286.5 318.5 L 302.5 318.5 L 302.5 332.5 L 286.5 332.5 Z M 286.6 317.8 " fill="none" stroke="#000000" stroke-width="1.00" stroke-miterlimit="0.00" stroke-linecap="round" stroke-linejoin="round" transform="matrix(3.08, 0.00, 0.00, -3.06, -17.5, 1026.7)"></path><text xml:space="preserve" font-family="Helvetica" font-size="9.0" fill="#000000" transform="matrix(3.08, 0.00, -0.00, -3.06, 886.1, 22.2)">.</text><path d="M 819.7 52.5 L 865.9 52.5 L 865.9 9.6 L 819.7 9.6 Z M 818.4 54.6 " fill="#D5D5D5"></path><path d="M 271.5 318.5 L 286.5 318.5 L 286.5 332.5 L 271.5 332.5 Z M 271.1 317.8 " fill="none" stroke="#000000" stroke-width="1.00" stroke-miterlimit="0.00" stroke-linecap="round" stroke-linejoin="round" transform="matrix(3.08, 0.00, 0.00, -3.06, -17.5, 1026.7)"></path><text xml:space="preserve" font-family="Helvetica" font-size="9.0" fill="#000000" transform="matrix(3.08, 0.00, -0.00, -3.06, 838.4, 22.2)">.</text><path d="M 770.3 52.5 L 819.7 52.5 L 819.7 9.6 L 770.3 9.6 Z M 770.7 54.6 " fill="#D5D5D5"></path><path d="M 255.5 318.5 L 271.5 318.5 L 271.5 332.5 L 255.5 332.5 Z M 255.6 317.8 " fill="none" stroke="#000000" stroke-width="1.00" stroke-miterlimit="0.00" stroke-linecap="round" stroke-linejoin="round" transform="matrix(3.08, 0.00, 0.00, -3.06, -17.5, 1026.7)"></path><text xml:space="preserve" font-family="Helvetica" font-size="9.0" fill="#D5D5D5" transform="matrix(3.08, 0.00, -0.00, -3.06, 786.8, 22.2)">6</text><path d="M 724.1 52.5 L 770.3 52.5 L 770.3 9.6 L 724.1 9.6 Z M 723.0 54.6 " fill="#FEFFFF"></path><path d="M 240.5 318.5 L 255.5 318.5 L 255.5 332.5 L 240.5 332.5 Z M 240.2 317.8 " fill="none" stroke="#000000" stroke-width="1.00" stroke-miterlimit="0.00" stroke-linecap="round" stroke-linejoin="round" transform="matrix(3.08, 0.00, 0.00, -3.06, -17.5, 1026.7)"></path><text xml:space="preserve" font-family="Helvetica" font-size="9.0" fill="#000000" transform="matrix(3.08, 0.00, -0.00, -3.06, 739.1, 22.2)">5</text><path d="M 674.7 52.5 L 724.1 52.5 L 724.1 9.6 L 674.7 9.6 Z M 675.3 54.6 " fill="#FEFFFF"></path><path d="M 224.5 318.5 L 240.5 318.5 L 240.5 332.5 L 224.5 332.5 Z M 224.7 317.8 " fill="none" stroke="#000000" stroke-width="1.00" stroke-miterlimit="0.00" stroke-linecap="round" stroke-linejoin="round" transform="matrix(3.08, 0.00, 0.00, -3.06, -17.5, 1026.7)"></path><text xml:space="preserve" font-family="Helvetica" font-size="9.0" fill="#000000" transform="matrix(3.08, 0.00, -0.00, -3.06, 691.5, 22.2)">4</text><path d="M 628.5 52.5 L 674.7 52.5 L 674.7 9.6 L 628.5 9.6 Z M 627.6 54.6 " fill="#FEFFFF"></path><path d="M 209.5 318.5 L 224.5 318.5 L 224.5 332.5 L 209.5 332.5 Z M 209.2 317.8 " fill="none" stroke="#000000" stroke-width="1.00" stroke-miterlimit="0.00" stroke-linecap="round" stroke-linejoin="round" transform="matrix(3.08, 0.00, 0.00, -3.06, -17.5, 1026.7)"></path><text xml:space="preserve" font-family="Helvetica" font-size="9.0" fill="#000000" transform="matrix(3.08, 0.00, -0.00, -3.06, 643.8, 22.2)">3</text><path d="M 579.2 52.5 L 628.5 52.5 L 628.5 9.6 L 579.2 9.6 Z M 579.9 54.6 " fill="#FEFFFF"></path><path d="M 193.5 318.5 L 209.5 318.5 L 209.5 332.5 L 193.5 332.5 Z M 193.8 317.8 " fill="none" stroke="#000000" stroke-width="1.00" stroke-miterlimit="0.00" stroke-linecap="round" stroke-linejoin="round" transform="matrix(3.08, 0.00, 0.00, -3.06, -17.5, 1026.7)"></path><text xml:space="preserve" font-family="Helvetica" font-size="9.0" fill="#000000" transform="matrix(3.08, 0.00, -0.00, -3.06, 596.1, 22.2)">2</text><path d="M 532.9 52.5 L 579.2 52.5 L 579.2 9.6 L 532.9 9.6 Z M 532.2 54.6 " fill="#FEFFFF"></path><path d="M 178.5 318.5 L 193.5 318.5 L 193.5 332.5 L 178.5 332.5 Z M 178.3 317.8 " fill="none" stroke="#000000" stroke-width="1.00" stroke-miterlimit="0.00" stroke-linecap="round" stroke-linejoin="round" transform="matrix(3.08, 0.00, 0.00, -3.06, -17.5, 1026.7)"></path><text xml:space="preserve" font-family="Helvetica" font-size="9.0" fill="#000000" transform="matrix(3.08, 0.00, -0.00, -3.06, 548.4, 22.2)">1</text><path d="M 486.6 52.5 L 532.9 52.5 L 532.9 9.6 L 486.6 9.6 Z M 484.5 54.6 " fill="#FEFFFF"></path><path d="M 163.5 318.5 L 178.5 318.5 L 178.5 332.5 L 163.5 332.5 Z M 162.8 317.8 " fill="none" stroke="#000000" stroke-width="1.00" stroke-miterlimit="0.00" stroke-linecap="round" stroke-linejoin="round" transform="matrix(3.08, 0.00, 0.00, -3.06, -17.5, 1026.7)"></path><text xml:space="preserve" font-family="Helvetica" font-size="9.0" fill="#000000" transform="matrix(3.08, 0.00, -0.00, -3.06, 500.7, 22.2)">0</text><path d="M 1152.7 52.5 L 1195.8 52.5 L 1195.8 9.6 L 1152.7 9.6 Z M 1152.3 54.6 " fill="#FEFFFF"></path><path d="M 379.5 318.5 L 393.5 318.5 L 393.5 332.5 L 379.5 332.5 Z M 379.4 317.8 " fill="none" stroke="#000000" stroke-width="1.00" stroke-miterlimit="0.00" stroke-linecap="round" stroke-linejoin="round" transform="matrix(3.08, 0.00, 0.00, -3.06, -17.5, 1026.7)"></path><text xml:space="preserve" font-family="Helvetica" font-size="9.0" fill="#000000" transform="matrix(3.08, 0.00, -0.00, -3.06, 1169.6, 22.2)">.</text><path d="M 1106.4 52.5 L 1152.7 52.5 L 1152.7 9.6 L 1106.4 9.6 Z M 1104.6 54.6 " fill="#D5D5D5"></path><path d="M 364.5 318.5 L 379.5 318.5 L 379.5 332.5 L 364.5 332.5 Z M 363.9 317.8 " fill="none" stroke="#000000" stroke-width="1.00" stroke-miterlimit="0.00" stroke-linecap="round" stroke-linejoin="round" transform="matrix(3.08, 0.00, 0.00, -3.06, -17.5, 1026.7)"></path><text xml:space="preserve" font-family="Helvetica" font-size="9.0" fill="#000000" transform="matrix(3.08, 0.00, -0.00, -3.06, 1124.6, 22.2)">.</text><path d="M 1057.1 52.5 L 1106.4 52.5 L 1106.4 9.6 L 1057.1 9.6 Z M 1056.9 54.6 " fill="#D5D5D5"></path><path d="M 348.5 318.5 L 364.5 318.5 L 364.5 332.5 L 348.5 332.5 Z M 348.4 317.8 " fill="none" stroke="#000000" stroke-width="1.00" stroke-miterlimit="0.00" stroke-linecap="round" stroke-linejoin="round" transform="matrix(3.08, 0.00, 0.00, -3.06, -17.5, 1026.7)"></path><text xml:space="preserve" font-family="Helvetica" font-size="9.0" fill="#000000" transform="matrix(3.08, 0.00, -0.00, -3.06, 1076.9, 22.2)">.</text><path d="M 1010.8 52.5 L 1057.1 52.5 L 1057.1 9.6 L 1010.8 9.6 Z M 1009.2 54.6 " fill="#D5D5D5"></path><path d="M 333.5 318.5 L 348.5 318.5 L 348.5 332.5 L 333.5 332.5 Z M 333.0 317.8 " fill="none" stroke="#000000" stroke-width="1.00" stroke-miterlimit="0.00" stroke-linecap="round" stroke-linejoin="round" transform="matrix(3.08, 0.00, 0.00, -3.06, -17.5, 1026.7)"></path><text xml:space="preserve" font-family="Helvetica" font-size="9.0" fill="#000000" transform="matrix(3.08, 0.00, -0.00, -3.06, 1025.3, 22.2)">1</text><path d="M 961.5 52.5 L 1010.8 52.5 L 1010.8 9.6 L 961.5 9.6 Z M 961.5 54.6 " fill="#D5D5D5"></path><path d="M 317.5 318.5 L 333.5 318.5 L 333.5 332.5 L 317.5 332.5 Z M 317.5 317.8 " fill="none" stroke="#000000" stroke-width="1.00" stroke-miterlimit="0.00" stroke-linecap="round" stroke-linejoin="round" transform="matrix(3.08, 0.00, 0.00, -3.06, -17.5, 1026.7)"></path><text xml:space="preserve" font-family="Helvetica" font-size="9.0" fill="#000000" transform="matrix(3.08, 0.00, -0.00, -3.06, 977.6, 22.2)">0</text><path d="M 8.7 95.3 L 394.1 95.3 L 394.1 52.5 L 8.7 52.5 Z M 7.6 97.6 " fill="#FEFFFF"></path><path d="M 8.5 304.5 L 133.5 304.5 L 133.5 318.5 L 8.5 318.5 Z M 8.1 303.8 " fill="none" stroke="#000000" stroke-width="1.00" stroke-miterlimit="0.00" stroke-linecap="round" stroke-linejoin="round" transform="matrix(3.08, 0.00, 0.00, -3.06, -17.5, 1026.7)"></path><text xml:space="preserve" font-family="Helvetica" font-size="9.0" fill="#000000" transform="matrix(3.08, 0.00, -0.00, -3.06, 23.0, 65.2)">t</text><text xml:space="preserve" font-family="Helvetica" font-size="9.0" fill="#000000" transform="matrix(3.08, 0.00, -0.00, -3.06, 30.7, 65.2)">i</text><text xml:space="preserve" font-family="Helvetica" font-size="9.0" fill="#000000" transform="matrix(3.08, 0.00, -0.00, -3.06, 36.8, 65.2)">m</text><text xml:space="preserve" font-family="Helvetica" font-size="9.0" fill="#000000" transform="matrix(3.08, 0.00, -0.00, -3.06, 60.0, 65.2)">e</text><text xml:space="preserve" font-family="Helvetica" font-size="9.0" fill="#000000" transform="matrix(3.08, 0.00, -0.00, -3.06, 75.4, 65.2)">s</text><text xml:space="preserve" font-family="Helvetica" font-size="9.0" fill="#000000" transform="matrix(3.08, 0.00, -0.00, -3.06, 89.3, 65.2)">t</text><text xml:space="preserve" font-family="Helvetica" font-size="9.0" fill="#000000" transform="matrix(3.08, 0.00, -0.00, -3.06, 97.0, 65.2)">a</text><text xml:space="preserve" font-family="Helvetica" font-size="9.0" fill="#000000" transform="matrix(3.08, 0.00, -0.00, -3.06, 112.4, 65.2)">m</text><text xml:space="preserve" font-family="Helvetica" font-size="9.0" fill="#000000" transform="matrix(3.08, 0.00, -0.00, -3.06, 135.5, 65.2)">p</text><path d="M 394.1 95.3 L 961.5 95.3 L 961.5 52.5 L 394.1 52.5 Z M 394.6 97.6 " fill="#FEFFFF"></path><path d="M 133.5 304.5 L 317.5 304.5 L 317.5 318.5 L 133.5 318.5 Z M 133.6 303.8 " fill="none" stroke="#000000" stroke-width="1.00" stroke-miterlimit="0.00" stroke-linecap="round" stroke-linejoin="round" transform="matrix(3.08, 0.00, 0.00, -3.06, -17.5, 1026.7)"></path><text xml:space="preserve" font-family="Helvetica" font-size="9.0" fill="#000000" transform="matrix(3.08, 0.00, -0.00, -3.06, 410.0, 65.2)">i</text><text xml:space="preserve" font-family="Helvetica" font-size="9.0" fill="#000000" transform="matrix(3.08, 0.00, -0.00, -3.06, 416.2, 65.2)">d</text><text xml:space="preserve" font-family="Helvetica" font-size="9.0" fill="#000000" transform="matrix(3.08, 0.00, -0.00, -3.06, 431.6, 65.2)">e</text><text xml:space="preserve" font-family="Helvetica" font-size="9.0" fill="#000000" transform="matrix(3.08, 0.00, -0.00, -3.06, 447.0, 65.2)">n</text><text xml:space="preserve" font-family="Helvetica" font-size="9.0" fill="#000000" transform="matrix(3.08, 0.00, -0.00, -3.06, 462.5, 65.2)">t</text><text xml:space="preserve" font-family="Helvetica" font-size="9.0" fill="#000000" transform="matrix(3.08, 0.00, -0.00, -3.06, 470.2, 65.2)">i</text><text xml:space="preserve" font-family="Helvetica" font-size="9.0" fill="#000000" transform="matrix(3.08, 0.00, -0.00, -3.06, 476.4, 65.2)">t</text><text xml:space="preserve" font-family="Helvetica" font-size="9.0" fill="#000000" transform="matrix(3.08, 0.00, -0.00, -3.06, 484.1, 65.2)">y</text><path d="M 961.5 95.3 L 1195.8 95.3 L 1195.8 52.5 L 961.5 52.5 Z M 961.5 97.6 " fill="#FEFFFF"></path><path d="M 317.5 304.5 L 393.5 304.5 L 393.5 318.5 L 317.5 318.5 Z M 317.5 303.8 " fill="none" stroke="#000000" stroke-width="1.00" stroke-miterlimit="0.00" stroke-linecap="round" stroke-linejoin="round" transform="matrix(3.08, 0.00, 0.00, -3.06, -17.5, 1026.7)"></path><text xml:space="preserve" font-family="Helvetica" font-size="9.0" fill="#000000" transform="matrix(3.08, 0.00, -0.00, -3.06, 976.9, 65.2)">p</text><text xml:space="preserve" font-family="Helvetica" font-size="9.0" fill="#000000" transform="matrix(3.08, 0.00, -0.00, -3.06, 992.4, 65.2)">a</text><text xml:space="preserve" font-family="Helvetica" font-size="9.0" fill="#000000" transform="matrix(3.08, 0.00, -0.00, -3.06, 1007.8, 65.2)">r</text><text xml:space="preserve" font-family="Helvetica" font-size="9.0" fill="#000000" transform="matrix(3.08, 0.00, -0.00, -3.06, 1017.0, 65.2)">t</text><text xml:space="preserve" font-family="Helvetica" font-size="9.0" fill="#000000" transform="matrix(3.08, 0.00, -0.00, -3.06, 1024.7, 65.2)">i</text><text xml:space="preserve" font-family="Helvetica" font-size="9.0" fill="#000000" transform="matrix(3.08, 0.00, -0.00, -3.06, 1030.9, 65.2)">c</text><text xml:space="preserve" font-family="Helvetica" font-size="9.0" fill="#000000" transform="matrix(3.08, 0.00, -0.00, -3.06, 1044.8, 65.2)">l</text><text xml:space="preserve" font-family="Helvetica" font-size="9.0" fill="#000000" transform="matrix(3.08, 0.00, -0.00, -3.06, 1051.0, 65.2)">e</text><text xml:space="preserve" font-family="Helvetica" font-size="9.0" fill="#000000" transform="matrix(3.08, 0.00, -0.00, -3.06, 1066.4, 65.2)">s</text><path d="M 1692.3 52.5 L 1769.4 52.5 L 1769.4 9.6 L 1692.3 9.6 Z M 1690.0 54.6 " fill="#FEFFFF"></path><path d="M 554.5 318.5 L 579.5 318.5 L 579.5 332.5 L 554.5 332.5 Z M 553.8 317.8 " fill="none" stroke="#000000" stroke-width="1.00" stroke-miterlimit="0.00" stroke-linecap="round" stroke-linejoin="round" transform="matrix(3.08, 0.00, 0.00, -3.06, -17.5, 1026.7)"></path><text xml:space="preserve" font-family="Helvetica" font-size="9.0" fill="#000000" transform="matrix(3.08, 0.00, -0.00, -3.06, 1695.3, 22.2)">v</text><text xml:space="preserve" font-family="Helvetica" font-size="9.0" fill="#000000" transform="matrix(3.08, 0.00, -0.00, -3.06, 1709.2, 22.2)">a</text><text xml:space="preserve" font-family="Helvetica" font-size="9.0" fill="#000000" transform="matrix(3.08, 0.00, -0.00, -3.06, 1724.7, 22.2)">l</text><text xml:space="preserve" font-family="Helvetica" font-size="9.0" fill="#000000" transform="matrix(3.08, 0.00, -0.00, -3.06, 1730.8, 22.2)">u</text><text xml:space="preserve" font-family="Helvetica" font-size="9.0" fill="#000000" transform="matrix(3.08, 0.00, -0.00, -3.06, 1746.3, 22.2)">e</text><path d="M 1538.1 52.5 L 1615.2 52.5 L 1615.2 9.6 L 1538.1 9.6 Z M 1535.8 54.6 " fill="#FEFFFF"></path><path d="M 504.5 318.5 L 529.5 318.5 L 529.5 332.5 L 504.5 332.5 Z M 503.8 317.8 " fill="none" stroke="#000000" stroke-width="1.00" stroke-miterlimit="0.00" stroke-linecap="round" stroke-linejoin="round" transform="matrix(3.08, 0.00, 0.00, -3.06, -17.5, 1026.7)"></path><text xml:space="preserve" font-family="Helvetica" font-size="9.0" fill="#000000" transform="matrix(3.08, 0.00, -0.00, -3.06, 1540.4, 22.2)">c</text><text xml:space="preserve" font-family="Helvetica" font-size="9.0" fill="#000000" transform="matrix(3.08, 0.00, -0.00, -3.06, 1554.3, 22.2)">o</text><text xml:space="preserve" font-family="Helvetica" font-size="9.0" fill="#000000" transform="matrix(3.08, 0.00, -0.00, -3.06, 1569.7, 22.2)">u</text><text xml:space="preserve" font-family="Helvetica" font-size="9.0" fill="#000000" transform="matrix(3.08, 0.00, -0.00, -3.06, 1585.2, 22.2)">n</text><text xml:space="preserve" font-family="Helvetica" font-size="9.0" fill="#000000" transform="matrix(3.08, 0.00, -0.00, -3.06, 1600.6, 22.2)">t</text><path d="M 1482.6 52.5 L 1538.1 52.5 L 1538.1 9.6 L 1482.6 9.6 Z M 1480.9 54.6 " fill="#FEFFFF"></path><path d="M 486.5 318.5 L 504.5 318.5 L 504.5 332.5 L 486.5 332.5 Z M 485.9 317.8 " fill="none" stroke="#000000" stroke-width="1.00" stroke-miterlimit="0.00" stroke-linecap="round" stroke-linejoin="round" transform="matrix(3.08, 0.00, 0.00, -3.06, -17.5, 1026.7)"></path><text xml:space="preserve" font-family="Helvetica" font-size="9.0" fill="#000000" transform="matrix(3.08, 0.00, -0.00, -3.06, 1482.4, 22.2)">m</text><text xml:space="preserve" font-family="Helvetica" font-size="9.0" fill="#000000" transform="matrix(3.08, 0.00, -0.00, -3.06, 1505.5, 22.2)">a</text><text xml:space="preserve" font-family="Helvetica" font-size="9.0" fill="#000000" transform="matrix(3.08, 0.00, -0.00, -3.06, 1521.0, 22.2)">x</text><path d="M 1430.2 52.5 L 1482.6 52.5 L 1482.6 9.6 L 1430.2 9.6 Z M 1427.9 54.6 " fill="#FEFFFF"></path><path d="M 469.5 318.5 L 486.5 318.5 L 486.5 332.5 L 469.5 332.5 Z M 468.8 317.8 " fill="none" stroke="#000000" stroke-width="1.00" stroke-miterlimit="0.00" stroke-linecap="round" stroke-linejoin="round" transform="matrix(3.08, 0.00, 0.00, -3.06, -17.5, 1026.7)"></path><text xml:space="preserve" font-family="Helvetica" font-size="9.0" fill="#000000" transform="matrix(3.08, 0.00, -0.00, -3.06, 1432.0, 22.2)">m</text><text xml:space="preserve" font-family="Helvetica" font-size="9.0" fill="#000000" transform="matrix(3.08, 0.00, -0.00, -3.06, 1455.1, 22.2)">i</text><text xml:space="preserve" font-family="Helvetica" font-size="9.0" fill="#000000" transform="matrix(3.08, 0.00, -0.00, -3.06, 1461.3, 22.2)">n</text><path d="M 1430.2 98.4 L 1766.3 98.4 L 1766.3 52.5 L 1430.2 52.5 Z M 1427.9 97.6 " fill="#FEFFFF"></path><path d="M 469.5 303.5 L 578.5 303.5 L 578.5 318.5 L 469.5 318.5 Z M 468.8 303.7 " fill="none" stroke="#000000" stroke-width="1.00" stroke-miterlimit="0.00" stroke-linecap="round" stroke-linejoin="round" transform="matrix(3.08, 0.00, 0.00, -3.06, -17.5, 1026.7)"></path><text xml:space="preserve" font-family="Helvetica" font-size="9.0" fill="#000000" transform="matrix(3.08, 0.00, -0.00, -3.06, 1443.3, 65.3)">q</text><text xml:space="preserve" font-family="Helvetica" font-size="9.0" fill="#000000" transform="matrix(3.08, 0.00, -0.00, -3.06, 1458.7, 65.3)">u</text><text xml:space="preserve" font-family="Helvetica" font-size="9.0" fill="#000000" transform="matrix(3.08, 0.00, -0.00, -3.06, 1474.2, 65.3)">a</text><text xml:space="preserve" font-family="Helvetica" font-size="9.0" fill="#000000" transform="matrix(3.08, 0.00, -0.00, -3.06, 1489.6, 65.3)">r</text><text xml:space="preserve" font-family="Helvetica" font-size="9.0" fill="#000000" transform="matrix(3.08, 0.00, -0.00, -3.06, 1498.9, 65.3)">k</text><path d="M 1615.2 52.5 L 1692.3 52.5 L 1692.3 9.6 L 1615.2 9.6 Z M 1612.9 54.2 " fill="#FEFFFF"></path><path d="M 529.5 318.5 L 554.5 318.5 L 554.5 332.5 L 529.5 332.5 Z M 528.8 317.9 " fill="none" stroke="#000000" stroke-width="1.00" stroke-miterlimit="0.00" stroke-linecap="round" stroke-linejoin="round" transform="matrix(3.08, 0.00, 0.00, -3.06, -17.5, 1026.7)"></path><text xml:space="preserve" font-family="Helvetica" font-size="9.0" fill="#000000" transform="matrix(3.08, 0.00, -0.00, -3.06, 1625.2, 22.1)">s</text><text xml:space="preserve" font-family="Helvetica" font-size="9.0" fill="#000000" transform="matrix(3.08, 0.00, -0.00, -3.06, 1639.1, 22.1)">u</text><text xml:space="preserve" font-family="Helvetica" font-size="9.0" fill="#000000" transform="matrix(3.08, 0.00, -0.00, -3.06, 1654.5, 22.1)">m</text><path d="M 1195.8 98.4 L 1430.2 98.4 L 1430.2 52.5 L 1195.8 52.5 Z M 1194.7 97.6 " fill="#FEFFFF"></path><path d="M 393.5 303.5 L 469.5 303.5 L 469.5 318.5 L 393.5 318.5 Z M 393.1 303.7 " fill="none" stroke="#000000" stroke-width="1.00" stroke-miterlimit="0.00" stroke-linecap="round" stroke-linejoin="round" transform="matrix(3.08, 0.00, 0.00, -3.06, -17.5, 1026.7)"></path><text xml:space="preserve" font-family="Helvetica" font-size="9.0" fill="#000000" transform="matrix(3.08, 0.00, -0.00, -3.06, 1210.1, 65.3)">ﬁ</text><text xml:space="preserve" font-family="Helvetica" font-size="9.0" fill="#000000" transform="matrix(3.08, 0.00, -0.00, -3.06, 1224.0, 65.3)">e</text><text xml:space="preserve" font-family="Helvetica" font-size="9.0" fill="#000000" transform="matrix(3.08, 0.00, -0.00, -3.06, 1239.4, 65.3)">l</text><text xml:space="preserve" font-family="Helvetica" font-size="9.0" fill="#000000" transform="matrix(3.08, 0.00, -0.00, -3.06, 1245.6, 65.3)">d</text><text xml:space="preserve" font-family="Helvetica" font-size="9.0" fill="#000000" transform="matrix(3.08, 0.00, -0.00, -3.06, 1261.0, 65.3)">s</text><path d="M 1387.0 52.5 L 1427.1 52.5 L 1427.1 9.6 L 1387.0 9.6 Z M 1385.5 54.2 " fill="#FEFFFF"></path><path d="M 455.5 318.5 L 468.5 318.5 L 468.5 332.5 L 455.5 332.5 Z M 455.0 317.9 " fill="none" stroke="#000000" stroke-width="1.00" stroke-miterlimit="0.00" stroke-linecap="round" stroke-linejoin="round" transform="matrix(3.08, 0.00, 0.00, -3.06, -17.5, 1026.7)"></path><text xml:space="preserve" font-family="Helvetica" font-size="9.0" fill="#000000" transform="matrix(3.08, 0.00, -0.00, -3.06, 1402.8, 21.9)">.</text><path d="M 1337.7 52.5 L 1387.0 52.5 L 1387.0 9.6 L 1337.7 9.6 Z M 1337.8 54.2 " fill="#D5D5D5"></path><path d="M 439.5 318.5 L 455.5 318.5 L 455.5 332.5 L 439.5 332.5 Z M 439.5 317.9 " fill="none" stroke="#000000" stroke-width="1.00" stroke-miterlimit="0.00" stroke-linecap="round" stroke-linejoin="round" transform="matrix(3.08, 0.00, 0.00, -3.06, -17.5, 1026.7)"></path><text xml:space="preserve" font-family="Helvetica" font-size="9.0" fill="#000000" transform="matrix(3.08, 0.00, -0.00, -3.06, 1357.8, 21.9)">.</text><path d="M 1291.4 52.5 L 1337.7 52.5 L 1337.7 9.6 L 1291.4 9.6 Z M 1290.1 54.2 " fill="#D5D5D5"></path><path d="M 424.5 318.5 L 439.5 318.5 L 439.5 332.5 L 424.5 332.5 Z M 424.1 317.9 " fill="none" stroke="#000000" stroke-width="1.00" stroke-miterlimit="0.00" stroke-linecap="round" stroke-linejoin="round" transform="matrix(3.08, 0.00, 0.00, -3.06, -17.5, 1026.7)"></path><text xml:space="preserve" font-family="Helvetica" font-size="9.0" fill="#000000" transform="matrix(3.08, 0.00, -0.00, -3.06, 1310.1, 21.9)">.</text><path d="M 1242.1 52.5 L 1291.4 52.5 L 1291.4 9.6 L 1242.1 9.6 Z M 1242.4 54.2 " fill="#D5D5D5"></path><path d="M 408.5 318.5 L 424.5 318.5 L 424.5 332.5 L 408.5 332.5 Z M 408.6 317.9 " fill="none" stroke="#000000" stroke-width="1.00" stroke-miterlimit="0.00" stroke-linecap="round" stroke-linejoin="round" transform="matrix(3.08, 0.00, 0.00, -3.06, -17.5, 1026.7)"></path><text xml:space="preserve" font-family="Helvetica" font-size="9.0" fill="#000000" transform="matrix(3.08, 0.00, -0.00, -3.06, 1258.5, 21.9)">1</text><path d="M 1195.8 52.5 L 1242.1 52.5 L 1242.1 9.6 L 1195.8 9.6 Z M 1194.7 54.2 " fill="#D5D5D5"></path><path d="M 393.5 318.5 L 408.5 318.5 L 408.5 332.5 L 393.5 332.5 Z M 393.1 317.9 " fill="none" stroke="#000000" stroke-width="1.00" stroke-miterlimit="0.00" stroke-linecap="round" stroke-linejoin="round" transform="matrix(3.08, 0.00, 0.00, -3.06, -17.5, 1026.7)"></path><text xml:space="preserve" font-family="Helvetica" font-size="9.0" fill="#000000" transform="matrix(3.08, 0.00, -0.00, -3.06, 1210.8, 21.9)">0</text></g></g></g></g></g></svg>