<?xml version="1.0" encoding="UTF-8" standalone="no"?><svg xmlns="http://www.w3.org/2000/svg" xmlns:xlink="http://www.w3.org/1999/xlink" clip-rule="evenodd" stroke-miterlimit="4.00" viewBox="0 0 1245 73"><desc>SVG generated by Keynote</desc><defs></defs><g transform="matrix(1.00, 0.00, -0.00, -1.00, 0.0, 73.0)"><image xlink:href="../../B65A3EFF-55B7-40CB-9891-7013BCBCD104/assets/C408D916F2FD636EEA4B1B1A9C0FAEF6.png" width="1242.00" height="70.00" transform="matrix(1.00, 0.00, -0.00, -1.00, 1.0, 72.0)"></image><text xml:space="preserve" font-family="HelveticaNeue-Light" font-size="65.0" fill="#FEFFFE" transform="matrix(1.00, 0.00, -0.00, -1.00, 6.0, 23.0)">T</text><text xml:space="preserve" font-family="HelveticaNeue-Light" font-size="65.0" fill="#FEFFFE" transform="matrix(1.00, 0.00, -0.00, -1.00, 43.7, 23.0)">i</text><text xml:space="preserve" font-family="HelveticaNeue-Light" font-size="65.0" fill="#FEFFFE" transform="matrix(1.00, 0.00, -0.00, -1.00, 55.7, 23.0)">m</text><text xml:space="preserve" font-family="HelveticaNeue-Light" font-size="65.0" fill="#FEFFFE" transform="matrix(1.00, 0.00, -0.00, -1.00, 109.9, 23.0)">e</text><text xml:space="preserve" font-family="HelveticaNeue-Light" font-size="65.0" fill="#FEFFFE" transform="matrix(1.00, 0.00, -0.00, -1.00, 143.6, 23.0)"> </text><text xml:space="preserve" font-family="HelveticaNeue-Light" font-size="65.0" fill="#FEFFFE" transform="matrix(1.00, 0.00, -0.00, -1.00, 161.7, 23.0)">S</text><text xml:space="preserve" font-family="HelveticaNeue-Light" font-size="65.0" fill="#FEFFFE" transform="matrix(1.00, 0.00, -0.00, -1.00, 202.6, 23.0)">e</text><text xml:space="preserve" font-family="HelveticaNeue-Light" font-size="65.0" fill="#FEFFFE" transform="matrix(1.00, 0.00, -0.00, -1.00, 236.4, 23.0)">r</text><text xml:space="preserve" font-family="HelveticaNeue-Light" font-size="65.0" fill="#FEFFFE" transform="matrix(1.00, 0.00, -0.00, -1.00, 256.8, 23.0)">i</text><text xml:space="preserve" font-family="HelveticaNeue-Light" font-size="65.0" fill="#FEFFFE" transform="matrix(1.00, 0.00, -0.00, -1.00, 268.9, 23.0)">e</text><text xml:space="preserve" font-family="HelveticaNeue-Light" font-size="65.0" fill="#FEFFFE" transform="matrix(1.00, 0.00, -0.00, -1.00, 302.6, 23.0)">s</text><text xml:space="preserve" font-family="HelveticaNeue-Light" font-size="65.0" fill="#FEFFFE" transform="matrix(1.00, 0.00, -0.00, -1.00, 333.9, 23.0)"> </text><text xml:space="preserve" font-family="HelveticaNeue-Light" font-size="65.0" fill="#FEFFFE" transform="matrix(1.00, 0.00, -0.00, -1.00, 351.9, 23.0)">-</text><text xml:space="preserve" font-family="HelveticaNeue-Light" font-size="65.0" fill="#FEFFFE" transform="matrix(1.00, 0.00, -0.00, -1.00, 376.0, 23.0)"> </text><text xml:space="preserve" font-family="HelveticaNeue-Light" font-size="65.0" fill="#FEFFFE" transform="matrix(1.00, 0.00, -0.00, -1.00, 394.1, 23.0)">S</text><text xml:space="preserve" font-family="HelveticaNeue-Light" font-size="65.0" fill="#FEFFFE" transform="matrix(1.00, 0.00, -0.00, -1.00, 435.0, 23.0)">i</text><text xml:space="preserve" font-family="HelveticaNeue-Light" font-size="65.0" fill="#FEFFFE" transform="matrix(1.00, 0.00, -0.00, -1.00, 447.0, 23.0)">n</text><text xml:space="preserve" font-family="HelveticaNeue-Light" font-size="65.0" fill="#FEFFFE" transform="matrix(1.00, 0.00, -0.00, -1.00, 481.9, 23.0)">g</text><text xml:space="preserve" font-family="HelveticaNeue-Light" font-size="65.0" fill="#FEFFFE" transform="matrix(1.00, 0.00, -0.00, -1.00, 518.1, 23.0)">l</text><text xml:space="preserve" font-family="HelveticaNeue-Light" font-size="65.0" fill="#FEFFFE" transform="matrix(1.00, 0.00, -0.00, -1.00, 530.1, 23.0)">e</text><text xml:space="preserve" font-family="HelveticaNeue-Light" font-size="65.0" fill="#FEFFFE" transform="matrix(1.00, 0.00, -0.00, -1.00, 563.8, 23.0)"> </text><text xml:space="preserve" font-family="HelveticaNeue-Light" font-size="65.0" fill="#FEFFFE" transform="matrix(1.00, 0.00, -0.00, -1.00, 581.9, 23.0)">m</text><text xml:space="preserve" font-family="HelveticaNeue-Light" font-size="65.0" fill="#FEFFFE" transform="matrix(1.00, 0.00, -0.00, -1.00, 636.0, 23.0)">e</text><text xml:space="preserve" font-family="HelveticaNeue-Light" font-size="65.0" fill="#FEFFFE" transform="matrix(1.00, 0.00, -0.00, -1.00, 669.8, 23.0)">a</text><text xml:space="preserve" font-family="HelveticaNeue-Light" font-size="65.0" fill="#FEFFFE" transform="matrix(1.00, 0.00, -0.00, -1.00, 703.5, 23.0)">s</text><text xml:space="preserve" font-family="HelveticaNeue-Light" font-size="65.0" fill="#FEFFFE" transform="matrix(1.00, 0.00, -0.00, -1.00, 734.8, 23.0)">u</text><text xml:space="preserve" font-family="HelveticaNeue-Light" font-size="65.0" fill="#FEFFFE" transform="matrix(1.00, 0.00, -0.00, -1.00, 769.7, 23.0)">r</text><text xml:space="preserve" font-family="HelveticaNeue-Light" font-size="65.0" fill="#FEFFFE" transform="matrix(1.00, 0.00, -0.00, -1.00, 789.0, 23.0)">e</text><text xml:space="preserve" font-family="HelveticaNeue-Light" font-size="65.0" fill="#FEFFFE" transform="matrix(1.00, 0.00, -0.00, -1.00, 822.7, 23.0)">m</text><text xml:space="preserve" font-family="HelveticaNeue-Light" font-size="65.0" fill="#FEFFFE" transform="matrix(1.00, 0.00, -0.00, -1.00, 876.9, 23.0)">e</text><text xml:space="preserve" font-family="HelveticaNeue-Light" font-size="65.0" fill="#FEFFFE" transform="matrix(1.00, 0.00, -0.00, -1.00, 910.6, 23.0)">n</text><text xml:space="preserve" font-family="HelveticaNeue-Light" font-size="65.0" fill="#FEFFFE" transform="matrix(1.00, 0.00, -0.00, -1.00, 945.5, 23.0)">t</text><text xml:space="preserve" font-family="HelveticaNeue-Light" font-size="65.0" fill="#FEFFFE" transform="matrix(1.00, 0.00, -0.00, -1.00, 964.8, 23.0)"> </text><text xml:space="preserve" font-family="HelveticaNeue-Light" font-size="65.0" fill="#FEFFFE" transform="matrix(1.00, 0.00, -0.00, -1.00, 982.8, 23.0)">o</text><text xml:space="preserve" font-family="HelveticaNeue-Light" font-size="65.0" fill="#FEFFFE" transform="matrix(1.00, 0.00, -0.00, -1.00, 1019.0, 23.0)">v</text><text xml:space="preserve" font-family="HelveticaNeue-Light" font-size="65.0" fill="#FEFFFE" transform="matrix(1.00, 0.00, -0.00, -1.00, 1049.1, 23.0)">e</text><text xml:space="preserve" font-family="HelveticaNeue-Light" font-size="65.0" fill="#FEFFFE" transform="matrix(1.00, 0.00, -0.00, -1.00, 1082.8, 23.0)">r</text><text xml:space="preserve" font-family="HelveticaNeue-Light" font-size="65.0" fill="#FEFFFE" transform="matrix(1.00, 0.00, -0.00, -1.00, 1103.3, 23.0)"> </text><text xml:space="preserve" font-family="HelveticaNeue-Light" font-size="65.0" fill="#FEFFFE" transform="matrix(1.00, 0.00, -0.00, -1.00, 1121.3, 23.0)">t</text><text xml:space="preserve" font-family="HelveticaNeue-Light" font-size="65.0" fill="#FEFFFE" transform="matrix(1.00, 0.00, -0.00, -1.00, 1140.6, 23.0)">i</text><text xml:space="preserve" font-family="HelveticaNeue-Light" font-size="65.0" fill="#FEFFFE" transform="matrix(1.00, 0.00, -0.00, -1.00, 1152.6, 23.0)">m</text><text xml:space="preserve" font-family="HelveticaNeue-Light" font-size="65.0" fill="#FEFFFE" transform="matrix(1.00, 0.00, -0.00, -1.00, 1206.7, 23.0)">e</text></g></svg>