<?xml version="1.0" encoding="UTF-8" standalone="no"?><svg xmlns="http://www.w3.org/2000/svg" xmlns:xlink="http://www.w3.org/1999/xlink" clip-rule="evenodd" stroke-miterlimit="4.00" viewBox="0 0 1920 1080"><desc>SVG generated by Keynote</desc><defs></defs><g transform="matrix(1.00, 0.00, -0.00, -1.00, 0.0, 1080.0)"><g><clipPath id="clip-228"><path d="M 0.0 1080.0 L 1920.0 1080.0 L 1920.0 0.0 L 0.0 0.0 Z M 0.0 1080.0 "></path></clipPath><g clip-path="url(#clip-228)"><image xlink:href="../../A172C229-966A-4E8A-A457-DFB78DE74FB5/assets/4E6DE69724E5577B4EF4A0F429FFC101.jpeg" width="1365.00" height="767.00" transform="matrix(1.41, 0.00, -0.00, -1.41, 0.0, 1080.0)"></image></g></g><image xlink:href="../../EFC2B0EB-75A5-4992-88C6-D29D7AD34125/assets/2080D6BBCABD40E6DC1D53A4D8AD09F4.png" width="292.00" height="82.00" transform="matrix(1.00, 0.00, -0.00, -1.00, 815.0, 952.0)"></image><text xml:space="preserve" font-family="HelveticaNeue-Light" font-size="100.0" fill="#FEFFFE" transform="matrix(1.00, 0.00, -0.00, -1.00, 812.0, 879.0)">F</text><text xml:space="preserve" font-family="HelveticaNeue-Light" font-size="100.0" fill="#FEFFFE" transform="matrix(1.00, 0.00, -0.00, -1.00, 865.7, 879.0)">i</text><text xml:space="preserve" font-family="HelveticaNeue-Light" font-size="100.0" fill="#FEFFFE" transform="matrix(1.00, 0.00, -0.00, -1.00, 884.2, 879.0)">s</text><text xml:space="preserve" font-family="HelveticaNeue-Light" font-size="100.0" fill="#FEFFFE" transform="matrix(1.00, 0.00, -0.00, -1.00, 932.3, 879.0)">s</text><text xml:space="preserve" font-family="HelveticaNeue-Light" font-size="100.0" fill="#FEFFFE" transform="matrix(1.00, 0.00, -0.00, -1.00, 980.4, 879.0)">i</text><text xml:space="preserve" font-family="HelveticaNeue-Light" font-size="100.0" fill="#FEFFFE" transform="matrix(1.00, 0.00, -0.00, -1.00, 998.9, 879.0)">o</text><text xml:space="preserve" font-family="HelveticaNeue-Light" font-size="100.0" fill="#FEFFFE" transform="matrix(1.00, 0.00, -0.00, -1.00, 1054.5, 879.0)">n</text><image xlink:href="../../617D5899-0F60-416E-B492-170457BA770B/assets/661B867FED4C85CE9D2F754DB55D060D.png" width="132.00" height="51.00" transform="matrix(1.00, 0.00, -0.00, -1.00, 404.0, 631.0)"></image><text xml:space="preserve" font-family="HelveticaNeue-Light" font-size="58.0" fill="#F38F18" transform="matrix(1.00, 0.00, -0.00, -1.00, 407.0, 588.0)">c</text><text xml:space="preserve" font-family="HelveticaNeue-Light" font-size="58.0" fill="#F38F18" transform="matrix(1.00, 0.00, -0.00, -1.00, 437.1, 588.0)">l</text><text xml:space="preserve" font-family="HelveticaNeue-Light" font-size="58.0" fill="#F38F18" transform="matrix(1.00, 0.00, -0.00, -1.00, 447.8, 588.0)">a</text><text xml:space="preserve" font-family="HelveticaNeue-Light" font-size="58.0" fill="#F38F18" transform="matrix(1.00, 0.00, -0.00, -1.00, 477.9, 588.0)">s</text><text xml:space="preserve" font-family="HelveticaNeue-Light" font-size="58.0" fill="#F38F18" transform="matrix(1.00, 0.00, -0.00, -1.00, 505.8, 588.0)">s</text><text xml:space="preserve" font-family="HelveticaNeue-Light" font-size="58.0" fill="#FEFFFE" transform="matrix(1.00, 0.00, -0.00, -1.00, 533.7, 588.0)"> </text><image xlink:href="../../EFC2B0EB-75A5-4992-88C6-D29D7AD34125/assets/23B0B019E82892480FB2E690BF031681.png" width="439.00" height="63.00" transform="matrix(1.00, 0.00, -0.00, -1.00, 550.0, 632.0)"></image><text xml:space="preserve" font-family="HelveticaNeue-Light" font-size="58.0" fill="#19931F" transform="matrix(1.00, 0.00, -0.00, -1.00, 549.9, 588.0)">K</text><text xml:space="preserve" font-family="HelveticaNeue-Light" font-size="58.0" fill="#19931F" transform="matrix(1.00, 0.00, -0.00, -1.00, 587.4, 588.0)">e</text><text xml:space="preserve" font-family="HelveticaNeue-Light" font-size="58.0" fill="#19931F" transform="matrix(1.00, 0.00, -0.00, -1.00, 617.5, 588.0)">y</text><text xml:space="preserve" font-family="HelveticaNeue-Light" font-size="58.0" fill="#19931F" transform="matrix(1.00, 0.00, -0.00, -1.00, 644.4, 588.0)">n</text><text xml:space="preserve" font-family="HelveticaNeue-Light" font-size="58.0" fill="#19931F" transform="matrix(1.00, 0.00, -0.00, -1.00, 675.5, 588.0)">a</text><text xml:space="preserve" font-family="HelveticaNeue-Light" font-size="58.0" fill="#19931F" transform="matrix(1.00, 0.00, -0.00, -1.00, 705.6, 588.0)">m</text><text xml:space="preserve" font-family="HelveticaNeue-Light" font-size="58.0" fill="#19931F" transform="matrix(1.00, 0.00, -0.00, -1.00, 754.0, 588.0)">e</text><text xml:space="preserve" font-family="HelveticaNeue-Light" font-size="58.0" fill="#19931F" transform="matrix(1.00, 0.00, -0.00, -1.00, 784.1, 588.0)">C</text><text xml:space="preserve" font-family="HelveticaNeue-Light" font-size="58.0" fill="#19931F" transform="matrix(1.00, 0.00, -0.00, -1.00, 824.9, 588.0)">o</text><text xml:space="preserve" font-family="HelveticaNeue-Light" font-size="58.0" fill="#19931F" transform="matrix(1.00, 0.00, -0.00, -1.00, 857.1, 588.0)">u</text><text xml:space="preserve" font-family="HelveticaNeue-Light" font-size="58.0" fill="#19931F" transform="matrix(1.00, 0.00, -0.00, -1.00, 888.3, 588.0)">n</text><text xml:space="preserve" font-family="HelveticaNeue-Light" font-size="58.0" fill="#19931F" transform="matrix(1.00, 0.00, -0.00, -1.00, 919.4, 588.0)">t</text><text xml:space="preserve" font-family="HelveticaNeue-Light" font-size="58.0" fill="#19931F" transform="matrix(1.00, 0.00, -0.00, -1.00, 936.6, 588.0)">e</text><text xml:space="preserve" font-family="HelveticaNeue-Light" font-size="58.0" fill="#19931F" transform="matrix(1.00, 0.00, -0.00, -1.00, 966.7, 588.0)">r</text><text xml:space="preserve" font-family="HelveticaNeue-Light" font-size="58.0" fill="#FEFFFE" transform="matrix(1.00, 0.00, -0.00, -1.00, 985.0, 588.0)"> </text><image xlink:href="../../EFC2B0EB-75A5-4992-88C6-D29D7AD34125/assets/3DAB486BB06150998BAEEF5A9D6FC3F9.png" width="292.00" height="62.00" transform="matrix(1.00, 0.00, -0.00, -1.00, 1000.0, 631.0)"></image><text xml:space="preserve" font-family="HelveticaNeue-Light" font-size="58.0" fill="#F38F18" transform="matrix(1.00, 0.00, -0.00, -1.00, 1001.1, 588.0)">i</text><text xml:space="preserve" font-family="HelveticaNeue-Light" font-size="58.0" fill="#F38F18" transform="matrix(1.00, 0.00, -0.00, -1.00, 1011.8, 588.0)">m</text><text xml:space="preserve" font-family="HelveticaNeue-Light" font-size="58.0" fill="#F38F18" transform="matrix(1.00, 0.00, -0.00, -1.00, 1060.1, 588.0)">p</text><text xml:space="preserve" font-family="HelveticaNeue-Light" font-size="58.0" fill="#F38F18" transform="matrix(1.00, 0.00, -0.00, -1.00, 1093.4, 588.0)">l</text><text xml:space="preserve" font-family="HelveticaNeue-Light" font-size="58.0" fill="#F38F18" transform="matrix(1.00, 0.00, -0.00, -1.00, 1104.2, 588.0)">e</text><text xml:space="preserve" font-family="HelveticaNeue-Light" font-size="58.0" fill="#F38F18" transform="matrix(1.00, 0.00, -0.00, -1.00, 1134.3, 588.0)">m</text><text xml:space="preserve" font-family="HelveticaNeue-Light" font-size="58.0" fill="#F38F18" transform="matrix(1.00, 0.00, -0.00, -1.00, 1182.6, 588.0)">e</text><text xml:space="preserve" font-family="HelveticaNeue-Light" font-size="58.0" fill="#F38F18" transform="matrix(1.00, 0.00, -0.00, -1.00, 1212.7, 588.0)">n</text><text xml:space="preserve" font-family="HelveticaNeue-Light" font-size="58.0" fill="#F38F18" transform="matrix(1.00, 0.00, -0.00, -1.00, 1243.8, 588.0)">t</text><text xml:space="preserve" font-family="HelveticaNeue-Light" font-size="58.0" fill="#F38F18" transform="matrix(1.00, 0.00, -0.00, -1.00, 1261.0, 588.0)">s</text><text xml:space="preserve" font-family="HelveticaNeue-Light" font-size="58.0" fill="#FEFFFE" transform="matrix(1.00, 0.00, -0.00, -1.00, 1288.9, 588.0)"> </text><image xlink:href="../../EFC2B0EB-75A5-4992-88C6-D29D7AD34125/assets/E63C71ABDA9F4E102C734F0F6C9FCE1D.png" width="173.00" height="51.00" transform="matrix(1.00, 0.00, -0.00, -1.00, 1305.0, 631.0)"></image><text xml:space="preserve" font-family="HelveticaNeue-Light" font-size="58.0" fill="#C82505" transform="matrix(1.00, 0.00, -0.00, -1.00, 1305.0, 588.0)">F</text><text xml:space="preserve" font-family="HelveticaNeue-Light" font-size="58.0" fill="#C82505" transform="matrix(1.00, 0.00, -0.00, -1.00, 1336.2, 588.0)">i</text><text xml:space="preserve" font-family="HelveticaNeue-Light" font-size="58.0" fill="#C82505" transform="matrix(1.00, 0.00, -0.00, -1.00, 1346.9, 588.0)">s</text><text xml:space="preserve" font-family="HelveticaNeue-Light" font-size="58.0" fill="#C82505" transform="matrix(1.00, 0.00, -0.00, -1.00, 1374.8, 588.0)">s</text><text xml:space="preserve" font-family="HelveticaNeue-Light" font-size="58.0" fill="#C82505" transform="matrix(1.00, 0.00, -0.00, -1.00, 1402.7, 588.0)">i</text><text xml:space="preserve" font-family="HelveticaNeue-Light" font-size="58.0" fill="#C82505" transform="matrix(1.00, 0.00, -0.00, -1.00, 1413.4, 588.0)">o</text><text xml:space="preserve" font-family="HelveticaNeue-Light" font-size="58.0" fill="#C82505" transform="matrix(1.00, 0.00, -0.00, -1.00, 1445.7, 588.0)">n</text><image xlink:href="../../EFC2B0EB-75A5-4992-88C6-D29D7AD34125/assets/7619DE810D5A559841FD5B1651E93AFE.png" width="21.00" height="63.00" transform="matrix(1.00, 0.00, -0.00, -1.00, 1493.0, 632.0)"></image><text xml:space="preserve" font-family="HelveticaNeue-Light" font-size="58.0" fill="#FEFFFE" transform="matrix(1.00, 0.00, -0.00, -1.00, 1476.8, 588.0)"> </text><text xml:space="preserve" font-family="HelveticaNeue-Light" font-size="58.0" fill="#FEFFFE" transform="matrix(1.00, 0.00, -0.00, -1.00, 1492.9, 588.0)">{</text><text xml:space="preserve" font-family="HelveticaNeue-Light" font-size="58.0" fill="#FEFFFE" transform="matrix(1.00, 0.00, -0.00, -1.00, 1512.2, 588.0)"> </text><image xlink:href="../../EFC2B0EB-75A5-4992-88C6-D29D7AD34125/assets/C174B2C6F8086677DA52A2F8F8419FE1.png" width="170.00" height="51.00" transform="matrix(1.00, 0.00, -0.00, -1.00, 538.0, 561.0)"></image><text xml:space="preserve" font-family="HelveticaNeue-Light" font-size="58.0" fill="#1497FC" transform="matrix(1.00, 0.00, -0.00, -1.00, 543.0, 518.0)">A</text><text xml:space="preserve" font-family="HelveticaNeue-Light" font-size="58.0" fill="#1497FC" transform="matrix(1.00, 0.00, -0.00, -1.00, 579.5, 518.0)">t</text><text xml:space="preserve" font-family="HelveticaNeue-Light" font-size="58.0" fill="#1497FC" transform="matrix(1.00, 0.00, -0.00, -1.00, 596.7, 518.0)">o</text><text xml:space="preserve" font-family="HelveticaNeue-Light" font-size="58.0" fill="#1497FC" transform="matrix(1.00, 0.00, -0.00, -1.00, 629.0, 518.0)">m</text><text xml:space="preserve" font-family="HelveticaNeue-Light" font-size="58.0" fill="#1497FC" transform="matrix(1.00, 0.00, -0.00, -1.00, 677.3, 518.0)">s</text><text xml:space="preserve" font-family="HelveticaNeue-Light" font-size="58.0" fill="#FEFFFE" transform="matrix(1.00, 0.00, -0.00, -1.00, 705.2, 518.0)"> </text><image xlink:href="../../EFC2B0EB-75A5-4992-88C6-D29D7AD34125/assets/FEF220DF81560EDF142521A926704C7A.png" width="60.00" height="50.00" transform="matrix(1.00, 0.00, -0.00, -1.00, 717.0, 561.0)"></image><text xml:space="preserve" font-family="HelveticaNeue-Light" font-size="58.0" fill="#C82505" transform="matrix(1.00, 0.00, -0.00, -1.00, 721.3, 518.0)">ï¬</text><text xml:space="preserve" font-family="HelveticaNeue-Light" font-size="58.0" fill="#C82505" transform="matrix(1.00, 0.00, -0.00, -1.00, 747.0, 518.0)">z</text><image xlink:href="../../EFC2B0EB-75A5-4992-88C6-D29D7AD34125/assets/FAC684441BCA3E76A99243DCCF31DA15.png" width="20.00" height="63.00" transform="matrix(1.00, 0.00, -0.00, -1.00, 772.0, 562.0)"></image><text xml:space="preserve" font-family="HelveticaNeue-Light" font-size="58.0" fill="#FEFFFE" transform="matrix(1.00, 0.00, -0.00, -1.00, 773.9, 518.0)">(</text><image xlink:href="../../EFC2B0EB-75A5-4992-88C6-D29D7AD34125/assets/D8853C0E2945AB5DFA2C3011383B8DB5.png" width="140.00" height="51.00" transform="matrix(1.00, 0.00, -0.00, -1.00, 783.0, 561.0)"></image><text xml:space="preserve" font-family="HelveticaNeue-Light" font-size="58.0" fill="#1497FC" transform="matrix(1.00, 0.00, -0.00, -1.00, 787.9, 518.0)">A</text><text xml:space="preserve" font-family="HelveticaNeue-Light" font-size="58.0" fill="#1497FC" transform="matrix(1.00, 0.00, -0.00, -1.00, 824.4, 518.0)">t</text><text xml:space="preserve" font-family="HelveticaNeue-Light" font-size="58.0" fill="#1497FC" transform="matrix(1.00, 0.00, -0.00, -1.00, 841.6, 518.0)">o</text><text xml:space="preserve" font-family="HelveticaNeue-Light" font-size="58.0" fill="#1497FC" transform="matrix(1.00, 0.00, -0.00, -1.00, 873.8, 518.0)">m</text><text xml:space="preserve" font-family="HelveticaNeue-Light" font-size="58.0" fill="#FEFFFE" transform="matrix(1.00, 0.00, -0.00, -1.00, 922.1, 518.0)"> </text><image xlink:href="../../EFC2B0EB-75A5-4992-88C6-D29D7AD34125/assets/BBFAB027F083DAAF628D7F97B576C6BE.png" width="131.00" height="48.00" transform="matrix(1.00, 0.00, -0.00, -1.00, 936.0, 558.0)"></image><text xml:space="preserve" font-family="HelveticaNeue-Light" font-size="58.0" fill="#1497FC" transform="matrix(1.00, 0.00, -0.00, -1.00, 938.3, 518.0)">a</text><text xml:space="preserve" font-family="HelveticaNeue-Light" font-size="58.0" fill="#1497FC" transform="matrix(1.00, 0.00, -0.00, -1.00, 968.4, 518.0)">t</text><text xml:space="preserve" font-family="HelveticaNeue-Light" font-size="58.0" fill="#1497FC" transform="matrix(1.00, 0.00, -0.00, -1.00, 985.5, 518.0)">o</text><text xml:space="preserve" font-family="HelveticaNeue-Light" font-size="58.0" fill="#1497FC" transform="matrix(1.00, 0.00, -0.00, -1.00, 1017.8, 518.0)">m</text><image xlink:href="../../EFC2B0EB-75A5-4992-88C6-D29D7AD34125/assets/962EA457EE41BD06198967E74113C774.png" width="20.00" height="63.00" transform="matrix(1.00, 0.00, -0.00, -1.00, 1062.0, 562.0)"></image><text xml:space="preserve" font-family="HelveticaNeue-Light" font-size="58.0" fill="#FEFFFE" transform="matrix(1.00, 0.00, -0.00, -1.00, 1066.1, 518.0)">)</text><text xml:space="preserve" font-family="HelveticaNeue-Light" font-size="58.0" fill="#FEFFFE" transform="matrix(1.00, 0.00, -0.00, -1.00, 1080.1, 518.0)"> </text><image xlink:href="../../617D5899-0F60-416E-B492-170457BA770B/assets/086EAC4DC821D3B95AD0837200911DB4.png" width="21.00" height="63.00" transform="matrix(1.00, 0.00, -0.00, -1.00, 397.0, 492.0)"></image><text xml:space="preserve" font-family="HelveticaNeue-Light" font-size="58.0" fill="#FEFFFE" transform="matrix(1.00, 0.00, -0.00, -1.00, 399.0, 448.0)">}</text></g></svg>