<?xml version="1.0" encoding="UTF-8" standalone="no"?><svg xmlns="http://www.w3.org/2000/svg" xmlns:xlink="http://www.w3.org/1999/xlink" clip-rule="evenodd" stroke-miterlimit="4.00" viewBox="0 0 1920 1080"><desc>SVG generated by Keynote</desc><defs></defs><g transform="matrix(1.00, 0.00, -0.00, -1.00, 0.0, 1080.0)"><g><clipPath id="clip-280"><path d="M 0.0 1080.0 L 1920.0 1080.0 L 1920.0 0.0 L 0.0 0.0 Z M 0.0 1080.0 "></path></clipPath><g clip-path="url(#clip-280)"><image xlink:href="../../A172C229-966A-4E8A-A457-DFB78DE74FB5/assets/4E6DE69724E5577B4EF4A0F429FFC101.jpeg" width="1365.00" height="767.00" transform="matrix(1.41, 0.00, -0.00, -1.41, 0.0, 1080.0)"></image></g></g><image xlink:href="../../2F8FA2A4-CFE6-4FB4-A2EC-1011C4AC27F5/assets/BAB152FA60FA3426E8752E307B9B142D.png" width="595.00" height="82.00" transform="matrix(1.00, 0.00, -0.00, -1.00, 660.0, 952.0)"></image><text xml:space="preserve" font-family="HelveticaNeue-Light" font-size="100.0" fill="#FEFFFE" transform="matrix(1.00, 0.00, -0.00, -1.00, 665.0, 879.0)">T</text><text xml:space="preserve" font-family="HelveticaNeue-Light" font-size="100.0" fill="#FEFFFE" transform="matrix(1.00, 0.00, -0.00, -1.00, 720.6, 879.0)">h</text><text xml:space="preserve" font-family="HelveticaNeue-Light" font-size="100.0" fill="#FEFFFE" transform="matrix(1.00, 0.00, -0.00, -1.00, 774.3, 879.0)">e</text><text xml:space="preserve" font-family="HelveticaNeue-Light" font-size="100.0" fill="#FEFFFE" transform="matrix(1.00, 0.00, -0.00, -1.00, 826.2, 879.0)"> </text><text xml:space="preserve" font-family="HelveticaNeue-Light" font-size="100.0" fill="#FEFFFE" transform="matrix(1.00, 0.00, -0.00, -1.00, 854.0, 879.0)">B</text><text xml:space="preserve" font-family="HelveticaNeue-Light" font-size="100.0" fill="#FEFFFE" transform="matrix(1.00, 0.00, -0.00, -1.00, 920.7, 879.0)">e</text><text xml:space="preserve" font-family="HelveticaNeue-Light" font-size="100.0" fill="#FEFFFE" transform="matrix(1.00, 0.00, -0.00, -1.00, 972.6, 879.0)">s</text><text xml:space="preserve" font-family="HelveticaNeue-Light" font-size="100.0" fill="#FEFFFE" transform="matrix(1.00, 0.00, -0.00, -1.00, 1020.7, 879.0)">t</text><text xml:space="preserve" font-family="HelveticaNeue-Light" font-size="100.0" fill="#FEFFFE" transform="matrix(1.00, 0.00, -0.00, -1.00, 1050.3, 879.0)"> </text><text xml:space="preserve" font-family="HelveticaNeue-Light" font-size="100.0" fill="#FEFFFE" transform="matrix(1.00, 0.00, -0.00, -1.00, 1078.1, 879.0)">P</text><text xml:space="preserve" font-family="HelveticaNeue-Light" font-size="100.0" fill="#FEFFFE" transform="matrix(1.00, 0.00, -0.00, -1.00, 1141.1, 879.0)">a</text><text xml:space="preserve" font-family="HelveticaNeue-Light" font-size="100.0" fill="#FEFFFE" transform="matrix(1.00, 0.00, -0.00, -1.00, 1193.0, 879.0)">r</text><text xml:space="preserve" font-family="HelveticaNeue-Light" font-size="100.0" fill="#FEFFFE" transform="matrix(1.00, 0.00, -0.00, -1.00, 1224.5, 879.0)">t</text><image xlink:href="F2CE1CA16B2C9214E36FAC2B0AA75A9E.png" width="1590.00" height="62.00" transform="matrix(1.00, 0.00, -0.00, -1.00, 164.0, 561.0)"></image><text xml:space="preserve" font-family="HelveticaNeue-Light" font-size="57.0" fill="#FEFFFE" transform="matrix(1.00, 0.00, -0.00, -1.00, 168.0, 518.0)">W</text><text xml:space="preserve" font-family="HelveticaNeue-Light" font-size="57.0" fill="#FEFFFE" transform="matrix(1.00, 0.00, -0.00, -1.00, 219.7, 518.0)">h</text><text xml:space="preserve" font-family="HelveticaNeue-Light" font-size="57.0" fill="#FEFFFE" transform="matrix(1.00, 0.00, -0.00, -1.00, 250.3, 518.0)">y</text><text xml:space="preserve" font-family="HelveticaNeue-Light" font-size="57.0" fill="#FEFFFE" transform="matrix(1.00, 0.00, -0.00, -1.00, 276.7, 518.0)"> </text><text xml:space="preserve" font-family="HelveticaNeue-Light" font-size="57.0" fill="#FEFFFE" transform="matrix(1.00, 0.00, -0.00, -1.00, 292.5, 518.0)">s</text><text xml:space="preserve" font-family="HelveticaNeue-Light" font-size="57.0" fill="#FEFFFE" transform="matrix(1.00, 0.00, -0.00, -1.00, 320.0, 518.0)">t</text><text xml:space="preserve" font-family="HelveticaNeue-Light" font-size="57.0" fill="#FEFFFE" transform="matrix(1.00, 0.00, -0.00, -1.00, 336.8, 518.0)">r</text><text xml:space="preserve" font-family="HelveticaNeue-Light" font-size="57.0" fill="#FEFFFE" transform="matrix(1.00, 0.00, -0.00, -1.00, 354.8, 518.0)">u</text><text xml:space="preserve" font-family="HelveticaNeue-Light" font-size="57.0" fill="#FEFFFE" transform="matrix(1.00, 0.00, -0.00, -1.00, 385.4, 518.0)">g</text><text xml:space="preserve" font-family="HelveticaNeue-Light" font-size="57.0" fill="#FEFFFE" transform="matrix(1.00, 0.00, -0.00, -1.00, 417.1, 518.0)">g</text><text xml:space="preserve" font-family="HelveticaNeue-Light" font-size="57.0" fill="#FEFFFE" transform="matrix(1.00, 0.00, -0.00, -1.00, 448.8, 518.0)">l</text><text xml:space="preserve" font-family="HelveticaNeue-Light" font-size="57.0" fill="#FEFFFE" transform="matrix(1.00, 0.00, -0.00, -1.00, 459.3, 518.0)">e</text><text xml:space="preserve" font-family="HelveticaNeue-Light" font-size="57.0" fill="#FEFFFE" transform="matrix(1.00, 0.00, -0.00, -1.00, 488.9, 518.0)"> </text><text xml:space="preserve" font-family="HelveticaNeue-Light" font-size="57.0" fill="#FEFFFE" transform="matrix(1.00, 0.00, -0.00, -1.00, 504.8, 518.0)">t</text><text xml:space="preserve" font-family="HelveticaNeue-Light" font-size="57.0" fill="#FEFFFE" transform="matrix(1.00, 0.00, -0.00, -1.00, 521.6, 518.0)">o</text><text xml:space="preserve" font-family="HelveticaNeue-Light" font-size="57.0" fill="#FEFFFE" transform="matrix(1.00, 0.00, -0.00, -1.00, 553.3, 518.0)"> </text><text xml:space="preserve" font-family="HelveticaNeue-Light" font-size="57.0" fill="#FEFFFE" transform="matrix(1.00, 0.00, -0.00, -1.00, 569.2, 518.0)">h</text><text xml:space="preserve" font-family="HelveticaNeue-Light" font-size="57.0" fill="#FEFFFE" transform="matrix(1.00, 0.00, -0.00, -1.00, 599.8, 518.0)">i</text><text xml:space="preserve" font-family="HelveticaNeue-Light" font-size="57.0" fill="#FEFFFE" transform="matrix(1.00, 0.00, -0.00, -1.00, 610.3, 518.0)">r</text><text xml:space="preserve" font-family="HelveticaNeue-Light" font-size="57.0" fill="#FEFFFE" transform="matrix(1.00, 0.00, -0.00, -1.00, 627.2, 518.0)">e</text><text xml:space="preserve" font-family="HelveticaNeue-Light" font-size="57.0" fill="#FEFFFE" transform="matrix(1.00, 0.00, -0.00, -1.00, 656.8, 518.0)"> </text><text xml:space="preserve" font-family="HelveticaNeue-Light" font-size="57.0" fill="#FEFFFE" transform="matrix(1.00, 0.00, -0.00, -1.00, 672.7, 518.0)">w</text><text xml:space="preserve" font-family="HelveticaNeue-Light" font-size="57.0" fill="#FEFFFE" transform="matrix(1.00, 0.00, -0.00, -1.00, 714.9, 518.0)">h</text><text xml:space="preserve" font-family="HelveticaNeue-Light" font-size="57.0" fill="#FEFFFE" transform="matrix(1.00, 0.00, -0.00, -1.00, 745.5, 518.0)">e</text><text xml:space="preserve" font-family="HelveticaNeue-Light" font-size="57.0" fill="#FEFFFE" transform="matrix(1.00, 0.00, -0.00, -1.00, 775.1, 518.0)">n</text><text xml:space="preserve" font-family="HelveticaNeue-Light" font-size="57.0" fill="#FEFFFE" transform="matrix(1.00, 0.00, -0.00, -1.00, 805.7, 518.0)"> </text><text xml:space="preserve" font-family="HelveticaNeue-Light" font-size="57.0" fill="#FEFFFE" transform="matrix(1.00, 0.00, -0.00, -1.00, 821.6, 518.0)">t</text><text xml:space="preserve" font-family="HelveticaNeue-Light" font-size="57.0" fill="#FEFFFE" transform="matrix(1.00, 0.00, -0.00, -1.00, 838.4, 518.0)">h</text><text xml:space="preserve" font-family="HelveticaNeue-Light" font-size="57.0" fill="#FEFFFE" transform="matrix(1.00, 0.00, -0.00, -1.00, 869.0, 518.0)">e</text><text xml:space="preserve" font-family="HelveticaNeue-Light" font-size="57.0" fill="#FEFFFE" transform="matrix(1.00, 0.00, -0.00, -1.00, 898.6, 518.0)"> </text><text xml:space="preserve" font-family="HelveticaNeue-Light" font-size="57.0" fill="#FEFFFE" transform="matrix(1.00, 0.00, -0.00, -1.00, 914.5, 518.0)">b</text><text xml:space="preserve" font-family="HelveticaNeue-Light" font-size="57.0" fill="#FEFFFE" transform="matrix(1.00, 0.00, -0.00, -1.00, 947.2, 518.0)">e</text><text xml:space="preserve" font-family="HelveticaNeue-Light" font-size="57.0" fill="#FEFFFE" transform="matrix(1.00, 0.00, -0.00, -1.00, 976.8, 518.0)">s</text><text xml:space="preserve" font-family="HelveticaNeue-Light" font-size="57.0" fill="#FEFFFE" transform="matrix(1.00, 0.00, -0.00, -1.00, 1004.2, 518.0)">t</text><text xml:space="preserve" font-family="HelveticaNeue-Light" font-size="57.0" fill="#FEFFFE" transform="matrix(1.00, 0.00, -0.00, -1.00, 1021.1, 518.0)"> </text><text xml:space="preserve" font-family="HelveticaNeue-Light" font-size="57.0" fill="#FEFFFE" transform="matrix(1.00, 0.00, -0.00, -1.00, 1036.9, 518.0)">i</text><text xml:space="preserve" font-family="HelveticaNeue-Light" font-size="57.0" fill="#FEFFFE" transform="matrix(1.00, 0.00, -0.00, -1.00, 1047.5, 518.0)">n</text><text xml:space="preserve" font-family="HelveticaNeue-Light" font-size="57.0" fill="#FEFFFE" transform="matrix(1.00, 0.00, -0.00, -1.00, 1078.1, 518.0)"> </text><text xml:space="preserve" font-family="HelveticaNeue-Light" font-size="57.0" fill="#FEFFFE" transform="matrix(1.00, 0.00, -0.00, -1.00, 1093.9, 518.0)">t</text><text xml:space="preserve" font-family="HelveticaNeue-Light" font-size="57.0" fill="#FEFFFE" transform="matrix(1.00, 0.00, -0.00, -1.00, 1110.8, 518.0)">h</text><text xml:space="preserve" font-family="HelveticaNeue-Light" font-size="57.0" fill="#FEFFFE" transform="matrix(1.00, 0.00, -0.00, -1.00, 1141.4, 518.0)">e</text><text xml:space="preserve" font-family="HelveticaNeue-Light" font-size="57.0" fill="#FEFFFE" transform="matrix(1.00, 0.00, -0.00, -1.00, 1171.0, 518.0)"> </text><text xml:space="preserve" font-family="HelveticaNeue-Light" font-size="57.0" fill="#FEFFFE" transform="matrix(1.00, 0.00, -0.00, -1.00, 1186.8, 518.0)">w</text><text xml:space="preserve" font-family="HelveticaNeue-Light" font-size="57.0" fill="#FEFFFE" transform="matrix(1.00, 0.00, -0.00, -1.00, 1229.1, 518.0)">o</text><text xml:space="preserve" font-family="HelveticaNeue-Light" font-size="57.0" fill="#FEFFFE" transform="matrix(1.00, 0.00, -0.00, -1.00, 1260.7, 518.0)">r</text><text xml:space="preserve" font-family="HelveticaNeue-Light" font-size="57.0" fill="#FEFFFE" transform="matrix(1.00, 0.00, -0.00, -1.00, 1278.7, 518.0)">l</text><text xml:space="preserve" font-family="HelveticaNeue-Light" font-size="57.0" fill="#FEFFFE" transform="matrix(1.00, 0.00, -0.00, -1.00, 1289.2, 518.0)">d</text><text xml:space="preserve" font-family="HelveticaNeue-Light" font-size="57.0" fill="#FEFFFE" transform="matrix(1.00, 0.00, -0.00, -1.00, 1322.0, 518.0)"> </text><text xml:space="preserve" font-family="HelveticaNeue-Light" font-size="57.0" fill="#FEFFFE" transform="matrix(1.00, 0.00, -0.00, -1.00, 1337.8, 518.0)">w</text><text xml:space="preserve" font-family="HelveticaNeue-Light" font-size="57.0" fill="#FEFFFE" transform="matrix(1.00, 0.00, -0.00, -1.00, 1380.0, 518.0)">i</text><text xml:space="preserve" font-family="HelveticaNeue-Light" font-size="57.0" fill="#FEFFFE" transform="matrix(1.00, 0.00, -0.00, -1.00, 1390.6, 518.0)">l</text><text xml:space="preserve" font-family="HelveticaNeue-Light" font-size="57.0" fill="#FEFFFE" transform="matrix(1.00, 0.00, -0.00, -1.00, 1401.1, 518.0)">l</text><text xml:space="preserve" font-family="HelveticaNeue-Light" font-size="57.0" fill="#FEFFFE" transform="matrix(1.00, 0.00, -0.00, -1.00, 1411.7, 518.0)"> </text><text xml:space="preserve" font-family="HelveticaNeue-Light" font-size="57.0" fill="#FEFFFE" transform="matrix(1.00, 0.00, -0.00, -1.00, 1427.5, 518.0)">d</text><text xml:space="preserve" font-family="HelveticaNeue-Light" font-size="57.0" fill="#FEFFFE" transform="matrix(1.00, 0.00, -0.00, -1.00, 1460.2, 518.0)">o</text><text xml:space="preserve" font-family="HelveticaNeue-Light" font-size="57.0" fill="#FEFFFE" transform="matrix(1.00, 0.00, -0.00, -1.00, 1491.9, 518.0)"> </text><text xml:space="preserve" font-family="HelveticaNeue-Light" font-size="57.0" fill="#FEFFFE" transform="matrix(1.00, 0.00, -0.00, -1.00, 1507.8, 518.0)">i</text><text xml:space="preserve" font-family="HelveticaNeue-Light" font-size="57.0" fill="#FEFFFE" transform="matrix(1.00, 0.00, -0.00, -1.00, 1518.3, 518.0)">t</text><text xml:space="preserve" font-family="HelveticaNeue-Light" font-size="57.0" fill="#FEFFFE" transform="matrix(1.00, 0.00, -0.00, -1.00, 1535.2, 518.0)"> </text><text xml:space="preserve" font-family="HelveticaNeue-Light" font-size="57.0" fill="#FEFFFE" transform="matrix(1.00, 0.00, -0.00, -1.00, 1551.0, 518.0)">f</text><text xml:space="preserve" font-family="HelveticaNeue-Light" font-size="57.0" fill="#FEFFFE" transform="matrix(1.00, 0.00, -0.00, -1.00, 1565.8, 518.0)">o</text><text xml:space="preserve" font-family="HelveticaNeue-Light" font-size="57.0" fill="#FEFFFE" transform="matrix(1.00, 0.00, -0.00, -1.00, 1597.5, 518.0)">r</text><text xml:space="preserve" font-family="HelveticaNeue-Light" font-size="57.0" fill="#FEFFFE" transform="matrix(1.00, 0.00, -0.00, -1.00, 1615.5, 518.0)"> </text><text xml:space="preserve" font-family="HelveticaNeue-Light" font-size="57.0" fill="#FEFFFE" transform="matrix(1.00, 0.00, -0.00, -1.00, 1631.3, 518.0)">f</text><text xml:space="preserve" font-family="HelveticaNeue-Light" font-size="57.0" fill="#FEFFFE" transform="matrix(1.00, 0.00, -0.00, -1.00, 1646.1, 518.0)">r</text><text xml:space="preserve" font-family="HelveticaNeue-Light" font-size="57.0" fill="#FEFFFE" transform="matrix(1.00, 0.00, -0.00, -1.00, 1663.0, 518.0)">e</text><text xml:space="preserve" font-family="HelveticaNeue-Light" font-size="57.0" fill="#FEFFFE" transform="matrix(1.00, 0.00, -0.00, -1.00, 1692.6, 518.0)">e</text><text xml:space="preserve" font-family="HelveticaNeue-Light" font-size="57.0" fill="#FEFFFE" transform="matrix(1.00, 0.00, -0.00, -1.00, 1722.2, 518.0)">?</text></g></svg>