<?xml version="1.0" encoding="UTF-8" standalone="no"?><svg xmlns="http://www.w3.org/2000/svg" xmlns:xlink="http://www.w3.org/1999/xlink" clip-rule="evenodd" stroke-miterlimit="4.00" viewBox="0 0 1920 1080"><desc>SVG generated by Keynote</desc><defs></defs><g transform="matrix(1.00, 0.00, -0.00, -1.00, 0.0, 1080.0)"><g><clipPath id="clip-55"><path d="M 0.0 1080.0 L 1920.0 1080.0 L 1920.0 0.0 L 0.0 0.0 Z M 0.0 1080.0 "></path></clipPath><g clip-path="url(#clip-55)"><image xlink:href="../../A172C229-966A-4E8A-A457-DFB78DE74FB5/assets/4E6DE69724E5577B4EF4A0F429FFC101.jpeg" width="1365.00" height="767.00" transform="matrix(1.41, 0.00, -0.00, -1.41, 0.0, 1080.0)"></image></g></g><image xlink:href="../../ACEE342F-0E6A-4FEA-80A8-C57D7DBDE3BD/assets/97448A4FCAC5DB9C606BBDE1499ACBB5.png" width="910.00" height="82.00" transform="matrix(1.00, 0.00, -0.00, -1.00, 508.0, 952.0)"></image><text xml:space="preserve" font-family="HelveticaNeue-Light" font-size="100.0" fill="#FEFFFE" transform="matrix(1.00, 0.00, -0.00, -1.00, 505.0, 879.0)">L</text><text xml:space="preserve" font-family="HelveticaNeue-Light" font-size="100.0" fill="#FEFFFE" transform="matrix(1.00, 0.00, -0.00, -1.00, 558.7, 879.0)">e</text><text xml:space="preserve" font-family="HelveticaNeue-Light" font-size="100.0" fill="#FEFFFE" transform="matrix(1.00, 0.00, -0.00, -1.00, 610.6, 879.0)">t</text><text xml:space="preserve" font-family="HelveticaNeue-Light" font-size="100.0" fill="#FEFFFE" transform="matrix(1.00, 0.00, -0.00, -1.00, 640.2, 879.0)">’</text><text xml:space="preserve" font-family="HelveticaNeue-Light" font-size="100.0" fill="#FEFFFE" transform="matrix(1.00, 0.00, -0.00, -1.00, 656.9, 879.0)">s</text><text xml:space="preserve" font-family="HelveticaNeue-Light" font-size="100.0" fill="#FEFFFE" transform="matrix(1.00, 0.00, -0.00, -1.00, 705.0, 879.0)"> </text><text xml:space="preserve" font-family="HelveticaNeue-Light" font-size="100.0" fill="#FEFFFE" transform="matrix(1.00, 0.00, -0.00, -1.00, 732.8, 879.0)">T</text><text xml:space="preserve" font-family="HelveticaNeue-Light" font-size="100.0" fill="#FEFFFE" transform="matrix(1.00, 0.00, -0.00, -1.00, 777.3, 879.0)">a</text><text xml:space="preserve" font-family="HelveticaNeue-Light" font-size="100.0" fill="#FEFFFE" transform="matrix(1.00, 0.00, -0.00, -1.00, 829.2, 879.0)">l</text><text xml:space="preserve" font-family="HelveticaNeue-Light" font-size="100.0" fill="#FEFFFE" transform="matrix(1.00, 0.00, -0.00, -1.00, 847.7, 879.0)">k</text><text xml:space="preserve" font-family="HelveticaNeue-Light" font-size="100.0" fill="#FEFFFE" transform="matrix(1.00, 0.00, -0.00, -1.00, 897.7, 879.0)"> </text><text xml:space="preserve" font-family="HelveticaNeue-Light" font-size="100.0" fill="#FEFFFE" transform="matrix(1.00, 0.00, -0.00, -1.00, 925.5, 879.0)">A</text><text xml:space="preserve" font-family="HelveticaNeue-Light" font-size="100.0" fill="#FEFFFE" transform="matrix(1.00, 0.00, -0.00, -1.00, 988.5, 879.0)">b</text><text xml:space="preserve" font-family="HelveticaNeue-Light" font-size="100.0" fill="#FEFFFE" transform="matrix(1.00, 0.00, -0.00, -1.00, 1045.9, 879.0)">o</text><text xml:space="preserve" font-family="HelveticaNeue-Light" font-size="100.0" fill="#FEFFFE" transform="matrix(1.00, 0.00, -0.00, -1.00, 1101.5, 879.0)">u</text><text xml:space="preserve" font-family="HelveticaNeue-Light" font-size="100.0" fill="#FEFFFE" transform="matrix(1.00, 0.00, -0.00, -1.00, 1155.2, 879.0)">t</text><text xml:space="preserve" font-family="HelveticaNeue-Light" font-size="100.0" fill="#FEFFFE" transform="matrix(1.00, 0.00, -0.00, -1.00, 1184.8, 879.0)"> </text><text xml:space="preserve" font-family="HelveticaNeue-Light" font-size="100.0" fill="#FEFFFE" transform="matrix(1.00, 0.00, -0.00, -1.00, 1212.6, 879.0)">D</text><text xml:space="preserve" font-family="HelveticaNeue-Light" font-size="100.0" fill="#FEFFFE" transform="matrix(1.00, 0.00, -0.00, -1.00, 1281.1, 879.0)">a</text><text xml:space="preserve" font-family="HelveticaNeue-Light" font-size="100.0" fill="#FEFFFE" transform="matrix(1.00, 0.00, -0.00, -1.00, 1333.0, 879.0)">t</text><text xml:space="preserve" font-family="HelveticaNeue-Light" font-size="100.0" fill="#FEFFFE" transform="matrix(1.00, 0.00, -0.00, -1.00, 1362.6, 879.0)">a</text><image xlink:href="../../B65A3EFF-55B7-40CB-9891-7013BCBCD104/assets/C408D916F2FD636EEA4B1B1A9C0FAEF6.png" width="1242.00" height="70.00" transform="matrix(1.00, 0.00, -0.00, -1.00, 227.0, 635.0)"></image><text xml:space="preserve" font-family="HelveticaNeue-Light" font-size="65.0" fill="#FEFFFE" transform="matrix(1.00, 0.00, -0.00, -1.00, 232.0, 586.0)">T</text><text xml:space="preserve" font-family="HelveticaNeue-Light" font-size="65.0" fill="#FEFFFE" transform="matrix(1.00, 0.00, -0.00, -1.00, 269.7, 586.0)">i</text><text xml:space="preserve" font-family="HelveticaNeue-Light" font-size="65.0" fill="#FEFFFE" transform="matrix(1.00, 0.00, -0.00, -1.00, 281.7, 586.0)">m</text><text xml:space="preserve" font-family="HelveticaNeue-Light" font-size="65.0" fill="#FEFFFE" transform="matrix(1.00, 0.00, -0.00, -1.00, 335.9, 586.0)">e</text><text xml:space="preserve" font-family="HelveticaNeue-Light" font-size="65.0" fill="#FEFFFE" transform="matrix(1.00, 0.00, -0.00, -1.00, 369.6, 586.0)"> </text><text xml:space="preserve" font-family="HelveticaNeue-Light" font-size="65.0" fill="#FEFFFE" transform="matrix(1.00, 0.00, -0.00, -1.00, 387.7, 586.0)">S</text><text xml:space="preserve" font-family="HelveticaNeue-Light" font-size="65.0" fill="#FEFFFE" transform="matrix(1.00, 0.00, -0.00, -1.00, 428.6, 586.0)">e</text><text xml:space="preserve" font-family="HelveticaNeue-Light" font-size="65.0" fill="#FEFFFE" transform="matrix(1.00, 0.00, -0.00, -1.00, 462.4, 586.0)">r</text><text xml:space="preserve" font-family="HelveticaNeue-Light" font-size="65.0" fill="#FEFFFE" transform="matrix(1.00, 0.00, -0.00, -1.00, 482.8, 586.0)">i</text><text xml:space="preserve" font-family="HelveticaNeue-Light" font-size="65.0" fill="#FEFFFE" transform="matrix(1.00, 0.00, -0.00, -1.00, 494.9, 586.0)">e</text><text xml:space="preserve" font-family="HelveticaNeue-Light" font-size="65.0" fill="#FEFFFE" transform="matrix(1.00, 0.00, -0.00, -1.00, 528.6, 586.0)">s</text><text xml:space="preserve" font-family="HelveticaNeue-Light" font-size="65.0" fill="#FEFFFE" transform="matrix(1.00, 0.00, -0.00, -1.00, 559.9, 586.0)"> </text><text xml:space="preserve" font-family="HelveticaNeue-Light" font-size="65.0" fill="#FEFFFE" transform="matrix(1.00, 0.00, -0.00, -1.00, 577.9, 586.0)">-</text><text xml:space="preserve" font-family="HelveticaNeue-Light" font-size="65.0" fill="#FEFFFE" transform="matrix(1.00, 0.00, -0.00, -1.00, 602.0, 586.0)"> </text><text xml:space="preserve" font-family="HelveticaNeue-Light" font-size="65.0" fill="#FEFFFE" transform="matrix(1.00, 0.00, -0.00, -1.00, 620.0, 586.0)">S</text><text xml:space="preserve" font-family="HelveticaNeue-Light" font-size="65.0" fill="#FEFFFE" transform="matrix(1.00, 0.00, -0.00, -1.00, 661.0, 586.0)">i</text><text xml:space="preserve" font-family="HelveticaNeue-Light" font-size="65.0" fill="#FEFFFE" transform="matrix(1.00, 0.00, -0.00, -1.00, 673.0, 586.0)">n</text><text xml:space="preserve" font-family="HelveticaNeue-Light" font-size="65.0" fill="#FEFFFE" transform="matrix(1.00, 0.00, -0.00, -1.00, 707.9, 586.0)">g</text><text xml:space="preserve" font-family="HelveticaNeue-Light" font-size="65.0" fill="#FEFFFE" transform="matrix(1.00, 0.00, -0.00, -1.00, 744.1, 586.0)">l</text><text xml:space="preserve" font-family="HelveticaNeue-Light" font-size="65.0" fill="#FEFFFE" transform="matrix(1.00, 0.00, -0.00, -1.00, 756.1, 586.0)">e</text><text xml:space="preserve" font-family="HelveticaNeue-Light" font-size="65.0" fill="#FEFFFE" transform="matrix(1.00, 0.00, -0.00, -1.00, 789.8, 586.0)"> </text><text xml:space="preserve" font-family="HelveticaNeue-Light" font-size="65.0" fill="#FEFFFE" transform="matrix(1.00, 0.00, -0.00, -1.00, 807.9, 586.0)">m</text><text xml:space="preserve" font-family="HelveticaNeue-Light" font-size="65.0" fill="#FEFFFE" transform="matrix(1.00, 0.00, -0.00, -1.00, 862.0, 586.0)">e</text><text xml:space="preserve" font-family="HelveticaNeue-Light" font-size="65.0" fill="#FEFFFE" transform="matrix(1.00, 0.00, -0.00, -1.00, 895.8, 586.0)">a</text><text xml:space="preserve" font-family="HelveticaNeue-Light" font-size="65.0" fill="#FEFFFE" transform="matrix(1.00, 0.00, -0.00, -1.00, 929.5, 586.0)">s</text><text xml:space="preserve" font-family="HelveticaNeue-Light" font-size="65.0" fill="#FEFFFE" transform="matrix(1.00, 0.00, -0.00, -1.00, 960.8, 586.0)">u</text><text xml:space="preserve" font-family="HelveticaNeue-Light" font-size="65.0" fill="#FEFFFE" transform="matrix(1.00, 0.00, -0.00, -1.00, 995.7, 586.0)">r</text><text xml:space="preserve" font-family="HelveticaNeue-Light" font-size="65.0" fill="#FEFFFE" transform="matrix(1.00, 0.00, -0.00, -1.00, 1015.0, 586.0)">e</text><text xml:space="preserve" font-family="HelveticaNeue-Light" font-size="65.0" fill="#FEFFFE" transform="matrix(1.00, 0.00, -0.00, -1.00, 1048.7, 586.0)">m</text><text xml:space="preserve" font-family="HelveticaNeue-Light" font-size="65.0" fill="#FEFFFE" transform="matrix(1.00, 0.00, -0.00, -1.00, 1102.9, 586.0)">e</text><text xml:space="preserve" font-family="HelveticaNeue-Light" font-size="65.0" fill="#FEFFFE" transform="matrix(1.00, 0.00, -0.00, -1.00, 1136.6, 586.0)">n</text><text xml:space="preserve" font-family="HelveticaNeue-Light" font-size="65.0" fill="#FEFFFE" transform="matrix(1.00, 0.00, -0.00, -1.00, 1171.5, 586.0)">t</text><text xml:space="preserve" font-family="HelveticaNeue-Light" font-size="65.0" fill="#FEFFFE" transform="matrix(1.00, 0.00, -0.00, -1.00, 1190.8, 586.0)"> </text><text xml:space="preserve" font-family="HelveticaNeue-Light" font-size="65.0" fill="#FEFFFE" transform="matrix(1.00, 0.00, -0.00, -1.00, 1208.8, 586.0)">o</text><text xml:space="preserve" font-family="HelveticaNeue-Light" font-size="65.0" fill="#FEFFFE" transform="matrix(1.00, 0.00, -0.00, -1.00, 1245.0, 586.0)">v</text><text xml:space="preserve" font-family="HelveticaNeue-Light" font-size="65.0" fill="#FEFFFE" transform="matrix(1.00, 0.00, -0.00, -1.00, 1275.1, 586.0)">e</text><text xml:space="preserve" font-family="HelveticaNeue-Light" font-size="65.0" fill="#FEFFFE" transform="matrix(1.00, 0.00, -0.00, -1.00, 1308.8, 586.0)">r</text><text xml:space="preserve" font-family="HelveticaNeue-Light" font-size="65.0" fill="#FEFFFE" transform="matrix(1.00, 0.00, -0.00, -1.00, 1329.3, 586.0)"> </text><text xml:space="preserve" font-family="HelveticaNeue-Light" font-size="65.0" fill="#FEFFFE" transform="matrix(1.00, 0.00, -0.00, -1.00, 1347.3, 586.0)">t</text><text xml:space="preserve" font-family="HelveticaNeue-Light" font-size="65.0" fill="#FEFFFE" transform="matrix(1.00, 0.00, -0.00, -1.00, 1366.6, 586.0)">i</text><text xml:space="preserve" font-family="HelveticaNeue-Light" font-size="65.0" fill="#FEFFFE" transform="matrix(1.00, 0.00, -0.00, -1.00, 1378.6, 586.0)">m</text><text xml:space="preserve" font-family="HelveticaNeue-Light" font-size="65.0" fill="#FEFFFE" transform="matrix(1.00, 0.00, -0.00, -1.00, 1432.7, 586.0)">e</text><image xlink:href="../../197539D3-4459-4384-9615-2C36DA54891A/assets/139F0302549E3B0DD9256B5594F8BE29.png" width="271.00" height="68.00" transform="matrix(1.00, 0.00, -0.00, -1.00, 226.0, 419.0)"></image><text xml:space="preserve" font-family="HelveticaNeue-Light" font-size="65.0" fill="#FEFFFE" transform="matrix(1.00, 0.00, -0.00, -1.00, 231.0, 371.0)">T</text><text xml:space="preserve" font-family="HelveticaNeue-Light" font-size="65.0" fill="#FEFFFE" transform="matrix(1.00, 0.00, -0.00, -1.00, 268.7, 371.0)">i</text><text xml:space="preserve" font-family="HelveticaNeue-Light" font-size="65.0" fill="#FEFFFE" transform="matrix(1.00, 0.00, -0.00, -1.00, 280.7, 371.0)">m</text><text xml:space="preserve" font-family="HelveticaNeue-Light" font-size="65.0" fill="#FEFFFE" transform="matrix(1.00, 0.00, -0.00, -1.00, 334.9, 371.0)">e</text><text xml:space="preserve" font-family="HelveticaNeue-Light" font-size="65.0" fill="#FEFFFE" transform="matrix(1.00, 0.00, -0.00, -1.00, 368.6, 371.0)"> </text><text xml:space="preserve" font-family="HelveticaNeue-Light" font-size="65.0" fill="#FEFFFE" transform="matrix(1.00, 0.00, -0.00, -1.00, 386.7, 371.0)">K</text><text xml:space="preserve" font-family="HelveticaNeue-Light" font-size="65.0" fill="#FEFFFE" transform="matrix(1.00, 0.00, -0.00, -1.00, 428.8, 371.0)">e</text><text xml:space="preserve" font-family="HelveticaNeue-Light" font-size="65.0" fill="#FEFFFE" transform="matrix(1.00, 0.00, -0.00, -1.00, 462.5, 371.0)">y</text><text xml:space="preserve" font-family="HelveticaNeue-Light" font-size="65.0" fill="#FEFFFE" transform="matrix(1.00, 0.00, -0.00, -1.00, 492.6, 371.0)"> </text><image xlink:href="../../197539D3-4459-4384-9615-2C36DA54891A/assets/EA1B72E1F2821A8B0883F623A1E8250D.png" width="157.00" height="56.00" transform="matrix(1.00, 0.00, -0.00, -1.00, 506.0, 419.0)"></image><text xml:space="preserve" font-family="HelveticaNeue-Light" font-size="65.0" fill="#FEFFFE" transform="matrix(1.00, 0.00, -0.00, -1.00, 510.7, 371.0)">V</text><text xml:space="preserve" font-family="HelveticaNeue-Light" font-size="65.0" fill="#FEFFFE" transform="matrix(1.00, 0.00, -0.00, -1.00, 545.7, 371.0)">a</text><text xml:space="preserve" font-family="HelveticaNeue-Light" font-size="65.0" fill="#FEFFFE" transform="matrix(1.00, 0.00, -0.00, -1.00, 579.4, 371.0)">l</text><text xml:space="preserve" font-family="HelveticaNeue-Light" font-size="65.0" fill="#FEFFFE" transform="matrix(1.00, 0.00, -0.00, -1.00, 591.4, 371.0)">u</text><text xml:space="preserve" font-family="HelveticaNeue-Light" font-size="65.0" fill="#FEFFFE" transform="matrix(1.00, 0.00, -0.00, -1.00, 626.3, 371.0)">e</text><image xlink:href="../../197539D3-4459-4384-9615-2C36DA54891A/assets/5E8CE90D71C5B4142C7F88BA57DBC5BC.png" width="966.00" height="56.00" transform="matrix(1.00, 0.00, -0.00, -1.00, 678.0, 419.0)"></image><text xml:space="preserve" font-family="HelveticaNeue-Light" font-size="65.0" fill="#FEFFFE" transform="matrix(1.00, 0.00, -0.00, -1.00, 660.1, 371.0)"> </text><text xml:space="preserve" font-family="HelveticaNeue-Light" font-size="65.0" fill="#FEFFFE" transform="matrix(1.00, 0.00, -0.00, -1.00, 678.1, 371.0)">-</text><text xml:space="preserve" font-family="HelveticaNeue-Light" font-size="65.0" fill="#FEFFFE" transform="matrix(1.00, 0.00, -0.00, -1.00, 702.2, 371.0)"> </text><text xml:space="preserve" font-family="HelveticaNeue-Light" font-size="65.0" fill="#FEFFFE" transform="matrix(1.00, 0.00, -0.00, -1.00, 720.3, 371.0)">R</text><text xml:space="preserve" font-family="HelveticaNeue-Light" font-size="65.0" fill="#FEFFFE" transform="matrix(1.00, 0.00, -0.00, -1.00, 763.6, 371.0)">e</text><text xml:space="preserve" font-family="HelveticaNeue-Light" font-size="65.0" fill="#FEFFFE" transform="matrix(1.00, 0.00, -0.00, -1.00, 797.3, 371.0)">l</text><text xml:space="preserve" font-family="HelveticaNeue-Light" font-size="65.0" fill="#FEFFFE" transform="matrix(1.00, 0.00, -0.00, -1.00, 809.4, 371.0)">a</text><text xml:space="preserve" font-family="HelveticaNeue-Light" font-size="65.0" fill="#FEFFFE" transform="matrix(1.00, 0.00, -0.00, -1.00, 843.1, 371.0)">t</text><text xml:space="preserve" font-family="HelveticaNeue-Light" font-size="65.0" fill="#FEFFFE" transform="matrix(1.00, 0.00, -0.00, -1.00, 862.3, 371.0)">e</text><text xml:space="preserve" font-family="HelveticaNeue-Light" font-size="65.0" fill="#FEFFFE" transform="matrix(1.00, 0.00, -0.00, -1.00, 896.1, 371.0)">d</text><text xml:space="preserve" font-family="HelveticaNeue-Light" font-size="65.0" fill="#FEFFFE" transform="matrix(1.00, 0.00, -0.00, -1.00, 933.4, 371.0)"> </text><text xml:space="preserve" font-family="HelveticaNeue-Light" font-size="65.0" fill="#FEFFFE" transform="matrix(1.00, 0.00, -0.00, -1.00, 951.5, 371.0)">m</text><text xml:space="preserve" font-family="HelveticaNeue-Light" font-size="65.0" fill="#FEFFFE" transform="matrix(1.00, 0.00, -0.00, -1.00, 1005.6, 371.0)">e</text><text xml:space="preserve" font-family="HelveticaNeue-Light" font-size="65.0" fill="#FEFFFE" transform="matrix(1.00, 0.00, -0.00, -1.00, 1039.3, 371.0)">a</text><text xml:space="preserve" font-family="HelveticaNeue-Light" font-size="65.0" fill="#FEFFFE" transform="matrix(1.00, 0.00, -0.00, -1.00, 1073.1, 371.0)">s</text><text xml:space="preserve" font-family="HelveticaNeue-Light" font-size="65.0" fill="#FEFFFE" transform="matrix(1.00, 0.00, -0.00, -1.00, 1104.3, 371.0)">u</text><text xml:space="preserve" font-family="HelveticaNeue-Light" font-size="65.0" fill="#FEFFFE" transform="matrix(1.00, 0.00, -0.00, -1.00, 1139.2, 371.0)">r</text><text xml:space="preserve" font-family="HelveticaNeue-Light" font-size="65.0" fill="#FEFFFE" transform="matrix(1.00, 0.00, -0.00, -1.00, 1158.6, 371.0)">e</text><text xml:space="preserve" font-family="HelveticaNeue-Light" font-size="65.0" fill="#FEFFFE" transform="matrix(1.00, 0.00, -0.00, -1.00, 1192.3, 371.0)">m</text><text xml:space="preserve" font-family="HelveticaNeue-Light" font-size="65.0" fill="#FEFFFE" transform="matrix(1.00, 0.00, -0.00, -1.00, 1246.4, 371.0)">e</text><text xml:space="preserve" font-family="HelveticaNeue-Light" font-size="65.0" fill="#FEFFFE" transform="matrix(1.00, 0.00, -0.00, -1.00, 1280.2, 371.0)">n</text><text xml:space="preserve" font-family="HelveticaNeue-Light" font-size="65.0" fill="#FEFFFE" transform="matrix(1.00, 0.00, -0.00, -1.00, 1315.1, 371.0)">t</text><text xml:space="preserve" font-family="HelveticaNeue-Light" font-size="65.0" fill="#FEFFFE" transform="matrix(1.00, 0.00, -0.00, -1.00, 1334.3, 371.0)">s</text><text xml:space="preserve" font-family="HelveticaNeue-Light" font-size="65.0" fill="#FEFFFE" transform="matrix(1.00, 0.00, -0.00, -1.00, 1365.6, 371.0)"> </text><text xml:space="preserve" font-family="HelveticaNeue-Light" font-size="65.0" fill="#FEFFFE" transform="matrix(1.00, 0.00, -0.00, -1.00, 1383.6, 371.0)">o</text><text xml:space="preserve" font-family="HelveticaNeue-Light" font-size="65.0" fill="#FEFFFE" transform="matrix(1.00, 0.00, -0.00, -1.00, 1419.8, 371.0)">v</text><text xml:space="preserve" font-family="HelveticaNeue-Light" font-size="65.0" fill="#FEFFFE" transform="matrix(1.00, 0.00, -0.00, -1.00, 1449.9, 371.0)">e</text><text xml:space="preserve" font-family="HelveticaNeue-Light" font-size="65.0" fill="#FEFFFE" transform="matrix(1.00, 0.00, -0.00, -1.00, 1483.6, 371.0)">r</text><text xml:space="preserve" font-family="HelveticaNeue-Light" font-size="65.0" fill="#FEFFFE" transform="matrix(1.00, 0.00, -0.00, -1.00, 1504.1, 371.0)"> </text><text xml:space="preserve" font-family="HelveticaNeue-Light" font-size="65.0" fill="#FEFFFE" transform="matrix(1.00, 0.00, -0.00, -1.00, 1522.2, 371.0)">t</text><text xml:space="preserve" font-family="HelveticaNeue-Light" font-size="65.0" fill="#FEFFFE" transform="matrix(1.00, 0.00, -0.00, -1.00, 1541.4, 371.0)">i</text><text xml:space="preserve" font-family="HelveticaNeue-Light" font-size="65.0" fill="#FEFFFE" transform="matrix(1.00, 0.00, -0.00, -1.00, 1553.4, 371.0)">m</text><text xml:space="preserve" font-family="HelveticaNeue-Light" font-size="65.0" fill="#FEFFFE" transform="matrix(1.00, 0.00, -0.00, -1.00, 1607.6, 371.0)">e</text><g><clipPath id="clip-56"><path d="M 509.4 386.0 L 659.8 386.0 L 659.8 391.3 L 509.4 391.3 Z M 509.4 386.0 "></path></clipPath><g clip-path="url(#clip-56)"><path d="M 283.7 50.0 L 433.1 50.0 " fill="none" stroke="#FEFFFE" stroke-width="3.31" stroke-miterlimit="0.00" transform="matrix(1.00, 0.00, 0.00, -1.00, 226.7, 438.7)"></path></g></g></g></svg>