<?xml version="1.0" encoding="UTF-8" standalone="no"?><svg xmlns="http://www.w3.org/2000/svg" xmlns:xlink="http://www.w3.org/1999/xlink" clip-rule="evenodd" stroke-miterlimit="4.00" viewBox="0 0 1920 1080"><desc>SVG generated by Keynote</desc><defs></defs><g transform="matrix(1.00, 0.00, -0.00, -1.00, 0.0, 1080.0)"><g><clipPath id="clip-304"><path d="M 0.0 1080.0 L 1920.0 1080.0 L 1920.0 0.0 L 0.0 0.0 Z M 0.0 1080.0 "></path></clipPath><g clip-path="url(#clip-304)"><image xlink:href="../../A172C229-966A-4E8A-A457-DFB78DE74FB5/assets/4E6DE69724E5577B4EF4A0F429FFC101.jpeg" width="1365.00" height="767.00" transform="matrix(1.41, 0.00, -0.00, -1.41, 0.0, 1080.0)"></image></g></g><image xlink:href="../../0D288153-1B1C-413E-B28E-DEE507A538C8/assets/BAC1DA4D3251CD85F484894A8C1EBC31.png" width="760.00" height="102.00" transform="matrix(1.00, 0.00, -0.00, -1.00, 576.0, 953.0)"></image><text xml:space="preserve" font-family="HelveticaNeue-Light" font-size="100.0" fill="#FEFFFE" transform="matrix(1.00, 0.00, -0.00, -1.00, 577.0, 879.0)">O</text><text xml:space="preserve" font-family="HelveticaNeue-Light" font-size="100.0" fill="#FEFFFE" transform="matrix(1.00, 0.00, -0.00, -1.00, 651.1, 879.0)">n</text><text xml:space="preserve" font-family="HelveticaNeue-Light" font-size="100.0" fill="#FEFFFE" transform="matrix(1.00, 0.00, -0.00, -1.00, 704.8, 879.0)">e</text><text xml:space="preserve" font-family="HelveticaNeue-Light" font-size="100.0" fill="#FEFFFE" transform="matrix(1.00, 0.00, -0.00, -1.00, 756.7, 879.0)"> </text><text xml:space="preserve" font-family="HelveticaNeue-Light" font-size="100.0" fill="#FEFFFE" transform="matrix(1.00, 0.00, -0.00, -1.00, 784.5, 879.0)">m</text><text xml:space="preserve" font-family="HelveticaNeue-Light" font-size="100.0" fill="#FEFFFE" transform="matrix(1.00, 0.00, -0.00, -1.00, 867.8, 879.0)">o</text><text xml:space="preserve" font-family="HelveticaNeue-Light" font-size="100.0" fill="#FEFFFE" transform="matrix(1.00, 0.00, -0.00, -1.00, 923.4, 879.0)">r</text><text xml:space="preserve" font-family="HelveticaNeue-Light" font-size="100.0" fill="#FEFFFE" transform="matrix(1.00, 0.00, -0.00, -1.00, 953.1, 879.0)">e</text><text xml:space="preserve" font-family="HelveticaNeue-Light" font-size="100.0" fill="#FEFFFE" transform="matrix(1.00, 0.00, -0.00, -1.00, 1005.0, 879.0)"> </text><text xml:space="preserve" font-family="HelveticaNeue-Light" font-size="100.0" fill="#FEFFFE" transform="matrix(1.00, 0.00, -0.00, -1.00, 1032.8, 879.0)">t</text><text xml:space="preserve" font-family="HelveticaNeue-Light" font-size="100.0" fill="#FEFFFE" transform="matrix(1.00, 0.00, -0.00, -1.00, 1062.4, 879.0)">h</text><text xml:space="preserve" font-family="HelveticaNeue-Light" font-size="100.0" fill="#FEFFFE" transform="matrix(1.00, 0.00, -0.00, -1.00, 1116.1, 879.0)">i</text><text xml:space="preserve" font-family="HelveticaNeue-Light" font-size="100.0" fill="#FEFFFE" transform="matrix(1.00, 0.00, -0.00, -1.00, 1134.6, 879.0)">n</text><text xml:space="preserve" font-family="HelveticaNeue-Light" font-size="100.0" fill="#FEFFFE" transform="matrix(1.00, 0.00, -0.00, -1.00, 1188.3, 879.0)">g</text><text xml:space="preserve" font-family="HelveticaNeue-Light" font-size="100.0" fill="#FEFFFE" transform="matrix(1.00, 0.00, -0.00, -1.00, 1243.9, 879.0)">…</text><g><clipPath id="clip-305"><path d="M 36.0 687.0 L 1809.0 687.0 L 1809.0 583.0 L 36.0 583.0 Z M 36.3 687.3 "></path></clipPath><g clip-path="url(#clip-305)"><g><clipPath id="clip-306"><path d="M 36.0 583.0 L 1809.0 583.0 L 1809.0 687.0 L 36.0 687.0 Z M 36.0 583.0 "></path></clipPath><g clip-path="url(#clip-306)"><path d="M 42.6 318.0 L 33.7 320.3 " fill="none" stroke="#000000" stroke-width="1.00" stroke-miterlimit="0.00" stroke-linecap="round" stroke-linejoin="round" transform="matrix(3.08, 0.00, 0.00, -3.06, 17.5, 1607.7)"></path><path d="M 97.4 621.8 L 123.6 619.0 L 119.0 636.8 Z M 97.4 621.8 " fill="#000000"></path><path d="M 25.9 322.3 L 34.4 323.2 L 32.9 317.4 Z M 25.9 322.3 " fill="none" stroke="#000000" stroke-width="1.00" stroke-miterlimit="0.00" transform="matrix(3.08, 0.00, 0.00, -3.06, 17.5, 1607.7)"></path><path d="M 43.7 633.5 L 90.0 633.5 L 90.0 590.6 L 43.7 590.6 Z M 42.6 635.6 " fill="#D5D5D5"></path><path d="M 8.5 318.5 L 23.5 318.5 L 23.5 332.5 L 8.5 332.5 Z M 8.1 317.8 " fill="none" stroke="#000000" stroke-width="1.00" stroke-miterlimit="0.00" stroke-linecap="round" stroke-linejoin="round" transform="matrix(3.08, 0.00, 0.00, -3.06, 17.5, 1607.7)"></path><text xml:space="preserve" font-family="Helvetica" font-size="9.0" fill="#000000" transform="matrix(3.08, 0.00, -0.00, -3.06, 58.7, 603.2)">0</text><path d="M 393.6 314.2 L 493.4 322.9 " fill="none" stroke="#000000" stroke-width="1.00" stroke-miterlimit="0.00" stroke-linecap="round" stroke-linejoin="round" transform="matrix(3.08, 0.00, 0.00, -3.06, 17.5, 1607.7)"></path><path d="M 1563.4 617.9 L 1539.7 629.2 L 1538.0 610.9 Z M 1563.4 617.9 " fill="#000000"></path><path d="M 501.4 323.6 L 493.7 319.9 L 493.1 325.9 Z M 501.4 323.6 " fill="none" stroke="#000000" stroke-width="1.00" stroke-miterlimit="0.00" transform="matrix(3.08, 0.00, 0.00, -3.06, 17.5, 1607.7)"></path><path d="M 393.6 314.7 L 475.6 322.9 " fill="none" stroke="#000000" stroke-width="1.00" stroke-miterlimit="0.00" stroke-linecap="round" stroke-linejoin="round" transform="matrix(3.08, 0.00, 0.00, -3.06, 17.5, 1607.7)"></path><path d="M 1508.5 617.4 L 1484.9 629.0 L 1483.0 610.7 Z M 1508.5 617.4 " fill="#000000"></path><path d="M 483.5 323.7 L 475.9 320.0 L 475.3 325.9 Z M 483.5 323.7 " fill="none" stroke="#000000" stroke-width="1.00" stroke-miterlimit="0.00" transform="matrix(3.08, 0.00, 0.00, -3.06, 17.5, 1607.7)"></path><path d="M 393.6 315.2 L 458.4 322.7 " fill="none" stroke="#000000" stroke-width="1.00" stroke-miterlimit="0.00" stroke-linecap="round" stroke-linejoin="round" transform="matrix(3.08, 0.00, 0.00, -3.06, 17.5, 1607.7)"></path><path d="M 1455.5 617.8 L 1432.1 629.7 L 1430.0 611.5 Z M 1455.5 617.8 " fill="#000000"></path><path d="M 466.4 323.6 L 458.8 319.7 L 458.1 325.7 Z M 466.4 323.6 " fill="none" stroke="#000000" stroke-width="1.00" stroke-miterlimit="0.00" transform="matrix(3.08, 0.00, 0.00, -3.06, 17.5, 1607.7)"></path><path d="M 1180.6 626.6 L 1161.9 645.1 L 1154.3 628.3 Z M 1180.6 626.6 " fill="#000000"></path><path d="M 377.2 320.7 L 371.1 314.7 L 368.7 320.2 Z M 377.2 320.7 " fill="none" stroke="#000000" stroke-width="1.00" stroke-miterlimit="0.00" transform="matrix(3.08, 0.00, 0.00, -3.06, 17.5, 1607.7)"></path><path d="M 355.3 310.8 L 356.0 311.5 " fill="none" stroke="#000000" stroke-width="1.00" stroke-miterlimit="0.00" stroke-linecap="round" stroke-linejoin="round" transform="matrix(3.08, 0.00, 0.00, -3.06, 17.5, 1607.7)"></path><path d="M 1134.0 639.1 L 1121.3 662.0 L 1109.3 648.1 Z M 1134.0 639.1 " fill="#000000"></path><path d="M 362.1 316.7 L 358.0 309.2 L 354.1 313.7 Z M 362.1 316.7 " fill="none" stroke="#000000" stroke-width="1.00" stroke-miterlimit="0.00" transform="matrix(3.08, 0.00, 0.00, -3.06, 17.5, 1607.7)"></path><path d="M 1115.4 619.7 L 1123.1 644.7 L 1104.7 643.6 Z M 1115.4 619.7 " fill="#000000"></path><path d="M 356.1 323.0 L 358.6 314.8 L 352.6 315.2 Z M 356.1 323.0 " fill="none" stroke="#000000" stroke-width="1.00" stroke-miterlimit="0.00" transform="matrix(3.08, 0.00, 0.00, -3.06, 17.5, 1607.7)"></path><path d="M 1096.1 640.7 L 1120.3 651.0 L 1107.4 664.2 Z M 1096.1 640.7 " fill="#000000"></path><path d="M 349.8 316.2 L 357.6 312.8 L 353.5 308.4 Z M 349.8 316.2 " fill="none" stroke="#000000" stroke-width="1.00" stroke-miterlimit="0.00" transform="matrix(3.08, 0.00, 0.00, -3.06, 17.5, 1607.7)"></path><path d="M 1050.9 628.3 L 1077.2 630.3 L 1069.4 646.9 Z M 1050.9 628.3 " fill="#000000"></path><path d="M 335.1 320.2 L 343.7 319.5 L 341.1 314.1 Z M 335.1 320.2 " fill="none" stroke="#000000" stroke-width="1.00" stroke-miterlimit="0.00" transform="matrix(3.08, 0.00, 0.00, -3.06, 17.5, 1607.7)"></path><path d="M 268.5 318.0 L 291.8 321.9 " fill="none" stroke="#000000" stroke-width="1.00" stroke-miterlimit="0.00" stroke-linecap="round" stroke-linejoin="round" transform="matrix(3.08, 0.00, 0.00, -3.06, 17.5, 1607.7)"></path><path d="M 941.5 619.1 L 918.7 632.1 L 915.7 614.0 Z M 941.5 619.1 " fill="#000000"></path><path d="M 299.7 323.2 L 292.3 318.9 L 291.3 324.9 Z M 299.7 323.2 " fill="none" stroke="#000000" stroke-width="1.00" stroke-miterlimit="0.00" transform="matrix(3.08, 0.00, 0.00, -3.06, 17.5, 1607.7)"></path><path d="M 260.7 318.0 L 276.4 321.2 " fill="none" stroke="#000000" stroke-width="1.00" stroke-miterlimit="0.00" stroke-linecap="round" stroke-linejoin="round" transform="matrix(3.08, 0.00, 0.00, -3.06, 17.5, 1607.7)"></path><path d="M 893.9 620.2 L 871.5 634.1 L 867.8 616.1 Z M 893.9 620.2 " fill="#000000"></path><path d="M 284.2 322.8 L 277.0 318.3 L 275.8 324.2 Z M 284.2 322.8 " fill="none" stroke="#000000" stroke-width="1.00" stroke-miterlimit="0.00" transform="matrix(3.08, 0.00, 0.00, -3.06, 17.5, 1607.7)"></path><path d="M 252.9 318.1 L 261.0 320.2 " fill="none" stroke="#000000" stroke-width="1.00" stroke-miterlimit="0.00" stroke-linecap="round" stroke-linejoin="round" transform="matrix(3.08, 0.00, 0.00, -3.06, 17.5, 1607.7)"></path><path d="M 846.3 622.0 L 824.8 637.1 L 820.0 619.4 Z M 846.3 622.0 " fill="#000000"></path><path d="M 268.8 322.2 L 261.8 317.3 L 260.3 323.1 Z M 268.8 322.2 " fill="none" stroke="#000000" stroke-width="1.00" stroke-miterlimit="0.00" transform="matrix(3.08, 0.00, 0.00, -3.06, 17.5, 1607.7)"></path><path d="M 245.1 318.1 L 245.9 318.4 " fill="none" stroke="#000000" stroke-width="1.00" stroke-miterlimit="0.00" stroke-linecap="round" stroke-linejoin="round" transform="matrix(3.08, 0.00, 0.00, -3.06, 17.5, 1607.7)"></path><path d="M 798.8 625.3 L 778.9 642.5 L 772.4 625.3 Z M 798.8 625.3 " fill="#000000"></path><path d="M 253.4 321.2 L 246.9 315.6 L 244.8 321.2 Z M 253.4 321.2 " fill="none" stroke="#000000" stroke-width="1.00" stroke-miterlimit="0.00" transform="matrix(3.08, 0.00, 0.00, -3.06, 17.5, 1607.7)"></path><path d="M 751.7 633.3 L 735.6 653.9 L 725.9 638.3 Z M 751.7 633.3 " fill="#000000"></path><path d="M 238.1 318.5 L 232.9 311.8 L 229.7 316.9 Z M 238.1 318.5 " fill="none" stroke="#000000" stroke-width="1.00" stroke-miterlimit="0.00" transform="matrix(3.08, 0.00, 0.00, -3.06, 17.5, 1607.7)"></path><path d="M 731.6 619.1 L 729.1 645.1 L 712.5 637.1 Z M 731.6 619.1 " fill="#000000"></path><path d="M 231.6 323.2 L 230.8 314.7 L 225.4 317.3 Z M 231.6 323.2 " fill="none" stroke="#000000" stroke-width="1.00" stroke-miterlimit="0.00" transform="matrix(3.08, 0.00, 0.00, -3.06, 17.5, 1607.7)"></path><path d="M 689.5 618.8 L 710.3 634.9 L 694.5 644.5 Z M 689.5 618.8 " fill="#000000"></path><path d="M 217.9 323.3 L 224.7 318.0 L 219.6 314.9 Z M 217.9 323.3 " fill="none" stroke="#000000" stroke-width="1.00" stroke-miterlimit="0.00" transform="matrix(3.08, 0.00, 0.00, -3.06, 17.5, 1607.7)"></path><path d="M 669.0 632.2 L 695.1 636.3 L 685.9 652.3 Z M 669.0 632.2 " fill="#000000"></path><path d="M 211.3 318.9 L 219.7 317.6 L 216.8 312.4 Z M 211.3 318.9 " fill="none" stroke="#000000" stroke-width="1.00" stroke-miterlimit="0.00" transform="matrix(3.08, 0.00, 0.00, -3.06, 17.5, 1607.7)"></path><path d="M 205.1 318.1 L 203.6 318.6 " fill="none" stroke="#000000" stroke-width="1.00" stroke-miterlimit="0.00" stroke-linecap="round" stroke-linejoin="round" transform="matrix(3.08, 0.00, 0.00, -3.06, 17.5, 1607.7)"></path><path d="M 621.9 624.8 L 648.2 624.4 L 642.1 641.7 Z M 621.9 624.8 " fill="#000000"></path><path d="M 196.0 321.3 L 204.6 321.5 L 202.5 315.8 Z M 196.0 321.3 " fill="none" stroke="#000000" stroke-width="1.00" stroke-miterlimit="0.00" transform="matrix(3.08, 0.00, 0.00, -3.06, 17.5, 1607.7)"></path><path d="M 197.3 318.0 L 188.4 320.3 " fill="none" stroke="#000000" stroke-width="1.00" stroke-miterlimit="0.00" stroke-linecap="round" stroke-linejoin="round" transform="matrix(3.08, 0.00, 0.00, -3.06, 17.5, 1607.7)"></path><path d="M 574.4 621.8 L 600.6 618.9 L 596.0 636.7 Z M 574.4 621.8 " fill="#000000"></path><path d="M 180.6 322.3 L 189.1 323.3 L 187.6 317.4 Z M 180.6 322.3 " fill="none" stroke="#000000" stroke-width="1.00" stroke-miterlimit="0.00" transform="matrix(3.08, 0.00, 0.00, -3.06, 17.5, 1607.7)"></path><path d="M 113.8 318.0 L 137.1 321.9 " fill="none" stroke="#000000" stroke-width="1.00" stroke-miterlimit="0.00" stroke-linecap="round" stroke-linejoin="round" transform="matrix(3.08, 0.00, 0.00, -3.06, 17.5, 1607.7)"></path><path d="M 464.5 619.1 L 441.7 632.1 L 438.7 614.0 Z M 464.5 619.1 " fill="#000000"></path><path d="M 145.0 323.2 L 137.6 318.9 L 136.6 324.9 Z M 145.0 323.2 " fill="none" stroke="#000000" stroke-width="1.00" stroke-miterlimit="0.00" transform="matrix(3.08, 0.00, 0.00, -3.06, 17.5, 1607.7)"></path><path d="M 106.0 318.0 L 121.7 321.2 " fill="none" stroke="#000000" stroke-width="1.00" stroke-miterlimit="0.00" stroke-linecap="round" stroke-linejoin="round" transform="matrix(3.08, 0.00, 0.00, -3.06, 17.5, 1607.7)"></path><path d="M 416.9 620.2 L 394.6 634.1 L 390.9 616.1 Z M 416.9 620.2 " fill="#000000"></path><path d="M 129.5 322.8 L 122.3 318.3 L 121.1 324.2 Z M 129.5 322.8 " fill="none" stroke="#000000" stroke-width="1.00" stroke-miterlimit="0.00" transform="matrix(3.08, 0.00, 0.00, -3.06, 17.5, 1607.7)"></path><path d="M 98.2 318.1 L 106.4 320.2 " fill="none" stroke="#000000" stroke-width="1.00" stroke-miterlimit="0.00" stroke-linecap="round" stroke-linejoin="round" transform="matrix(3.08, 0.00, 0.00, -3.06, 17.5, 1607.7)"></path><path d="M 369.3 622.0 L 347.8 637.1 L 343.1 619.4 Z M 369.3 622.0 " fill="#000000"></path><path d="M 114.1 322.2 L 107.1 317.3 L 105.6 323.1 Z M 114.1 322.2 " fill="none" stroke="#000000" stroke-width="1.00" stroke-miterlimit="0.00" transform="matrix(3.08, 0.00, 0.00, -3.06, 17.5, 1607.7)"></path><path d="M 90.4 318.1 L 91.2 318.4 " fill="none" stroke="#000000" stroke-width="1.00" stroke-miterlimit="0.00" stroke-linecap="round" stroke-linejoin="round" transform="matrix(3.08, 0.00, 0.00, -3.06, 17.5, 1607.7)"></path><path d="M 321.8 625.3 L 301.9 642.5 L 295.5 625.3 Z M 321.8 625.3 " fill="#000000"></path><path d="M 98.7 321.2 L 92.2 315.6 L 90.1 321.2 Z M 98.7 321.2 " fill="none" stroke="#000000" stroke-width="1.00" stroke-miterlimit="0.00" transform="matrix(3.08, 0.00, 0.00, -3.06, 17.5, 1607.7)"></path><path d="M 274.8 633.3 L 258.6 653.9 L 248.9 638.3 Z M 274.8 633.3 " fill="#000000"></path><path d="M 83.4 318.5 L 78.2 311.8 L 75.0 316.9 Z M 83.4 318.5 " fill="none" stroke="#000000" stroke-width="1.00" stroke-miterlimit="0.00" transform="matrix(3.08, 0.00, 0.00, -3.06, 17.5, 1607.7)"></path><path d="M 254.6 619.1 L 252.1 645.1 L 235.5 637.1 Z M 254.6 619.1 " fill="#000000"></path><path d="M 76.9 323.2 L 76.1 314.7 L 70.7 317.3 Z M 76.9 323.2 " fill="none" stroke="#000000" stroke-width="1.00" stroke-miterlimit="0.00" transform="matrix(3.08, 0.00, 0.00, -3.06, 17.5, 1607.7)"></path><path d="M 212.6 618.8 L 233.3 634.9 L 217.5 644.5 Z M 212.6 618.8 " fill="#000000"></path><path d="M 63.3 323.3 L 70.0 318.0 L 64.9 314.9 Z M 63.3 323.3 " fill="none" stroke="#000000" stroke-width="1.00" stroke-miterlimit="0.00" transform="matrix(3.08, 0.00, 0.00, -3.06, 17.5, 1607.7)"></path><path d="M 192.1 632.2 L 218.1 636.3 L 209.0 652.3 Z M 192.1 632.2 " fill="#000000"></path><path d="M 56.6 318.9 L 65.1 317.6 L 62.1 312.4 Z M 56.6 318.9 " fill="none" stroke="#000000" stroke-width="1.00" stroke-miterlimit="0.00" transform="matrix(3.08, 0.00, 0.00, -3.06, 17.5, 1607.7)"></path><path d="M 57.7 318.2 L 48.1 323.5 " fill="none" stroke="#000000" stroke-width="1.00" stroke-miterlimit="0.00" stroke-linecap="round" stroke-linejoin="round" transform="matrix(3.08, 0.00, 0.00, -3.06, 17.5, 1607.7)"></path><path d="M 144.4 606.2 L 170.5 610.1 L 161.4 626.1 Z M 144.4 606.2 " fill="#000000"></path><path d="M 41.2 327.4 L 49.6 326.1 L 46.7 320.9 Z M 41.2 327.4 " fill="none" stroke="#000000" stroke-width="1.00" stroke-miterlimit="0.00" transform="matrix(3.08, 0.00, 0.00, -3.06, 17.5, 1607.7)"></path><path d="M 472.3 633.5 L 521.6 633.5 L 521.6 590.6 L 472.3 590.6 Z M 471.8 635.6 " fill="#FEFFFF"></path><path d="M 147.5 318.5 L 163.5 318.5 L 163.5 332.5 L 147.5 332.5 Z M 147.3 317.8 " fill="none" stroke="#000000" stroke-width="1.00" stroke-miterlimit="0.00" stroke-linecap="round" stroke-linejoin="round" transform="matrix(3.08, 0.00, 0.00, -3.06, 17.5, 1607.7)"></path><text xml:space="preserve" font-family="Helvetica" font-size="9.0" fill="#000000" transform="matrix(3.08, 0.00, -0.00, -3.06, 488.0, 603.2)">9</text><path d="M 426.1 633.5 L 472.3 633.5 L 472.3 590.6 L 426.1 590.6 Z M 424.1 635.6 " fill="#FEFFFF"></path><path d="M 132.5 318.5 L 147.5 318.5 L 147.5 332.5 L 132.5 332.5 Z M 131.9 317.8 " fill="none" stroke="#000000" stroke-width="1.00" stroke-miterlimit="0.00" stroke-linecap="round" stroke-linejoin="round" transform="matrix(3.08, 0.00, 0.00, -3.06, 17.5, 1607.7)"></path><text xml:space="preserve" font-family="Helvetica" font-size="9.0" fill="#000000" transform="matrix(3.08, 0.00, -0.00, -3.06, 440.3, 603.2)">8</text><path d="M 376.7 633.5 L 426.1 633.5 L 426.1 590.6 L 376.7 590.6 Z M 376.4 635.6 " fill="#D5D5D5"></path><path d="M 116.5 318.5 L 132.5 318.5 L 132.5 332.5 L 116.5 332.5 Z M 116.4 317.8 " fill="none" stroke="#000000" stroke-width="1.00" stroke-miterlimit="0.00" stroke-linecap="round" stroke-linejoin="round" transform="matrix(3.08, 0.00, 0.00, -3.06, 17.5, 1607.7)"></path><text xml:space="preserve" font-family="Helvetica" font-size="9.0" fill="#000000" transform="matrix(3.08, 0.00, -0.00, -3.06, 392.6, 603.2)">7</text><path d="M 330.5 633.5 L 376.7 633.5 L 376.7 590.6 L 330.5 590.6 Z M 328.7 635.6 " fill="#D5D5D5"></path><path d="M 101.5 318.5 L 116.5 318.5 L 116.5 332.5 L 101.5 332.5 Z M 100.9 317.8 " fill="none" stroke="#000000" stroke-width="1.00" stroke-miterlimit="0.00" stroke-linecap="round" stroke-linejoin="round" transform="matrix(3.08, 0.00, 0.00, -3.06, 17.5, 1607.7)"></path><text xml:space="preserve" font-family="Helvetica" font-size="9.0" fill="#000000" transform="matrix(3.08, 0.00, -0.00, -3.06, 344.9, 603.2)">6</text><path d="M 281.1 633.5 L 330.5 633.5 L 330.5 590.6 L 281.1 590.6 Z M 281.0 635.6 " fill="#D5D5D5"></path><path d="M 85.5 318.5 L 101.5 318.5 L 101.5 332.5 L 85.5 332.5 Z M 85.5 317.8 " fill="none" stroke="#000000" stroke-width="1.00" stroke-miterlimit="0.00" stroke-linecap="round" stroke-linejoin="round" transform="matrix(3.08, 0.00, 0.00, -3.06, 17.5, 1607.7)"></path><text xml:space="preserve" font-family="Helvetica" font-size="9.0" fill="#000000" transform="matrix(3.08, 0.00, -0.00, -3.06, 297.2, 603.2)">5</text><path d="M 234.9 633.5 L 281.1 633.5 L 281.1 590.6 L 234.9 590.6 Z M 233.3 635.6 " fill="#D5D5D5"></path><path d="M 70.5 318.5 L 85.5 318.5 L 85.5 332.5 L 70.5 332.5 Z M 70.0 317.8 " fill="none" stroke="#000000" stroke-width="1.00" stroke-miterlimit="0.00" stroke-linecap="round" stroke-linejoin="round" transform="matrix(3.08, 0.00, 0.00, -3.06, 17.5, 1607.7)"></path><text xml:space="preserve" font-family="Helvetica" font-size="9.0" fill="#000000" transform="matrix(3.08, 0.00, -0.00, -3.06, 249.5, 603.2)">4</text><path d="M 185.5 633.5 L 234.9 633.5 L 234.9 590.6 L 185.5 590.6 Z M 185.6 635.6 " fill="#D5D5D5"></path><path d="M 54.5 318.5 L 70.5 318.5 L 70.5 332.5 L 54.5 332.5 Z M 54.5 317.8 " fill="none" stroke="#000000" stroke-width="1.00" stroke-miterlimit="0.00" stroke-linecap="round" stroke-linejoin="round" transform="matrix(3.08, 0.00, 0.00, -3.06, 17.5, 1607.7)"></path><text xml:space="preserve" font-family="Helvetica" font-size="9.0" fill="#000000" transform="matrix(3.08, 0.00, -0.00, -3.06, 201.8, 603.2)">3</text><path d="M 139.3 633.5 L 185.5 633.5 L 185.5 590.6 L 139.3 590.6 Z M 137.9 635.6 " fill="#D5D5D5"></path><path d="M 39.5 318.5 L 54.5 318.5 L 54.5 332.5 L 39.5 332.5 Z M 39.1 317.8 " fill="none" stroke="#000000" stroke-width="1.00" stroke-miterlimit="0.00" stroke-linecap="round" stroke-linejoin="round" transform="matrix(3.08, 0.00, 0.00, -3.06, 17.5, 1607.7)"></path><text xml:space="preserve" font-family="Helvetica" font-size="9.0" fill="#000000" transform="matrix(3.08, 0.00, -0.00, -3.06, 154.1, 603.2)">2</text><path d="M 90.0 633.5 L 139.3 633.5 L 139.3 590.6 L 90.0 590.6 Z M 90.2 635.6 " fill="#D5D5D5"></path><path d="M 23.5 318.5 L 39.5 318.5 L 39.5 332.5 L 23.5 332.5 Z M 23.6 317.8 " fill="none" stroke="#000000" stroke-width="1.00" stroke-miterlimit="0.00" stroke-linecap="round" stroke-linejoin="round" transform="matrix(3.08, 0.00, 0.00, -3.06, 17.5, 1607.7)"></path><text xml:space="preserve" font-family="Helvetica" font-size="9.0" fill="#000000" transform="matrix(3.08, 0.00, -0.00, -3.06, 106.4, 603.2)">1</text><path d="M 950.3 633.5 L 996.5 633.5 L 996.5 590.6 L 950.3 590.6 Z M 948.8 635.6 " fill="#D5D5D5"></path><path d="M 302.5 318.5 L 317.5 318.5 L 317.5 332.5 L 302.5 332.5 Z M 302.0 317.8 " fill="none" stroke="#000000" stroke-width="1.00" stroke-miterlimit="0.00" stroke-linecap="round" stroke-linejoin="round" transform="matrix(3.08, 0.00, 0.00, -3.06, 17.5, 1607.7)"></path><text xml:space="preserve" font-family="Helvetica" font-size="9.0" fill="#000000" transform="matrix(3.08, 0.00, -0.00, -3.06, 968.8, 603.2)">.</text><path d="M 900.9 633.5 L 950.3 633.5 L 950.3 590.6 L 900.9 590.6 Z M 901.1 635.6 " fill="#D5D5D5"></path><path d="M 286.5 318.5 L 302.5 318.5 L 302.5 332.5 L 286.5 332.5 Z M 286.6 317.8 " fill="none" stroke="#000000" stroke-width="1.00" stroke-miterlimit="0.00" stroke-linecap="round" stroke-linejoin="round" transform="matrix(3.08, 0.00, 0.00, -3.06, 17.5, 1607.7)"></path><text xml:space="preserve" font-family="Helvetica" font-size="9.0" fill="#000000" transform="matrix(3.08, 0.00, -0.00, -3.06, 921.1, 603.2)">.</text><path d="M 854.7 633.5 L 900.9 633.5 L 900.9 590.6 L 854.7 590.6 Z M 853.4 635.6 " fill="#D5D5D5"></path><path d="M 271.5 318.5 L 286.5 318.5 L 286.5 332.5 L 271.5 332.5 Z M 271.1 317.8 " fill="none" stroke="#000000" stroke-width="1.00" stroke-miterlimit="0.00" stroke-linecap="round" stroke-linejoin="round" transform="matrix(3.08, 0.00, 0.00, -3.06, 17.5, 1607.7)"></path><text xml:space="preserve" font-family="Helvetica" font-size="9.0" fill="#000000" transform="matrix(3.08, 0.00, -0.00, -3.06, 873.4, 603.2)">.</text><path d="M 805.3 633.5 L 854.7 633.5 L 854.7 590.6 L 805.3 590.6 Z M 805.7 635.6 " fill="#D5D5D5"></path><path d="M 255.5 318.5 L 271.5 318.5 L 271.5 332.5 L 255.5 332.5 Z M 255.6 317.8 " fill="none" stroke="#000000" stroke-width="1.00" stroke-miterlimit="0.00" stroke-linecap="round" stroke-linejoin="round" transform="matrix(3.08, 0.00, 0.00, -3.06, 17.5, 1607.7)"></path><text xml:space="preserve" font-family="Helvetica" font-size="9.0" fill="#D5D5D5" transform="matrix(3.08, 0.00, -0.00, -3.06, 821.8, 603.2)">6</text><path d="M 759.1 633.5 L 805.3 633.5 L 805.3 590.6 L 759.1 590.6 Z M 758.0 635.6 " fill="#FEFFFF"></path><path d="M 240.5 318.5 L 255.5 318.5 L 255.5 332.5 L 240.5 332.5 Z M 240.2 317.8 " fill="none" stroke="#000000" stroke-width="1.00" stroke-miterlimit="0.00" stroke-linecap="round" stroke-linejoin="round" transform="matrix(3.08, 0.00, 0.00, -3.06, 17.5, 1607.7)"></path><text xml:space="preserve" font-family="Helvetica" font-size="9.0" fill="#000000" transform="matrix(3.08, 0.00, -0.00, -3.06, 774.1, 603.2)">5</text><path d="M 709.7 633.5 L 759.1 633.5 L 759.1 590.6 L 709.7 590.6 Z M 710.3 635.6 " fill="#FEFFFF"></path><path d="M 224.5 318.5 L 240.5 318.5 L 240.5 332.5 L 224.5 332.5 Z M 224.7 317.8 " fill="none" stroke="#000000" stroke-width="1.00" stroke-miterlimit="0.00" stroke-linecap="round" stroke-linejoin="round" transform="matrix(3.08, 0.00, 0.00, -3.06, 17.5, 1607.7)"></path><text xml:space="preserve" font-family="Helvetica" font-size="9.0" fill="#000000" transform="matrix(3.08, 0.00, -0.00, -3.06, 726.5, 603.2)">4</text><path d="M 663.5 633.5 L 709.7 633.5 L 709.7 590.6 L 663.5 590.6 Z M 662.6 635.6 " fill="#FEFFFF"></path><path d="M 209.5 318.5 L 224.5 318.5 L 224.5 332.5 L 209.5 332.5 Z M 209.2 317.8 " fill="none" stroke="#000000" stroke-width="1.00" stroke-miterlimit="0.00" stroke-linecap="round" stroke-linejoin="round" transform="matrix(3.08, 0.00, 0.00, -3.06, 17.5, 1607.7)"></path><text xml:space="preserve" font-family="Helvetica" font-size="9.0" fill="#000000" transform="matrix(3.08, 0.00, -0.00, -3.06, 678.8, 603.2)">3</text><path d="M 614.2 633.5 L 663.5 633.5 L 663.5 590.6 L 614.2 590.6 Z M 614.9 635.6 " fill="#FEFFFF"></path><path d="M 193.5 318.5 L 209.5 318.5 L 209.5 332.5 L 193.5 332.5 Z M 193.8 317.8 " fill="none" stroke="#000000" stroke-width="1.00" stroke-miterlimit="0.00" stroke-linecap="round" stroke-linejoin="round" transform="matrix(3.08, 0.00, 0.00, -3.06, 17.5, 1607.7)"></path><text xml:space="preserve" font-family="Helvetica" font-size="9.0" fill="#000000" transform="matrix(3.08, 0.00, -0.00, -3.06, 631.1, 603.2)">2</text><path d="M 567.9 633.5 L 614.2 633.5 L 614.2 590.6 L 567.9 590.6 Z M 567.2 635.6 " fill="#FEFFFF"></path><path d="M 178.5 318.5 L 193.5 318.5 L 193.5 332.5 L 178.5 332.5 Z M 178.3 317.8 " fill="none" stroke="#000000" stroke-width="1.00" stroke-miterlimit="0.00" stroke-linecap="round" stroke-linejoin="round" transform="matrix(3.08, 0.00, 0.00, -3.06, 17.5, 1607.7)"></path><text xml:space="preserve" font-family="Helvetica" font-size="9.0" fill="#000000" transform="matrix(3.08, 0.00, -0.00, -3.06, 583.4, 603.2)">1</text><path d="M 521.6 633.5 L 567.9 633.5 L 567.9 590.6 L 521.6 590.6 Z M 519.5 635.6 " fill="#FEFFFF"></path><path d="M 163.5 318.5 L 178.5 318.5 L 178.5 332.5 L 163.5 332.5 Z M 162.8 317.8 " fill="none" stroke="#000000" stroke-width="1.00" stroke-miterlimit="0.00" stroke-linecap="round" stroke-linejoin="round" transform="matrix(3.08, 0.00, 0.00, -3.06, 17.5, 1607.7)"></path><text xml:space="preserve" font-family="Helvetica" font-size="9.0" fill="#000000" transform="matrix(3.08, 0.00, -0.00, -3.06, 535.7, 603.2)">0</text><path d="M 1187.7 633.5 L 1230.8 633.5 L 1230.8 590.6 L 1187.7 590.6 Z M 1187.3 635.6 " fill="#FEFFFF"></path><path d="M 379.5 318.5 L 393.5 318.5 L 393.5 332.5 L 379.5 332.5 Z M 379.4 317.8 " fill="none" stroke="#000000" stroke-width="1.00" stroke-miterlimit="0.00" stroke-linecap="round" stroke-linejoin="round" transform="matrix(3.08, 0.00, 0.00, -3.06, 17.5, 1607.7)"></path><text xml:space="preserve" font-family="Helvetica" font-size="9.0" fill="#000000" transform="matrix(3.08, 0.00, -0.00, -3.06, 1204.6, 603.2)">.</text><path d="M 1141.4 633.5 L 1187.7 633.5 L 1187.7 590.6 L 1141.4 590.6 Z M 1139.6 635.6 " fill="#D5D5D5"></path><path d="M 364.5 318.5 L 379.5 318.5 L 379.5 332.5 L 364.5 332.5 Z M 363.9 317.8 " fill="none" stroke="#000000" stroke-width="1.00" stroke-miterlimit="0.00" stroke-linecap="round" stroke-linejoin="round" transform="matrix(3.08, 0.00, 0.00, -3.06, 17.5, 1607.7)"></path><text xml:space="preserve" font-family="Helvetica" font-size="9.0" fill="#000000" transform="matrix(3.08, 0.00, -0.00, -3.06, 1159.6, 603.2)">.</text><path d="M 1092.1 633.5 L 1141.4 633.5 L 1141.4 590.6 L 1092.1 590.6 Z M 1091.9 635.6 " fill="#D5D5D5"></path><path d="M 348.5 318.5 L 364.5 318.5 L 364.5 332.5 L 348.5 332.5 Z M 348.4 317.8 " fill="none" stroke="#000000" stroke-width="1.00" stroke-miterlimit="0.00" stroke-linecap="round" stroke-linejoin="round" transform="matrix(3.08, 0.00, 0.00, -3.06, 17.5, 1607.7)"></path><text xml:space="preserve" font-family="Helvetica" font-size="9.0" fill="#000000" transform="matrix(3.08, 0.00, -0.00, -3.06, 1111.9, 603.2)">.</text><path d="M 1045.8 633.5 L 1092.1 633.5 L 1092.1 590.6 L 1045.8 590.6 Z M 1044.2 635.6 " fill="#D5D5D5"></path><path d="M 333.5 318.5 L 348.5 318.5 L 348.5 332.5 L 333.5 332.5 Z M 333.0 317.8 " fill="none" stroke="#000000" stroke-width="1.00" stroke-miterlimit="0.00" stroke-linecap="round" stroke-linejoin="round" transform="matrix(3.08, 0.00, 0.00, -3.06, 17.5, 1607.7)"></path><text xml:space="preserve" font-family="Helvetica" font-size="9.0" fill="#000000" transform="matrix(3.08, 0.00, -0.00, -3.06, 1060.3, 603.2)">1</text><path d="M 996.5 633.5 L 1045.8 633.5 L 1045.8 590.6 L 996.5 590.6 Z M 996.5 635.6 " fill="#D5D5D5"></path><path d="M 317.5 318.5 L 333.5 318.5 L 333.5 332.5 L 317.5 332.5 Z M 317.5 317.8 " fill="none" stroke="#000000" stroke-width="1.00" stroke-miterlimit="0.00" stroke-linecap="round" stroke-linejoin="round" transform="matrix(3.08, 0.00, 0.00, -3.06, 17.5, 1607.7)"></path><text xml:space="preserve" font-family="Helvetica" font-size="9.0" fill="#000000" transform="matrix(3.08, 0.00, -0.00, -3.06, 1012.6, 603.2)">0</text><path d="M 43.7 676.3 L 429.1 676.3 L 429.1 633.5 L 43.7 633.5 Z M 42.6 678.6 " fill="#FEFFFF"></path><path d="M 8.5 304.5 L 133.5 304.5 L 133.5 318.5 L 8.5 318.5 Z M 8.1 303.8 " fill="none" stroke="#000000" stroke-width="1.00" stroke-miterlimit="0.00" stroke-linecap="round" stroke-linejoin="round" transform="matrix(3.08, 0.00, 0.00, -3.06, 17.5, 1607.7)"></path><text xml:space="preserve" font-family="Helvetica" font-size="9.0" fill="#000000" transform="matrix(3.08, 0.00, -0.00, -3.06, 58.0, 646.2)">t</text><text xml:space="preserve" font-family="Helvetica" font-size="9.0" fill="#000000" transform="matrix(3.08, 0.00, -0.00, -3.06, 65.7, 646.2)">i</text><text xml:space="preserve" font-family="Helvetica" font-size="9.0" fill="#000000" transform="matrix(3.08, 0.00, -0.00, -3.06, 71.8, 646.2)">m</text><text xml:space="preserve" font-family="Helvetica" font-size="9.0" fill="#000000" transform="matrix(3.08, 0.00, -0.00, -3.06, 95.0, 646.2)">e</text><text xml:space="preserve" font-family="Helvetica" font-size="9.0" fill="#000000" transform="matrix(3.08, 0.00, -0.00, -3.06, 110.4, 646.2)">s</text><text xml:space="preserve" font-family="Helvetica" font-size="9.0" fill="#000000" transform="matrix(3.08, 0.00, -0.00, -3.06, 124.3, 646.2)">t</text><text xml:space="preserve" font-family="Helvetica" font-size="9.0" fill="#000000" transform="matrix(3.08, 0.00, -0.00, -3.06, 132.0, 646.2)">a</text><text xml:space="preserve" font-family="Helvetica" font-size="9.0" fill="#000000" transform="matrix(3.08, 0.00, -0.00, -3.06, 147.4, 646.2)">m</text><text xml:space="preserve" font-family="Helvetica" font-size="9.0" fill="#000000" transform="matrix(3.08, 0.00, -0.00, -3.06, 170.5, 646.2)">p</text><path d="M 429.1 676.3 L 996.5 676.3 L 996.5 633.5 L 429.1 633.5 Z M 429.6 678.6 " fill="#FEFFFF"></path><path d="M 133.5 304.5 L 317.5 304.5 L 317.5 318.5 L 133.5 318.5 Z M 133.6 303.8 " fill="none" stroke="#000000" stroke-width="1.00" stroke-miterlimit="0.00" stroke-linecap="round" stroke-linejoin="round" transform="matrix(3.08, 0.00, 0.00, -3.06, 17.5, 1607.7)"></path><text xml:space="preserve" font-family="Helvetica" font-size="9.0" fill="#000000" transform="matrix(3.08, 0.00, -0.00, -3.06, 445.0, 646.2)">i</text><text xml:space="preserve" font-family="Helvetica" font-size="9.0" fill="#000000" transform="matrix(3.08, 0.00, -0.00, -3.06, 451.2, 646.2)">d</text><text xml:space="preserve" font-family="Helvetica" font-size="9.0" fill="#000000" transform="matrix(3.08, 0.00, -0.00, -3.06, 466.6, 646.2)">e</text><text xml:space="preserve" font-family="Helvetica" font-size="9.0" fill="#000000" transform="matrix(3.08, 0.00, -0.00, -3.06, 482.0, 646.2)">n</text><text xml:space="preserve" font-family="Helvetica" font-size="9.0" fill="#000000" transform="matrix(3.08, 0.00, -0.00, -3.06, 497.5, 646.2)">t</text><text xml:space="preserve" font-family="Helvetica" font-size="9.0" fill="#000000" transform="matrix(3.08, 0.00, -0.00, -3.06, 505.2, 646.2)">i</text><text xml:space="preserve" font-family="Helvetica" font-size="9.0" fill="#000000" transform="matrix(3.08, 0.00, -0.00, -3.06, 511.4, 646.2)">t</text><text xml:space="preserve" font-family="Helvetica" font-size="9.0" fill="#000000" transform="matrix(3.08, 0.00, -0.00, -3.06, 519.1, 646.2)">y</text><path d="M 996.5 676.3 L 1230.8 676.3 L 1230.8 633.5 L 996.5 633.5 Z M 996.5 678.6 " fill="#FEFFFF"></path><path d="M 317.5 304.5 L 393.5 304.5 L 393.5 318.5 L 317.5 318.5 Z M 317.5 303.8 " fill="none" stroke="#000000" stroke-width="1.00" stroke-miterlimit="0.00" stroke-linecap="round" stroke-linejoin="round" transform="matrix(3.08, 0.00, 0.00, -3.06, 17.5, 1607.7)"></path><text xml:space="preserve" font-family="Helvetica" font-size="9.0" fill="#000000" transform="matrix(3.08, 0.00, -0.00, -3.06, 1011.9, 646.2)">p</text><text xml:space="preserve" font-family="Helvetica" font-size="9.0" fill="#000000" transform="matrix(3.08, 0.00, -0.00, -3.06, 1027.4, 646.2)">a</text><text xml:space="preserve" font-family="Helvetica" font-size="9.0" fill="#000000" transform="matrix(3.08, 0.00, -0.00, -3.06, 1042.8, 646.2)">r</text><text xml:space="preserve" font-family="Helvetica" font-size="9.0" fill="#000000" transform="matrix(3.08, 0.00, -0.00, -3.06, 1052.0, 646.2)">t</text><text xml:space="preserve" font-family="Helvetica" font-size="9.0" fill="#000000" transform="matrix(3.08, 0.00, -0.00, -3.06, 1059.7, 646.2)">i</text><text xml:space="preserve" font-family="Helvetica" font-size="9.0" fill="#000000" transform="matrix(3.08, 0.00, -0.00, -3.06, 1065.9, 646.2)">c</text><text xml:space="preserve" font-family="Helvetica" font-size="9.0" fill="#000000" transform="matrix(3.08, 0.00, -0.00, -3.06, 1079.8, 646.2)">l</text><text xml:space="preserve" font-family="Helvetica" font-size="9.0" fill="#000000" transform="matrix(3.08, 0.00, -0.00, -3.06, 1086.0, 646.2)">e</text><text xml:space="preserve" font-family="Helvetica" font-size="9.0" fill="#000000" transform="matrix(3.08, 0.00, -0.00, -3.06, 1101.4, 646.2)">s</text><path d="M 1727.3 633.5 L 1804.4 633.5 L 1804.4 590.6 L 1727.3 590.6 Z M 1725.0 635.6 " fill="#FEFFFF"></path><path d="M 554.5 318.5 L 579.5 318.5 L 579.5 332.5 L 554.5 332.5 Z M 553.8 317.8 " fill="none" stroke="#000000" stroke-width="1.00" stroke-miterlimit="0.00" stroke-linecap="round" stroke-linejoin="round" transform="matrix(3.08, 0.00, 0.00, -3.06, 17.5, 1607.7)"></path><text xml:space="preserve" font-family="Helvetica" font-size="9.0" fill="#000000" transform="matrix(3.08, 0.00, -0.00, -3.06, 1730.3, 603.2)">v</text><text xml:space="preserve" font-family="Helvetica" font-size="9.0" fill="#000000" transform="matrix(3.08, 0.00, -0.00, -3.06, 1744.2, 603.2)">a</text><text xml:space="preserve" font-family="Helvetica" font-size="9.0" fill="#000000" transform="matrix(3.08, 0.00, -0.00, -3.06, 1759.7, 603.2)">l</text><text xml:space="preserve" font-family="Helvetica" font-size="9.0" fill="#000000" transform="matrix(3.08, 0.00, -0.00, -3.06, 1765.8, 603.2)">u</text><text xml:space="preserve" font-family="Helvetica" font-size="9.0" fill="#000000" transform="matrix(3.08, 0.00, -0.00, -3.06, 1781.3, 603.2)">e</text><path d="M 1573.1 633.5 L 1650.2 633.5 L 1650.2 590.6 L 1573.1 590.6 Z M 1570.8 635.6 " fill="#FEFFFF"></path><path d="M 504.5 318.5 L 529.5 318.5 L 529.5 332.5 L 504.5 332.5 Z M 503.8 317.8 " fill="none" stroke="#000000" stroke-width="1.00" stroke-miterlimit="0.00" stroke-linecap="round" stroke-linejoin="round" transform="matrix(3.08, 0.00, 0.00, -3.06, 17.5, 1607.7)"></path><text xml:space="preserve" font-family="Helvetica" font-size="9.0" fill="#000000" transform="matrix(3.08, 0.00, -0.00, -3.06, 1575.4, 603.2)">c</text><text xml:space="preserve" font-family="Helvetica" font-size="9.0" fill="#000000" transform="matrix(3.08, 0.00, -0.00, -3.06, 1589.3, 603.2)">o</text><text xml:space="preserve" font-family="Helvetica" font-size="9.0" fill="#000000" transform="matrix(3.08, 0.00, -0.00, -3.06, 1604.7, 603.2)">u</text><text xml:space="preserve" font-family="Helvetica" font-size="9.0" fill="#000000" transform="matrix(3.08, 0.00, -0.00, -3.06, 1620.2, 603.2)">n</text><text xml:space="preserve" font-family="Helvetica" font-size="9.0" fill="#000000" transform="matrix(3.08, 0.00, -0.00, -3.06, 1635.6, 603.2)">t</text><path d="M 1517.6 633.5 L 1573.1 633.5 L 1573.1 590.6 L 1517.6 590.6 Z M 1515.9 635.6 " fill="#FEFFFF"></path><path d="M 486.5 318.5 L 504.5 318.5 L 504.5 332.5 L 486.5 332.5 Z M 485.9 317.8 " fill="none" stroke="#000000" stroke-width="1.00" stroke-miterlimit="0.00" stroke-linecap="round" stroke-linejoin="round" transform="matrix(3.08, 0.00, 0.00, -3.06, 17.5, 1607.7)"></path><text xml:space="preserve" font-family="Helvetica" font-size="9.0" fill="#000000" transform="matrix(3.08, 0.00, -0.00, -3.06, 1517.4, 603.2)">m</text><text xml:space="preserve" font-family="Helvetica" font-size="9.0" fill="#000000" transform="matrix(3.08, 0.00, -0.00, -3.06, 1540.5, 603.2)">a</text><text xml:space="preserve" font-family="Helvetica" font-size="9.0" fill="#000000" transform="matrix(3.08, 0.00, -0.00, -3.06, 1556.0, 603.2)">x</text><path d="M 1465.2 633.5 L 1517.6 633.5 L 1517.6 590.6 L 1465.2 590.6 Z M 1462.9 635.6 " fill="#FEFFFF"></path><path d="M 469.5 318.5 L 486.5 318.5 L 486.5 332.5 L 469.5 332.5 Z M 468.8 317.8 " fill="none" stroke="#000000" stroke-width="1.00" stroke-miterlimit="0.00" stroke-linecap="round" stroke-linejoin="round" transform="matrix(3.08, 0.00, 0.00, -3.06, 17.5, 1607.7)"></path><text xml:space="preserve" font-family="Helvetica" font-size="9.0" fill="#000000" transform="matrix(3.08, 0.00, -0.00, -3.06, 1467.0, 603.2)">m</text><text xml:space="preserve" font-family="Helvetica" font-size="9.0" fill="#000000" transform="matrix(3.08, 0.00, -0.00, -3.06, 1490.1, 603.2)">i</text><text xml:space="preserve" font-family="Helvetica" font-size="9.0" fill="#000000" transform="matrix(3.08, 0.00, -0.00, -3.06, 1496.3, 603.2)">n</text><path d="M 1465.2 679.4 L 1801.3 679.4 L 1801.3 633.5 L 1465.2 633.5 Z M 1462.9 678.6 " fill="#FEFFFF"></path><path d="M 469.5 303.5 L 578.5 303.5 L 578.5 318.5 L 469.5 318.5 Z M 468.8 303.7 " fill="none" stroke="#000000" stroke-width="1.00" stroke-miterlimit="0.00" stroke-linecap="round" stroke-linejoin="round" transform="matrix(3.08, 0.00, 0.00, -3.06, 17.5, 1607.7)"></path><text xml:space="preserve" font-family="Helvetica" font-size="9.0" fill="#000000" transform="matrix(3.08, 0.00, -0.00, -3.06, 1478.3, 646.3)">q</text><text xml:space="preserve" font-family="Helvetica" font-size="9.0" fill="#000000" transform="matrix(3.08, 0.00, -0.00, -3.06, 1493.7, 646.3)">u</text><text xml:space="preserve" font-family="Helvetica" font-size="9.0" fill="#000000" transform="matrix(3.08, 0.00, -0.00, -3.06, 1509.2, 646.3)">a</text><text xml:space="preserve" font-family="Helvetica" font-size="9.0" fill="#000000" transform="matrix(3.08, 0.00, -0.00, -3.06, 1524.6, 646.3)">r</text><text xml:space="preserve" font-family="Helvetica" font-size="9.0" fill="#000000" transform="matrix(3.08, 0.00, -0.00, -3.06, 1533.9, 646.3)">k</text><path d="M 1650.2 633.5 L 1727.3 633.5 L 1727.3 590.6 L 1650.2 590.6 Z M 1647.9 635.2 " fill="#FEFFFF"></path><path d="M 529.5 318.5 L 554.5 318.5 L 554.5 332.5 L 529.5 332.5 Z M 528.8 317.9 " fill="none" stroke="#000000" stroke-width="1.00" stroke-miterlimit="0.00" stroke-linecap="round" stroke-linejoin="round" transform="matrix(3.08, 0.00, 0.00, -3.06, 17.5, 1607.7)"></path><text xml:space="preserve" font-family="Helvetica" font-size="9.0" fill="#000000" transform="matrix(3.08, 0.00, -0.00, -3.06, 1660.2, 603.1)">s</text><text xml:space="preserve" font-family="Helvetica" font-size="9.0" fill="#000000" transform="matrix(3.08, 0.00, -0.00, -3.06, 1674.1, 603.1)">u</text><text xml:space="preserve" font-family="Helvetica" font-size="9.0" fill="#000000" transform="matrix(3.08, 0.00, -0.00, -3.06, 1689.5, 603.1)">m</text><path d="M 1230.8 679.4 L 1465.2 679.4 L 1465.2 633.5 L 1230.8 633.5 Z M 1229.7 678.6 " fill="#FEFFFF"></path><path d="M 393.5 303.5 L 469.5 303.5 L 469.5 318.5 L 393.5 318.5 Z M 393.1 303.7 " fill="none" stroke="#000000" stroke-width="1.00" stroke-miterlimit="0.00" stroke-linecap="round" stroke-linejoin="round" transform="matrix(3.08, 0.00, 0.00, -3.06, 17.5, 1607.7)"></path><text xml:space="preserve" font-family="Helvetica" font-size="9.0" fill="#000000" transform="matrix(3.08, 0.00, -0.00, -3.06, 1245.1, 646.3)">ﬁ</text><text xml:space="preserve" font-family="Helvetica" font-size="9.0" fill="#000000" transform="matrix(3.08, 0.00, -0.00, -3.06, 1259.0, 646.3)">e</text><text xml:space="preserve" font-family="Helvetica" font-size="9.0" fill="#000000" transform="matrix(3.08, 0.00, -0.00, -3.06, 1274.4, 646.3)">l</text><text xml:space="preserve" font-family="Helvetica" font-size="9.0" fill="#000000" transform="matrix(3.08, 0.00, -0.00, -3.06, 1280.6, 646.3)">d</text><text xml:space="preserve" font-family="Helvetica" font-size="9.0" fill="#000000" transform="matrix(3.08, 0.00, -0.00, -3.06, 1296.0, 646.3)">s</text><path d="M 1422.0 633.5 L 1462.1 633.5 L 1462.1 590.6 L 1422.0 590.6 Z M 1420.5 635.2 " fill="#FEFFFF"></path><path d="M 455.5 318.5 L 468.5 318.5 L 468.5 332.5 L 455.5 332.5 Z M 455.0 317.9 " fill="none" stroke="#000000" stroke-width="1.00" stroke-miterlimit="0.00" stroke-linecap="round" stroke-linejoin="round" transform="matrix(3.08, 0.00, 0.00, -3.06, 17.5, 1607.7)"></path><text xml:space="preserve" font-family="Helvetica" font-size="9.0" fill="#000000" transform="matrix(3.08, 0.00, -0.00, -3.06, 1437.8, 602.9)">.</text><path d="M 1372.7 633.5 L 1422.0 633.5 L 1422.0 590.6 L 1372.7 590.6 Z M 1372.8 635.2 " fill="#D5D5D5"></path><path d="M 439.5 318.5 L 455.5 318.5 L 455.5 332.5 L 439.5 332.5 Z M 439.5 317.9 " fill="none" stroke="#000000" stroke-width="1.00" stroke-miterlimit="0.00" stroke-linecap="round" stroke-linejoin="round" transform="matrix(3.08, 0.00, 0.00, -3.06, 17.5, 1607.7)"></path><text xml:space="preserve" font-family="Helvetica" font-size="9.0" fill="#000000" transform="matrix(3.08, 0.00, -0.00, -3.06, 1392.8, 602.9)">.</text><path d="M 1326.4 633.5 L 1372.7 633.5 L 1372.7 590.6 L 1326.4 590.6 Z M 1325.1 635.2 " fill="#D5D5D5"></path><path d="M 424.5 318.5 L 439.5 318.5 L 439.5 332.5 L 424.5 332.5 Z M 424.1 317.9 " fill="none" stroke="#000000" stroke-width="1.00" stroke-miterlimit="0.00" stroke-linecap="round" stroke-linejoin="round" transform="matrix(3.08, 0.00, 0.00, -3.06, 17.5, 1607.7)"></path><text xml:space="preserve" font-family="Helvetica" font-size="9.0" fill="#000000" transform="matrix(3.08, 0.00, -0.00, -3.06, 1345.1, 602.9)">.</text><path d="M 1277.1 633.5 L 1326.4 633.5 L 1326.4 590.6 L 1277.1 590.6 Z M 1277.4 635.2 " fill="#D5D5D5"></path><path d="M 408.5 318.5 L 424.5 318.5 L 424.5 332.5 L 408.5 332.5 Z M 408.6 317.9 " fill="none" stroke="#000000" stroke-width="1.00" stroke-miterlimit="0.00" stroke-linecap="round" stroke-linejoin="round" transform="matrix(3.08, 0.00, 0.00, -3.06, 17.5, 1607.7)"></path><text xml:space="preserve" font-family="Helvetica" font-size="9.0" fill="#000000" transform="matrix(3.08, 0.00, -0.00, -3.06, 1293.5, 602.9)">1</text><path d="M 1230.8 633.5 L 1277.1 633.5 L 1277.1 590.6 L 1230.8 590.6 Z M 1229.7 635.2 " fill="#D5D5D5"></path><path d="M 393.5 318.5 L 408.5 318.5 L 408.5 332.5 L 393.5 332.5 Z M 393.1 317.9 " fill="none" stroke="#000000" stroke-width="1.00" stroke-miterlimit="0.00" stroke-linecap="round" stroke-linejoin="round" transform="matrix(3.08, 0.00, 0.00, -3.06, 17.5, 1607.7)"></path><text xml:space="preserve" font-family="Helvetica" font-size="9.0" fill="#000000" transform="matrix(3.08, 0.00, -0.00, -3.06, 1245.8, 602.9)">0</text></g></g></g></g><g><clipPath id="clip-307"><path d="M 33.0 274.0 L 1812.0 274.0 L 1812.0 376.0 L 33.0 376.0 Z M 33.0 274.0 "></path></clipPath><g clip-path="url(#clip-307)"><path d="M 297.2 374.3 L 288.6 376.5 " fill="none" stroke="#000000" stroke-width="1.00" stroke-miterlimit="0.00" stroke-linecap="round" stroke-linejoin="round" transform="matrix(3.10, 0.00, 0.00, -3.09, 29.9, 1482.5)"></path><path d="M 900.5 312.6 L 926.8 309.8 L 922.1 327.7 Z M 900.5 312.6 " fill="#000000"></path><path d="M 280.9 378.5 L 289.4 379.4 L 287.9 373.6 Z M 280.9 378.5 " fill="none" stroke="#000000" stroke-width="1.00" stroke-miterlimit="0.00" transform="matrix(3.10, 0.00, 0.00, -3.09, 29.9, 1482.5)"></path><path d="M 846.6 325.0 L 893.1 325.0 L 893.1 281.7 L 846.6 281.7 Z M 845.3 326.4 " fill="#D5D5D5"></path><path d="M 263.5 374.5 L 278.5 374.5 L 278.5 388.5 L 263.5 388.5 Z M 263.1 374.0 " fill="none" stroke="#000000" stroke-width="1.00" stroke-miterlimit="0.00" stroke-linecap="round" stroke-linejoin="round" transform="matrix(3.10, 0.00, 0.00, -3.09, 29.9, 1482.5)"></path><text xml:space="preserve" font-family="Helvetica" font-size="9.0" fill="#000000" transform="matrix(3.10, 0.00, -0.00, -3.09, 861.5, 293.7)">0</text><path d="M 795.8 317.2 L 777.1 335.8 L 769.4 319.0 Z M 795.8 317.2 " fill="#000000"></path><path d="M 247.1 377.0 L 241.1 371.0 L 238.6 376.5 Z M 247.1 377.0 " fill="none" stroke="#000000" stroke-width="1.00" stroke-miterlimit="0.00" transform="matrix(3.10, 0.00, 0.00, -3.09, 29.9, 1482.5)"></path><path d="M 225.2 367.1 L 226.0 367.7 " fill="none" stroke="#000000" stroke-width="1.00" stroke-miterlimit="0.00" stroke-linecap="round" stroke-linejoin="round" transform="matrix(3.10, 0.00, 0.00, -3.09, 29.9, 1482.5)"></path><path d="M 749.0 329.9 L 736.3 353.0 L 724.1 339.0 Z M 749.0 329.9 " fill="#000000"></path><path d="M 232.0 372.9 L 227.9 365.4 L 224.0 370.0 Z M 232.0 372.9 " fill="none" stroke="#000000" stroke-width="1.00" stroke-miterlimit="0.00" transform="matrix(3.10, 0.00, 0.00, -3.09, 29.9, 1482.5)"></path><path d="M 730.3 310.3 L 738.1 335.5 L 719.5 334.4 Z M 730.3 310.3 " fill="#000000"></path><path d="M 226.0 379.3 L 228.5 371.1 L 222.5 371.5 Z M 226.0 379.3 " fill="none" stroke="#000000" stroke-width="1.00" stroke-miterlimit="0.00" transform="matrix(3.10, 0.00, 0.00, -3.09, 29.9, 1482.5)"></path><path d="M 710.9 331.5 L 735.2 342.0 L 722.3 355.3 Z M 710.9 331.5 " fill="#000000"></path><path d="M 219.7 372.4 L 227.6 369.0 L 223.4 364.7 Z M 219.7 372.4 " fill="none" stroke="#000000" stroke-width="1.00" stroke-miterlimit="0.00" transform="matrix(3.10, 0.00, 0.00, -3.09, 29.9, 1482.5)"></path><path d="M 665.5 318.8 L 691.9 320.8 L 684.0 337.6 Z M 665.5 318.8 " fill="#000000"></path><path d="M 205.1 376.5 L 213.6 375.8 L 211.1 370.4 Z M 205.1 376.5 " fill="none" stroke="#000000" stroke-width="1.00" stroke-miterlimit="0.00" transform="matrix(3.10, 0.00, 0.00, -3.09, 29.9, 1482.5)"></path><path d="M 138.4 374.3 L 161.7 378.1 " fill="none" stroke="#000000" stroke-width="1.00" stroke-miterlimit="0.00" stroke-linecap="round" stroke-linejoin="round" transform="matrix(3.10, 0.00, 0.00, -3.09, 29.9, 1482.5)"></path><path d="M 555.5 309.7 L 532.6 322.9 L 529.5 304.6 Z M 555.5 309.7 " fill="#000000"></path><path d="M 169.6 379.5 L 162.2 375.2 L 161.2 381.1 Z M 169.6 379.5 " fill="none" stroke="#000000" stroke-width="1.00" stroke-miterlimit="0.00" transform="matrix(3.10, 0.00, 0.00, -3.09, 29.9, 1482.5)"></path><path d="M 130.6 374.3 L 146.3 377.5 " fill="none" stroke="#000000" stroke-width="1.00" stroke-miterlimit="0.00" stroke-linecap="round" stroke-linejoin="round" transform="matrix(3.10, 0.00, 0.00, -3.09, 29.9, 1482.5)"></path><path d="M 507.6 310.8 L 485.2 324.9 L 481.5 306.7 Z M 507.6 310.8 " fill="#000000"></path><path d="M 154.1 379.1 L 146.9 374.5 L 145.7 380.4 Z M 154.1 379.1 " fill="none" stroke="#000000" stroke-width="1.00" stroke-miterlimit="0.00" transform="matrix(3.10, 0.00, 0.00, -3.09, 29.9, 1482.5)"></path><path d="M 122.8 374.3 L 131.0 376.5 " fill="none" stroke="#000000" stroke-width="1.00" stroke-miterlimit="0.00" stroke-linecap="round" stroke-linejoin="round" transform="matrix(3.10, 0.00, 0.00, -3.09, 29.9, 1482.5)"></path><path d="M 459.8 312.6 L 438.2 327.9 L 433.4 310.0 Z M 459.8 312.6 " fill="#000000"></path><path d="M 138.7 378.5 L 131.7 373.6 L 130.2 379.4 Z M 138.7 378.5 " fill="none" stroke="#000000" stroke-width="1.00" stroke-miterlimit="0.00" transform="matrix(3.10, 0.00, 0.00, -3.09, 29.9, 1482.5)"></path><path d="M 115.0 374.3 L 115.8 374.6 " fill="none" stroke="#000000" stroke-width="1.00" stroke-miterlimit="0.00" stroke-linecap="round" stroke-linejoin="round" transform="matrix(3.10, 0.00, 0.00, -3.09, 29.9, 1482.5)"></path><path d="M 412.1 315.9 L 392.1 333.2 L 385.6 315.9 Z M 412.1 315.9 " fill="#000000"></path><path d="M 123.3 377.4 L 116.9 371.8 L 114.8 377.5 Z M 123.3 377.4 " fill="none" stroke="#000000" stroke-width="1.00" stroke-miterlimit="0.00" transform="matrix(3.10, 0.00, 0.00, -3.09, 29.9, 1482.5)"></path><path d="M 364.8 323.5 L 348.8 344.5 L 338.9 328.8 Z M 364.8 323.5 " fill="#000000"></path><path d="M 108.1 375.0 L 102.9 368.2 L 99.7 373.3 Z M 108.1 375.0 " fill="none" stroke="#000000" stroke-width="1.00" stroke-miterlimit="0.00" transform="matrix(3.10, 0.00, 0.00, -3.09, 29.9, 1482.5)"></path><path d="M 344.5 309.7 L 342.0 336.0 L 325.3 327.9 Z M 344.5 309.7 " fill="#000000"></path><path d="M 101.5 379.4 L 100.7 370.9 L 95.3 373.6 Z M 101.5 379.4 " fill="none" stroke="#000000" stroke-width="1.00" stroke-miterlimit="0.00" transform="matrix(3.10, 0.00, 0.00, -3.09, 29.9, 1482.5)"></path><path d="M 302.3 309.4 L 323.1 325.7 L 307.3 335.4 Z M 302.3 309.4 " fill="#000000"></path><path d="M 87.9 379.5 L 94.6 374.3 L 89.5 371.1 Z M 87.9 379.5 " fill="none" stroke="#000000" stroke-width="1.00" stroke-miterlimit="0.00" transform="matrix(3.10, 0.00, 0.00, -3.09, 29.9, 1482.5)"></path><path d="M 281.6 322.1 L 307.7 326.6 L 298.4 342.6 Z M 281.6 322.1 " fill="#000000"></path><path d="M 81.2 375.4 L 89.6 374.0 L 86.6 368.8 Z M 81.2 375.4 " fill="none" stroke="#000000" stroke-width="1.00" stroke-miterlimit="0.00" transform="matrix(3.10, 0.00, 0.00, -3.09, 29.9, 1482.5)"></path><path d="M 75.1 374.3 L 73.5 374.9 " fill="none" stroke="#000000" stroke-width="1.00" stroke-miterlimit="0.00" stroke-linecap="round" stroke-linejoin="round" transform="matrix(3.10, 0.00, 0.00, -3.09, 29.9, 1482.5)"></path><path d="M 234.3 315.4 L 260.8 315.0 L 254.5 332.4 Z M 234.3 315.4 " fill="#000000"></path><path d="M 65.9 377.6 L 74.5 377.7 L 72.5 372.1 Z M 65.9 377.6 " fill="none" stroke="#000000" stroke-width="1.00" stroke-miterlimit="0.00" transform="matrix(3.10, 0.00, 0.00, -3.09, 29.9, 1482.5)"></path><path d="M 67.3 374.3 L 58.3 376.6 " fill="none" stroke="#000000" stroke-width="1.00" stroke-miterlimit="0.00" stroke-linecap="round" stroke-linejoin="round" transform="matrix(3.10, 0.00, 0.00, -3.09, 29.9, 1482.5)"></path><path d="M 186.5 312.4 L 212.9 309.5 L 208.3 327.5 Z M 186.5 312.4 " fill="#000000"></path><path d="M 50.5 378.6 L 59.0 379.5 L 57.5 373.7 Z M 50.5 378.6 " fill="none" stroke="#000000" stroke-width="1.00" stroke-miterlimit="0.00" transform="matrix(3.10, 0.00, 0.00, -3.09, 29.9, 1482.5)"></path><path d="M 352.7 374.3 L 361.3 376.5 " fill="none" stroke="#000000" stroke-width="1.00" stroke-miterlimit="0.00" stroke-linecap="round" stroke-linejoin="round" transform="matrix(3.10, 0.00, 0.00, -3.09, 29.9, 1482.5)"></path><path d="M 1173.7 312.5 L 1152.1 327.7 L 1147.4 309.8 Z M 1173.7 312.5 " fill="#000000"></path><path d="M 369.1 378.5 L 362.1 373.6 L 360.6 379.4 Z M 369.1 378.5 " fill="none" stroke="#000000" stroke-width="1.00" stroke-miterlimit="0.00" transform="matrix(3.10, 0.00, 0.00, -3.09, 29.9, 1482.5)"></path><path d="M 344.9 374.3 L 346.1 374.8 " fill="none" stroke="#000000" stroke-width="1.00" stroke-miterlimit="0.00" stroke-linecap="round" stroke-linejoin="round" transform="matrix(3.10, 0.00, 0.00, -3.09, 29.9, 1482.5)"></path><path d="M 1126.0 315.7 L 1105.9 332.8 L 1099.5 315.4 Z M 1126.0 315.7 " fill="#000000"></path><path d="M 353.7 377.5 L 347.2 372.0 L 345.1 377.6 Z M 353.7 377.5 " fill="none" stroke="#000000" stroke-width="1.00" stroke-miterlimit="0.00" transform="matrix(3.10, 0.00, 0.00, -3.09, 29.9, 1482.5)"></path><path d="M 1078.7 322.8 L 1062.3 343.5 L 1052.7 327.7 Z M 1078.7 322.8 " fill="#000000"></path><path d="M 338.4 375.2 L 333.1 368.5 L 330.0 373.6 Z M 338.4 375.2 " fill="none" stroke="#000000" stroke-width="1.00" stroke-miterlimit="0.00" transform="matrix(3.10, 0.00, 0.00, -3.09, 29.9, 1482.5)"></path><path d="M 1058.2 309.6 L 1054.4 335.7 L 1038.1 326.8 Z M 1058.2 309.6 " fill="#000000"></path><path d="M 331.8 379.5 L 330.6 371.0 L 325.3 373.9 Z M 331.8 379.5 " fill="none" stroke="#000000" stroke-width="1.00" stroke-miterlimit="0.00" transform="matrix(3.10, 0.00, 0.00, -3.09, 29.9, 1482.5)"></path><path d="M 1016.0 309.6 L 1036.1 326.8 L 1019.8 335.7 Z M 1016.0 309.6 " fill="#000000"></path><path d="M 318.2 379.5 L 324.6 373.9 L 319.4 371.0 Z M 318.2 379.5 " fill="none" stroke="#000000" stroke-width="1.00" stroke-miterlimit="0.00" transform="matrix(3.10, 0.00, 0.00, -3.09, 29.9, 1482.5)"></path><path d="M 995.5 322.8 L 1021.5 327.7 L 1011.9 343.5 Z M 995.5 322.8 " fill="#000000"></path><path d="M 311.6 375.2 L 320.0 373.6 L 316.8 368.5 Z M 311.6 375.2 " fill="none" stroke="#000000" stroke-width="1.00" stroke-miterlimit="0.00" transform="matrix(3.10, 0.00, 0.00, -3.09, 29.9, 1482.5)"></path><path d="M 312.1 374.4 L 303.1 379.6 " fill="none" stroke="#000000" stroke-width="1.00" stroke-miterlimit="0.00" stroke-linecap="round" stroke-linejoin="round" transform="matrix(3.10, 0.00, 0.00, -3.09, 29.9, 1482.5)"></path><path d="M 947.7 297.0 L 973.8 301.2 L 964.6 317.3 Z M 947.7 297.0 " fill="#000000"></path><path d="M 296.1 383.6 L 304.6 382.2 L 301.6 377.0 Z M 296.1 383.6 " fill="none" stroke="#000000" stroke-width="1.00" stroke-miterlimit="0.00" transform="matrix(3.10, 0.00, 0.00, -3.09, 29.9, 1482.5)"></path><path d="M 84.1 325.0 L 130.6 325.0 L 130.6 281.7 L 84.1 281.7 Z M 83.4 326.3 " fill="#FEFFFF"></path><path d="M 17.5 374.5 L 32.5 374.5 L 32.5 388.5 L 17.5 388.5 Z M 17.3 374.1 " fill="none" stroke="#000000" stroke-width="1.00" stroke-miterlimit="0.00" stroke-linecap="round" stroke-linejoin="round" transform="matrix(3.10, 0.00, 0.00, -3.09, 29.9, 1482.5)"></path><text xml:space="preserve" font-family="Helvetica" font-size="9.0" fill="#000000" transform="matrix(3.10, 0.00, -0.00, -3.09, 99.7, 293.6)">9</text><path d="M 40.7 325.0 L 84.1 325.0 L 84.1 281.7 L 40.7 281.7 Z M 40.8 325.9 " fill="#FEFFFF"></path><path d="M 3.5 374.5 L 17.5 374.5 L 17.5 388.5 L 3.5 388.5 Z M 3.5 374.2 " fill="none" stroke="#000000" stroke-width="1.00" stroke-miterlimit="0.00" stroke-linecap="round" stroke-linejoin="round" transform="matrix(3.10, 0.00, 0.00, -3.09, 29.9, 1482.5)"></path><text xml:space="preserve" font-family="Helvetica" font-size="9.0" fill="#000000" transform="matrix(3.10, 0.00, -0.00, -3.09, 54.4, 293.4)">8</text><path d="M 1181.3 325.0 L 1230.9 325.0 L 1230.9 281.7 L 1181.3 281.7 Z M 1180.9 326.3 " fill="#D5D5D5"></path><path d="M 371.5 374.5 L 387.5 374.5 L 387.5 388.5 L 371.5 388.5 Z M 371.4 374.1 " fill="none" stroke="#000000" stroke-width="1.00" stroke-miterlimit="0.00" stroke-linecap="round" stroke-linejoin="round" transform="matrix(3.10, 0.00, 0.00, -3.09, 29.9, 1482.5)"></path><text xml:space="preserve" font-family="Helvetica" font-size="9.0" fill="#000000" transform="matrix(3.10, 0.00, -0.00, -3.09, 1197.1, 293.6)">7</text><path d="M 1134.8 325.0 L 1181.3 325.0 L 1181.3 281.7 L 1134.8 281.7 Z M 1133.0 326.3 " fill="#D5D5D5"></path><path d="M 356.5 374.5 L 371.5 374.5 L 371.5 388.5 L 356.5 388.5 Z M 355.9 374.1 " fill="none" stroke="#000000" stroke-width="1.00" stroke-miterlimit="0.00" stroke-linecap="round" stroke-linejoin="round" transform="matrix(3.10, 0.00, 0.00, -3.09, 29.9, 1482.5)"></path><text xml:space="preserve" font-family="Helvetica" font-size="9.0" fill="#000000" transform="matrix(3.10, 0.00, -0.00, -3.09, 1149.2, 293.6)">6</text><path d="M 1085.2 325.0 L 1134.8 325.0 L 1134.8 281.7 L 1085.2 281.7 Z M 1085.0 326.3 " fill="#D5D5D5"></path><path d="M 340.5 374.5 L 356.5 374.5 L 356.5 388.5 L 340.5 388.5 Z M 340.4 374.1 " fill="none" stroke="#000000" stroke-width="1.00" stroke-miterlimit="0.00" stroke-linecap="round" stroke-linejoin="round" transform="matrix(3.10, 0.00, 0.00, -3.09, 29.9, 1482.5)"></path><text xml:space="preserve" font-family="Helvetica" font-size="9.0" fill="#000000" transform="matrix(3.10, 0.00, -0.00, -3.09, 1101.3, 293.6)">5</text><path d="M 1038.7 325.0 L 1085.2 325.0 L 1085.2 281.7 L 1038.7 281.7 Z M 1037.1 326.3 " fill="#D5D5D5"></path><path d="M 325.5 374.5 L 340.5 374.5 L 340.5 388.5 L 325.5 388.5 Z M 325.0 374.1 " fill="none" stroke="#000000" stroke-width="1.00" stroke-miterlimit="0.00" stroke-linecap="round" stroke-linejoin="round" transform="matrix(3.10, 0.00, 0.00, -3.09, 29.9, 1482.5)"></path><text xml:space="preserve" font-family="Helvetica" font-size="9.0" fill="#000000" transform="matrix(3.10, 0.00, -0.00, -3.09, 1053.3, 293.6)">4</text><path d="M 989.1 325.0 L 1038.7 325.0 L 1038.7 281.7 L 989.1 281.7 Z M 989.2 326.3 " fill="#D5D5D5"></path><path d="M 309.5 374.5 L 325.5 374.5 L 325.5 388.5 L 309.5 388.5 Z M 309.5 374.1 " fill="none" stroke="#000000" stroke-width="1.00" stroke-miterlimit="0.00" stroke-linecap="round" stroke-linejoin="round" transform="matrix(3.10, 0.00, 0.00, -3.09, 29.9, 1482.5)"></path><text xml:space="preserve" font-family="Helvetica" font-size="9.0" fill="#000000" transform="matrix(3.10, 0.00, -0.00, -3.09, 1005.4, 293.6)">3</text><path d="M 942.6 325.0 L 989.1 325.0 L 989.1 281.7 L 942.6 281.7 Z M 941.2 326.3 " fill="#D5D5D5"></path><path d="M 294.5 374.5 L 309.5 374.5 L 309.5 388.5 L 294.5 388.5 Z M 294.0 374.1 " fill="none" stroke="#000000" stroke-width="1.00" stroke-miterlimit="0.00" stroke-linecap="round" stroke-linejoin="round" transform="matrix(3.10, 0.00, 0.00, -3.09, 29.9, 1482.5)"></path><text xml:space="preserve" font-family="Helvetica" font-size="9.0" fill="#000000" transform="matrix(3.10, 0.00, -0.00, -3.09, 957.4, 293.6)">2</text><path d="M 893.1 325.0 L 942.6 325.0 L 942.6 281.7 L 893.1 281.7 Z M 893.3 326.3 " fill="#D5D5D5"></path><path d="M 278.5 374.5 L 294.5 374.5 L 294.5 388.5 L 278.5 388.5 Z M 278.6 374.1 " fill="none" stroke="#000000" stroke-width="1.00" stroke-miterlimit="0.00" stroke-linecap="round" stroke-linejoin="round" transform="matrix(3.10, 0.00, 0.00, -3.09, 29.9, 1482.5)"></path><text xml:space="preserve" font-family="Helvetica" font-size="9.0" fill="#000000" transform="matrix(3.10, 0.00, -0.00, -3.09, 909.5, 293.6)">1</text><path d="M 564.5 325.0 L 611.0 325.0 L 611.0 281.7 L 564.5 281.7 Z M 562.9 326.3 " fill="#D5D5D5"></path><path d="M 172.5 374.5 L 187.5 374.5 L 187.5 388.5 L 172.5 388.5 Z M 172.0 374.1 " fill="none" stroke="#000000" stroke-width="1.00" stroke-miterlimit="0.00" stroke-linecap="round" stroke-linejoin="round" transform="matrix(3.10, 0.00, 0.00, -3.09, 29.9, 1482.5)"></path><text xml:space="preserve" font-family="Helvetica" font-size="9.0" fill="#000000" transform="matrix(3.10, 0.00, -0.00, -3.09, 583.0, 293.6)">.</text><path d="M 514.9 325.0 L 564.5 325.0 L 564.5 281.7 L 514.9 281.7 Z M 514.9 326.3 " fill="#D5D5D5"></path><path d="M 156.5 374.5 L 172.5 374.5 L 172.5 388.5 L 156.5 388.5 Z M 156.5 374.1 " fill="none" stroke="#000000" stroke-width="1.00" stroke-miterlimit="0.00" stroke-linecap="round" stroke-linejoin="round" transform="matrix(3.10, 0.00, 0.00, -3.09, 29.9, 1482.5)"></path><text xml:space="preserve" font-family="Helvetica" font-size="9.0" fill="#000000" transform="matrix(3.10, 0.00, -0.00, -3.09, 535.0, 293.6)">.</text><path d="M 468.5 325.0 L 514.9 325.0 L 514.9 281.7 L 468.5 281.7 Z M 467.0 326.3 " fill="#D5D5D5"></path><path d="M 141.5 374.5 L 156.5 374.5 L 156.5 388.5 L 141.5 388.5 Z M 141.0 374.1 " fill="none" stroke="#000000" stroke-width="1.00" stroke-miterlimit="0.00" stroke-linecap="round" stroke-linejoin="round" transform="matrix(3.10, 0.00, 0.00, -3.09, 29.9, 1482.5)"></path><text xml:space="preserve" font-family="Helvetica" font-size="9.0" fill="#000000" transform="matrix(3.10, 0.00, -0.00, -3.09, 487.1, 293.6)">.</text><path d="M 418.9 325.0 L 468.5 325.0 L 468.5 281.7 L 418.9 281.7 Z M 419.0 326.3 " fill="#D5D5D5"></path><path d="M 125.5 374.5 L 141.5 374.5 L 141.5 388.5 L 125.5 388.5 Z M 125.6 374.1 " fill="none" stroke="#000000" stroke-width="1.00" stroke-miterlimit="0.00" stroke-linecap="round" stroke-linejoin="round" transform="matrix(3.10, 0.00, 0.00, -3.09, 29.9, 1482.5)"></path><text xml:space="preserve" font-family="Helvetica" font-size="9.0" fill="#D5D5D5" transform="matrix(3.10, 0.00, -0.00, -3.09, 435.3, 293.6)">6</text><path d="M 372.4 325.0 L 418.9 325.0 L 418.9 281.7 L 372.4 281.7 Z M 371.1 326.3 " fill="#FEFFFF"></path><path d="M 110.5 374.5 L 125.5 374.5 L 125.5 388.5 L 110.5 388.5 Z M 110.1 374.1 " fill="none" stroke="#000000" stroke-width="1.00" stroke-miterlimit="0.00" stroke-linecap="round" stroke-linejoin="round" transform="matrix(3.10, 0.00, 0.00, -3.09, 29.9, 1482.5)"></path><text xml:space="preserve" font-family="Helvetica" font-size="9.0" fill="#000000" transform="matrix(3.10, 0.00, -0.00, -3.09, 387.3, 293.6)">5</text><path d="M 322.8 325.0 L 372.4 325.0 L 372.4 281.7 L 322.8 281.7 Z M 323.2 326.3 " fill="#FEFFFF"></path><path d="M 94.5 374.5 L 110.5 374.5 L 110.5 388.5 L 94.5 388.5 Z M 94.6 374.1 " fill="none" stroke="#000000" stroke-width="1.00" stroke-miterlimit="0.00" stroke-linecap="round" stroke-linejoin="round" transform="matrix(3.10, 0.00, 0.00, -3.09, 29.9, 1482.5)"></path><text xml:space="preserve" font-family="Helvetica" font-size="9.0" fill="#000000" transform="matrix(3.10, 0.00, -0.00, -3.09, 339.4, 293.6)">4</text><path d="M 276.3 325.0 L 322.8 325.0 L 322.8 281.7 L 276.3 281.7 Z M 275.2 326.3 " fill="#FEFFFF"></path><path d="M 79.5 374.5 L 94.5 374.5 L 94.5 388.5 L 79.5 388.5 Z M 79.2 374.1 " fill="none" stroke="#000000" stroke-width="1.00" stroke-miterlimit="0.00" stroke-linecap="round" stroke-linejoin="round" transform="matrix(3.10, 0.00, 0.00, -3.09, 29.9, 1482.5)"></path><text xml:space="preserve" font-family="Helvetica" font-size="9.0" fill="#000000" transform="matrix(3.10, 0.00, -0.00, -3.09, 291.4, 293.6)">3</text><path d="M 226.7 325.0 L 276.3 325.0 L 276.3 281.7 L 226.7 281.7 Z M 227.3 326.3 " fill="#FEFFFF"></path><path d="M 63.5 374.5 L 79.5 374.5 L 79.5 388.5 L 63.5 388.5 Z M 63.7 374.1 " fill="none" stroke="#000000" stroke-width="1.00" stroke-miterlimit="0.00" stroke-linecap="round" stroke-linejoin="round" transform="matrix(3.10, 0.00, 0.00, -3.09, 29.9, 1482.5)"></path><text xml:space="preserve" font-family="Helvetica" font-size="9.0" fill="#000000" transform="matrix(3.10, 0.00, -0.00, -3.09, 243.5, 293.6)">2</text><path d="M 180.2 325.0 L 226.7 325.0 L 226.7 281.7 L 180.2 281.7 Z M 179.3 326.3 " fill="#FEFFFF"></path><path d="M 48.5 374.5 L 63.5 374.5 L 63.5 388.5 L 48.5 388.5 Z M 48.2 374.1 " fill="none" stroke="#000000" stroke-width="1.00" stroke-miterlimit="0.00" stroke-linecap="round" stroke-linejoin="round" transform="matrix(3.10, 0.00, 0.00, -3.09, 29.9, 1482.5)"></path><text xml:space="preserve" font-family="Helvetica" font-size="9.0" fill="#000000" transform="matrix(3.10, 0.00, -0.00, -3.09, 195.5, 293.6)">1</text><path d="M 130.6 325.0 L 180.2 325.0 L 180.2 281.7 L 130.6 281.7 Z M 131.4 326.3 " fill="#FEFFFF"></path><path d="M 32.5 374.5 L 48.5 374.5 L 48.5 388.5 L 32.5 388.5 Z M 32.7 374.1 " fill="none" stroke="#000000" stroke-width="1.00" stroke-miterlimit="0.00" stroke-linecap="round" stroke-linejoin="round" transform="matrix(3.10, 0.00, 0.00, -3.09, 29.9, 1482.5)"></path><text xml:space="preserve" font-family="Helvetica" font-size="9.0" fill="#000000" transform="matrix(3.10, 0.00, -0.00, -3.09, 147.6, 293.6)">0</text><path d="M 803.2 325.0 L 846.6 325.0 L 846.6 281.7 L 803.2 281.7 Z M 802.6 326.3 " fill="#FEFFFF"></path><path d="M 249.5 374.5 L 263.5 374.5 L 263.5 388.5 L 249.5 388.5 Z M 249.3 374.1 " fill="none" stroke="#000000" stroke-width="1.00" stroke-miterlimit="0.00" stroke-linecap="round" stroke-linejoin="round" transform="matrix(3.10, 0.00, 0.00, -3.09, 29.9, 1482.5)"></path><text xml:space="preserve" font-family="Helvetica" font-size="9.0" fill="#000000" transform="matrix(3.10, 0.00, -0.00, -3.09, 820.0, 293.6)">.</text><path d="M 756.7 325.0 L 803.2 325.0 L 803.2 281.7 L 756.7 281.7 Z M 754.6 326.3 " fill="#D5D5D5"></path><path d="M 234.5 374.5 L 249.5 374.5 L 249.5 388.5 L 234.5 388.5 Z M 233.8 374.1 " fill="none" stroke="#000000" stroke-width="1.00" stroke-miterlimit="0.00" stroke-linecap="round" stroke-linejoin="round" transform="matrix(3.10, 0.00, 0.00, -3.09, 29.9, 1482.5)"></path><text xml:space="preserve" font-family="Helvetica" font-size="9.0" fill="#000000" transform="matrix(3.10, 0.00, -0.00, -3.09, 774.7, 293.6)">.</text><path d="M 707.1 325.0 L 756.7 325.0 L 756.7 281.7 L 707.1 281.7 Z M 706.7 326.3 " fill="#D5D5D5"></path><path d="M 218.5 374.5 L 234.5 374.5 L 234.5 388.5 L 218.5 388.5 Z M 218.4 374.1 " fill="none" stroke="#000000" stroke-width="1.00" stroke-miterlimit="0.00" stroke-linecap="round" stroke-linejoin="round" transform="matrix(3.10, 0.00, 0.00, -3.09, 29.9, 1482.5)"></path><text xml:space="preserve" font-family="Helvetica" font-size="9.0" fill="#000000" transform="matrix(3.10, 0.00, -0.00, -3.09, 726.8, 293.6)">.</text><path d="M 660.6 325.0 L 707.1 325.0 L 707.1 281.7 L 660.6 281.7 Z M 658.8 326.3 " fill="#D5D5D5"></path><path d="M 203.5 374.5 L 218.5 374.5 L 218.5 388.5 L 203.5 388.5 Z M 202.9 374.1 " fill="none" stroke="#000000" stroke-width="1.00" stroke-miterlimit="0.00" stroke-linecap="round" stroke-linejoin="round" transform="matrix(3.10, 0.00, 0.00, -3.09, 29.9, 1482.5)"></path><text xml:space="preserve" font-family="Helvetica" font-size="9.0" fill="#000000" transform="matrix(3.10, 0.00, -0.00, -3.09, 675.0, 293.6)">1</text><path d="M 611.0 325.0 L 660.6 325.0 L 660.6 281.7 L 611.0 281.7 Z M 610.8 326.3 " fill="#D5D5D5"></path><path d="M 187.5 374.5 L 203.5 374.5 L 203.5 388.5 L 187.5 388.5 Z M 187.4 374.1 " fill="none" stroke="#000000" stroke-width="1.00" stroke-miterlimit="0.00" stroke-linecap="round" stroke-linejoin="round" transform="matrix(3.10, 0.00, 0.00, -3.09, 29.9, 1482.5)"></path><text xml:space="preserve" font-family="Helvetica" font-size="9.0" fill="#000000" transform="matrix(3.10, 0.00, -0.00, -3.09, 627.0, 293.6)">0</text><path d="M 846.6 368.3 L 1230.9 368.3 L 1230.9 325.0 L 846.6 325.0 Z M 845.3 369.8 " fill="#FEFFFF"></path><path d="M 263.5 360.5 L 387.5 360.5 L 387.5 374.5 L 263.5 374.5 Z M 263.1 360.0 " fill="none" stroke="#000000" stroke-width="1.00" stroke-miterlimit="0.00" stroke-linecap="round" stroke-linejoin="round" transform="matrix(3.10, 0.00, 0.00, -3.09, 29.9, 1482.5)"></path><text xml:space="preserve" font-family="Helvetica" font-size="9.0" fill="#000000" transform="matrix(3.10, 0.00, -0.00, -3.09, 860.8, 337.1)">t</text><text xml:space="preserve" font-family="Helvetica" font-size="9.0" fill="#000000" transform="matrix(3.10, 0.00, -0.00, -3.09, 868.6, 337.1)">i</text><text xml:space="preserve" font-family="Helvetica" font-size="9.0" fill="#000000" transform="matrix(3.10, 0.00, -0.00, -3.09, 874.8, 337.1)">m</text><text xml:space="preserve" font-family="Helvetica" font-size="9.0" fill="#000000" transform="matrix(3.10, 0.00, -0.00, -3.09, 898.0, 337.1)">e</text><text xml:space="preserve" font-family="Helvetica" font-size="9.0" fill="#000000" transform="matrix(3.10, 0.00, -0.00, -3.09, 913.5, 337.1)">s</text><text xml:space="preserve" font-family="Helvetica" font-size="9.0" fill="#000000" transform="matrix(3.10, 0.00, -0.00, -3.09, 927.5, 337.1)">t</text><text xml:space="preserve" font-family="Helvetica" font-size="9.0" fill="#000000" transform="matrix(3.10, 0.00, -0.00, -3.09, 935.2, 337.1)">a</text><text xml:space="preserve" font-family="Helvetica" font-size="9.0" fill="#000000" transform="matrix(3.10, 0.00, -0.00, -3.09, 950.7, 337.1)">m</text><text xml:space="preserve" font-family="Helvetica" font-size="9.0" fill="#000000" transform="matrix(3.10, 0.00, -0.00, -3.09, 974.0, 337.1)">p</text><path d="M 40.7 368.3 L 611.0 368.3 L 611.0 325.0 L 40.7 325.0 Z M 41.0 369.8 " fill="#FEFFFF"></path><path d="M 3.5 360.5 L 187.5 360.5 L 187.5 374.5 L 3.5 374.5 Z M 3.6 360.0 " fill="none" stroke="#000000" stroke-width="1.00" stroke-miterlimit="0.00" stroke-linecap="round" stroke-linejoin="round" transform="matrix(3.10, 0.00, 0.00, -3.09, 29.9, 1482.5)"></path><text xml:space="preserve" font-family="Helvetica" font-size="9.0" fill="#000000" transform="matrix(3.10, 0.00, -0.00, -3.09, 56.5, 337.1)">i</text><text xml:space="preserve" font-family="Helvetica" font-size="9.0" fill="#000000" transform="matrix(3.10, 0.00, -0.00, -3.09, 62.7, 337.1)">d</text><text xml:space="preserve" font-family="Helvetica" font-size="9.0" fill="#000000" transform="matrix(3.10, 0.00, -0.00, -3.09, 78.2, 337.1)">e</text><text xml:space="preserve" font-family="Helvetica" font-size="9.0" fill="#000000" transform="matrix(3.10, 0.00, -0.00, -3.09, 93.7, 337.1)">n</text><text xml:space="preserve" font-family="Helvetica" font-size="9.0" fill="#000000" transform="matrix(3.10, 0.00, -0.00, -3.09, 109.2, 337.1)">t</text><text xml:space="preserve" font-family="Helvetica" font-size="9.0" fill="#000000" transform="matrix(3.10, 0.00, -0.00, -3.09, 117.0, 337.1)">i</text><text xml:space="preserve" font-family="Helvetica" font-size="9.0" fill="#000000" transform="matrix(3.10, 0.00, -0.00, -3.09, 123.2, 337.1)">t</text><text xml:space="preserve" font-family="Helvetica" font-size="9.0" fill="#000000" transform="matrix(3.10, 0.00, -0.00, -3.09, 130.9, 337.1)">y</text><path d="M 611.0 368.3 L 846.6 368.3 L 846.6 325.0 L 611.0 325.0 Z M 610.8 369.8 " fill="#FEFFFF"></path><path d="M 187.5 360.5 L 263.5 360.5 L 263.5 374.5 L 187.5 374.5 Z M 187.4 360.0 " fill="none" stroke="#000000" stroke-width="1.00" stroke-miterlimit="0.00" stroke-linecap="round" stroke-linejoin="round" transform="matrix(3.10, 0.00, 0.00, -3.09, 29.9, 1482.5)"></path><text xml:space="preserve" font-family="Helvetica" font-size="9.0" fill="#000000" transform="matrix(3.10, 0.00, -0.00, -3.09, 626.3, 337.1)">p</text><text xml:space="preserve" font-family="Helvetica" font-size="9.0" fill="#000000" transform="matrix(3.10, 0.00, -0.00, -3.09, 641.8, 337.1)">a</text><text xml:space="preserve" font-family="Helvetica" font-size="9.0" fill="#000000" transform="matrix(3.10, 0.00, -0.00, -3.09, 657.3, 337.1)">r</text><text xml:space="preserve" font-family="Helvetica" font-size="9.0" fill="#000000" transform="matrix(3.10, 0.00, -0.00, -3.09, 666.6, 337.1)">t</text><text xml:space="preserve" font-family="Helvetica" font-size="9.0" fill="#000000" transform="matrix(3.10, 0.00, -0.00, -3.09, 674.4, 337.1)">i</text><text xml:space="preserve" font-family="Helvetica" font-size="9.0" fill="#000000" transform="matrix(3.10, 0.00, -0.00, -3.09, 680.6, 337.1)">c</text><text xml:space="preserve" font-family="Helvetica" font-size="9.0" fill="#000000" transform="matrix(3.10, 0.00, -0.00, -3.09, 694.5, 337.1)">l</text><text xml:space="preserve" font-family="Helvetica" font-size="9.0" fill="#000000" transform="matrix(3.10, 0.00, -0.00, -3.09, 700.7, 337.1)">e</text><text xml:space="preserve" font-family="Helvetica" font-size="9.0" fill="#000000" transform="matrix(3.10, 0.00, -0.00, -3.09, 716.2, 337.1)">s</text><path d="M 1726.8 325.0 L 1804.3 325.0 L 1804.3 281.7 L 1726.8 281.7 Z M 1726.7 326.3 " fill="#FEFFFF"></path><path d="M 547.5 374.5 L 572.5 374.5 L 572.5 388.5 L 547.5 388.5 Z M 547.5 374.1 " fill="none" stroke="#000000" stroke-width="1.00" stroke-miterlimit="0.00" stroke-linecap="round" stroke-linejoin="round" transform="matrix(3.10, 0.00, 0.00, -3.09, 29.9, 1482.5)"></path><text xml:space="preserve" font-family="Helvetica" font-size="9.0" fill="#000000" transform="matrix(3.10, 0.00, -0.00, -3.09, 1732.1, 293.6)">v</text><text xml:space="preserve" font-family="Helvetica" font-size="9.0" fill="#000000" transform="matrix(3.10, 0.00, -0.00, -3.09, 1746.0, 293.6)">a</text><text xml:space="preserve" font-family="Helvetica" font-size="9.0" fill="#000000" transform="matrix(3.10, 0.00, -0.00, -3.09, 1761.6, 293.6)">l</text><text xml:space="preserve" font-family="Helvetica" font-size="9.0" fill="#000000" transform="matrix(3.10, 0.00, -0.00, -3.09, 1767.8, 293.6)">u</text><text xml:space="preserve" font-family="Helvetica" font-size="9.0" fill="#000000" transform="matrix(3.10, 0.00, -0.00, -3.09, 1783.3, 293.6)">e</text><path d="M 1571.8 325.0 L 1649.3 325.0 L 1649.3 281.7 L 1571.8 281.7 Z M 1571.7 326.3 " fill="#FEFFFF"></path><path d="M 497.5 374.5 L 522.5 374.5 L 522.5 388.5 L 497.5 388.5 Z M 497.5 374.1 " fill="none" stroke="#000000" stroke-width="1.00" stroke-miterlimit="0.00" stroke-linecap="round" stroke-linejoin="round" transform="matrix(3.10, 0.00, 0.00, -3.09, 29.9, 1482.5)"></path><text xml:space="preserve" font-family="Helvetica" font-size="9.0" fill="#000000" transform="matrix(3.10, 0.00, -0.00, -3.09, 1576.3, 293.6)">c</text><text xml:space="preserve" font-family="Helvetica" font-size="9.0" fill="#000000" transform="matrix(3.10, 0.00, -0.00, -3.09, 1590.3, 293.6)">o</text><text xml:space="preserve" font-family="Helvetica" font-size="9.0" fill="#000000" transform="matrix(3.10, 0.00, -0.00, -3.09, 1605.8, 293.6)">u</text><text xml:space="preserve" font-family="Helvetica" font-size="9.0" fill="#000000" transform="matrix(3.10, 0.00, -0.00, -3.09, 1621.3, 293.6)">n</text><text xml:space="preserve" font-family="Helvetica" font-size="9.0" fill="#000000" transform="matrix(3.10, 0.00, -0.00, -3.09, 1636.9, 293.6)">t</text><path d="M 1516.0 325.0 L 1571.8 325.0 L 1571.8 281.7 L 1516.0 281.7 Z M 1516.5 326.3 " fill="#FEFFFF"></path><path d="M 479.5 374.5 L 497.5 374.5 L 497.5 388.5 L 479.5 388.5 Z M 479.7 374.1 " fill="none" stroke="#000000" stroke-width="1.00" stroke-miterlimit="0.00" stroke-linecap="round" stroke-linejoin="round" transform="matrix(3.10, 0.00, 0.00, -3.09, 29.9, 1482.5)"></path><text xml:space="preserve" font-family="Helvetica" font-size="9.0" fill="#000000" transform="matrix(3.10, 0.00, -0.00, -3.09, 1518.1, 293.6)">m</text><text xml:space="preserve" font-family="Helvetica" font-size="9.0" fill="#000000" transform="matrix(3.10, 0.00, -0.00, -3.09, 1541.3, 293.6)">a</text><text xml:space="preserve" font-family="Helvetica" font-size="9.0" fill="#000000" transform="matrix(3.10, 0.00, -0.00, -3.09, 1556.8, 293.6)">x</text><path d="M 1463.3 325.0 L 1516.0 325.0 L 1516.0 281.7 L 1463.3 281.7 Z M 1463.2 326.3 " fill="#FEFFFF"></path><path d="M 462.5 374.5 L 479.5 374.5 L 479.5 388.5 L 462.5 388.5 Z M 462.5 374.1 " fill="none" stroke="#000000" stroke-width="1.00" stroke-miterlimit="0.00" stroke-linecap="round" stroke-linejoin="round" transform="matrix(3.10, 0.00, 0.00, -3.09, 29.9, 1482.5)"></path><text xml:space="preserve" font-family="Helvetica" font-size="9.0" fill="#000000" transform="matrix(3.10, 0.00, -0.00, -3.09, 1467.4, 293.6)">m</text><text xml:space="preserve" font-family="Helvetica" font-size="9.0" fill="#000000" transform="matrix(3.10, 0.00, -0.00, -3.09, 1490.6, 293.6)">i</text><text xml:space="preserve" font-family="Helvetica" font-size="9.0" fill="#000000" transform="matrix(3.10, 0.00, -0.00, -3.09, 1496.8, 293.6)">n</text><path d="M 1463.3 368.3 L 1804.3 368.3 L 1804.3 325.0 L 1463.3 325.0 Z M 1463.2 369.8 " fill="#FEFFFF"></path><path d="M 462.5 360.5 L 572.5 360.5 L 572.5 374.5 L 462.5 374.5 Z M 462.5 360.0 " fill="none" stroke="#000000" stroke-width="1.00" stroke-miterlimit="0.00" stroke-linecap="round" stroke-linejoin="round" transform="matrix(3.10, 0.00, 0.00, -3.09, 29.9, 1482.5)"></path><text xml:space="preserve" font-family="Helvetica" font-size="9.0" fill="#000000" transform="matrix(3.10, 0.00, -0.00, -3.09, 1478.7, 337.1)">q</text><text xml:space="preserve" font-family="Helvetica" font-size="9.0" fill="#000000" transform="matrix(3.10, 0.00, -0.00, -3.09, 1494.3, 337.1)">u</text><text xml:space="preserve" font-family="Helvetica" font-size="9.0" fill="#000000" transform="matrix(3.10, 0.00, -0.00, -3.09, 1509.8, 337.1)">a</text><text xml:space="preserve" font-family="Helvetica" font-size="9.0" fill="#000000" transform="matrix(3.10, 0.00, -0.00, -3.09, 1525.3, 337.1)">r</text><text xml:space="preserve" font-family="Helvetica" font-size="9.0" fill="#000000" transform="matrix(3.10, 0.00, -0.00, -3.09, 1534.6, 337.1)">k</text><path d="M 1649.3 325.0 L 1726.8 325.0 L 1726.8 281.7 L 1649.3 281.7 Z M 1649.2 326.0 " fill="#FEFFFF"></path><path d="M 522.5 374.5 L 547.5 374.5 L 547.5 388.5 L 522.5 388.5 Z M 522.5 374.2 " fill="none" stroke="#000000" stroke-width="1.00" stroke-miterlimit="0.00" stroke-linecap="round" stroke-linejoin="round" transform="matrix(3.10, 0.00, 0.00, -3.09, 29.9, 1482.5)"></path><text xml:space="preserve" font-family="Helvetica" font-size="9.0" fill="#000000" transform="matrix(3.10, 0.00, -0.00, -3.09, 1661.6, 293.5)">s</text><text xml:space="preserve" font-family="Helvetica" font-size="9.0" fill="#000000" transform="matrix(3.10, 0.00, -0.00, -3.09, 1675.5, 293.5)">u</text><text xml:space="preserve" font-family="Helvetica" font-size="9.0" fill="#000000" transform="matrix(3.10, 0.00, -0.00, -3.09, 1691.1, 293.5)">m</text><path d="M 1230.9 368.3 L 1463.3 368.3 L 1463.3 325.0 L 1230.9 325.0 Z M 1228.9 369.8 " fill="#FEFFFF"></path><path d="M 387.5 360.5 L 462.5 360.5 L 462.5 374.5 L 387.5 374.5 Z M 386.8 360.0 " fill="none" stroke="#000000" stroke-width="1.00" stroke-miterlimit="0.00" stroke-linecap="round" stroke-linejoin="round" transform="matrix(3.10, 0.00, 0.00, -3.09, 29.9, 1482.5)"></path><text xml:space="preserve" font-family="Helvetica" font-size="9.0" fill="#000000" transform="matrix(3.10, 0.00, -0.00, -3.09, 1244.4, 337.1)">ﬁ</text><text xml:space="preserve" font-family="Helvetica" font-size="9.0" fill="#000000" transform="matrix(3.10, 0.00, -0.00, -3.09, 1258.3, 337.1)">e</text><text xml:space="preserve" font-family="Helvetica" font-size="9.0" fill="#000000" transform="matrix(3.10, 0.00, -0.00, -3.09, 1273.8, 337.1)">l</text><text xml:space="preserve" font-family="Helvetica" font-size="9.0" fill="#000000" transform="matrix(3.10, 0.00, -0.00, -3.09, 1280.0, 337.1)">d</text><text xml:space="preserve" font-family="Helvetica" font-size="9.0" fill="#000000" transform="matrix(3.10, 0.00, -0.00, -3.09, 1295.5, 337.1)">s</text><path d="M 1419.9 325.0 L 1463.3 325.0 L 1463.3 281.7 L 1419.9 281.7 Z M 1420.6 326.0 " fill="#FEFFFF"></path><path d="M 448.5 374.5 L 462.5 374.5 L 462.5 388.5 L 448.5 388.5 Z M 448.7 374.2 " fill="none" stroke="#000000" stroke-width="1.00" stroke-miterlimit="0.00" stroke-linecap="round" stroke-linejoin="round" transform="matrix(3.10, 0.00, 0.00, -3.09, 29.9, 1482.5)"></path><text xml:space="preserve" font-family="Helvetica" font-size="9.0" fill="#000000" transform="matrix(3.10, 0.00, -0.00, -3.09, 1438.1, 293.2)">.</text><path d="M 1373.4 325.0 L 1419.9 325.0 L 1419.9 281.7 L 1373.4 281.7 Z M 1372.7 326.0 " fill="#D5D5D5"></path><path d="M 433.5 374.5 L 448.5 374.5 L 448.5 388.5 L 433.5 388.5 Z M 433.3 374.2 " fill="none" stroke="#000000" stroke-width="1.00" stroke-miterlimit="0.00" stroke-linecap="round" stroke-linejoin="round" transform="matrix(3.10, 0.00, 0.00, -3.09, 29.9, 1482.5)"></path><text xml:space="preserve" font-family="Helvetica" font-size="9.0" fill="#000000" transform="matrix(3.10, 0.00, -0.00, -3.09, 1392.8, 293.2)">.</text><path d="M 1327.0 325.0 L 1373.4 325.0 L 1373.4 281.7 L 1327.0 281.7 Z M 1324.8 326.0 " fill="#D5D5D5"></path><path d="M 418.5 374.5 L 433.5 374.5 L 433.5 388.5 L 418.5 388.5 Z M 417.8 374.2 " fill="none" stroke="#000000" stroke-width="1.00" stroke-miterlimit="0.00" stroke-linecap="round" stroke-linejoin="round" transform="matrix(3.10, 0.00, 0.00, -3.09, 29.9, 1482.5)"></path><text xml:space="preserve" font-family="Helvetica" font-size="9.0" fill="#000000" transform="matrix(3.10, 0.00, -0.00, -3.09, 1344.8, 293.2)">.</text><path d="M 1277.4 325.0 L 1327.0 325.0 L 1327.0 281.7 L 1277.4 281.7 Z M 1276.8 326.0 " fill="#D5D5D5"></path><path d="M 402.5 374.5 L 418.5 374.5 L 418.5 388.5 L 402.5 388.5 Z M 402.3 374.2 " fill="none" stroke="#000000" stroke-width="1.00" stroke-miterlimit="0.00" stroke-linecap="round" stroke-linejoin="round" transform="matrix(3.10, 0.00, 0.00, -3.09, 29.9, 1482.5)"></path><text xml:space="preserve" font-family="Helvetica" font-size="9.0" fill="#000000" transform="matrix(3.10, 0.00, -0.00, -3.09, 1293.0, 293.2)">1</text><path d="M 1230.9 325.0 L 1277.4 325.0 L 1277.4 281.7 L 1230.9 281.7 Z M 1228.9 326.0 " fill="#D5D5D5"></path><path d="M 387.5 374.5 L 402.5 374.5 L 402.5 388.5 L 387.5 388.5 Z M 386.8 374.2 " fill="none" stroke="#000000" stroke-width="1.00" stroke-miterlimit="0.00" stroke-linecap="round" stroke-linejoin="round" transform="matrix(3.10, 0.00, 0.00, -3.09, 29.9, 1482.5)"></path><text xml:space="preserve" font-family="Helvetica" font-size="9.0" fill="#000000" transform="matrix(3.10, 0.00, -0.00, -3.09, 1245.1, 293.2)">0</text></g></g><path d="M 0.0 0.0 L 605.4 0.0 L 608.4 0.0 " fill="none" stroke="#1497FC" stroke-width="6.00" transform="matrix(0.98, -0.19, -0.19, -0.98, 1134.8, 484.9)"></path><path d="M 1726.3 356.0 L 1752.2 363.1 L 1731.0 379.5 Z M 1726.3 356.0 " fill="#1497FC"></path><path d="M 0.0 0.0 L 577.2 0.0 L 580.2 0.0 " fill="none" stroke="#1497FC" stroke-width="6.00" transform="matrix(0.99, 0.11, 0.11, -0.99, 1144.6, 503.5)"></path><path d="M 1719.6 555.8 L 1742.1 570.4 L 1716.9 579.6 Z M 1719.6 555.8 " fill="#1497FC"></path><image xlink:href="C62E3D9D00CBD2C89F1733D1CE024FBB.png" width="373.00" height="51.00" transform="matrix(1.00, 0.00, -0.00, -1.00, 735.0, 514.0)"></image><text xml:space="preserve" font-family="HelveticaNeue-Light" font-size="58.0" fill="#FEFFFE" transform="matrix(1.00, 0.00, -0.00, -1.00, 739.0, 471.0)">t</text><text xml:space="preserve" font-family="HelveticaNeue-Light" font-size="58.0" fill="#FEFFFE" transform="matrix(1.00, 0.00, -0.00, -1.00, 756.2, 471.0)">h</text><text xml:space="preserve" font-family="HelveticaNeue-Light" font-size="58.0" fill="#FEFFFE" transform="matrix(1.00, 0.00, -0.00, -1.00, 787.3, 471.0)">e</text><text xml:space="preserve" font-family="HelveticaNeue-Light" font-size="58.0" fill="#FEFFFE" transform="matrix(1.00, 0.00, -0.00, -1.00, 817.4, 471.0)"> </text><text xml:space="preserve" font-family="HelveticaNeue-Light" font-size="58.0" fill="#FEFFFE" transform="matrix(1.00, 0.00, -0.00, -1.00, 833.5, 471.0)">l</text><text xml:space="preserve" font-family="HelveticaNeue-Light" font-size="58.0" fill="#FEFFFE" transform="matrix(1.00, 0.00, -0.00, -1.00, 844.3, 471.0)">a</text><text xml:space="preserve" font-family="HelveticaNeue-Light" font-size="58.0" fill="#FEFFFE" transform="matrix(1.00, 0.00, -0.00, -1.00, 874.4, 471.0)">s</text><text xml:space="preserve" font-family="HelveticaNeue-Light" font-size="58.0" fill="#FEFFFE" transform="matrix(1.00, 0.00, -0.00, -1.00, 902.3, 471.0)">t</text><text xml:space="preserve" font-family="HelveticaNeue-Light" font-size="58.0" fill="#FEFFFE" transform="matrix(1.00, 0.00, -0.00, -1.00, 919.4, 471.0)"> </text><text xml:space="preserve" font-family="HelveticaNeue-Light" font-size="58.0" fill="#FEFFFE" transform="matrix(1.00, 0.00, -0.00, -1.00, 935.6, 471.0)">6</text><text xml:space="preserve" font-family="HelveticaNeue-Light" font-size="58.0" fill="#FEFFFE" transform="matrix(1.00, 0.00, -0.00, -1.00, 967.8, 471.0)">4</text><text xml:space="preserve" font-family="HelveticaNeue-Light" font-size="58.0" fill="#FEFFFE" transform="matrix(1.00, 0.00, -0.00, -1.00, 1000.1, 471.0)"> </text><text xml:space="preserve" font-family="HelveticaNeue-Light" font-size="58.0" fill="#FEFFFE" transform="matrix(1.00, 0.00, -0.00, -1.00, 1016.2, 471.0)">b</text><text xml:space="preserve" font-family="HelveticaNeue-Light" font-size="58.0" fill="#FEFFFE" transform="matrix(1.00, 0.00, -0.00, -1.00, 1049.5, 471.0)">i</text><text xml:space="preserve" font-family="HelveticaNeue-Light" font-size="58.0" fill="#FEFFFE" transform="matrix(1.00, 0.00, -0.00, -1.00, 1060.2, 471.0)">t</text><text xml:space="preserve" font-family="HelveticaNeue-Light" font-size="58.0" fill="#FEFFFE" transform="matrix(1.00, 0.00, -0.00, -1.00, 1077.4, 471.0)">s</text></g></svg>