<?xml version="1.0" encoding="UTF-8" standalone="no"?><svg xmlns="http://www.w3.org/2000/svg" xmlns:xlink="http://www.w3.org/1999/xlink" clip-rule="evenodd" stroke-miterlimit="4.00" viewBox="0 0 1920 1080"><desc>SVG generated by Keynote</desc><defs></defs><g transform="matrix(1.00, 0.00, -0.00, -1.00, 0.0, 1080.0)"><g><clipPath id="clip-45"><path d="M 0.0 1080.0 L 1920.0 1080.0 L 1920.0 0.0 L 0.0 0.0 Z M 0.0 1080.0 "></path></clipPath><g clip-path="url(#clip-45)"><image xlink:href="../../A172C229-966A-4E8A-A457-DFB78DE74FB5/assets/4E6DE69724E5577B4EF4A0F429FFC101.jpeg" width="1365.00" height="767.00" transform="matrix(1.41, 0.00, -0.00, -1.41, 0.0, 1080.0)"></image></g></g><g><clipPath id="clip-46"><path d="M 255.0 70.0 L 1665.0 70.0 L 1665.0 1010.0 L 255.0 1010.0 Z M 255.0 70.0 "></path></clipPath><g clip-path="url(#clip-46)"><image xlink:href="../../4A8B3DBE-227D-4B55-A518-AF8AB7FEAFDC/assets/5F7D8F22BB8BB6BE92A3475AD3567A72.png" width="564.00" height="378.00" transform="matrix(2.51, 0.00, -0.00, 2.51, 250.0, 62.5)"></image><path d="M 262.5 1002.5 L 1660.0 1002.5 L 1660.0 75.0 L 262.5 75.0 Z M 262.0 1002.9 " fill="#EAEAEA"></path><path d="M 8.0 170.0 L 564.0 170.0 L 564.0 539.0 L 8.0 539.0 Z M 7.8 169.8 " fill="none" stroke="#000000" stroke-width="2.00" stroke-miterlimit="0.00" stroke-linecap="round" stroke-linejoin="round" transform="matrix(2.51, 0.00, 0.00, -2.51, 242.4, 1429.7)"></path><text xml:space="preserve" font-family="Verdana" font-size="22.0" fill="#000000" transform="matrix(2.51, 0.00, -0.00, -2.51, 887.6, 925.8)">A</text><text xml:space="preserve" font-family="Verdana" font-size="22.0" fill="#000000" transform="matrix(2.51, 0.00, -0.00, -2.51, 924.8, 925.8)">t</text><text xml:space="preserve" font-family="Verdana" font-size="22.0" fill="#000000" transform="matrix(2.51, 0.00, -0.00, -2.51, 946.6, 925.8)">o</text><text xml:space="preserve" font-family="Verdana" font-size="22.0" fill="#000000" transform="matrix(2.51, 0.00, -0.00, -2.51, 980.1, 925.8)">m</text><image xlink:href="../../4A8B3DBE-227D-4B55-A518-AF8AB7FEAFDC/assets/533373CF9DB354D9FDF76A26EB834EB8.png" width="287.00" height="196.00" transform="matrix(2.51, 0.00, -0.00, 2.51, 250.0, 394.2)"></image><path d="M 262.5 879.3 L 961.3 879.3 L 961.3 406.8 L 262.5 406.8 Z M 262.0 878.4 " fill="#F4F4F4"></path><path d="M 8.0 219.0 L 286.0 219.0 L 286.0 407.0 L 8.0 407.0 Z M 7.8 219.3 " fill="none" stroke="#000000" stroke-width="2.00" stroke-miterlimit="0.00" stroke-linecap="round" stroke-linejoin="round" transform="matrix(2.51, 0.00, 0.00, -2.51, 242.4, 1429.7)"></path><text xml:space="preserve" font-family="Verdana" font-size="18.0" fill="#000000" transform="matrix(2.51, 0.00, -0.00, -2.51, 584.7, 813.8)">I</text><text xml:space="preserve" font-family="Verdana" font-size="18.0" fill="#000000" transform="matrix(2.51, 0.00, -0.00, -2.51, 603.7, 813.8)">D</text><image xlink:href="../../4A8B3DBE-227D-4B55-A518-AF8AB7FEAFDC/assets/533373CF9DB354D9FDF76A26EB834EB8.png" width="287.00" height="196.00" transform="matrix(2.51, 0.00, -0.00, 2.51, 948.7, 394.2)"></image><path d="M 961.3 879.3 L 1660.0 879.3 L 1660.0 406.8 L 961.3 406.8 Z M 960.3 878.4 " fill="#F4F4F4"></path><path d="M 286.0 219.0 L 564.0 219.0 L 564.0 407.0 L 286.0 407.0 Z M 285.6 219.3 " fill="none" stroke="#000000" stroke-width="2.00" stroke-miterlimit="0.00" stroke-linecap="round" stroke-linejoin="round" transform="matrix(2.51, 0.00, 0.00, -2.51, 242.4, 1429.7)"></path><text xml:space="preserve" font-family="Verdana" font-size="18.0" fill="#000000" transform="matrix(2.51, 0.00, -0.00, -2.51, 1241.1, 813.8)">Q</text><text xml:space="preserve" font-family="Verdana" font-size="18.0" fill="#000000" transform="matrix(2.51, 0.00, -0.00, -2.51, 1276.7, 813.8)">u</text><text xml:space="preserve" font-family="Verdana" font-size="18.0" fill="#000000" transform="matrix(2.51, 0.00, -0.00, -2.51, 1305.4, 813.8)">a</text><text xml:space="preserve" font-family="Verdana" font-size="18.0" fill="#000000" transform="matrix(2.51, 0.00, -0.00, -2.51, 1332.5, 813.8)">r</text><text xml:space="preserve" font-family="Verdana" font-size="18.0" fill="#000000" transform="matrix(2.51, 0.00, -0.00, -2.51, 1351.8, 813.8)">k</text><image xlink:href="../../4A8B3DBE-227D-4B55-A518-AF8AB7FEAFDC/assets/89BC309C35F6B2604A9B5383454DFFD2.png" width="151.00" height="158.00" transform="matrix(2.51, 0.00, -0.00, 2.51, 250.0, 394.2)"></image><path d="M 262.5 783.8 L 622.0 783.8 L 622.0 406.8 L 262.5 406.8 Z M 262.0 784.2 " fill="#F4F4F4"></path><path d="M 8.0 257.0 L 151.0 257.0 L 151.0 407.0 L 8.0 407.0 Z M 7.8 256.9 " fill="none" stroke="#000000" stroke-width="2.00" stroke-miterlimit="0.00" stroke-linecap="round" stroke-linejoin="round" transform="matrix(2.51, 0.00, 0.00, -2.51, 242.4, 1429.7)"></path><text xml:space="preserve" font-family="Verdana" font-size="18.0" fill="#000000" transform="matrix(2.51, 0.00, -0.00, -2.51, 356.1, 578.5)">i</text><text xml:space="preserve" font-family="Verdana" font-size="18.0" fill="#000000" transform="matrix(2.51, 0.00, -0.00, -2.51, 368.5, 578.5)">d</text><text xml:space="preserve" font-family="Verdana" font-size="18.0" fill="#000000" transform="matrix(2.51, 0.00, -0.00, -2.51, 396.7, 578.5)">e</text><text xml:space="preserve" font-family="Verdana" font-size="18.0" fill="#000000" transform="matrix(2.51, 0.00, -0.00, -2.51, 423.7, 578.5)">n</text><text xml:space="preserve" font-family="Verdana" font-size="18.0" fill="#000000" transform="matrix(2.51, 0.00, -0.00, -2.51, 452.3, 578.5)">t</text><text xml:space="preserve" font-family="Verdana" font-size="18.0" fill="#000000" transform="matrix(2.51, 0.00, -0.00, -2.51, 470.1, 578.5)">i</text><text xml:space="preserve" font-family="Verdana" font-size="18.0" fill="#000000" transform="matrix(2.51, 0.00, -0.00, -2.51, 482.5, 578.5)">t</text><text xml:space="preserve" font-family="Verdana" font-size="18.0" fill="#000000" transform="matrix(2.51, 0.00, -0.00, -2.51, 500.1, 578.5)">y</text><image xlink:href="../../4A8B3DBE-227D-4B55-A518-AF8AB7FEAFDC/assets/E00CD0E5707892466315533429AA9DDE.png" width="147.00" height="158.00" transform="matrix(2.51, 0.00, -0.00, 2.51, 601.8, 394.2)"></image><path d="M 614.4 783.8 L 961.3 783.8 L 961.3 406.8 L 614.4 406.8 Z M 613.6 784.2 " fill="#F4F4F4"></path><path d="M 148.0 257.0 L 286.0 257.0 L 286.0 407.0 L 148.0 407.0 Z M 147.7 256.9 " fill="none" stroke="#000000" stroke-width="2.00" stroke-miterlimit="0.00" stroke-linecap="round" stroke-linejoin="round" transform="matrix(2.51, 0.00, 0.00, -2.51, 242.4, 1429.7)"></path><text xml:space="preserve" font-family="Verdana" font-size="18.0" fill="#000000" transform="matrix(2.51, 0.00, -0.00, -2.51, 691.7, 578.5)">p</text><text xml:space="preserve" font-family="Verdana" font-size="18.0" fill="#000000" transform="matrix(2.51, 0.00, -0.00, -2.51, 719.9, 578.5)">a</text><text xml:space="preserve" font-family="Verdana" font-size="18.0" fill="#000000" transform="matrix(2.51, 0.00, -0.00, -2.51, 747.1, 578.5)">r</text><text xml:space="preserve" font-family="Verdana" font-size="18.0" fill="#000000" transform="matrix(2.51, 0.00, -0.00, -2.51, 766.4, 578.5)">t</text><text xml:space="preserve" font-family="Verdana" font-size="18.0" fill="#000000" transform="matrix(2.51, 0.00, -0.00, -2.51, 784.2, 578.5)">i</text><text xml:space="preserve" font-family="Verdana" font-size="18.0" fill="#000000" transform="matrix(2.51, 0.00, -0.00, -2.51, 796.6, 578.5)">c</text><text xml:space="preserve" font-family="Verdana" font-size="18.0" fill="#000000" transform="matrix(2.51, 0.00, -0.00, -2.51, 820.2, 578.5)">l</text><text xml:space="preserve" font-family="Verdana" font-size="18.0" fill="#000000" transform="matrix(2.51, 0.00, -0.00, -2.51, 832.6, 578.5)">e</text><text xml:space="preserve" font-family="Verdana" font-size="18.0" fill="#000000" transform="matrix(2.51, 0.00, -0.00, -2.51, 859.6, 578.5)">s</text><image xlink:href="../../4A8B3DBE-227D-4B55-A518-AF8AB7FEAFDC/assets/A2D932DBB9EB1FFD900B6DC1391C9916.png" width="564.00" height="141.00" transform="matrix(2.51, 0.00, -0.00, 2.51, 250.0, 62.5)"></image><path d="M 262.5 406.8 L 1660.0 406.8 L 1660.0 75.0 L 262.5 75.0 Z M 262.0 407.9 " fill="#FEFFFF"></path><path d="M 8.0 407.0 L 564.0 407.0 L 564.0 539.0 L 8.0 539.0 Z M 7.8 406.5 " fill="none" stroke="#000000" stroke-width="2.00" stroke-miterlimit="0.00" stroke-linecap="round" stroke-linejoin="round" transform="matrix(2.51, 0.00, 0.00, -2.51, 242.4, 1429.7)"></path><text xml:space="preserve" font-family="Verdana" font-size="10.0" fill="#000000" transform="matrix(2.51, 0.00, -0.00, -2.51, 916.1, 231.5)">S</text><text xml:space="preserve" font-family="Verdana" font-size="10.0" fill="#000000" transform="matrix(2.51, 0.00, -0.00, -2.51, 933.2, 231.5)">t</text><text xml:space="preserve" font-family="Verdana" font-size="10.0" fill="#000000" transform="matrix(2.51, 0.00, -0.00, -2.51, 943.1, 231.5)">r</text><text xml:space="preserve" font-family="Verdana" font-size="10.0" fill="#000000" transform="matrix(2.51, 0.00, -0.00, -2.51, 953.9, 231.5)">i</text><text xml:space="preserve" font-family="Verdana" font-size="10.0" fill="#000000" transform="matrix(2.51, 0.00, -0.00, -2.51, 960.8, 231.5)">n</text><text xml:space="preserve" font-family="Verdana" font-size="10.0" fill="#000000" transform="matrix(2.51, 0.00, -0.00, -2.51, 976.7, 231.5)">g</text><text xml:space="preserve" font-family="Verdana" font-size="10.0" fill="#000000" transform="matrix(2.51, 0.00, -0.00, -2.51, 992.3, 231.5)">s</text><image xlink:href="../../4A8B3DBE-227D-4B55-A518-AF8AB7FEAFDC/assets/68C7E9D7FB3AC83F011DA8D018413468.png" width="60.00" height="158.00" transform="matrix(2.51, 0.00, -0.00, 2.51, 948.7, 394.2)"></image><path d="M 961.3 786.3 L 1092.0 786.3 L 1092.0 409.3 L 961.3 409.3 Z M 960.4 785.1 " fill="#F4F4F4"></path><path d="M 286.0 256.0 L 338.0 256.0 L 338.0 406.0 L 286.0 406.0 Z M 285.7 256.5 " fill="none" stroke="#000000" stroke-width="2.00" stroke-miterlimit="0.00" stroke-linecap="round" stroke-linejoin="round" transform="matrix(2.51, 0.00, 0.00, -2.51, 242.4, 1429.7)"></path><text xml:space="preserve" font-family="Verdana" font-size="11.0" fill="#000000" transform="matrix(2.51, 0.00, -0.00, -2.51, 999.8, 585.8)">m</text><text xml:space="preserve" font-family="Verdana" font-size="11.0" fill="#000000" transform="matrix(2.51, 0.00, -0.00, -2.51, 1026.6, 585.8)">i</text><text xml:space="preserve" font-family="Verdana" font-size="11.0" fill="#000000" transform="matrix(2.51, 0.00, -0.00, -2.51, 1034.2, 585.8)">n</text><image xlink:href="../../4A8B3DBE-227D-4B55-A518-AF8AB7FEAFDC/assets/5ECC7CBD651CFFD8DEB3CC9D1C514623.png" width="60.00" height="158.00" transform="matrix(2.51, 0.00, -0.00, 2.51, 1074.4, 394.2)"></image><path d="M 1084.4 786.3 L 1215.1 786.3 L 1215.1 409.3 L 1084.4 409.3 Z M 1085.4 785.1 " fill="#F4F4F4"></path><path d="M 335.0 256.0 L 387.0 256.0 L 387.0 406.0 L 335.0 406.0 Z M 335.4 256.5 " fill="none" stroke="#000000" stroke-width="2.00" stroke-miterlimit="0.00" stroke-linecap="round" stroke-linejoin="round" transform="matrix(2.51, 0.00, 0.00, -2.51, 242.4, 1429.7)"></path><text xml:space="preserve" font-family="Verdana" font-size="11.0" fill="#000000" transform="matrix(2.51, 0.00, -0.00, -2.51, 1120.7, 585.8)">m</text><text xml:space="preserve" font-family="Verdana" font-size="11.0" fill="#000000" transform="matrix(2.51, 0.00, -0.00, -2.51, 1147.6, 585.8)">a</text><text xml:space="preserve" font-family="Verdana" font-size="11.0" fill="#000000" transform="matrix(2.51, 0.00, -0.00, -2.51, 1164.2, 585.8)">x</text><image xlink:href="../../4A8B3DBE-227D-4B55-A518-AF8AB7FEAFDC/assets/C7D5243604CF716BB6A4E35C4769CA9B.png" width="65.00" height="158.00" transform="matrix(2.51, 0.00, -0.00, 2.51, 1205.1, 394.2)"></image><path d="M 1215.1 786.3 L 1358.4 786.3 L 1358.4 409.3 L 1215.1 409.3 Z M 1216.0 785.1 " fill="#F4F4F4"></path><path d="M 387.0 256.0 L 444.0 256.0 L 444.0 406.0 L 387.0 406.0 Z M 387.3 256.5 " fill="none" stroke="#000000" stroke-width="2.00" stroke-miterlimit="0.00" stroke-linecap="round" stroke-linejoin="round" transform="matrix(2.51, 0.00, 0.00, -2.51, 242.4, 1429.7)"></path><text xml:space="preserve" font-family="Verdana" font-size="10.0" fill="#000000" transform="matrix(2.51, 0.00, -0.00, -2.51, 1251.9, 587.0)">c</text><text xml:space="preserve" font-family="Verdana" font-size="10.0" fill="#000000" transform="matrix(2.51, 0.00, -0.00, -2.51, 1265.0, 587.0)">o</text><text xml:space="preserve" font-family="Verdana" font-size="10.0" fill="#000000" transform="matrix(2.51, 0.00, -0.00, -2.51, 1280.2, 587.0)">u</text><text xml:space="preserve" font-family="Verdana" font-size="10.0" fill="#000000" transform="matrix(2.51, 0.00, -0.00, -2.51, 1296.1, 587.0)">n</text><text xml:space="preserve" font-family="Verdana" font-size="10.0" fill="#000000" transform="matrix(2.51, 0.00, -0.00, -2.51, 1312.0, 587.0)">t</text><image xlink:href="../../4A8B3DBE-227D-4B55-A518-AF8AB7FEAFDC/assets/189A5B05F6FF39A851D87C723C1F02CB.png" width="70.00" height="158.00" transform="matrix(2.51, 0.00, -0.00, 2.51, 1345.8, 394.2)"></image><path d="M 1358.4 786.3 L 1511.7 786.3 L 1511.7 409.3 L 1358.4 409.3 Z M 1357.9 785.1 " fill="#F4F4F4"></path><path d="M 444.0 256.0 L 505.0 256.0 L 505.0 406.0 L 444.0 406.0 Z M 443.8 256.5 " fill="none" stroke="#000000" stroke-width="2.00" stroke-miterlimit="0.00" stroke-linecap="round" stroke-linejoin="round" transform="matrix(2.51, 0.00, 0.00, -2.51, 242.4, 1429.7)"></path><text xml:space="preserve" font-family="Verdana" font-size="10.0" fill="#000000" transform="matrix(2.51, 0.00, -0.00, -2.51, 1408.1, 587.0)">s</text><text xml:space="preserve" font-family="Verdana" font-size="10.0" fill="#000000" transform="matrix(2.51, 0.00, -0.00, -2.51, 1421.2, 587.0)">u</text><text xml:space="preserve" font-family="Verdana" font-size="10.0" fill="#000000" transform="matrix(2.51, 0.00, -0.00, -2.51, 1437.1, 587.0)">m</text><image xlink:href="../../4A8B3DBE-227D-4B55-A518-AF8AB7FEAFDC/assets/189A5B05F6FF39A851D87C723C1F02CB.png" width="70.00" height="158.00" transform="matrix(2.51, 0.00, -0.00, 2.51, 1494.1, 394.2)"></image><path d="M 1506.7 786.3 L 1660.0 786.3 L 1660.0 409.3 L 1506.7 409.3 Z M 1505.5 785.1 " fill="#F4F4F4"></path><path d="M 503.0 256.0 L 564.0 256.0 L 564.0 406.0 L 503.0 406.0 Z M 502.6 256.5 " fill="none" stroke="#000000" stroke-width="2.00" stroke-miterlimit="0.00" stroke-linecap="round" stroke-linejoin="round" transform="matrix(2.51, 0.00, 0.00, -2.51, 242.4, 1429.7)"></path><text xml:space="preserve" font-family="Verdana" font-size="10.0" fill="#000000" transform="matrix(2.51, 0.00, -0.00, -2.51, 1548.9, 587.0)">v</text><text xml:space="preserve" font-family="Verdana" font-size="10.0" fill="#000000" transform="matrix(2.51, 0.00, -0.00, -2.51, 1563.2, 587.0)">a</text><text xml:space="preserve" font-family="Verdana" font-size="10.0" fill="#000000" transform="matrix(2.51, 0.00, -0.00, -2.51, 1578.3, 587.0)">l</text><text xml:space="preserve" font-family="Verdana" font-size="10.0" fill="#000000" transform="matrix(2.51, 0.00, -0.00, -2.51, 1585.2, 587.0)">u</text><text xml:space="preserve" font-family="Verdana" font-size="10.0" fill="#000000" transform="matrix(2.51, 0.00, -0.00, -2.51, 1601.1, 587.0)">e</text></g></g></g></svg>