<?xml version="1.0" encoding="UTF-8" standalone="no"?><svg xmlns="http://www.w3.org/2000/svg" xmlns:xlink="http://www.w3.org/1999/xlink" clip-rule="evenodd" stroke-miterlimit="4.00" viewBox="0 0 1920 1080"><desc>SVG generated by Keynote</desc><defs></defs><g transform="matrix(1.00, 0.00, -0.00, -1.00, 0.0, 1080.0)"><g><clipPath id="clip-289"><path d="M 0.0 1080.0 L 1920.0 1080.0 L 1920.0 0.0 L 0.0 0.0 Z M 0.0 1080.0 "></path></clipPath><g clip-path="url(#clip-289)"><image xlink:href="../../A172C229-966A-4E8A-A457-DFB78DE74FB5/assets/4E6DE69724E5577B4EF4A0F429FFC101.jpeg" width="1365.00" height="767.00" transform="matrix(1.41, 0.00, -0.00, -1.41, 0.0, 1080.0)"></image></g></g><image xlink:href="../../0D288153-1B1C-413E-B28E-DEE507A538C8/assets/BAC1DA4D3251CD85F484894A8C1EBC31.png" width="760.00" height="102.00" transform="matrix(1.00, 0.00, -0.00, -1.00, 576.0, 953.0)"></image><text xml:space="preserve" font-family="HelveticaNeue-Light" font-size="100.0" fill="#FEFFFE" transform="matrix(1.00, 0.00, -0.00, -1.00, 577.0, 879.0)">O</text><text xml:space="preserve" font-family="HelveticaNeue-Light" font-size="100.0" fill="#FEFFFE" transform="matrix(1.00, 0.00, -0.00, -1.00, 651.1, 879.0)">n</text><text xml:space="preserve" font-family="HelveticaNeue-Light" font-size="100.0" fill="#FEFFFE" transform="matrix(1.00, 0.00, -0.00, -1.00, 704.8, 879.0)">e</text><text xml:space="preserve" font-family="HelveticaNeue-Light" font-size="100.0" fill="#FEFFFE" transform="matrix(1.00, 0.00, -0.00, -1.00, 756.7, 879.0)"> </text><text xml:space="preserve" font-family="HelveticaNeue-Light" font-size="100.0" fill="#FEFFFE" transform="matrix(1.00, 0.00, -0.00, -1.00, 784.5, 879.0)">m</text><text xml:space="preserve" font-family="HelveticaNeue-Light" font-size="100.0" fill="#FEFFFE" transform="matrix(1.00, 0.00, -0.00, -1.00, 867.8, 879.0)">o</text><text xml:space="preserve" font-family="HelveticaNeue-Light" font-size="100.0" fill="#FEFFFE" transform="matrix(1.00, 0.00, -0.00, -1.00, 923.4, 879.0)">r</text><text xml:space="preserve" font-family="HelveticaNeue-Light" font-size="100.0" fill="#FEFFFE" transform="matrix(1.00, 0.00, -0.00, -1.00, 953.1, 879.0)">e</text><text xml:space="preserve" font-family="HelveticaNeue-Light" font-size="100.0" fill="#FEFFFE" transform="matrix(1.00, 0.00, -0.00, -1.00, 1005.0, 879.0)"> </text><text xml:space="preserve" font-family="HelveticaNeue-Light" font-size="100.0" fill="#FEFFFE" transform="matrix(1.00, 0.00, -0.00, -1.00, 1032.8, 879.0)">t</text><text xml:space="preserve" font-family="HelveticaNeue-Light" font-size="100.0" fill="#FEFFFE" transform="matrix(1.00, 0.00, -0.00, -1.00, 1062.4, 879.0)">h</text><text xml:space="preserve" font-family="HelveticaNeue-Light" font-size="100.0" fill="#FEFFFE" transform="matrix(1.00, 0.00, -0.00, -1.00, 1116.1, 879.0)">i</text><text xml:space="preserve" font-family="HelveticaNeue-Light" font-size="100.0" fill="#FEFFFE" transform="matrix(1.00, 0.00, -0.00, -1.00, 1134.6, 879.0)">n</text><text xml:space="preserve" font-family="HelveticaNeue-Light" font-size="100.0" fill="#FEFFFE" transform="matrix(1.00, 0.00, -0.00, -1.00, 1188.3, 879.0)">g</text><text xml:space="preserve" font-family="HelveticaNeue-Light" font-size="100.0" fill="#FEFFFE" transform="matrix(1.00, 0.00, -0.00, -1.00, 1243.9, 879.0)">…</text><image xlink:href="../../4318361C-A88E-460E-AA5D-66112FB1CD2F/assets/73C224773238C2ABDCF4CDB78A87AC3C.png" width="448.00" height="62.00" transform="matrix(1.00, 0.00, -0.00, -1.00, 734.0, 747.0)"></image><text xml:space="preserve" font-family="HelveticaNeue-Light" font-size="58.0" fill="#FEFFFE" transform="matrix(1.00, 0.00, -0.00, -1.00, 739.0, 704.0)">T</text><text xml:space="preserve" font-family="HelveticaNeue-Light" font-size="58.0" fill="#FEFFFE" transform="matrix(1.00, 0.00, -0.00, -1.00, 771.2, 704.0)">h</text><text xml:space="preserve" font-family="HelveticaNeue-Light" font-size="58.0" fill="#FEFFFE" transform="matrix(1.00, 0.00, -0.00, -1.00, 802.4, 704.0)">e</text><text xml:space="preserve" font-family="HelveticaNeue-Light" font-size="58.0" fill="#FEFFFE" transform="matrix(1.00, 0.00, -0.00, -1.00, 832.5, 704.0)"> </text><text xml:space="preserve" font-family="HelveticaNeue-Light" font-size="58.0" fill="#FEFFFE" transform="matrix(1.00, 0.00, -0.00, -1.00, 848.6, 704.0)">r</text><text xml:space="preserve" font-family="HelveticaNeue-Light" font-size="58.0" fill="#FEFFFE" transform="matrix(1.00, 0.00, -0.00, -1.00, 865.8, 704.0)">e</text><text xml:space="preserve" font-family="HelveticaNeue-Light" font-size="58.0" fill="#FEFFFE" transform="matrix(1.00, 0.00, -0.00, -1.00, 895.9, 704.0)">a</text><text xml:space="preserve" font-family="HelveticaNeue-Light" font-size="58.0" fill="#FEFFFE" transform="matrix(1.00, 0.00, -0.00, -1.00, 926.0, 704.0)">d</text><text xml:space="preserve" font-family="HelveticaNeue-Light" font-size="58.0" fill="#FEFFFE" transform="matrix(1.00, 0.00, -0.00, -1.00, 959.3, 704.0)"> </text><text xml:space="preserve" font-family="HelveticaNeue-Light" font-size="58.0" fill="#FEFFFE" transform="matrix(1.00, 0.00, -0.00, -1.00, 975.5, 704.0)">p</text><text xml:space="preserve" font-family="HelveticaNeue-Light" font-size="58.0" fill="#FEFFFE" transform="matrix(1.00, 0.00, -0.00, -1.00, 1008.8, 704.0)">r</text><text xml:space="preserve" font-family="HelveticaNeue-Light" font-size="58.0" fill="#FEFFFE" transform="matrix(1.00, 0.00, -0.00, -1.00, 1026.0, 704.0)">o</text><text xml:space="preserve" font-family="HelveticaNeue-Light" font-size="58.0" fill="#FEFFFE" transform="matrix(1.00, 0.00, -0.00, -1.00, 1058.2, 704.0)">b</text><text xml:space="preserve" font-family="HelveticaNeue-Light" font-size="58.0" fill="#FEFFFE" transform="matrix(1.00, 0.00, -0.00, -1.00, 1091.5, 704.0)">l</text><text xml:space="preserve" font-family="HelveticaNeue-Light" font-size="58.0" fill="#FEFFFE" transform="matrix(1.00, 0.00, -0.00, -1.00, 1102.3, 704.0)">e</text><text xml:space="preserve" font-family="HelveticaNeue-Light" font-size="58.0" fill="#FEFFFE" transform="matrix(1.00, 0.00, -0.00, -1.00, 1132.4, 704.0)">m</text></g></svg>