<?xml version="1.0" encoding="UTF-8" standalone="no"?><svg xmlns="http://www.w3.org/2000/svg" xmlns:xlink="http://www.w3.org/1999/xlink" clip-rule="evenodd" stroke-miterlimit="4.00" viewBox="0 0 1781 105"><desc>SVG generated by Keynote</desc><defs></defs><g transform="matrix(1.00, 0.00, -0.00, -1.00, 0.0, 105.0)"><g><clipPath id="clip-311"><path d="M 1.0 1.0 L 1780.0 1.0 L 1780.0 103.0 L 1.0 103.0 Z M 1.0 1.0 "></path></clipPath><g clip-path="url(#clip-311)"><path d="M 297.2 374.3 L 288.6 376.5 " fill="none" stroke="#000000" stroke-width="1.00" stroke-miterlimit="0.00" stroke-linecap="round" stroke-linejoin="round" transform="matrix(3.10, 0.00, 0.00, -3.09, -2.1, 1209.5)"></path><path d="M 868.5 39.6 L 894.8 36.8 L 890.1 54.7 Z M 868.5 39.6 " fill="#000000"></path><path d="M 280.9 378.5 L 289.4 379.4 L 287.9 373.6 Z M 280.9 378.5 " fill="none" stroke="#000000" stroke-width="1.00" stroke-miterlimit="0.00" transform="matrix(3.10, 0.00, 0.00, -3.09, -2.1, 1209.5)"></path><path d="M 814.6 52.0 L 861.1 52.0 L 861.1 8.7 L 814.6 8.7 Z M 813.3 53.4 " fill="#D5D5D5"></path><path d="M 263.5 374.5 L 278.5 374.5 L 278.5 388.5 L 263.5 388.5 Z M 263.1 374.0 " fill="none" stroke="#000000" stroke-width="1.00" stroke-miterlimit="0.00" stroke-linecap="round" stroke-linejoin="round" transform="matrix(3.10, 0.00, 0.00, -3.09, -2.1, 1209.5)"></path><text xml:space="preserve" font-family="Helvetica" font-size="9.0" fill="#000000" transform="matrix(3.10, 0.00, -0.00, -3.09, 829.5, 20.7)">0</text><path d="M 763.8 44.2 L 745.1 62.8 L 737.4 46.0 Z M 763.8 44.2 " fill="#000000"></path><path d="M 247.1 377.0 L 241.1 371.0 L 238.6 376.5 Z M 247.1 377.0 " fill="none" stroke="#000000" stroke-width="1.00" stroke-miterlimit="0.00" transform="matrix(3.10, 0.00, 0.00, -3.09, -2.1, 1209.5)"></path><path d="M 225.2 367.1 L 226.0 367.7 " fill="none" stroke="#000000" stroke-width="1.00" stroke-miterlimit="0.00" stroke-linecap="round" stroke-linejoin="round" transform="matrix(3.10, 0.00, 0.00, -3.09, -2.1, 1209.5)"></path><path d="M 717.0 56.9 L 704.3 80.0 L 692.1 66.0 Z M 717.0 56.9 " fill="#000000"></path><path d="M 232.0 372.9 L 227.9 365.4 L 224.0 370.0 Z M 232.0 372.9 " fill="none" stroke="#000000" stroke-width="1.00" stroke-miterlimit="0.00" transform="matrix(3.10, 0.00, 0.00, -3.09, -2.1, 1209.5)"></path><path d="M 698.3 37.3 L 706.1 62.5 L 687.5 61.4 Z M 698.3 37.3 " fill="#000000"></path><path d="M 226.0 379.3 L 228.5 371.1 L 222.5 371.5 Z M 226.0 379.3 " fill="none" stroke="#000000" stroke-width="1.00" stroke-miterlimit="0.00" transform="matrix(3.10, 0.00, 0.00, -3.09, -2.1, 1209.5)"></path><path d="M 678.9 58.5 L 703.2 69.0 L 690.3 82.3 Z M 678.9 58.5 " fill="#000000"></path><path d="M 219.7 372.4 L 227.6 369.0 L 223.4 364.7 Z M 219.7 372.4 " fill="none" stroke="#000000" stroke-width="1.00" stroke-miterlimit="0.00" transform="matrix(3.10, 0.00, 0.00, -3.09, -2.1, 1209.5)"></path><path d="M 633.5 45.8 L 659.9 47.8 L 652.0 64.6 Z M 633.5 45.8 " fill="#000000"></path><path d="M 205.1 376.5 L 213.6 375.8 L 211.1 370.4 Z M 205.1 376.5 " fill="none" stroke="#000000" stroke-width="1.00" stroke-miterlimit="0.00" transform="matrix(3.10, 0.00, 0.00, -3.09, -2.1, 1209.5)"></path><path d="M 138.4 374.3 L 161.7 378.1 " fill="none" stroke="#000000" stroke-width="1.00" stroke-miterlimit="0.00" stroke-linecap="round" stroke-linejoin="round" transform="matrix(3.10, 0.00, 0.00, -3.09, -2.1, 1209.5)"></path><path d="M 523.5 36.7 L 500.6 49.9 L 497.5 31.6 Z M 523.5 36.7 " fill="#000000"></path><path d="M 169.6 379.5 L 162.2 375.2 L 161.2 381.1 Z M 169.6 379.5 " fill="none" stroke="#000000" stroke-width="1.00" stroke-miterlimit="0.00" transform="matrix(3.10, 0.00, 0.00, -3.09, -2.1, 1209.5)"></path><path d="M 130.6 374.3 L 146.3 377.5 " fill="none" stroke="#000000" stroke-width="1.00" stroke-miterlimit="0.00" stroke-linecap="round" stroke-linejoin="round" transform="matrix(3.10, 0.00, 0.00, -3.09, -2.1, 1209.5)"></path><path d="M 475.6 37.8 L 453.2 51.9 L 449.5 33.7 Z M 475.6 37.8 " fill="#000000"></path><path d="M 154.1 379.1 L 146.9 374.5 L 145.7 380.4 Z M 154.1 379.1 " fill="none" stroke="#000000" stroke-width="1.00" stroke-miterlimit="0.00" transform="matrix(3.10, 0.00, 0.00, -3.09, -2.1, 1209.5)"></path><path d="M 122.8 374.3 L 131.0 376.5 " fill="none" stroke="#000000" stroke-width="1.00" stroke-miterlimit="0.00" stroke-linecap="round" stroke-linejoin="round" transform="matrix(3.10, 0.00, 0.00, -3.09, -2.1, 1209.5)"></path><path d="M 427.8 39.6 L 406.2 54.9 L 401.4 37.0 Z M 427.8 39.6 " fill="#000000"></path><path d="M 138.7 378.5 L 131.7 373.6 L 130.2 379.4 Z M 138.7 378.5 " fill="none" stroke="#000000" stroke-width="1.00" stroke-miterlimit="0.00" transform="matrix(3.10, 0.00, 0.00, -3.09, -2.1, 1209.5)"></path><path d="M 115.0 374.3 L 115.8 374.6 " fill="none" stroke="#000000" stroke-width="1.00" stroke-miterlimit="0.00" stroke-linecap="round" stroke-linejoin="round" transform="matrix(3.10, 0.00, 0.00, -3.09, -2.1, 1209.5)"></path><path d="M 380.1 42.9 L 360.1 60.2 L 353.6 42.9 Z M 380.1 42.9 " fill="#000000"></path><path d="M 123.3 377.4 L 116.9 371.8 L 114.8 377.5 Z M 123.3 377.4 " fill="none" stroke="#000000" stroke-width="1.00" stroke-miterlimit="0.00" transform="matrix(3.10, 0.00, 0.00, -3.09, -2.1, 1209.5)"></path><path d="M 332.8 50.5 L 316.8 71.5 L 306.9 55.8 Z M 332.8 50.5 " fill="#000000"></path><path d="M 108.1 375.0 L 102.9 368.2 L 99.7 373.3 Z M 108.1 375.0 " fill="none" stroke="#000000" stroke-width="1.00" stroke-miterlimit="0.00" transform="matrix(3.10, 0.00, 0.00, -3.09, -2.1, 1209.5)"></path><path d="M 312.5 36.7 L 310.0 63.0 L 293.3 54.9 Z M 312.5 36.7 " fill="#000000"></path><path d="M 101.5 379.4 L 100.7 370.9 L 95.3 373.6 Z M 101.5 379.4 " fill="none" stroke="#000000" stroke-width="1.00" stroke-miterlimit="0.00" transform="matrix(3.10, 0.00, 0.00, -3.09, -2.1, 1209.5)"></path><path d="M 270.3 36.4 L 291.1 52.7 L 275.3 62.4 Z M 270.3 36.4 " fill="#000000"></path><path d="M 87.9 379.5 L 94.6 374.3 L 89.5 371.1 Z M 87.9 379.5 " fill="none" stroke="#000000" stroke-width="1.00" stroke-miterlimit="0.00" transform="matrix(3.10, 0.00, 0.00, -3.09, -2.1, 1209.5)"></path><path d="M 249.6 49.1 L 275.7 53.6 L 266.4 69.6 Z M 249.6 49.1 " fill="#000000"></path><path d="M 81.2 375.4 L 89.6 374.0 L 86.6 368.8 Z M 81.2 375.4 " fill="none" stroke="#000000" stroke-width="1.00" stroke-miterlimit="0.00" transform="matrix(3.10, 0.00, 0.00, -3.09, -2.1, 1209.5)"></path><path d="M 75.1 374.3 L 73.5 374.9 " fill="none" stroke="#000000" stroke-width="1.00" stroke-miterlimit="0.00" stroke-linecap="round" stroke-linejoin="round" transform="matrix(3.10, 0.00, 0.00, -3.09, -2.1, 1209.5)"></path><path d="M 202.3 42.4 L 228.8 42.0 L 222.5 59.4 Z M 202.3 42.4 " fill="#000000"></path><path d="M 65.9 377.6 L 74.5 377.7 L 72.5 372.1 Z M 65.9 377.6 " fill="none" stroke="#000000" stroke-width="1.00" stroke-miterlimit="0.00" transform="matrix(3.10, 0.00, 0.00, -3.09, -2.1, 1209.5)"></path><path d="M 67.3 374.3 L 58.3 376.6 " fill="none" stroke="#000000" stroke-width="1.00" stroke-miterlimit="0.00" stroke-linecap="round" stroke-linejoin="round" transform="matrix(3.10, 0.00, 0.00, -3.09, -2.1, 1209.5)"></path><path d="M 154.5 39.4 L 180.9 36.5 L 176.3 54.5 Z M 154.5 39.4 " fill="#000000"></path><path d="M 50.5 378.6 L 59.0 379.5 L 57.5 373.7 Z M 50.5 378.6 " fill="none" stroke="#000000" stroke-width="1.00" stroke-miterlimit="0.00" transform="matrix(3.10, 0.00, 0.00, -3.09, -2.1, 1209.5)"></path><path d="M 352.7 374.3 L 361.3 376.5 " fill="none" stroke="#000000" stroke-width="1.00" stroke-miterlimit="0.00" stroke-linecap="round" stroke-linejoin="round" transform="matrix(3.10, 0.00, 0.00, -3.09, -2.1, 1209.5)"></path><path d="M 1141.7 39.5 L 1120.1 54.7 L 1115.4 36.8 Z M 1141.7 39.5 " fill="#000000"></path><path d="M 369.1 378.5 L 362.1 373.6 L 360.6 379.4 Z M 369.1 378.5 " fill="none" stroke="#000000" stroke-width="1.00" stroke-miterlimit="0.00" transform="matrix(3.10, 0.00, 0.00, -3.09, -2.1, 1209.5)"></path><path d="M 344.9 374.3 L 346.1 374.8 " fill="none" stroke="#000000" stroke-width="1.00" stroke-miterlimit="0.00" stroke-linecap="round" stroke-linejoin="round" transform="matrix(3.10, 0.00, 0.00, -3.09, -2.1, 1209.5)"></path><path d="M 1094.0 42.7 L 1073.9 59.8 L 1067.5 42.4 Z M 1094.0 42.7 " fill="#000000"></path><path d="M 353.7 377.5 L 347.2 372.0 L 345.1 377.6 Z M 353.7 377.5 " fill="none" stroke="#000000" stroke-width="1.00" stroke-miterlimit="0.00" transform="matrix(3.10, 0.00, 0.00, -3.09, -2.1, 1209.5)"></path><path d="M 1046.7 49.8 L 1030.3 70.5 L 1020.7 54.7 Z M 1046.7 49.8 " fill="#000000"></path><path d="M 338.4 375.2 L 333.1 368.5 L 330.0 373.6 Z M 338.4 375.2 " fill="none" stroke="#000000" stroke-width="1.00" stroke-miterlimit="0.00" transform="matrix(3.10, 0.00, 0.00, -3.09, -2.1, 1209.5)"></path><path d="M 1026.2 36.6 L 1022.4 62.7 L 1006.1 53.8 Z M 1026.2 36.6 " fill="#000000"></path><path d="M 331.8 379.5 L 330.6 371.0 L 325.3 373.9 Z M 331.8 379.5 " fill="none" stroke="#000000" stroke-width="1.00" stroke-miterlimit="0.00" transform="matrix(3.10, 0.00, 0.00, -3.09, -2.1, 1209.5)"></path><path d="M 984.0 36.6 L 1004.1 53.8 L 987.8 62.7 Z M 984.0 36.6 " fill="#000000"></path><path d="M 318.2 379.5 L 324.6 373.9 L 319.4 371.0 Z M 318.2 379.5 " fill="none" stroke="#000000" stroke-width="1.00" stroke-miterlimit="0.00" transform="matrix(3.10, 0.00, 0.00, -3.09, -2.1, 1209.5)"></path><path d="M 963.5 49.8 L 989.5 54.7 L 979.9 70.5 Z M 963.5 49.8 " fill="#000000"></path><path d="M 311.6 375.2 L 320.0 373.6 L 316.8 368.5 Z M 311.6 375.2 " fill="none" stroke="#000000" stroke-width="1.00" stroke-miterlimit="0.00" transform="matrix(3.10, 0.00, 0.00, -3.09, -2.1, 1209.5)"></path><path d="M 312.1 374.4 L 303.1 379.6 " fill="none" stroke="#000000" stroke-width="1.00" stroke-miterlimit="0.00" stroke-linecap="round" stroke-linejoin="round" transform="matrix(3.10, 0.00, 0.00, -3.09, -2.1, 1209.5)"></path><path d="M 915.7 24.0 L 941.8 28.2 L 932.6 44.3 Z M 915.7 24.0 " fill="#000000"></path><path d="M 296.1 383.6 L 304.6 382.2 L 301.6 377.0 Z M 296.1 383.6 " fill="none" stroke="#000000" stroke-width="1.00" stroke-miterlimit="0.00" transform="matrix(3.10, 0.00, 0.00, -3.09, -2.1, 1209.5)"></path><path d="M 52.1 52.0 L 98.6 52.0 L 98.6 8.7 L 52.1 8.7 Z M 51.4 53.3 " fill="#FEFFFF"></path><path d="M 17.5 374.5 L 32.5 374.5 L 32.5 388.5 L 17.5 388.5 Z M 17.3 374.1 " fill="none" stroke="#000000" stroke-width="1.00" stroke-miterlimit="0.00" stroke-linecap="round" stroke-linejoin="round" transform="matrix(3.10, 0.00, 0.00, -3.09, -2.1, 1209.5)"></path><text xml:space="preserve" font-family="Helvetica" font-size="9.0" fill="#000000" transform="matrix(3.10, 0.00, -0.00, -3.09, 67.7, 20.6)">9</text><path d="M 8.7 52.0 L 52.1 52.0 L 52.1 8.7 L 8.7 8.7 Z M 8.8 52.9 " fill="#FEFFFF"></path><path d="M 3.5 374.5 L 17.5 374.5 L 17.5 388.5 L 3.5 388.5 Z M 3.5 374.2 " fill="none" stroke="#000000" stroke-width="1.00" stroke-miterlimit="0.00" stroke-linecap="round" stroke-linejoin="round" transform="matrix(3.10, 0.00, 0.00, -3.09, -2.1, 1209.5)"></path><text xml:space="preserve" font-family="Helvetica" font-size="9.0" fill="#000000" transform="matrix(3.10, 0.00, -0.00, -3.09, 22.4, 20.4)">8</text><path d="M 1149.3 52.0 L 1198.9 52.0 L 1198.9 8.7 L 1149.3 8.7 Z M 1148.9 53.3 " fill="#D5D5D5"></path><path d="M 371.5 374.5 L 387.5 374.5 L 387.5 388.5 L 371.5 388.5 Z M 371.4 374.1 " fill="none" stroke="#000000" stroke-width="1.00" stroke-miterlimit="0.00" stroke-linecap="round" stroke-linejoin="round" transform="matrix(3.10, 0.00, 0.00, -3.09, -2.1, 1209.5)"></path><text xml:space="preserve" font-family="Helvetica" font-size="9.0" fill="#000000" transform="matrix(3.10, 0.00, -0.00, -3.09, 1165.1, 20.6)">7</text><path d="M 1102.8 52.0 L 1149.3 52.0 L 1149.3 8.7 L 1102.8 8.7 Z M 1101.0 53.3 " fill="#D5D5D5"></path><path d="M 356.5 374.5 L 371.5 374.5 L 371.5 388.5 L 356.5 388.5 Z M 355.9 374.1 " fill="none" stroke="#000000" stroke-width="1.00" stroke-miterlimit="0.00" stroke-linecap="round" stroke-linejoin="round" transform="matrix(3.10, 0.00, 0.00, -3.09, -2.1, 1209.5)"></path><text xml:space="preserve" font-family="Helvetica" font-size="9.0" fill="#000000" transform="matrix(3.10, 0.00, -0.00, -3.09, 1117.2, 20.6)">6</text><path d="M 1053.2 52.0 L 1102.8 52.0 L 1102.8 8.7 L 1053.2 8.7 Z M 1053.0 53.3 " fill="#D5D5D5"></path><path d="M 340.5 374.5 L 356.5 374.5 L 356.5 388.5 L 340.5 388.5 Z M 340.4 374.1 " fill="none" stroke="#000000" stroke-width="1.00" stroke-miterlimit="0.00" stroke-linecap="round" stroke-linejoin="round" transform="matrix(3.10, 0.00, 0.00, -3.09, -2.1, 1209.5)"></path><text xml:space="preserve" font-family="Helvetica" font-size="9.0" fill="#000000" transform="matrix(3.10, 0.00, -0.00, -3.09, 1069.3, 20.6)">5</text><path d="M 1006.7 52.0 L 1053.2 52.0 L 1053.2 8.7 L 1006.7 8.7 Z M 1005.1 53.3 " fill="#D5D5D5"></path><path d="M 325.5 374.5 L 340.5 374.5 L 340.5 388.5 L 325.5 388.5 Z M 325.0 374.1 " fill="none" stroke="#000000" stroke-width="1.00" stroke-miterlimit="0.00" stroke-linecap="round" stroke-linejoin="round" transform="matrix(3.10, 0.00, 0.00, -3.09, -2.1, 1209.5)"></path><text xml:space="preserve" font-family="Helvetica" font-size="9.0" fill="#000000" transform="matrix(3.10, 0.00, -0.00, -3.09, 1021.3, 20.6)">4</text><path d="M 957.1 52.0 L 1006.7 52.0 L 1006.7 8.7 L 957.1 8.7 Z M 957.2 53.3 " fill="#D5D5D5"></path><path d="M 309.5 374.5 L 325.5 374.5 L 325.5 388.5 L 309.5 388.5 Z M 309.5 374.1 " fill="none" stroke="#000000" stroke-width="1.00" stroke-miterlimit="0.00" stroke-linecap="round" stroke-linejoin="round" transform="matrix(3.10, 0.00, 0.00, -3.09, -2.1, 1209.5)"></path><text xml:space="preserve" font-family="Helvetica" font-size="9.0" fill="#000000" transform="matrix(3.10, 0.00, -0.00, -3.09, 973.4, 20.6)">3</text><path d="M 910.6 52.0 L 957.1 52.0 L 957.1 8.7 L 910.6 8.7 Z M 909.2 53.3 " fill="#D5D5D5"></path><path d="M 294.5 374.5 L 309.5 374.5 L 309.5 388.5 L 294.5 388.5 Z M 294.0 374.1 " fill="none" stroke="#000000" stroke-width="1.00" stroke-miterlimit="0.00" stroke-linecap="round" stroke-linejoin="round" transform="matrix(3.10, 0.00, 0.00, -3.09, -2.1, 1209.5)"></path><text xml:space="preserve" font-family="Helvetica" font-size="9.0" fill="#000000" transform="matrix(3.10, 0.00, -0.00, -3.09, 925.4, 20.6)">2</text><path d="M 861.1 52.0 L 910.6 52.0 L 910.6 8.7 L 861.1 8.7 Z M 861.3 53.3 " fill="#D5D5D5"></path><path d="M 278.5 374.5 L 294.5 374.5 L 294.5 388.5 L 278.5 388.5 Z M 278.6 374.1 " fill="none" stroke="#000000" stroke-width="1.00" stroke-miterlimit="0.00" stroke-linecap="round" stroke-linejoin="round" transform="matrix(3.10, 0.00, 0.00, -3.09, -2.1, 1209.5)"></path><text xml:space="preserve" font-family="Helvetica" font-size="9.0" fill="#000000" transform="matrix(3.10, 0.00, -0.00, -3.09, 877.5, 20.6)">1</text><path d="M 532.5 52.0 L 579.0 52.0 L 579.0 8.7 L 532.5 8.7 Z M 530.9 53.3 " fill="#D5D5D5"></path><path d="M 172.5 374.5 L 187.5 374.5 L 187.5 388.5 L 172.5 388.5 Z M 172.0 374.1 " fill="none" stroke="#000000" stroke-width="1.00" stroke-miterlimit="0.00" stroke-linecap="round" stroke-linejoin="round" transform="matrix(3.10, 0.00, 0.00, -3.09, -2.1, 1209.5)"></path><text xml:space="preserve" font-family="Helvetica" font-size="9.0" fill="#000000" transform="matrix(3.10, 0.00, -0.00, -3.09, 551.0, 20.6)">.</text><path d="M 482.9 52.0 L 532.5 52.0 L 532.5 8.7 L 482.9 8.7 Z M 482.9 53.3 " fill="#D5D5D5"></path><path d="M 156.5 374.5 L 172.5 374.5 L 172.5 388.5 L 156.5 388.5 Z M 156.5 374.1 " fill="none" stroke="#000000" stroke-width="1.00" stroke-miterlimit="0.00" stroke-linecap="round" stroke-linejoin="round" transform="matrix(3.10, 0.00, 0.00, -3.09, -2.1, 1209.5)"></path><text xml:space="preserve" font-family="Helvetica" font-size="9.0" fill="#000000" transform="matrix(3.10, 0.00, -0.00, -3.09, 503.0, 20.6)">.</text><path d="M 436.5 52.0 L 482.9 52.0 L 482.9 8.7 L 436.5 8.7 Z M 435.0 53.3 " fill="#D5D5D5"></path><path d="M 141.5 374.5 L 156.5 374.5 L 156.5 388.5 L 141.5 388.5 Z M 141.0 374.1 " fill="none" stroke="#000000" stroke-width="1.00" stroke-miterlimit="0.00" stroke-linecap="round" stroke-linejoin="round" transform="matrix(3.10, 0.00, 0.00, -3.09, -2.1, 1209.5)"></path><text xml:space="preserve" font-family="Helvetica" font-size="9.0" fill="#000000" transform="matrix(3.10, 0.00, -0.00, -3.09, 455.1, 20.6)">.</text><path d="M 386.9 52.0 L 436.5 52.0 L 436.5 8.7 L 386.9 8.7 Z M 387.0 53.3 " fill="#D5D5D5"></path><path d="M 125.5 374.5 L 141.5 374.5 L 141.5 388.5 L 125.5 388.5 Z M 125.6 374.1 " fill="none" stroke="#000000" stroke-width="1.00" stroke-miterlimit="0.00" stroke-linecap="round" stroke-linejoin="round" transform="matrix(3.10, 0.00, 0.00, -3.09, -2.1, 1209.5)"></path><text xml:space="preserve" font-family="Helvetica" font-size="9.0" fill="#D5D5D5" transform="matrix(3.10, 0.00, -0.00, -3.09, 403.3, 20.6)">6</text><path d="M 340.4 52.0 L 386.9 52.0 L 386.9 8.7 L 340.4 8.7 Z M 339.1 53.3 " fill="#FEFFFF"></path><path d="M 110.5 374.5 L 125.5 374.5 L 125.5 388.5 L 110.5 388.5 Z M 110.1 374.1 " fill="none" stroke="#000000" stroke-width="1.00" stroke-miterlimit="0.00" stroke-linecap="round" stroke-linejoin="round" transform="matrix(3.10, 0.00, 0.00, -3.09, -2.1, 1209.5)"></path><text xml:space="preserve" font-family="Helvetica" font-size="9.0" fill="#000000" transform="matrix(3.10, 0.00, -0.00, -3.09, 355.3, 20.6)">5</text><path d="M 290.8 52.0 L 340.4 52.0 L 340.4 8.7 L 290.8 8.7 Z M 291.2 53.3 " fill="#FEFFFF"></path><path d="M 94.5 374.5 L 110.5 374.5 L 110.5 388.5 L 94.5 388.5 Z M 94.6 374.1 " fill="none" stroke="#000000" stroke-width="1.00" stroke-miterlimit="0.00" stroke-linecap="round" stroke-linejoin="round" transform="matrix(3.10, 0.00, 0.00, -3.09, -2.1, 1209.5)"></path><text xml:space="preserve" font-family="Helvetica" font-size="9.0" fill="#000000" transform="matrix(3.10, 0.00, -0.00, -3.09, 307.4, 20.6)">4</text><path d="M 244.3 52.0 L 290.8 52.0 L 290.8 8.7 L 244.3 8.7 Z M 243.2 53.3 " fill="#FEFFFF"></path><path d="M 79.5 374.5 L 94.5 374.5 L 94.5 388.5 L 79.5 388.5 Z M 79.2 374.1 " fill="none" stroke="#000000" stroke-width="1.00" stroke-miterlimit="0.00" stroke-linecap="round" stroke-linejoin="round" transform="matrix(3.10, 0.00, 0.00, -3.09, -2.1, 1209.5)"></path><text xml:space="preserve" font-family="Helvetica" font-size="9.0" fill="#000000" transform="matrix(3.10, 0.00, -0.00, -3.09, 259.4, 20.6)">3</text><path d="M 194.7 52.0 L 244.3 52.0 L 244.3 8.7 L 194.7 8.7 Z M 195.3 53.3 " fill="#FEFFFF"></path><path d="M 63.5 374.5 L 79.5 374.5 L 79.5 388.5 L 63.5 388.5 Z M 63.7 374.1 " fill="none" stroke="#000000" stroke-width="1.00" stroke-miterlimit="0.00" stroke-linecap="round" stroke-linejoin="round" transform="matrix(3.10, 0.00, 0.00, -3.09, -2.1, 1209.5)"></path><text xml:space="preserve" font-family="Helvetica" font-size="9.0" fill="#000000" transform="matrix(3.10, 0.00, -0.00, -3.09, 211.5, 20.6)">2</text><path d="M 148.2 52.0 L 194.7 52.0 L 194.7 8.7 L 148.2 8.7 Z M 147.3 53.3 " fill="#FEFFFF"></path><path d="M 48.5 374.5 L 63.5 374.5 L 63.5 388.5 L 48.5 388.5 Z M 48.2 374.1 " fill="none" stroke="#000000" stroke-width="1.00" stroke-miterlimit="0.00" stroke-linecap="round" stroke-linejoin="round" transform="matrix(3.10, 0.00, 0.00, -3.09, -2.1, 1209.5)"></path><text xml:space="preserve" font-family="Helvetica" font-size="9.0" fill="#000000" transform="matrix(3.10, 0.00, -0.00, -3.09, 163.5, 20.6)">1</text><path d="M 98.6 52.0 L 148.2 52.0 L 148.2 8.7 L 98.6 8.7 Z M 99.4 53.3 " fill="#FEFFFF"></path><path d="M 32.5 374.5 L 48.5 374.5 L 48.5 388.5 L 32.5 388.5 Z M 32.7 374.1 " fill="none" stroke="#000000" stroke-width="1.00" stroke-miterlimit="0.00" stroke-linecap="round" stroke-linejoin="round" transform="matrix(3.10, 0.00, 0.00, -3.09, -2.1, 1209.5)"></path><text xml:space="preserve" font-family="Helvetica" font-size="9.0" fill="#000000" transform="matrix(3.10, 0.00, -0.00, -3.09, 115.6, 20.6)">0</text><path d="M 771.2 52.0 L 814.6 52.0 L 814.6 8.7 L 771.2 8.7 Z M 770.6 53.3 " fill="#FEFFFF"></path><path d="M 249.5 374.5 L 263.5 374.5 L 263.5 388.5 L 249.5 388.5 Z M 249.3 374.1 " fill="none" stroke="#000000" stroke-width="1.00" stroke-miterlimit="0.00" stroke-linecap="round" stroke-linejoin="round" transform="matrix(3.10, 0.00, 0.00, -3.09, -2.1, 1209.5)"></path><text xml:space="preserve" font-family="Helvetica" font-size="9.0" fill="#000000" transform="matrix(3.10, 0.00, -0.00, -3.09, 788.0, 20.6)">.</text><path d="M 724.7 52.0 L 771.2 52.0 L 771.2 8.7 L 724.7 8.7 Z M 722.6 53.3 " fill="#D5D5D5"></path><path d="M 234.5 374.5 L 249.5 374.5 L 249.5 388.5 L 234.5 388.5 Z M 233.8 374.1 " fill="none" stroke="#000000" stroke-width="1.00" stroke-miterlimit="0.00" stroke-linecap="round" stroke-linejoin="round" transform="matrix(3.10, 0.00, 0.00, -3.09, -2.1, 1209.5)"></path><text xml:space="preserve" font-family="Helvetica" font-size="9.0" fill="#000000" transform="matrix(3.10, 0.00, -0.00, -3.09, 742.7, 20.6)">.</text><path d="M 675.1 52.0 L 724.7 52.0 L 724.7 8.7 L 675.1 8.7 Z M 674.7 53.3 " fill="#D5D5D5"></path><path d="M 218.5 374.5 L 234.5 374.5 L 234.5 388.5 L 218.5 388.5 Z M 218.4 374.1 " fill="none" stroke="#000000" stroke-width="1.00" stroke-miterlimit="0.00" stroke-linecap="round" stroke-linejoin="round" transform="matrix(3.10, 0.00, 0.00, -3.09, -2.1, 1209.5)"></path><text xml:space="preserve" font-family="Helvetica" font-size="9.0" fill="#000000" transform="matrix(3.10, 0.00, -0.00, -3.09, 694.8, 20.6)">.</text><path d="M 628.6 52.0 L 675.1 52.0 L 675.1 8.7 L 628.6 8.7 Z M 626.8 53.3 " fill="#D5D5D5"></path><path d="M 203.5 374.5 L 218.5 374.5 L 218.5 388.5 L 203.5 388.5 Z M 202.9 374.1 " fill="none" stroke="#000000" stroke-width="1.00" stroke-miterlimit="0.00" stroke-linecap="round" stroke-linejoin="round" transform="matrix(3.10, 0.00, 0.00, -3.09, -2.1, 1209.5)"></path><text xml:space="preserve" font-family="Helvetica" font-size="9.0" fill="#000000" transform="matrix(3.10, 0.00, -0.00, -3.09, 643.0, 20.6)">1</text><path d="M 579.0 52.0 L 628.6 52.0 L 628.6 8.7 L 579.0 8.7 Z M 578.8 53.3 " fill="#D5D5D5"></path><path d="M 187.5 374.5 L 203.5 374.5 L 203.5 388.5 L 187.5 388.5 Z M 187.4 374.1 " fill="none" stroke="#000000" stroke-width="1.00" stroke-miterlimit="0.00" stroke-linecap="round" stroke-linejoin="round" transform="matrix(3.10, 0.00, 0.00, -3.09, -2.1, 1209.5)"></path><text xml:space="preserve" font-family="Helvetica" font-size="9.0" fill="#000000" transform="matrix(3.10, 0.00, -0.00, -3.09, 595.0, 20.6)">0</text><path d="M 814.6 95.3 L 1198.9 95.3 L 1198.9 52.0 L 814.6 52.0 Z M 813.3 96.8 " fill="#FEFFFF"></path><path d="M 263.5 360.5 L 387.5 360.5 L 387.5 374.5 L 263.5 374.5 Z M 263.1 360.0 " fill="none" stroke="#000000" stroke-width="1.00" stroke-miterlimit="0.00" stroke-linecap="round" stroke-linejoin="round" transform="matrix(3.10, 0.00, 0.00, -3.09, -2.1, 1209.5)"></path><text xml:space="preserve" font-family="Helvetica" font-size="9.0" fill="#000000" transform="matrix(3.10, 0.00, -0.00, -3.09, 828.8, 64.1)">t</text><text xml:space="preserve" font-family="Helvetica" font-size="9.0" fill="#000000" transform="matrix(3.10, 0.00, -0.00, -3.09, 836.6, 64.1)">i</text><text xml:space="preserve" font-family="Helvetica" font-size="9.0" fill="#000000" transform="matrix(3.10, 0.00, -0.00, -3.09, 842.8, 64.1)">m</text><text xml:space="preserve" font-family="Helvetica" font-size="9.0" fill="#000000" transform="matrix(3.10, 0.00, -0.00, -3.09, 866.0, 64.1)">e</text><text xml:space="preserve" font-family="Helvetica" font-size="9.0" fill="#000000" transform="matrix(3.10, 0.00, -0.00, -3.09, 881.5, 64.1)">s</text><text xml:space="preserve" font-family="Helvetica" font-size="9.0" fill="#000000" transform="matrix(3.10, 0.00, -0.00, -3.09, 895.5, 64.1)">t</text><text xml:space="preserve" font-family="Helvetica" font-size="9.0" fill="#000000" transform="matrix(3.10, 0.00, -0.00, -3.09, 903.2, 64.1)">a</text><text xml:space="preserve" font-family="Helvetica" font-size="9.0" fill="#000000" transform="matrix(3.10, 0.00, -0.00, -3.09, 918.7, 64.1)">m</text><text xml:space="preserve" font-family="Helvetica" font-size="9.0" fill="#000000" transform="matrix(3.10, 0.00, -0.00, -3.09, 942.0, 64.1)">p</text><path d="M 8.7 95.3 L 579.0 95.3 L 579.0 52.0 L 8.7 52.0 Z M 9.0 96.8 " fill="#FEFFFF"></path><path d="M 3.5 360.5 L 187.5 360.5 L 187.5 374.5 L 3.5 374.5 Z M 3.6 360.0 " fill="none" stroke="#000000" stroke-width="1.00" stroke-miterlimit="0.00" stroke-linecap="round" stroke-linejoin="round" transform="matrix(3.10, 0.00, 0.00, -3.09, -2.1, 1209.5)"></path><text xml:space="preserve" font-family="Helvetica" font-size="9.0" fill="#000000" transform="matrix(3.10, 0.00, -0.00, -3.09, 24.5, 64.1)">i</text><text xml:space="preserve" font-family="Helvetica" font-size="9.0" fill="#000000" transform="matrix(3.10, 0.00, -0.00, -3.09, 30.7, 64.1)">d</text><text xml:space="preserve" font-family="Helvetica" font-size="9.0" fill="#000000" transform="matrix(3.10, 0.00, -0.00, -3.09, 46.2, 64.1)">e</text><text xml:space="preserve" font-family="Helvetica" font-size="9.0" fill="#000000" transform="matrix(3.10, 0.00, -0.00, -3.09, 61.7, 64.1)">n</text><text xml:space="preserve" font-family="Helvetica" font-size="9.0" fill="#000000" transform="matrix(3.10, 0.00, -0.00, -3.09, 77.2, 64.1)">t</text><text xml:space="preserve" font-family="Helvetica" font-size="9.0" fill="#000000" transform="matrix(3.10, 0.00, -0.00, -3.09, 85.0, 64.1)">i</text><text xml:space="preserve" font-family="Helvetica" font-size="9.0" fill="#000000" transform="matrix(3.10, 0.00, -0.00, -3.09, 91.2, 64.1)">t</text><text xml:space="preserve" font-family="Helvetica" font-size="9.0" fill="#000000" transform="matrix(3.10, 0.00, -0.00, -3.09, 98.9, 64.1)">y</text><path d="M 579.0 95.3 L 814.6 95.3 L 814.6 52.0 L 579.0 52.0 Z M 578.8 96.8 " fill="#FEFFFF"></path><path d="M 187.5 360.5 L 263.5 360.5 L 263.5 374.5 L 187.5 374.5 Z M 187.4 360.0 " fill="none" stroke="#000000" stroke-width="1.00" stroke-miterlimit="0.00" stroke-linecap="round" stroke-linejoin="round" transform="matrix(3.10, 0.00, 0.00, -3.09, -2.1, 1209.5)"></path><text xml:space="preserve" font-family="Helvetica" font-size="9.0" fill="#000000" transform="matrix(3.10, 0.00, -0.00, -3.09, 594.3, 64.1)">p</text><text xml:space="preserve" font-family="Helvetica" font-size="9.0" fill="#000000" transform="matrix(3.10, 0.00, -0.00, -3.09, 609.8, 64.1)">a</text><text xml:space="preserve" font-family="Helvetica" font-size="9.0" fill="#000000" transform="matrix(3.10, 0.00, -0.00, -3.09, 625.3, 64.1)">r</text><text xml:space="preserve" font-family="Helvetica" font-size="9.0" fill="#000000" transform="matrix(3.10, 0.00, -0.00, -3.09, 634.6, 64.1)">t</text><text xml:space="preserve" font-family="Helvetica" font-size="9.0" fill="#000000" transform="matrix(3.10, 0.00, -0.00, -3.09, 642.4, 64.1)">i</text><text xml:space="preserve" font-family="Helvetica" font-size="9.0" fill="#000000" transform="matrix(3.10, 0.00, -0.00, -3.09, 648.6, 64.1)">c</text><text xml:space="preserve" font-family="Helvetica" font-size="9.0" fill="#000000" transform="matrix(3.10, 0.00, -0.00, -3.09, 662.5, 64.1)">l</text><text xml:space="preserve" font-family="Helvetica" font-size="9.0" fill="#000000" transform="matrix(3.10, 0.00, -0.00, -3.09, 668.7, 64.1)">e</text><text xml:space="preserve" font-family="Helvetica" font-size="9.0" fill="#000000" transform="matrix(3.10, 0.00, -0.00, -3.09, 684.2, 64.1)">s</text><path d="M 1694.8 52.0 L 1772.3 52.0 L 1772.3 8.7 L 1694.8 8.7 Z M 1694.7 53.3 " fill="#FEFFFF"></path><path d="M 547.5 374.5 L 572.5 374.5 L 572.5 388.5 L 547.5 388.5 Z M 547.5 374.1 " fill="none" stroke="#000000" stroke-width="1.00" stroke-miterlimit="0.00" stroke-linecap="round" stroke-linejoin="round" transform="matrix(3.10, 0.00, 0.00, -3.09, -2.1, 1209.5)"></path><text xml:space="preserve" font-family="Helvetica" font-size="9.0" fill="#000000" transform="matrix(3.10, 0.00, -0.00, -3.09, 1700.1, 20.6)">v</text><text xml:space="preserve" font-family="Helvetica" font-size="9.0" fill="#000000" transform="matrix(3.10, 0.00, -0.00, -3.09, 1714.0, 20.6)">a</text><text xml:space="preserve" font-family="Helvetica" font-size="9.0" fill="#000000" transform="matrix(3.10, 0.00, -0.00, -3.09, 1729.6, 20.6)">l</text><text xml:space="preserve" font-family="Helvetica" font-size="9.0" fill="#000000" transform="matrix(3.10, 0.00, -0.00, -3.09, 1735.8, 20.6)">u</text><text xml:space="preserve" font-family="Helvetica" font-size="9.0" fill="#000000" transform="matrix(3.10, 0.00, -0.00, -3.09, 1751.3, 20.6)">e</text><path d="M 1539.8 52.0 L 1617.3 52.0 L 1617.3 8.7 L 1539.8 8.7 Z M 1539.7 53.3 " fill="#FEFFFF"></path><path d="M 497.5 374.5 L 522.5 374.5 L 522.5 388.5 L 497.5 388.5 Z M 497.5 374.1 " fill="none" stroke="#000000" stroke-width="1.00" stroke-miterlimit="0.00" stroke-linecap="round" stroke-linejoin="round" transform="matrix(3.10, 0.00, 0.00, -3.09, -2.1, 1209.5)"></path><text xml:space="preserve" font-family="Helvetica" font-size="9.0" fill="#000000" transform="matrix(3.10, 0.00, -0.00, -3.09, 1544.3, 20.6)">c</text><text xml:space="preserve" font-family="Helvetica" font-size="9.0" fill="#000000" transform="matrix(3.10, 0.00, -0.00, -3.09, 1558.3, 20.6)">o</text><text xml:space="preserve" font-family="Helvetica" font-size="9.0" fill="#000000" transform="matrix(3.10, 0.00, -0.00, -3.09, 1573.8, 20.6)">u</text><text xml:space="preserve" font-family="Helvetica" font-size="9.0" fill="#000000" transform="matrix(3.10, 0.00, -0.00, -3.09, 1589.3, 20.6)">n</text><text xml:space="preserve" font-family="Helvetica" font-size="9.0" fill="#000000" transform="matrix(3.10, 0.00, -0.00, -3.09, 1604.9, 20.6)">t</text><path d="M 1484.0 52.0 L 1539.8 52.0 L 1539.8 8.7 L 1484.0 8.7 Z M 1484.5 53.3 " fill="#FEFFFF"></path><path d="M 479.5 374.5 L 497.5 374.5 L 497.5 388.5 L 479.5 388.5 Z M 479.7 374.1 " fill="none" stroke="#000000" stroke-width="1.00" stroke-miterlimit="0.00" stroke-linecap="round" stroke-linejoin="round" transform="matrix(3.10, 0.00, 0.00, -3.09, -2.1, 1209.5)"></path><text xml:space="preserve" font-family="Helvetica" font-size="9.0" fill="#000000" transform="matrix(3.10, 0.00, -0.00, -3.09, 1486.1, 20.6)">m</text><text xml:space="preserve" font-family="Helvetica" font-size="9.0" fill="#000000" transform="matrix(3.10, 0.00, -0.00, -3.09, 1509.3, 20.6)">a</text><text xml:space="preserve" font-family="Helvetica" font-size="9.0" fill="#000000" transform="matrix(3.10, 0.00, -0.00, -3.09, 1524.8, 20.6)">x</text><path d="M 1431.3 52.0 L 1484.0 52.0 L 1484.0 8.7 L 1431.3 8.7 Z M 1431.2 53.3 " fill="#FEFFFF"></path><path d="M 462.5 374.5 L 479.5 374.5 L 479.5 388.5 L 462.5 388.5 Z M 462.5 374.1 " fill="none" stroke="#000000" stroke-width="1.00" stroke-miterlimit="0.00" stroke-linecap="round" stroke-linejoin="round" transform="matrix(3.10, 0.00, 0.00, -3.09, -2.1, 1209.5)"></path><text xml:space="preserve" font-family="Helvetica" font-size="9.0" fill="#000000" transform="matrix(3.10, 0.00, -0.00, -3.09, 1435.4, 20.6)">m</text><text xml:space="preserve" font-family="Helvetica" font-size="9.0" fill="#000000" transform="matrix(3.10, 0.00, -0.00, -3.09, 1458.6, 20.6)">i</text><text xml:space="preserve" font-family="Helvetica" font-size="9.0" fill="#000000" transform="matrix(3.10, 0.00, -0.00, -3.09, 1464.8, 20.6)">n</text><path d="M 1431.3 95.3 L 1772.3 95.3 L 1772.3 52.0 L 1431.3 52.0 Z M 1431.2 96.8 " fill="#FEFFFF"></path><path d="M 462.5 360.5 L 572.5 360.5 L 572.5 374.5 L 462.5 374.5 Z M 462.5 360.0 " fill="none" stroke="#000000" stroke-width="1.00" stroke-miterlimit="0.00" stroke-linecap="round" stroke-linejoin="round" transform="matrix(3.10, 0.00, 0.00, -3.09, -2.1, 1209.5)"></path><text xml:space="preserve" font-family="Helvetica" font-size="9.0" fill="#000000" transform="matrix(3.10, 0.00, -0.00, -3.09, 1446.7, 64.1)">q</text><text xml:space="preserve" font-family="Helvetica" font-size="9.0" fill="#000000" transform="matrix(3.10, 0.00, -0.00, -3.09, 1462.3, 64.1)">u</text><text xml:space="preserve" font-family="Helvetica" font-size="9.0" fill="#000000" transform="matrix(3.10, 0.00, -0.00, -3.09, 1477.8, 64.1)">a</text><text xml:space="preserve" font-family="Helvetica" font-size="9.0" fill="#000000" transform="matrix(3.10, 0.00, -0.00, -3.09, 1493.3, 64.1)">r</text><text xml:space="preserve" font-family="Helvetica" font-size="9.0" fill="#000000" transform="matrix(3.10, 0.00, -0.00, -3.09, 1502.6, 64.1)">k</text><path d="M 1617.3 52.0 L 1694.8 52.0 L 1694.8 8.7 L 1617.3 8.7 Z M 1617.2 53.0 " fill="#FEFFFF"></path><path d="M 522.5 374.5 L 547.5 374.5 L 547.5 388.5 L 522.5 388.5 Z M 522.5 374.2 " fill="none" stroke="#000000" stroke-width="1.00" stroke-miterlimit="0.00" stroke-linecap="round" stroke-linejoin="round" transform="matrix(3.10, 0.00, 0.00, -3.09, -2.1, 1209.5)"></path><text xml:space="preserve" font-family="Helvetica" font-size="9.0" fill="#000000" transform="matrix(3.10, 0.00, -0.00, -3.09, 1629.6, 20.5)">s</text><text xml:space="preserve" font-family="Helvetica" font-size="9.0" fill="#000000" transform="matrix(3.10, 0.00, -0.00, -3.09, 1643.5, 20.5)">u</text><text xml:space="preserve" font-family="Helvetica" font-size="9.0" fill="#000000" transform="matrix(3.10, 0.00, -0.00, -3.09, 1659.1, 20.5)">m</text><path d="M 1198.9 95.3 L 1431.3 95.3 L 1431.3 52.0 L 1198.9 52.0 Z M 1196.9 96.8 " fill="#FEFFFF"></path><path d="M 387.5 360.5 L 462.5 360.5 L 462.5 374.5 L 387.5 374.5 Z M 386.8 360.0 " fill="none" stroke="#000000" stroke-width="1.00" stroke-miterlimit="0.00" stroke-linecap="round" stroke-linejoin="round" transform="matrix(3.10, 0.00, 0.00, -3.09, -2.1, 1209.5)"></path><text xml:space="preserve" font-family="Helvetica" font-size="9.0" fill="#000000" transform="matrix(3.10, 0.00, -0.00, -3.09, 1212.4, 64.1)">ﬁ</text><text xml:space="preserve" font-family="Helvetica" font-size="9.0" fill="#000000" transform="matrix(3.10, 0.00, -0.00, -3.09, 1226.3, 64.1)">e</text><text xml:space="preserve" font-family="Helvetica" font-size="9.0" fill="#000000" transform="matrix(3.10, 0.00, -0.00, -3.09, 1241.8, 64.1)">l</text><text xml:space="preserve" font-family="Helvetica" font-size="9.0" fill="#000000" transform="matrix(3.10, 0.00, -0.00, -3.09, 1248.0, 64.1)">d</text><text xml:space="preserve" font-family="Helvetica" font-size="9.0" fill="#000000" transform="matrix(3.10, 0.00, -0.00, -3.09, 1263.5, 64.1)">s</text><path d="M 1387.9 52.0 L 1431.3 52.0 L 1431.3 8.7 L 1387.9 8.7 Z M 1388.6 53.0 " fill="#FEFFFF"></path><path d="M 448.5 374.5 L 462.5 374.5 L 462.5 388.5 L 448.5 388.5 Z M 448.7 374.2 " fill="none" stroke="#000000" stroke-width="1.00" stroke-miterlimit="0.00" stroke-linecap="round" stroke-linejoin="round" transform="matrix(3.10, 0.00, 0.00, -3.09, -2.1, 1209.5)"></path><text xml:space="preserve" font-family="Helvetica" font-size="9.0" fill="#000000" transform="matrix(3.10, 0.00, -0.00, -3.09, 1406.1, 20.2)">.</text><path d="M 1341.4 52.0 L 1387.9 52.0 L 1387.9 8.7 L 1341.4 8.7 Z M 1340.7 53.0 " fill="#D5D5D5"></path><path d="M 433.5 374.5 L 448.5 374.5 L 448.5 388.5 L 433.5 388.5 Z M 433.3 374.2 " fill="none" stroke="#000000" stroke-width="1.00" stroke-miterlimit="0.00" stroke-linecap="round" stroke-linejoin="round" transform="matrix(3.10, 0.00, 0.00, -3.09, -2.1, 1209.5)"></path><text xml:space="preserve" font-family="Helvetica" font-size="9.0" fill="#000000" transform="matrix(3.10, 0.00, -0.00, -3.09, 1360.8, 20.2)">.</text><path d="M 1295.0 52.0 L 1341.4 52.0 L 1341.4 8.7 L 1295.0 8.7 Z M 1292.8 53.0 " fill="#D5D5D5"></path><path d="M 418.5 374.5 L 433.5 374.5 L 433.5 388.5 L 418.5 388.5 Z M 417.8 374.2 " fill="none" stroke="#000000" stroke-width="1.00" stroke-miterlimit="0.00" stroke-linecap="round" stroke-linejoin="round" transform="matrix(3.10, 0.00, 0.00, -3.09, -2.1, 1209.5)"></path><text xml:space="preserve" font-family="Helvetica" font-size="9.0" fill="#000000" transform="matrix(3.10, 0.00, -0.00, -3.09, 1312.8, 20.2)">.</text><path d="M 1245.4 52.0 L 1295.0 52.0 L 1295.0 8.7 L 1245.4 8.7 Z M 1244.8 53.0 " fill="#D5D5D5"></path><path d="M 402.5 374.5 L 418.5 374.5 L 418.5 388.5 L 402.5 388.5 Z M 402.3 374.2 " fill="none" stroke="#000000" stroke-width="1.00" stroke-miterlimit="0.00" stroke-linecap="round" stroke-linejoin="round" transform="matrix(3.10, 0.00, 0.00, -3.09, -2.1, 1209.5)"></path><text xml:space="preserve" font-family="Helvetica" font-size="9.0" fill="#000000" transform="matrix(3.10, 0.00, -0.00, -3.09, 1261.0, 20.2)">1</text><path d="M 1198.9 52.0 L 1245.4 52.0 L 1245.4 8.7 L 1198.9 8.7 Z M 1196.9 53.0 " fill="#D5D5D5"></path><path d="M 387.5 374.5 L 402.5 374.5 L 402.5 388.5 L 387.5 388.5 Z M 386.8 374.2 " fill="none" stroke="#000000" stroke-width="1.00" stroke-miterlimit="0.00" stroke-linecap="round" stroke-linejoin="round" transform="matrix(3.10, 0.00, 0.00, -3.09, -2.1, 1209.5)"></path><text xml:space="preserve" font-family="Helvetica" font-size="9.0" fill="#000000" transform="matrix(3.10, 0.00, -0.00, -3.09, 1213.1, 20.2)">0</text></g></g></g></svg>