<?xml version="1.0" encoding="UTF-8" standalone="no"?><svg xmlns="http://www.w3.org/2000/svg" xmlns:xlink="http://www.w3.org/1999/xlink" clip-rule="evenodd" stroke-miterlimit="4.00" viewBox="0 0 1775 170"><desc>SVG generated by Keynote</desc><defs></defs><g transform="matrix(1.00, 0.00, -0.00, -1.00, 0.0, 170.0)"><g><clipPath id="clip-312"><path d="M 1.0 169.0 L 1774.0 169.0 L 1774.0 2.0 L 1.0 2.0 Z M 1.3 168.9 "></path></clipPath><g clip-path="url(#clip-312)"><g><clipPath id="clip-313"><path d="M 1.0 2.0 L 1774.0 2.0 L 1774.0 169.0 L 1.0 169.0 Z M 1.0 2.0 "></path></clipPath><g clip-path="url(#clip-313)"><path d="M 300.7 377.2 L 292.2 379.5 " fill="none" stroke="#000000" stroke-width="1.00" stroke-miterlimit="0.00" stroke-linecap="round" stroke-linejoin="round" transform="matrix(3.09, 0.00, 0.00, -3.09, -14.5, 1220.5)"></path><path d="M 865.6 40.7 L 891.9 38.0 L 887.2 55.9 Z M 865.6 40.7 " fill="#000000"></path><path d="M 284.4 381.5 L 292.9 382.4 L 291.4 376.6 Z M 284.4 381.5 " fill="none" stroke="#000000" stroke-width="1.00" stroke-miterlimit="0.00" transform="matrix(3.09, 0.00, 0.00, -3.09, -14.5, 1220.5)"></path><path d="M 810.1 53.0 L 859.7 53.0 L 859.7 9.7 L 810.1 9.7 Z M 810.5 54.6 " fill="#D5D5D5"></path><path d="M 266.5 377.5 L 282.5 377.5 L 282.5 391.5 L 266.5 391.5 Z M 266.6 377.0 " fill="none" stroke="#000000" stroke-width="1.00" stroke-miterlimit="0.00" stroke-linecap="round" stroke-linejoin="round" transform="matrix(3.09, 0.00, 0.00, -3.09, -14.5, 1220.5)"></path><text xml:space="preserve" font-family="Helvetica" font-size="9.0" fill="#000000" transform="matrix(3.09, 0.00, -0.00, -3.09, 826.7, 21.9)">0</text><path d="M 761.1 45.5 L 742.4 64.2 L 734.7 47.3 Z M 761.1 45.5 " fill="#000000"></path><path d="M 250.6 379.9 L 244.6 373.9 L 242.1 379.4 Z M 250.6 379.9 " fill="none" stroke="#000000" stroke-width="1.00" stroke-miterlimit="0.00" transform="matrix(3.09, 0.00, 0.00, -3.09, -14.5, 1220.5)"></path><path d="M 237.4 377.4 L 237.6 377.6 " fill="none" stroke="#000000" stroke-width="1.00" stroke-miterlimit="0.00" stroke-linecap="round" stroke-linejoin="round" transform="matrix(3.09, 0.00, 0.00, -3.09, -14.5, 1220.5)"></path><path d="M 739.5 36.5 L 726.8 59.6 L 714.7 45.6 Z M 739.5 36.5 " fill="#000000"></path><path d="M 243.7 382.9 L 239.6 375.4 L 235.6 379.9 Z M 243.7 382.9 " fill="none" stroke="#000000" stroke-width="1.00" stroke-miterlimit="0.00" transform="matrix(3.09, 0.00, 0.00, -3.09, -14.5, 1220.5)"></path><path d="M 695.7 38.5 L 703.5 63.8 L 684.9 62.6 Z M 695.7 38.5 " fill="#000000"></path><path d="M 229.5 382.2 L 232.0 374.0 L 226.0 374.4 Z M 229.5 382.2 " fill="none" stroke="#000000" stroke-width="1.00" stroke-miterlimit="0.00" transform="matrix(3.09, 0.00, 0.00, -3.09, -14.5, 1220.5)"></path><path d="M 677.1 56.9 L 700.2 69.8 L 686.0 81.8 Z M 677.1 56.9 " fill="#000000"></path><path d="M 223.5 376.2 L 231.0 372.1 L 226.4 368.2 Z M 223.5 376.2 " fill="none" stroke="#000000" stroke-width="1.00" stroke-miterlimit="0.00" transform="matrix(3.09, 0.00, 0.00, -3.09, -14.5, 1220.5)"></path><path d="M 631.0 46.8 L 657.3 48.9 L 649.4 65.7 Z M 631.0 46.8 " fill="#000000"></path><path d="M 208.6 379.5 L 217.1 378.8 L 214.6 373.4 Z M 208.6 379.5 " fill="none" stroke="#000000" stroke-width="1.00" stroke-miterlimit="0.00" transform="matrix(3.09, 0.00, 0.00, -3.09, -14.5, 1220.5)"></path><path d="M 141.9 377.2 L 165.2 381.1 " fill="none" stroke="#000000" stroke-width="1.00" stroke-miterlimit="0.00" stroke-linecap="round" stroke-linejoin="round" transform="matrix(3.09, 0.00, 0.00, -3.09, -14.5, 1220.5)"></path><path d="M 521.2 37.9 L 498.3 51.1 L 495.3 32.8 Z M 521.2 37.9 " fill="#000000"></path><path d="M 173.1 382.4 L 165.7 378.1 L 164.7 384.0 Z M 173.1 382.4 " fill="none" stroke="#000000" stroke-width="1.00" stroke-miterlimit="0.00" transform="matrix(3.09, 0.00, 0.00, -3.09, -14.5, 1220.5)"></path><path d="M 134.1 377.2 L 149.8 380.4 " fill="none" stroke="#000000" stroke-width="1.00" stroke-miterlimit="0.00" stroke-linecap="round" stroke-linejoin="round" transform="matrix(3.09, 0.00, 0.00, -3.09, -14.5, 1220.5)"></path><path d="M 473.4 39.0 L 451.0 53.1 L 447.3 34.9 Z M 473.4 39.0 " fill="#000000"></path><path d="M 157.7 382.0 L 150.4 377.5 L 149.2 383.4 Z M 157.7 382.0 " fill="none" stroke="#000000" stroke-width="1.00" stroke-miterlimit="0.00" transform="matrix(3.09, 0.00, 0.00, -3.09, -14.5, 1220.5)"></path><path d="M 126.4 377.2 L 134.5 379.4 " fill="none" stroke="#000000" stroke-width="1.00" stroke-miterlimit="0.00" stroke-linecap="round" stroke-linejoin="round" transform="matrix(3.09, 0.00, 0.00, -3.09, -14.5, 1220.5)"></path><path d="M 425.6 40.9 L 404.1 56.1 L 399.3 38.2 Z M 425.6 40.9 " fill="#000000"></path><path d="M 142.2 381.4 L 135.3 376.5 L 133.7 382.3 Z M 142.2 381.4 " fill="none" stroke="#000000" stroke-width="1.00" stroke-miterlimit="0.00" transform="matrix(3.09, 0.00, 0.00, -3.09, -14.5, 1220.5)"></path><path d="M 118.6 377.3 L 119.3 377.6 " fill="none" stroke="#000000" stroke-width="1.00" stroke-miterlimit="0.00" stroke-linecap="round" stroke-linejoin="round" transform="matrix(3.09, 0.00, 0.00, -3.09, -14.5, 1220.5)"></path><path d="M 378.0 44.2 L 358.0 61.5 L 351.5 44.1 Z M 378.0 44.2 " fill="#000000"></path><path d="M 126.8 380.4 L 120.4 374.8 L 118.3 380.4 Z M 126.8 380.4 " fill="none" stroke="#000000" stroke-width="1.00" stroke-miterlimit="0.00" transform="matrix(3.09, 0.00, 0.00, -3.09, -14.5, 1220.5)"></path><path d="M 330.7 53.7 L 313.9 74.1 L 304.7 58.1 Z M 330.7 53.7 " fill="#000000"></path><path d="M 111.6 377.3 L 106.1 370.7 L 103.1 375.9 Z M 111.6 377.3 " fill="none" stroke="#000000" stroke-width="1.00" stroke-miterlimit="0.00" transform="matrix(3.09, 0.00, 0.00, -3.09, -14.5, 1220.5)"></path><path d="M 310.6 37.9 L 308.1 64.2 L 291.4 56.1 Z M 310.6 37.9 " fill="#000000"></path><path d="M 105.0 382.4 L 104.2 373.9 L 98.8 376.5 Z M 105.0 382.4 " fill="none" stroke="#000000" stroke-width="1.00" stroke-miterlimit="0.00" transform="matrix(3.09, 0.00, 0.00, -3.09, -14.5, 1220.5)"></path><path d="M 268.4 37.6 L 289.2 53.9 L 273.4 63.6 Z M 268.4 37.6 " fill="#000000"></path><path d="M 91.4 382.5 L 98.1 377.2 L 93.0 374.1 Z M 91.4 382.5 " fill="none" stroke="#000000" stroke-width="1.00" stroke-miterlimit="0.00" transform="matrix(3.09, 0.00, 0.00, -3.09, -14.5, 1220.5)"></path><path d="M 247.7 49.9 L 273.8 54.5 L 264.3 70.5 Z M 247.7 49.9 " fill="#000000"></path><path d="M 84.7 378.5 L 93.2 377.0 L 90.1 371.9 Z M 84.7 378.5 " fill="none" stroke="#000000" stroke-width="1.00" stroke-miterlimit="0.00" transform="matrix(3.09, 0.00, 0.00, -3.09, -14.5, 1220.5)"></path><path d="M 78.7 377.3 L 77.0 377.9 " fill="none" stroke="#000000" stroke-width="1.00" stroke-miterlimit="0.00" stroke-linecap="round" stroke-linejoin="round" transform="matrix(3.09, 0.00, 0.00, -3.09, -14.5, 1220.5)"></path><path d="M 200.5 43.6 L 226.9 43.1 L 220.7 60.6 Z M 200.5 43.6 " fill="#000000"></path><path d="M 69.5 380.6 L 78.0 380.7 L 76.0 375.0 Z M 69.5 380.6 " fill="none" stroke="#000000" stroke-width="1.00" stroke-miterlimit="0.00" transform="matrix(3.09, 0.00, 0.00, -3.09, -14.5, 1220.5)"></path><path d="M 70.8 377.2 L 61.8 379.5 " fill="none" stroke="#000000" stroke-width="1.00" stroke-miterlimit="0.00" stroke-linecap="round" stroke-linejoin="round" transform="matrix(3.09, 0.00, 0.00, -3.09, -14.5, 1220.5)"></path><path d="M 152.8 40.6 L 179.1 37.7 L 174.5 55.7 Z M 152.8 40.6 " fill="#000000"></path><path d="M 54.1 381.5 L 62.6 382.5 L 61.1 376.6 Z M 54.1 381.5 " fill="none" stroke="#000000" stroke-width="1.00" stroke-miterlimit="0.00" transform="matrix(3.09, 0.00, 0.00, -3.09, -14.5, 1220.5)"></path><path d="M 356.3 377.2 L 364.8 379.5 " fill="none" stroke="#000000" stroke-width="1.00" stroke-miterlimit="0.00" stroke-linecap="round" stroke-linejoin="round" transform="matrix(3.09, 0.00, 0.00, -3.09, -14.5, 1220.5)"></path><path d="M 1138.4 40.7 L 1116.8 55.9 L 1112.1 38.0 Z M 1138.4 40.7 " fill="#000000"></path><path d="M 372.6 381.5 L 365.6 376.6 L 364.1 382.4 Z M 372.6 381.5 " fill="none" stroke="#000000" stroke-width="1.00" stroke-miterlimit="0.00" transform="matrix(3.09, 0.00, 0.00, -3.09, -14.5, 1220.5)"></path><path d="M 348.5 377.3 L 349.7 377.7 " fill="none" stroke="#000000" stroke-width="1.00" stroke-miterlimit="0.00" stroke-linecap="round" stroke-linejoin="round" transform="matrix(3.09, 0.00, 0.00, -3.09, -14.5, 1220.5)"></path><path d="M 1090.7 43.9 L 1070.6 61.1 L 1064.3 43.7 Z M 1090.7 43.9 " fill="#000000"></path><path d="M 357.2 380.4 L 350.7 374.9 L 348.6 380.5 Z M 357.2 380.4 " fill="none" stroke="#000000" stroke-width="1.00" stroke-miterlimit="0.00" transform="matrix(3.09, 0.00, 0.00, -3.09, -14.5, 1220.5)"></path><path d="M 1043.5 52.5 L 1026.5 72.8 L 1017.4 56.7 Z M 1043.5 52.5 " fill="#000000"></path><path d="M 341.9 377.7 L 336.4 371.1 L 333.5 376.3 Z M 341.9 377.7 " fill="none" stroke="#000000" stroke-width="1.00" stroke-miterlimit="0.00" transform="matrix(3.09, 0.00, 0.00, -3.09, -14.5, 1220.5)"></path><path d="M 1023.1 37.8 L 1019.3 63.9 L 1003.0 55.0 Z M 1023.1 37.8 " fill="#000000"></path><path d="M 335.3 382.4 L 334.1 374.0 L 328.8 376.9 Z M 335.3 382.4 " fill="none" stroke="#000000" stroke-width="1.00" stroke-miterlimit="0.00" transform="matrix(3.09, 0.00, 0.00, -3.09, -14.5, 1220.5)"></path><path d="M 980.9 37.8 L 1000.9 55.0 L 984.7 63.9 Z M 980.9 37.8 " fill="#000000"></path><path d="M 321.7 382.4 L 328.2 376.9 L 322.9 374.0 Z M 321.7 382.4 " fill="none" stroke="#000000" stroke-width="1.00" stroke-miterlimit="0.00" transform="matrix(3.09, 0.00, 0.00, -3.09, -14.5, 1220.5)"></path><path d="M 960.5 50.4 L 986.4 55.6 L 976.6 71.3 Z M 960.5 50.4 " fill="#000000"></path><path d="M 315.1 378.3 L 323.5 376.7 L 320.3 371.6 Z M 315.1 378.3 " fill="none" stroke="#000000" stroke-width="1.00" stroke-miterlimit="0.00" transform="matrix(3.09, 0.00, 0.00, -3.09, -14.5, 1220.5)"></path><path d="M 315.7 377.4 L 306.6 382.5 " fill="none" stroke="#000000" stroke-width="1.00" stroke-miterlimit="0.00" stroke-linecap="round" stroke-linejoin="round" transform="matrix(3.09, 0.00, 0.00, -3.09, -14.5, 1220.5)"></path><path d="M 912.7 25.2 L 938.8 29.4 L 929.6 45.5 Z M 912.7 25.2 " fill="#000000"></path><path d="M 299.6 386.5 L 308.1 385.1 L 305.1 379.9 Z M 299.6 386.5 " fill="none" stroke="#000000" stroke-width="1.00" stroke-miterlimit="0.00" transform="matrix(3.09, 0.00, 0.00, -3.09, -14.5, 1220.5)"></path><path d="M 52.1 53.0 L 98.5 53.0 L 98.5 9.7 L 52.1 9.7 Z M 49.9 54.5 " fill="#FEFFFF"></path><path d="M 21.5 377.5 L 36.5 377.5 L 36.5 391.5 L 21.5 391.5 Z M 20.8 377.0 " fill="none" stroke="#000000" stroke-width="1.00" stroke-miterlimit="0.00" stroke-linecap="round" stroke-linejoin="round" transform="matrix(3.09, 0.00, 0.00, -3.09, -14.5, 1220.5)"></path><text xml:space="preserve" font-family="Helvetica" font-size="9.0" fill="#000000" transform="matrix(3.09, 0.00, -0.00, -3.09, 66.1, 21.8)">9</text><path d="M 8.7 53.0 L 52.1 53.0 L 52.1 9.7 L 8.7 9.7 Z M 7.3 54.1 " fill="#FEFFFF"></path><path d="M 7.5 377.5 L 21.5 377.5 L 21.5 391.5 L 7.5 391.5 Z M 7.1 377.2 " fill="none" stroke="#000000" stroke-width="1.00" stroke-miterlimit="0.00" stroke-linecap="round" stroke-linejoin="round" transform="matrix(3.09, 0.00, 0.00, -3.09, -14.5, 1220.5)"></path><text xml:space="preserve" font-family="Helvetica" font-size="9.0" fill="#000000" transform="matrix(3.09, 0.00, -0.00, -3.09, 20.9, 21.6)">8</text><path d="M 1147.4 53.0 L 1193.8 53.0 L 1193.8 9.7 L 1147.4 9.7 Z M 1145.6 54.5 " fill="#D5D5D5"></path><path d="M 375.5 377.5 L 390.5 377.5 L 390.5 391.5 L 375.5 391.5 Z M 374.9 377.0 " fill="none" stroke="#000000" stroke-width="1.00" stroke-miterlimit="0.00" stroke-linecap="round" stroke-linejoin="round" transform="matrix(3.09, 0.00, 0.00, -3.09, -14.5, 1220.5)"></path><text xml:space="preserve" font-family="Helvetica" font-size="9.0" fill="#000000" transform="matrix(3.09, 0.00, -0.00, -3.09, 1161.8, 21.8)">7</text><path d="M 1097.9 53.0 L 1147.4 53.0 L 1147.4 9.7 L 1097.9 9.7 Z M 1097.7 54.5 " fill="#D5D5D5"></path><path d="M 359.5 377.5 L 375.5 377.5 L 375.5 391.5 L 359.5 391.5 Z M 359.4 377.0 " fill="none" stroke="#000000" stroke-width="1.00" stroke-miterlimit="0.00" stroke-linecap="round" stroke-linejoin="round" transform="matrix(3.09, 0.00, 0.00, -3.09, -14.5, 1220.5)"></path><text xml:space="preserve" font-family="Helvetica" font-size="9.0" fill="#000000" transform="matrix(3.09, 0.00, -0.00, -3.09, 1113.9, 21.8)">6</text><path d="M 1051.5 53.0 L 1097.9 53.0 L 1097.9 9.7 L 1051.5 9.7 Z M 1049.9 54.5 " fill="#D5D5D5"></path><path d="M 344.5 377.5 L 359.5 377.5 L 359.5 391.5 L 344.5 391.5 Z M 344.0 377.0 " fill="none" stroke="#000000" stroke-width="1.00" stroke-miterlimit="0.00" stroke-linecap="round" stroke-linejoin="round" transform="matrix(3.09, 0.00, 0.00, -3.09, -14.5, 1220.5)"></path><text xml:space="preserve" font-family="Helvetica" font-size="9.0" fill="#000000" transform="matrix(3.09, 0.00, -0.00, -3.09, 1066.0, 21.8)">5</text><path d="M 1002.0 53.0 L 1051.5 53.0 L 1051.5 9.7 L 1002.0 9.7 Z M 1002.0 54.5 " fill="#D5D5D5"></path><path d="M 328.5 377.5 L 344.5 377.5 L 344.5 391.5 L 328.5 391.5 Z M 328.5 377.0 " fill="none" stroke="#000000" stroke-width="1.00" stroke-miterlimit="0.00" stroke-linecap="round" stroke-linejoin="round" transform="matrix(3.09, 0.00, 0.00, -3.09, -14.5, 1220.5)"></path><text xml:space="preserve" font-family="Helvetica" font-size="9.0" fill="#000000" transform="matrix(3.09, 0.00, -0.00, -3.09, 1018.2, 21.8)">4</text><path d="M 955.6 53.0 L 1002.0 53.0 L 1002.0 9.7 L 955.6 9.7 Z M 954.1 54.5 " fill="#D5D5D5"></path><path d="M 313.5 377.5 L 328.5 377.5 L 328.5 391.5 L 313.5 391.5 Z M 313.0 377.0 " fill="none" stroke="#000000" stroke-width="1.00" stroke-miterlimit="0.00" stroke-linecap="round" stroke-linejoin="round" transform="matrix(3.09, 0.00, 0.00, -3.09, -14.5, 1220.5)"></path><text xml:space="preserve" font-family="Helvetica" font-size="9.0" fill="#000000" transform="matrix(3.09, 0.00, -0.00, -3.09, 970.3, 21.8)">3</text><path d="M 906.1 53.0 L 955.6 53.0 L 955.6 9.7 L 906.1 9.7 Z M 906.3 54.5 " fill="#D5D5D5"></path><path d="M 297.5 377.5 L 313.5 377.5 L 313.5 391.5 L 297.5 391.5 Z M 297.6 377.0 " fill="none" stroke="#000000" stroke-width="1.00" stroke-miterlimit="0.00" stroke-linecap="round" stroke-linejoin="round" transform="matrix(3.09, 0.00, 0.00, -3.09, -14.5, 1220.5)"></path><text xml:space="preserve" font-family="Helvetica" font-size="9.0" fill="#000000" transform="matrix(3.09, 0.00, -0.00, -3.09, 922.4, 21.8)">2</text><path d="M 859.7 53.0 L 906.1 53.0 L 906.1 9.7 L 859.7 9.7 Z M 858.4 54.5 " fill="#D5D5D5"></path><path d="M 282.5 377.5 L 297.5 377.5 L 297.5 391.5 L 282.5 391.5 Z M 282.1 377.0 " fill="none" stroke="#000000" stroke-width="1.00" stroke-miterlimit="0.00" stroke-linecap="round" stroke-linejoin="round" transform="matrix(3.09, 0.00, 0.00, -3.09, -14.5, 1220.5)"></path><text xml:space="preserve" font-family="Helvetica" font-size="9.0" fill="#000000" transform="matrix(3.09, 0.00, -0.00, -3.09, 874.6, 21.8)">1</text><path d="M 528.6 53.0 L 578.1 53.0 L 578.1 9.7 L 528.6 9.7 Z M 528.5 54.5 " fill="#D5D5D5"></path><path d="M 175.5 377.5 L 191.5 377.5 L 191.5 391.5 L 175.5 391.5 Z M 175.5 377.0 " fill="none" stroke="#000000" stroke-width="1.00" stroke-miterlimit="0.00" stroke-linecap="round" stroke-linejoin="round" transform="matrix(3.09, 0.00, 0.00, -3.09, -14.5, 1220.5)"></path><text xml:space="preserve" font-family="Helvetica" font-size="9.0" fill="#000000" transform="matrix(3.09, 0.00, -0.00, -3.09, 548.6, 21.8)">.</text><path d="M 482.2 53.0 L 528.6 53.0 L 528.6 9.7 L 482.2 9.7 Z M 480.7 54.5 " fill="#D5D5D5"></path><path d="M 160.5 377.5 L 175.5 377.5 L 175.5 391.5 L 160.5 391.5 Z M 160.0 377.0 " fill="none" stroke="#000000" stroke-width="1.00" stroke-miterlimit="0.00" stroke-linecap="round" stroke-linejoin="round" transform="matrix(3.09, 0.00, 0.00, -3.09, -14.5, 1220.5)"></path><text xml:space="preserve" font-family="Helvetica" font-size="9.0" fill="#000000" transform="matrix(3.09, 0.00, -0.00, -3.09, 500.7, 21.8)">.</text><path d="M 432.6 53.0 L 482.2 53.0 L 482.2 9.7 L 432.6 9.7 Z M 432.8 54.5 " fill="#D5D5D5"></path><path d="M 144.5 377.5 L 160.5 377.5 L 160.5 391.5 L 144.5 391.5 Z M 144.6 377.0 " fill="none" stroke="#000000" stroke-width="1.00" stroke-miterlimit="0.00" stroke-linecap="round" stroke-linejoin="round" transform="matrix(3.09, 0.00, 0.00, -3.09, -14.5, 1220.5)"></path><text xml:space="preserve" font-family="Helvetica" font-size="9.0" fill="#000000" transform="matrix(3.09, 0.00, -0.00, -3.09, 452.9, 21.8)">.</text><path d="M 386.2 53.0 L 432.6 53.0 L 432.6 9.7 L 386.2 9.7 Z M 384.9 54.5 " fill="#D5D5D5"></path><path d="M 129.5 377.5 L 144.5 377.5 L 144.5 391.5 L 129.5 391.5 Z M 129.1 377.0 " fill="none" stroke="#000000" stroke-width="1.00" stroke-miterlimit="0.00" stroke-linecap="round" stroke-linejoin="round" transform="matrix(3.09, 0.00, 0.00, -3.09, -14.5, 1220.5)"></path><text xml:space="preserve" font-family="Helvetica" font-size="9.0" fill="#D5D5D5" transform="matrix(3.09, 0.00, -0.00, -3.09, 401.1, 21.8)">6</text><path d="M 336.7 53.0 L 386.2 53.0 L 386.2 9.7 L 336.7 9.7 Z M 337.1 54.5 " fill="#FEFFFF"></path><path d="M 113.5 377.5 L 129.5 377.5 L 129.5 391.5 L 113.5 391.5 Z M 113.6 377.0 " fill="none" stroke="#000000" stroke-width="1.00" stroke-miterlimit="0.00" stroke-linecap="round" stroke-linejoin="round" transform="matrix(3.09, 0.00, 0.00, -3.09, -14.5, 1220.5)"></path><text xml:space="preserve" font-family="Helvetica" font-size="9.0" fill="#000000" transform="matrix(3.09, 0.00, -0.00, -3.09, 353.3, 21.8)">5</text><path d="M 290.3 53.0 L 336.7 53.0 L 336.7 9.7 L 290.3 9.7 Z M 289.2 54.5 " fill="#FEFFFF"></path><path d="M 98.5 377.5 L 113.5 377.5 L 113.5 391.5 L 98.5 391.5 Z M 98.1 377.0 " fill="none" stroke="#000000" stroke-width="1.00" stroke-miterlimit="0.00" stroke-linecap="round" stroke-linejoin="round" transform="matrix(3.09, 0.00, 0.00, -3.09, -14.5, 1220.5)"></path><text xml:space="preserve" font-family="Helvetica" font-size="9.0" fill="#000000" transform="matrix(3.09, 0.00, -0.00, -3.09, 305.4, 21.8)">4</text><path d="M 240.8 53.0 L 290.3 53.0 L 290.3 9.7 L 240.8 9.7 Z M 241.3 54.5 " fill="#FEFFFF"></path><path d="M 82.5 377.5 L 98.5 377.5 L 98.5 391.5 L 82.5 391.5 Z M 82.7 377.0 " fill="none" stroke="#000000" stroke-width="1.00" stroke-miterlimit="0.00" stroke-linecap="round" stroke-linejoin="round" transform="matrix(3.09, 0.00, 0.00, -3.09, -14.5, 1220.5)"></path><text xml:space="preserve" font-family="Helvetica" font-size="9.0" fill="#000000" transform="matrix(3.09, 0.00, -0.00, -3.09, 257.5, 21.8)">3</text><path d="M 194.4 53.0 L 240.8 53.0 L 240.8 9.7 L 194.4 9.7 Z M 193.5 54.5 " fill="#FEFFFF"></path><path d="M 67.5 377.5 L 82.5 377.5 L 82.5 391.5 L 67.5 391.5 Z M 67.2 377.0 " fill="none" stroke="#000000" stroke-width="1.00" stroke-miterlimit="0.00" stroke-linecap="round" stroke-linejoin="round" transform="matrix(3.09, 0.00, 0.00, -3.09, -14.5, 1220.5)"></path><text xml:space="preserve" font-family="Helvetica" font-size="9.0" fill="#000000" transform="matrix(3.09, 0.00, -0.00, -3.09, 209.7, 21.8)">2</text><path d="M 144.9 53.0 L 194.4 53.0 L 194.4 9.7 L 144.9 9.7 Z M 145.6 54.5 " fill="#FEFFFF"></path><path d="M 51.5 377.5 L 67.5 377.5 L 67.5 391.5 L 51.5 391.5 Z M 51.7 377.0 " fill="none" stroke="#000000" stroke-width="1.00" stroke-miterlimit="0.00" stroke-linecap="round" stroke-linejoin="round" transform="matrix(3.09, 0.00, 0.00, -3.09, -14.5, 1220.5)"></path><text xml:space="preserve" font-family="Helvetica" font-size="9.0" fill="#000000" transform="matrix(3.09, 0.00, -0.00, -3.09, 161.8, 21.8)">1</text><path d="M 98.5 53.0 L 144.9 53.0 L 144.9 9.7 L 98.5 9.7 Z M 97.8 54.5 " fill="#FEFFFF"></path><path d="M 36.5 377.5 L 51.5 377.5 L 51.5 391.5 L 36.5 391.5 Z M 36.3 377.0 " fill="none" stroke="#000000" stroke-width="1.00" stroke-miterlimit="0.00" stroke-linecap="round" stroke-linejoin="round" transform="matrix(3.09, 0.00, 0.00, -3.09, -14.5, 1220.5)"></path><text xml:space="preserve" font-family="Helvetica" font-size="9.0" fill="#000000" transform="matrix(3.09, 0.00, -0.00, -3.09, 113.9, 21.8)">0</text><path d="M 769.9 53.0 L 810.1 53.0 L 810.1 9.7 L 769.9 9.7 Z M 767.9 54.5 " fill="#FEFFFF"></path><path d="M 253.5 377.5 L 266.5 377.5 L 266.5 391.5 L 253.5 391.5 Z M 252.8 377.0 " fill="none" stroke="#000000" stroke-width="1.00" stroke-miterlimit="0.00" stroke-linecap="round" stroke-linejoin="round" transform="matrix(3.09, 0.00, 0.00, -3.09, -14.5, 1220.5)"></path><text xml:space="preserve" font-family="Helvetica" font-size="9.0" fill="#000000" transform="matrix(3.09, 0.00, -0.00, -3.09, 785.3, 21.8)">.</text><path d="M 720.4 53.0 L 769.9 53.0 L 769.9 9.7 L 720.4 9.7 Z M 720.0 54.5 " fill="#D5D5D5"></path><path d="M 237.5 377.5 L 253.5 377.5 L 253.5 391.5 L 237.5 391.5 Z M 237.4 377.0 " fill="none" stroke="#000000" stroke-width="1.00" stroke-miterlimit="0.00" stroke-linecap="round" stroke-linejoin="round" transform="matrix(3.09, 0.00, 0.00, -3.09, -14.5, 1220.5)"></path><text xml:space="preserve" font-family="Helvetica" font-size="9.0" fill="#000000" transform="matrix(3.09, 0.00, -0.00, -3.09, 740.1, 21.8)">.</text><path d="M 674.0 53.0 L 720.4 53.0 L 720.4 9.7 L 674.0 9.7 Z M 672.1 54.5 " fill="#D5D5D5"></path><path d="M 222.5 377.5 L 237.5 377.5 L 237.5 391.5 L 222.5 391.5 Z M 221.9 377.0 " fill="none" stroke="#000000" stroke-width="1.00" stroke-miterlimit="0.00" stroke-linecap="round" stroke-linejoin="round" transform="matrix(3.09, 0.00, 0.00, -3.09, -14.5, 1220.5)"></path><text xml:space="preserve" font-family="Helvetica" font-size="9.0" fill="#000000" transform="matrix(3.09, 0.00, -0.00, -3.09, 692.2, 21.8)">.</text><path d="M 624.5 53.0 L 674.0 53.0 L 674.0 9.7 L 624.5 9.7 Z M 624.3 54.5 " fill="#D5D5D5"></path><path d="M 206.5 377.5 L 222.5 377.5 L 222.5 391.5 L 206.5 391.5 Z M 206.4 377.0 " fill="none" stroke="#000000" stroke-width="1.00" stroke-miterlimit="0.00" stroke-linecap="round" stroke-linejoin="round" transform="matrix(3.09, 0.00, 0.00, -3.09, -14.5, 1220.5)"></path><text xml:space="preserve" font-family="Helvetica" font-size="9.0" fill="#000000" transform="matrix(3.09, 0.00, -0.00, -3.09, 640.4, 21.8)">1</text><path d="M 578.1 53.0 L 624.5 53.0 L 624.5 9.7 L 578.1 9.7 Z M 576.4 54.5 " fill="#D5D5D5"></path><path d="M 191.5 377.5 L 206.5 377.5 L 206.5 391.5 L 191.5 391.5 Z M 191.0 377.0 " fill="none" stroke="#000000" stroke-width="1.00" stroke-miterlimit="0.00" stroke-linecap="round" stroke-linejoin="round" transform="matrix(3.09, 0.00, 0.00, -3.09, -14.5, 1220.5)"></path><text xml:space="preserve" font-family="Helvetica" font-size="9.0" fill="#000000" transform="matrix(3.09, 0.00, -0.00, -3.09, 592.6, 21.8)">0</text><path d="M 810.1 96.3 L 1193.8 96.3 L 1193.8 53.0 L 810.1 53.0 Z M 810.5 98.0 " fill="#FEFFFF"></path><path d="M 266.5 363.5 L 390.5 363.5 L 390.5 377.5 L 266.5 377.5 Z M 266.6 362.9 " fill="none" stroke="#000000" stroke-width="1.00" stroke-miterlimit="0.00" stroke-linecap="round" stroke-linejoin="round" transform="matrix(3.09, 0.00, 0.00, -3.09, -14.5, 1220.5)"></path><text xml:space="preserve" font-family="Helvetica" font-size="9.0" fill="#000000" transform="matrix(3.09, 0.00, -0.00, -3.09, 826.0, 65.3)">t</text><text xml:space="preserve" font-family="Helvetica" font-size="9.0" fill="#000000" transform="matrix(3.09, 0.00, -0.00, -3.09, 833.7, 65.3)">i</text><text xml:space="preserve" font-family="Helvetica" font-size="9.0" fill="#000000" transform="matrix(3.09, 0.00, -0.00, -3.09, 839.9, 65.3)">m</text><text xml:space="preserve" font-family="Helvetica" font-size="9.0" fill="#000000" transform="matrix(3.09, 0.00, -0.00, -3.09, 863.1, 65.3)">e</text><text xml:space="preserve" font-family="Helvetica" font-size="9.0" fill="#000000" transform="matrix(3.09, 0.00, -0.00, -3.09, 878.6, 65.3)">s</text><text xml:space="preserve" font-family="Helvetica" font-size="9.0" fill="#000000" transform="matrix(3.09, 0.00, -0.00, -3.09, 892.5, 65.3)">t</text><text xml:space="preserve" font-family="Helvetica" font-size="9.0" fill="#000000" transform="matrix(3.09, 0.00, -0.00, -3.09, 900.3, 65.3)">a</text><text xml:space="preserve" font-family="Helvetica" font-size="9.0" fill="#000000" transform="matrix(3.09, 0.00, -0.00, -3.09, 915.8, 65.3)">m</text><text xml:space="preserve" font-family="Helvetica" font-size="9.0" fill="#000000" transform="matrix(3.09, 0.00, -0.00, -3.09, 939.0, 65.3)">p</text><path d="M 8.7 96.3 L 578.1 96.3 L 578.1 53.0 L 8.7 53.0 Z M 7.5 98.0 " fill="#FEFFFF"></path><path d="M 7.5 363.5 L 191.5 363.5 L 191.5 377.5 L 7.5 377.5 Z M 7.1 362.9 " fill="none" stroke="#000000" stroke-width="1.00" stroke-miterlimit="0.00" stroke-linecap="round" stroke-linejoin="round" transform="matrix(3.09, 0.00, 0.00, -3.09, -14.5, 1220.5)"></path><text xml:space="preserve" font-family="Helvetica" font-size="9.0" fill="#000000" transform="matrix(3.09, 0.00, -0.00, -3.09, 22.9, 65.3)">i</text><text xml:space="preserve" font-family="Helvetica" font-size="9.0" fill="#000000" transform="matrix(3.09, 0.00, -0.00, -3.09, 29.1, 65.3)">d</text><text xml:space="preserve" font-family="Helvetica" font-size="9.0" fill="#000000" transform="matrix(3.09, 0.00, -0.00, -3.09, 44.6, 65.3)">e</text><text xml:space="preserve" font-family="Helvetica" font-size="9.0" fill="#000000" transform="matrix(3.09, 0.00, -0.00, -3.09, 60.1, 65.3)">n</text><text xml:space="preserve" font-family="Helvetica" font-size="9.0" fill="#000000" transform="matrix(3.09, 0.00, -0.00, -3.09, 75.6, 65.3)">t</text><text xml:space="preserve" font-family="Helvetica" font-size="9.0" fill="#000000" transform="matrix(3.09, 0.00, -0.00, -3.09, 83.4, 65.3)">i</text><text xml:space="preserve" font-family="Helvetica" font-size="9.0" fill="#000000" transform="matrix(3.09, 0.00, -0.00, -3.09, 89.6, 65.3)">t</text><text xml:space="preserve" font-family="Helvetica" font-size="9.0" fill="#000000" transform="matrix(3.09, 0.00, -0.00, -3.09, 97.3, 65.3)">y</text><path d="M 578.1 96.3 L 810.1 96.3 L 810.1 53.0 L 578.1 53.0 Z M 576.4 98.0 " fill="#FEFFFF"></path><path d="M 191.5 363.5 L 266.5 363.5 L 266.5 377.5 L 191.5 377.5 Z M 191.0 362.9 " fill="none" stroke="#000000" stroke-width="1.00" stroke-miterlimit="0.00" stroke-linecap="round" stroke-linejoin="round" transform="matrix(3.09, 0.00, 0.00, -3.09, -14.5, 1220.5)"></path><text xml:space="preserve" font-family="Helvetica" font-size="9.0" fill="#000000" transform="matrix(3.09, 0.00, -0.00, -3.09, 591.9, 65.3)">p</text><text xml:space="preserve" font-family="Helvetica" font-size="9.0" fill="#000000" transform="matrix(3.09, 0.00, -0.00, -3.09, 607.4, 65.3)">a</text><text xml:space="preserve" font-family="Helvetica" font-size="9.0" fill="#000000" transform="matrix(3.09, 0.00, -0.00, -3.09, 622.9, 65.3)">r</text><text xml:space="preserve" font-family="Helvetica" font-size="9.0" fill="#000000" transform="matrix(3.09, 0.00, -0.00, -3.09, 632.1, 65.3)">t</text><text xml:space="preserve" font-family="Helvetica" font-size="9.0" fill="#000000" transform="matrix(3.09, 0.00, -0.00, -3.09, 639.9, 65.3)">i</text><text xml:space="preserve" font-family="Helvetica" font-size="9.0" fill="#000000" transform="matrix(3.09, 0.00, -0.00, -3.09, 646.1, 65.3)">c</text><text xml:space="preserve" font-family="Helvetica" font-size="9.0" fill="#000000" transform="matrix(3.09, 0.00, -0.00, -3.09, 660.0, 65.3)">l</text><text xml:space="preserve" font-family="Helvetica" font-size="9.0" fill="#000000" transform="matrix(3.09, 0.00, -0.00, -3.09, 666.2, 65.3)">e</text><text xml:space="preserve" font-family="Helvetica" font-size="9.0" fill="#000000" transform="matrix(3.09, 0.00, -0.00, -3.09, 681.7, 65.3)">s</text><path d="M 1116.5 161.3 L 1193.8 161.3 L 1193.8 114.9 L 1116.5 114.9 Z M 1116.1 160.7 " fill="#FEFFFF"></path><path d="M 365.5 342.5 L 390.5 342.5 L 390.5 357.5 L 365.5 357.5 Z M 365.4 342.7 " fill="none" stroke="#000000" stroke-width="1.00" stroke-miterlimit="0.00" stroke-linecap="round" stroke-linejoin="round" transform="matrix(3.09, 0.00, 0.00, -3.09, -14.5, 1220.5)"></path><text xml:space="preserve" font-family="Helvetica" font-size="9.0" fill="#000000" transform="matrix(3.09, 0.00, -0.00, -3.09, 1121.5, 127.9)">v</text><text xml:space="preserve" font-family="Helvetica" font-size="9.0" fill="#000000" transform="matrix(3.09, 0.00, -0.00, -3.09, 1135.4, 127.9)">a</text><text xml:space="preserve" font-family="Helvetica" font-size="9.0" fill="#000000" transform="matrix(3.09, 0.00, -0.00, -3.09, 1150.9, 127.9)">l</text><text xml:space="preserve" font-family="Helvetica" font-size="9.0" fill="#000000" transform="matrix(3.09, 0.00, -0.00, -3.09, 1157.1, 127.9)">u</text><text xml:space="preserve" font-family="Helvetica" font-size="9.0" fill="#000000" transform="matrix(3.09, 0.00, -0.00, -3.09, 1172.6, 127.9)">e</text><path d="M 1537.3 53.0 L 1614.6 53.0 L 1614.6 9.7 L 1537.3 9.7 Z M 1535.7 54.5 " fill="#FEFFFF"></path><path d="M 501.5 377.5 L 526.5 377.5 L 526.5 391.5 L 501.5 391.5 Z M 501.0 377.0 " fill="none" stroke="#000000" stroke-width="1.00" stroke-miterlimit="0.00" stroke-linecap="round" stroke-linejoin="round" transform="matrix(3.09, 0.00, 0.00, -3.09, -14.5, 1220.5)"></path><text xml:space="preserve" font-family="Helvetica" font-size="9.0" fill="#000000" transform="matrix(3.09, 0.00, -0.00, -3.09, 1540.4, 21.8)">c</text><text xml:space="preserve" font-family="Helvetica" font-size="9.0" fill="#000000" transform="matrix(3.09, 0.00, -0.00, -3.09, 1554.3, 21.8)">o</text><text xml:space="preserve" font-family="Helvetica" font-size="9.0" fill="#000000" transform="matrix(3.09, 0.00, -0.00, -3.09, 1569.8, 21.8)">u</text><text xml:space="preserve" font-family="Helvetica" font-size="9.0" fill="#000000" transform="matrix(3.09, 0.00, -0.00, -3.09, 1585.3, 21.8)">n</text><text xml:space="preserve" font-family="Helvetica" font-size="9.0" fill="#000000" transform="matrix(3.09, 0.00, -0.00, -3.09, 1600.8, 21.8)">t</text><path d="M 1481.6 53.0 L 1537.3 53.0 L 1537.3 9.7 L 1481.6 9.7 Z M 1480.6 54.5 " fill="#FEFFFF"></path><path d="M 483.5 377.5 L 501.5 377.5 L 501.5 391.5 L 483.5 391.5 Z M 483.2 377.0 " fill="none" stroke="#000000" stroke-width="1.00" stroke-miterlimit="0.00" stroke-linecap="round" stroke-linejoin="round" transform="matrix(3.09, 0.00, 0.00, -3.09, -14.5, 1220.5)"></path><text xml:space="preserve" font-family="Helvetica" font-size="9.0" fill="#000000" transform="matrix(3.09, 0.00, -0.00, -3.09, 1482.2, 21.8)">m</text><text xml:space="preserve" font-family="Helvetica" font-size="9.0" fill="#000000" transform="matrix(3.09, 0.00, -0.00, -3.09, 1505.4, 21.8)">a</text><text xml:space="preserve" font-family="Helvetica" font-size="9.0" fill="#000000" transform="matrix(3.09, 0.00, -0.00, -3.09, 1520.9, 21.8)">x</text><path d="M 1429.0 53.0 L 1481.6 53.0 L 1481.6 9.7 L 1429.0 9.7 Z M 1427.4 54.5 " fill="#FEFFFF"></path><path d="M 466.5 377.5 L 483.5 377.5 L 483.5 391.5 L 466.5 391.5 Z M 466.0 377.0 " fill="none" stroke="#000000" stroke-width="1.00" stroke-miterlimit="0.00" stroke-linecap="round" stroke-linejoin="round" transform="matrix(3.09, 0.00, 0.00, -3.09, -14.5, 1220.5)"></path><text xml:space="preserve" font-family="Helvetica" font-size="9.0" fill="#000000" transform="matrix(3.09, 0.00, -0.00, -3.09, 1431.6, 21.8)">m</text><text xml:space="preserve" font-family="Helvetica" font-size="9.0" fill="#000000" transform="matrix(3.09, 0.00, -0.00, -3.09, 1454.8, 21.8)">i</text><text xml:space="preserve" font-family="Helvetica" font-size="9.0" fill="#000000" transform="matrix(3.09, 0.00, -0.00, -3.09, 1461.0, 21.8)">n</text><path d="M 1429.0 96.3 L 1769.4 96.3 L 1769.4 53.0 L 1429.0 53.0 Z M 1427.4 98.0 " fill="#FEFFFF"></path><path d="M 466.5 363.5 L 576.5 363.5 L 576.5 377.5 L 466.5 377.5 Z M 466.0 362.9 " fill="none" stroke="#000000" stroke-width="1.00" stroke-miterlimit="0.00" stroke-linecap="round" stroke-linejoin="round" transform="matrix(3.09, 0.00, 0.00, -3.09, -14.5, 1220.5)"></path><text xml:space="preserve" font-family="Helvetica" font-size="9.0" fill="#000000" transform="matrix(3.09, 0.00, -0.00, -3.09, 1442.9, 65.3)">q</text><text xml:space="preserve" font-family="Helvetica" font-size="9.0" fill="#000000" transform="matrix(3.09, 0.00, -0.00, -3.09, 1458.4, 65.3)">u</text><text xml:space="preserve" font-family="Helvetica" font-size="9.0" fill="#000000" transform="matrix(3.09, 0.00, -0.00, -3.09, 1473.9, 65.3)">a</text><text xml:space="preserve" font-family="Helvetica" font-size="9.0" fill="#000000" transform="matrix(3.09, 0.00, -0.00, -3.09, 1489.4, 65.3)">r</text><text xml:space="preserve" font-family="Helvetica" font-size="9.0" fill="#000000" transform="matrix(3.09, 0.00, -0.00, -3.09, 1498.7, 65.3)">k</text><path d="M 1614.6 53.0 L 1692.0 53.0 L 1692.0 9.7 L 1614.6 9.7 Z M 1613.1 54.2 " fill="#FEFFFF"></path><path d="M 526.5 377.5 L 551.5 377.5 L 551.5 391.5 L 526.5 391.5 Z M 526.0 377.1 " fill="none" stroke="#000000" stroke-width="1.00" stroke-miterlimit="0.00" stroke-linecap="round" stroke-linejoin="round" transform="matrix(3.09, 0.00, 0.00, -3.09, -14.5, 1220.5)"></path><text xml:space="preserve" font-family="Helvetica" font-size="9.0" fill="#000000" transform="matrix(3.09, 0.00, -0.00, -3.09, 1625.5, 21.6)">s</text><text xml:space="preserve" font-family="Helvetica" font-size="9.0" fill="#000000" transform="matrix(3.09, 0.00, -0.00, -3.09, 1639.4, 21.6)">u</text><text xml:space="preserve" font-family="Helvetica" font-size="9.0" fill="#000000" transform="matrix(3.09, 0.00, -0.00, -3.09, 1654.9, 21.6)">m</text><path d="M 1193.8 96.3 L 1429.0 96.3 L 1429.0 53.0 L 1193.8 53.0 Z M 1193.4 98.0 " fill="#FEFFFF"></path><path d="M 390.5 363.5 L 466.5 363.5 L 466.5 377.5 L 390.5 377.5 Z M 390.4 362.9 " fill="none" stroke="#000000" stroke-width="1.00" stroke-miterlimit="0.00" stroke-linecap="round" stroke-linejoin="round" transform="matrix(3.09, 0.00, 0.00, -3.09, -14.5, 1220.5)"></path><text xml:space="preserve" font-family="Helvetica" font-size="9.0" fill="#000000" transform="matrix(3.09, 0.00, -0.00, -3.09, 1208.9, 65.3)">ﬁ</text><text xml:space="preserve" font-family="Helvetica" font-size="9.0" fill="#000000" transform="matrix(3.09, 0.00, -0.00, -3.09, 1222.8, 65.3)">e</text><text xml:space="preserve" font-family="Helvetica" font-size="9.0" fill="#000000" transform="matrix(3.09, 0.00, -0.00, -3.09, 1238.3, 65.3)">l</text><text xml:space="preserve" font-family="Helvetica" font-size="9.0" fill="#000000" transform="matrix(3.09, 0.00, -0.00, -3.09, 1244.5, 65.3)">d</text><text xml:space="preserve" font-family="Helvetica" font-size="9.0" fill="#000000" transform="matrix(3.09, 0.00, -0.00, -3.09, 1260.0, 65.3)">s</text><path d="M 1385.7 53.0 L 1429.0 53.0 L 1429.0 9.7 L 1385.7 9.7 Z M 1384.9 54.2 " fill="#FEFFFF"></path><path d="M 452.5 377.5 L 466.5 377.5 L 466.5 391.5 L 452.5 391.5 Z M 452.2 377.1 " fill="none" stroke="#000000" stroke-width="1.00" stroke-miterlimit="0.00" stroke-linecap="round" stroke-linejoin="round" transform="matrix(3.09, 0.00, 0.00, -3.09, -14.5, 1220.5)"></path><text xml:space="preserve" font-family="Helvetica" font-size="9.0" fill="#000000" transform="matrix(3.09, 0.00, -0.00, -3.09, 1402.3, 21.4)">.</text><path d="M 1339.3 53.0 L 1385.7 53.0 L 1385.7 9.7 L 1339.3 9.7 Z M 1337.0 54.2 " fill="#D5D5D5"></path><path d="M 437.5 377.5 L 452.5 377.5 L 452.5 391.5 L 437.5 391.5 Z M 436.8 377.1 " fill="none" stroke="#000000" stroke-width="1.00" stroke-miterlimit="0.00" stroke-linecap="round" stroke-linejoin="round" transform="matrix(3.09, 0.00, 0.00, -3.09, -14.5, 1220.5)"></path><text xml:space="preserve" font-family="Helvetica" font-size="9.0" fill="#000000" transform="matrix(3.09, 0.00, -0.00, -3.09, 1357.1, 21.4)">.</text><path d="M 1289.8 53.0 L 1339.3 53.0 L 1339.3 9.7 L 1289.8 9.7 Z M 1289.2 54.2 " fill="#D5D5D5"></path><path d="M 421.5 377.5 L 437.5 377.5 L 437.5 391.5 L 421.5 391.5 Z M 421.3 377.1 " fill="none" stroke="#000000" stroke-width="1.00" stroke-miterlimit="0.00" stroke-linecap="round" stroke-linejoin="round" transform="matrix(3.09, 0.00, 0.00, -3.09, -14.5, 1220.5)"></path><text xml:space="preserve" font-family="Helvetica" font-size="9.0" fill="#000000" transform="matrix(3.09, 0.00, -0.00, -3.09, 1309.2, 21.4)">.</text><path d="M 1243.3 53.0 L 1289.8 53.0 L 1289.8 9.7 L 1243.3 9.7 Z M 1241.3 54.2 " fill="#D5D5D5"></path><path d="M 406.5 377.5 L 421.5 377.5 L 421.5 391.5 L 406.5 391.5 Z M 405.8 377.1 " fill="none" stroke="#000000" stroke-width="1.00" stroke-miterlimit="0.00" stroke-linecap="round" stroke-linejoin="round" transform="matrix(3.09, 0.00, 0.00, -3.09, -14.5, 1220.5)"></path><text xml:space="preserve" font-family="Helvetica" font-size="9.0" fill="#000000" transform="matrix(3.09, 0.00, -0.00, -3.09, 1257.5, 21.4)">1</text><path d="M 1193.8 53.0 L 1243.3 53.0 L 1243.3 9.7 L 1193.8 9.7 Z M 1193.4 54.2 " fill="#D5D5D5"></path><path d="M 390.5 377.5 L 406.5 377.5 L 406.5 391.5 L 390.5 391.5 Z M 390.4 377.1 " fill="none" stroke="#000000" stroke-width="1.00" stroke-miterlimit="0.00" stroke-linecap="round" stroke-linejoin="round" transform="matrix(3.09, 0.00, 0.00, -3.09, -14.5, 1220.5)"></path><text xml:space="preserve" font-family="Helvetica" font-size="9.0" fill="#000000" transform="matrix(3.09, 0.00, -0.00, -3.09, 1209.6, 21.4)">0</text></g></g></g></g></g></svg>