<?xml version="1.0" encoding="UTF-8" standalone="no"?><svg xmlns="http://www.w3.org/2000/svg" xmlns:xlink="http://www.w3.org/1999/xlink" clip-rule="evenodd" stroke-miterlimit="4.00" viewBox="0 0 1920 1080"><desc>SVG generated by Keynote</desc><defs></defs><g transform="matrix(1.00, 0.00, -0.00, -1.00, 0.0, 1080.0)"><g><clipPath id="clip-0"><path d="M 0.0 1080.0 L 1920.0 1080.0 L 1920.0 0.0 L 0.0 0.0 Z M 0.0 1080.0 "></path></clipPath><g clip-path="url(#clip-0)"><image xlink:href="4E6DE69724E5577B4EF4A0F429FFC101.jpeg" width="1365.00" height="767.00" transform="matrix(1.41, 0.00, -0.00, -1.41, 0.0, 1080.0)"></image></g></g><image xlink:href="27C240B07832595E84B011E96CF66EF2.png" width="1574.00" height="63.00" transform="matrix(1.00, 0.00, -0.00, -1.00, 119.0, 685.0)"></image><text xml:space="preserve" font-family="HelveticaNeue-Light" font-size="60.0" fill="#FEFFFE" transform="matrix(1.00, 0.00, -0.00, -1.00, 120.0, 641.0)">“</text><text xml:space="preserve" font-family="HelveticaNeue-Light" font-size="60.0" fill="#FEFFFE" transform="matrix(1.00, 0.00, -0.00, -1.00, 142.2, 641.0)">Y</text><text xml:space="preserve" font-family="HelveticaNeue-Light" font-size="60.0" fill="#FEFFFE" transform="matrix(1.00, 0.00, -0.00, -1.00, 173.3, 641.0)">o</text><text xml:space="preserve" font-family="HelveticaNeue-Light" font-size="60.0" fill="#FEFFFE" transform="matrix(1.00, 0.00, -0.00, -1.00, 206.7, 641.0)">u</text><text xml:space="preserve" font-family="HelveticaNeue-Light" font-size="60.0" fill="#FEFFFE" transform="matrix(1.00, 0.00, -0.00, -1.00, 238.9, 641.0)"> </text><text xml:space="preserve" font-family="HelveticaNeue-Light" font-size="60.0" fill="#FEFFFE" transform="matrix(1.00, 0.00, -0.00, -1.00, 255.6, 641.0)">n</text><text xml:space="preserve" font-family="HelveticaNeue-Light" font-size="60.0" fill="#FEFFFE" transform="matrix(1.00, 0.00, -0.00, -1.00, 287.8, 641.0)">e</text><text xml:space="preserve" font-family="HelveticaNeue-Light" font-size="60.0" fill="#FEFFFE" transform="matrix(1.00, 0.00, -0.00, -1.00, 319.0, 641.0)">v</text><text xml:space="preserve" font-family="HelveticaNeue-Light" font-size="60.0" fill="#FEFFFE" transform="matrix(1.00, 0.00, -0.00, -1.00, 346.7, 641.0)">e</text><text xml:space="preserve" font-family="HelveticaNeue-Light" font-size="60.0" fill="#FEFFFE" transform="matrix(1.00, 0.00, -0.00, -1.00, 377.9, 641.0)">r</text><text xml:space="preserve" font-family="HelveticaNeue-Light" font-size="60.0" fill="#FEFFFE" transform="matrix(1.00, 0.00, -0.00, -1.00, 396.8, 641.0)"> </text><text xml:space="preserve" font-family="HelveticaNeue-Light" font-size="60.0" fill="#FEFFFE" transform="matrix(1.00, 0.00, -0.00, -1.00, 413.5, 641.0)">t</text><text xml:space="preserve" font-family="HelveticaNeue-Light" font-size="60.0" fill="#FEFFFE" transform="matrix(1.00, 0.00, -0.00, -1.00, 431.2, 641.0)">r</text><text xml:space="preserve" font-family="HelveticaNeue-Light" font-size="60.0" fill="#FEFFFE" transform="matrix(1.00, 0.00, -0.00, -1.00, 450.1, 641.0)">u</text><text xml:space="preserve" font-family="HelveticaNeue-Light" font-size="60.0" fill="#FEFFFE" transform="matrix(1.00, 0.00, -0.00, -1.00, 482.3, 641.0)">l</text><text xml:space="preserve" font-family="HelveticaNeue-Light" font-size="60.0" fill="#FEFFFE" transform="matrix(1.00, 0.00, -0.00, -1.00, 493.4, 641.0)">y</text><text xml:space="preserve" font-family="HelveticaNeue-Light" font-size="60.0" fill="#FEFFFE" transform="matrix(1.00, 0.00, -0.00, -1.00, 521.2, 641.0)"> </text><text xml:space="preserve" font-family="HelveticaNeue-Light" font-size="60.0" fill="#FEFFFE" transform="matrix(1.00, 0.00, -0.00, -1.00, 537.9, 641.0)">u</text><text xml:space="preserve" font-family="HelveticaNeue-Light" font-size="60.0" fill="#FEFFFE" transform="matrix(1.00, 0.00, -0.00, -1.00, 570.1, 641.0)">n</text><text xml:space="preserve" font-family="HelveticaNeue-Light" font-size="60.0" fill="#FEFFFE" transform="matrix(1.00, 0.00, -0.00, -1.00, 602.3, 641.0)">d</text><text xml:space="preserve" font-family="HelveticaNeue-Light" font-size="60.0" fill="#FEFFFE" transform="matrix(1.00, 0.00, -0.00, -1.00, 636.8, 641.0)">e</text><text xml:space="preserve" font-family="HelveticaNeue-Light" font-size="60.0" fill="#FEFFFE" transform="matrix(1.00, 0.00, -0.00, -1.00, 667.9, 641.0)">r</text><text xml:space="preserve" font-family="HelveticaNeue-Light" font-size="60.0" fill="#FEFFFE" transform="matrix(1.00, 0.00, -0.00, -1.00, 686.8, 641.0)">s</text><text xml:space="preserve" font-family="HelveticaNeue-Light" font-size="60.0" fill="#FEFFFE" transform="matrix(1.00, 0.00, -0.00, -1.00, 715.7, 641.0)">t</text><text xml:space="preserve" font-family="HelveticaNeue-Light" font-size="60.0" fill="#FEFFFE" transform="matrix(1.00, 0.00, -0.00, -1.00, 733.4, 641.0)">a</text><text xml:space="preserve" font-family="HelveticaNeue-Light" font-size="60.0" fill="#FEFFFE" transform="matrix(1.00, 0.00, -0.00, -1.00, 764.6, 641.0)">n</text><text xml:space="preserve" font-family="HelveticaNeue-Light" font-size="60.0" fill="#FEFFFE" transform="matrix(1.00, 0.00, -0.00, -1.00, 796.8, 641.0)">d</text><text xml:space="preserve" font-family="HelveticaNeue-Light" font-size="60.0" fill="#FEFFFE" transform="matrix(1.00, 0.00, -0.00, -1.00, 831.2, 641.0)"> </text><text xml:space="preserve" font-family="HelveticaNeue-Light" font-size="60.0" fill="#FEFFFE" transform="matrix(1.00, 0.00, -0.00, -1.00, 847.9, 641.0)">t</text><text xml:space="preserve" font-family="HelveticaNeue-Light" font-size="60.0" fill="#FEFFFE" transform="matrix(1.00, 0.00, -0.00, -1.00, 865.7, 641.0)">h</text><text xml:space="preserve" font-family="HelveticaNeue-Light" font-size="60.0" fill="#FEFFFE" transform="matrix(1.00, 0.00, -0.00, -1.00, 897.9, 641.0)">e</text><text xml:space="preserve" font-family="HelveticaNeue-Light" font-size="60.0" fill="#FEFFFE" transform="matrix(1.00, 0.00, -0.00, -1.00, 929.0, 641.0)"> </text><text xml:space="preserve" font-family="HelveticaNeue-Light" font-size="60.0" fill="#FEFFFE" transform="matrix(1.00, 0.00, -0.00, -1.00, 945.7, 641.0)">u</text><text xml:space="preserve" font-family="HelveticaNeue-Light" font-size="60.0" fill="#FEFFFE" transform="matrix(1.00, 0.00, -0.00, -1.00, 977.9, 641.0)">n</text><text xml:space="preserve" font-family="HelveticaNeue-Light" font-size="60.0" fill="#FEFFFE" transform="matrix(1.00, 0.00, -0.00, -1.00, 1010.2, 641.0)">i</text><text xml:space="preserve" font-family="HelveticaNeue-Light" font-size="60.0" fill="#FEFFFE" transform="matrix(1.00, 0.00, -0.00, -1.00, 1021.3, 641.0)">v</text><text xml:space="preserve" font-family="HelveticaNeue-Light" font-size="60.0" fill="#FEFFFE" transform="matrix(1.00, 0.00, -0.00, -1.00, 1049.0, 641.0)">e</text><text xml:space="preserve" font-family="HelveticaNeue-Light" font-size="60.0" fill="#FEFFFE" transform="matrix(1.00, 0.00, -0.00, -1.00, 1080.2, 641.0)">r</text><text xml:space="preserve" font-family="HelveticaNeue-Light" font-size="60.0" fill="#FEFFFE" transform="matrix(1.00, 0.00, -0.00, -1.00, 1099.1, 641.0)">s</text><text xml:space="preserve" font-family="HelveticaNeue-Light" font-size="60.0" fill="#FEFFFE" transform="matrix(1.00, 0.00, -0.00, -1.00, 1127.9, 641.0)">e</text><text xml:space="preserve" font-family="HelveticaNeue-Light" font-size="60.0" fill="#FEFFFE" transform="matrix(1.00, 0.00, -0.00, -1.00, 1159.1, 641.0)"> </text><text xml:space="preserve" font-family="HelveticaNeue-Light" font-size="60.0" fill="#FEFFFE" transform="matrix(1.00, 0.00, -0.00, -1.00, 1175.8, 641.0)">u</text><text xml:space="preserve" font-family="HelveticaNeue-Light" font-size="60.0" fill="#FEFFFE" transform="matrix(1.00, 0.00, -0.00, -1.00, 1208.0, 641.0)">n</text><text xml:space="preserve" font-family="HelveticaNeue-Light" font-size="60.0" fill="#FEFFFE" transform="matrix(1.00, 0.00, -0.00, -1.00, 1240.2, 641.0)">t</text><text xml:space="preserve" font-family="HelveticaNeue-Light" font-size="60.0" fill="#FEFFFE" transform="matrix(1.00, 0.00, -0.00, -1.00, 1258.0, 641.0)">i</text><text xml:space="preserve" font-family="HelveticaNeue-Light" font-size="60.0" fill="#FEFFFE" transform="matrix(1.00, 0.00, -0.00, -1.00, 1269.1, 641.0)">l</text><text xml:space="preserve" font-family="HelveticaNeue-Light" font-size="60.0" fill="#FEFFFE" transform="matrix(1.00, 0.00, -0.00, -1.00, 1280.2, 641.0)"> </text><text xml:space="preserve" font-family="HelveticaNeue-Light" font-size="60.0" fill="#FEFFFE" transform="matrix(1.00, 0.00, -0.00, -1.00, 1296.8, 641.0)">y</text><text xml:space="preserve" font-family="HelveticaNeue-Light" font-size="60.0" fill="#FEFFFE" transform="matrix(1.00, 0.00, -0.00, -1.00, 1324.6, 641.0)">o</text><text xml:space="preserve" font-family="HelveticaNeue-Light" font-size="60.0" fill="#FEFFFE" transform="matrix(1.00, 0.00, -0.00, -1.00, 1358.0, 641.0)">u</text><text xml:space="preserve" font-family="HelveticaNeue-Light" font-size="60.0" fill="#FEFFFE" transform="matrix(1.00, 0.00, -0.00, -1.00, 1390.2, 641.0)"> </text><text xml:space="preserve" font-family="HelveticaNeue-Light" font-size="60.0" fill="#FEFFFE" transform="matrix(1.00, 0.00, -0.00, -1.00, 1406.9, 641.0)">s</text><text xml:space="preserve" font-family="HelveticaNeue-Light" font-size="60.0" fill="#FEFFFE" transform="matrix(1.00, 0.00, -0.00, -1.00, 1435.7, 641.0)">m</text><text xml:space="preserve" font-family="HelveticaNeue-Light" font-size="60.0" fill="#FEFFFE" transform="matrix(1.00, 0.00, -0.00, -1.00, 1485.7, 641.0)">a</text><text xml:space="preserve" font-family="HelveticaNeue-Light" font-size="60.0" fill="#FEFFFE" transform="matrix(1.00, 0.00, -0.00, -1.00, 1516.9, 641.0)">s</text><text xml:space="preserve" font-family="HelveticaNeue-Light" font-size="60.0" fill="#FEFFFE" transform="matrix(1.00, 0.00, -0.00, -1.00, 1545.7, 641.0)">h</text><text xml:space="preserve" font-family="HelveticaNeue-Light" font-size="60.0" fill="#FEFFFE" transform="matrix(1.00, 0.00, -0.00, -1.00, 1577.9, 641.0)"> </text><text xml:space="preserve" font-family="HelveticaNeue-Light" font-size="60.0" fill="#FEFFFE" transform="matrix(1.00, 0.00, -0.00, -1.00, 1594.6, 641.0)">t</text><text xml:space="preserve" font-family="HelveticaNeue-Light" font-size="60.0" fill="#FEFFFE" transform="matrix(1.00, 0.00, -0.00, -1.00, 1612.4, 641.0)">w</text><text xml:space="preserve" font-family="HelveticaNeue-Light" font-size="60.0" fill="#FEFFFE" transform="matrix(1.00, 0.00, -0.00, -1.00, 1656.8, 641.0)">o</text><text xml:space="preserve" font-family="HelveticaNeue-Light" font-size="60.0" fill="#FEFFFE" transform="matrix(1.00, 0.00, -0.00, -1.00, 1690.2, 641.0)"> </text><image xlink:href="587C97466A247CCFEDC074857191856F.png" width="419.00" height="64.00" transform="matrix(1.00, 0.00, -0.00, -1.00, 117.0, 612.0)"></image><text xml:space="preserve" font-family="HelveticaNeue-Light" font-size="60.0" fill="#FEFFFE" transform="matrix(1.00, 0.00, -0.00, -1.00, 120.0, 568.0)">a</text><text xml:space="preserve" font-family="HelveticaNeue-Light" font-size="60.0" fill="#FEFFFE" transform="matrix(1.00, 0.00, -0.00, -1.00, 151.1, 568.0)">t</text><text xml:space="preserve" font-family="HelveticaNeue-Light" font-size="60.0" fill="#FEFFFE" transform="matrix(1.00, 0.00, -0.00, -1.00, 168.9, 568.0)">o</text><text xml:space="preserve" font-family="HelveticaNeue-Light" font-size="60.0" fill="#FEFFFE" transform="matrix(1.00, 0.00, -0.00, -1.00, 202.3, 568.0)">m</text><text xml:space="preserve" font-family="HelveticaNeue-Light" font-size="60.0" fill="#FEFFFE" transform="matrix(1.00, 0.00, -0.00, -1.00, 252.2, 568.0)">s</text><text xml:space="preserve" font-family="HelveticaNeue-Light" font-size="60.0" fill="#FEFFFE" transform="matrix(1.00, 0.00, -0.00, -1.00, 281.1, 568.0)"> </text><text xml:space="preserve" font-family="HelveticaNeue-Light" font-size="60.0" fill="#FEFFFE" transform="matrix(1.00, 0.00, -0.00, -1.00, 297.8, 568.0)">t</text><text xml:space="preserve" font-family="HelveticaNeue-Light" font-size="60.0" fill="#FEFFFE" transform="matrix(1.00, 0.00, -0.00, -1.00, 315.5, 568.0)">o</text><text xml:space="preserve" font-family="HelveticaNeue-Light" font-size="60.0" fill="#FEFFFE" transform="matrix(1.00, 0.00, -0.00, -1.00, 348.9, 568.0)">g</text><text xml:space="preserve" font-family="HelveticaNeue-Light" font-size="60.0" fill="#FEFFFE" transform="matrix(1.00, 0.00, -0.00, -1.00, 382.3, 568.0)">e</text><text xml:space="preserve" font-family="HelveticaNeue-Light" font-size="60.0" fill="#FEFFFE" transform="matrix(1.00, 0.00, -0.00, -1.00, 413.4, 568.0)">t</text><text xml:space="preserve" font-family="HelveticaNeue-Light" font-size="60.0" fill="#FEFFFE" transform="matrix(1.00, 0.00, -0.00, -1.00, 431.2, 568.0)">h</text><text xml:space="preserve" font-family="HelveticaNeue-Light" font-size="60.0" fill="#FEFFFE" transform="matrix(1.00, 0.00, -0.00, -1.00, 463.4, 568.0)">e</text><text xml:space="preserve" font-family="HelveticaNeue-Light" font-size="60.0" fill="#FEFFFE" transform="matrix(1.00, 0.00, -0.00, -1.00, 494.5, 568.0)">r</text><text xml:space="preserve" font-family="HelveticaNeue-Light" font-size="60.0" fill="#FEFFFE" transform="matrix(1.00, 0.00, -0.00, -1.00, 513.4, 568.0)">”</text><image xlink:href="21402D1C27BEF29FA5EF977CDDB00BA0.png" width="24.00" height="9.00" transform="matrix(1.00, 0.00, -0.00, -1.00, 1161.0, 453.0)"></image><text xml:space="preserve" font-family="HelveticaNeue-Italic" font-style="italic" font-size="32.0" fill="#73BFFF" transform="matrix(1.00, 0.00, -0.00, -1.00, 1163.7, 441.8)">–</text><image xlink:href="30EE0F8DE343196C8839DBD0211F6FAA.png" width="546.00" height="37.00" transform="matrix(1.00, 0.00, -0.00, -1.00, 1188.0, 467.0)"></image><text xml:space="preserve" font-family="HelveticaNeue-Italic" font-style="italic" font-size="32.0" fill="#73BFFF" transform="matrix(1.00, 0.00, -0.00, -1.00, 1179.7, 441.8)"> </text><text xml:space="preserve" font-family="HelveticaNeue-Italic" font-style="italic" font-size="32.0" fill="#73BFFF" transform="matrix(1.00, 0.00, -0.00, -1.00, 1188.6, 441.8)">S</text><text xml:space="preserve" font-family="HelveticaNeue-Italic" font-style="italic" font-size="32.0" fill="#73BFFF" transform="matrix(1.00, 0.00, -0.00, -1.00, 1209.3, 441.8)">o</text><text xml:space="preserve" font-family="HelveticaNeue-Italic" font-style="italic" font-size="32.0" fill="#73BFFF" transform="matrix(1.00, 0.00, -0.00, -1.00, 1227.7, 441.8)">m</text><text xml:space="preserve" font-family="HelveticaNeue-Italic" font-style="italic" font-size="32.0" fill="#73BFFF" transform="matrix(1.00, 0.00, -0.00, -1.00, 1254.9, 441.8)">e</text><text xml:space="preserve" font-family="HelveticaNeue-Italic" font-style="italic" font-size="32.0" fill="#73BFFF" transform="matrix(1.00, 0.00, -0.00, -1.00, 1272.1, 441.8)"> </text><text xml:space="preserve" font-family="HelveticaNeue-Italic" font-style="italic" font-size="32.0" fill="#73BFFF" transform="matrix(1.00, 0.00, -0.00, -1.00, 1281.0, 441.8)">g</text><text xml:space="preserve" font-family="HelveticaNeue-Italic" font-style="italic" font-size="32.0" fill="#73BFFF" transform="matrix(1.00, 0.00, -0.00, -1.00, 1299.4, 441.8)">u</text><text xml:space="preserve" font-family="HelveticaNeue-Italic" font-style="italic" font-size="32.0" fill="#73BFFF" transform="matrix(1.00, 0.00, -0.00, -1.00, 1317.2, 441.8)">y</text><text xml:space="preserve" font-family="HelveticaNeue-Italic" font-style="italic" font-size="32.0" fill="#73BFFF" transform="matrix(1.00, 0.00, -0.00, -1.00, 1332.6, 441.8)"> </text><text xml:space="preserve" font-family="HelveticaNeue-Italic" font-style="italic" font-size="32.0" fill="#73BFFF" transform="matrix(1.00, 0.00, -0.00, -1.00, 1341.5, 441.8)">o</text><text xml:space="preserve" font-family="HelveticaNeue-Italic" font-style="italic" font-size="32.0" fill="#73BFFF" transform="matrix(1.00, 0.00, -0.00, -1.00, 1359.8, 441.8)">n</text><text xml:space="preserve" font-family="HelveticaNeue-Italic" font-style="italic" font-size="32.0" fill="#73BFFF" transform="matrix(1.00, 0.00, -0.00, -1.00, 1377.6, 441.8)"> </text><text xml:space="preserve" font-family="HelveticaNeue-Italic" font-style="italic" font-size="32.0" fill="#73BFFF" transform="matrix(1.00, 0.00, -0.00, -1.00, 1386.5, 441.8)">B</text><text xml:space="preserve" font-family="HelveticaNeue-Italic" font-style="italic" font-size="32.0" fill="#73BFFF" transform="matrix(1.00, 0.00, -0.00, -1.00, 1408.4, 441.8)">i</text><text xml:space="preserve" font-family="HelveticaNeue-Italic" font-style="italic" font-size="32.0" fill="#73BFFF" transform="matrix(1.00, 0.00, -0.00, -1.00, 1415.5, 441.8)">l</text><text xml:space="preserve" font-family="HelveticaNeue-Italic" font-style="italic" font-size="32.0" fill="#73BFFF" transform="matrix(1.00, 0.00, -0.00, -1.00, 1422.6, 441.8)">l</text><text xml:space="preserve" font-family="HelveticaNeue-Italic" font-style="italic" font-size="32.0" fill="#73BFFF" transform="matrix(1.00, 0.00, -0.00, -1.00, 1429.7, 441.8)"> </text><text xml:space="preserve" font-family="HelveticaNeue-Italic" font-style="italic" font-size="32.0" fill="#73BFFF" transform="matrix(1.00, 0.00, -0.00, -1.00, 1438.6, 441.8)">M</text><text xml:space="preserve" font-family="HelveticaNeue-Italic" font-style="italic" font-size="32.0" fill="#73BFFF" transform="matrix(1.00, 0.00, -0.00, -1.00, 1466.5, 441.8)">a</text><text xml:space="preserve" font-family="HelveticaNeue-Italic" font-style="italic" font-size="32.0" fill="#73BFFF" transform="matrix(1.00, 0.00, -0.00, -1.00, 1483.1, 441.8)">h</text><text xml:space="preserve" font-family="HelveticaNeue-Italic" font-style="italic" font-size="32.0" fill="#73BFFF" transform="matrix(1.00, 0.00, -0.00, -1.00, 1500.9, 441.8)">r</text><text xml:space="preserve" font-family="HelveticaNeue-Italic" font-style="italic" font-size="32.0" fill="#73BFFF" transform="matrix(1.00, 0.00, -0.00, -1.00, 1511.5, 441.8)"> </text><text xml:space="preserve" font-family="HelveticaNeue-Italic" font-style="italic" font-size="32.0" fill="#73BFFF" transform="matrix(1.00, 0.00, -0.00, -1.00, 1520.4, 441.8)">t</text><text xml:space="preserve" font-family="HelveticaNeue-Italic" font-style="italic" font-size="32.0" fill="#73BFFF" transform="matrix(1.00, 0.00, -0.00, -1.00, 1530.5, 441.8)">h</text><text xml:space="preserve" font-family="HelveticaNeue-Italic" font-style="italic" font-size="32.0" fill="#73BFFF" transform="matrix(1.00, 0.00, -0.00, -1.00, 1548.3, 441.8)">e</text><text xml:space="preserve" font-family="HelveticaNeue-Italic" font-style="italic" font-size="32.0" fill="#73BFFF" transform="matrix(1.00, 0.00, -0.00, -1.00, 1565.5, 441.8)"> </text><text xml:space="preserve" font-family="HelveticaNeue-Italic" font-style="italic" font-size="32.0" fill="#73BFFF" transform="matrix(1.00, 0.00, -0.00, -1.00, 1574.4, 441.8)">o</text><text xml:space="preserve" font-family="HelveticaNeue-Italic" font-style="italic" font-size="32.0" fill="#73BFFF" transform="matrix(1.00, 0.00, -0.00, -1.00, 1592.8, 441.8)">t</text><text xml:space="preserve" font-family="HelveticaNeue-Italic" font-style="italic" font-size="32.0" fill="#73BFFF" transform="matrix(1.00, 0.00, -0.00, -1.00, 1602.8, 441.8)">h</text><text xml:space="preserve" font-family="HelveticaNeue-Italic" font-style="italic" font-size="32.0" fill="#73BFFF" transform="matrix(1.00, 0.00, -0.00, -1.00, 1620.6, 441.8)">e</text><text xml:space="preserve" font-family="HelveticaNeue-Italic" font-style="italic" font-size="32.0" fill="#73BFFF" transform="matrix(1.00, 0.00, -0.00, -1.00, 1637.8, 441.8)">r</text><text xml:space="preserve" font-family="HelveticaNeue-Italic" font-style="italic" font-size="32.0" fill="#73BFFF" transform="matrix(1.00, 0.00, -0.00, -1.00, 1648.5, 441.8)"> </text><text xml:space="preserve" font-family="HelveticaNeue-Italic" font-style="italic" font-size="32.0" fill="#73BFFF" transform="matrix(1.00, 0.00, -0.00, -1.00, 1657.4, 441.8)">n</text><text xml:space="preserve" font-family="HelveticaNeue-Italic" font-style="italic" font-size="32.0" fill="#73BFFF" transform="matrix(1.00, 0.00, -0.00, -1.00, 1675.2, 441.8)">i</text><text xml:space="preserve" font-family="HelveticaNeue-Italic" font-style="italic" font-size="32.0" fill="#73BFFF" transform="matrix(1.00, 0.00, -0.00, -1.00, 1682.3, 441.8)">g</text><text xml:space="preserve" font-family="HelveticaNeue-Italic" font-style="italic" font-size="32.0" fill="#73BFFF" transform="matrix(1.00, 0.00, -0.00, -1.00, 1700.6, 441.8)">h</text><text xml:space="preserve" font-family="HelveticaNeue-Italic" font-style="italic" font-size="32.0" fill="#73BFFF" transform="matrix(1.00, 0.00, -0.00, -1.00, 1718.4, 441.8)">t</text></g></svg>