<?xml version="1.0" encoding="UTF-8" standalone="no"?><svg xmlns="http://www.w3.org/2000/svg" xmlns:xlink="http://www.w3.org/1999/xlink" clip-rule="evenodd" stroke-miterlimit="4.00" viewBox="0 0 1920 1080"><desc>SVG generated by Keynote</desc><defs></defs><g transform="matrix(1.00, 0.00, -0.00, -1.00, 0.0, 1080.0)"><g><clipPath id="clip-26"><path d="M 0.0 1080.0 L 1920.0 1080.0 L 1920.0 0.0 L 0.0 0.0 Z M 0.0 1080.0 "></path></clipPath><g clip-path="url(#clip-26)"><image xlink:href="../../A172C229-966A-4E8A-A457-DFB78DE74FB5/assets/4E6DE69724E5577B4EF4A0F429FFC101.jpeg" width="1365.00" height="767.00" transform="matrix(1.41, 0.00, -0.00, -1.41, 0.0, 1080.0)"></image></g></g><image xlink:href="../../4100B36C-49E9-4093-AC87-BCEE9001BD96/assets/289FC77B16387E2B76796B2E61CE5CCE.png" width="427.00" height="101.00" transform="matrix(1.00, 0.00, -0.00, -1.00, 833.0, 952.0)"></image><text xml:space="preserve" font-family="HelveticaNeue-Light" font-size="100.0" fill="#FEFFFE" transform="matrix(1.00, 0.00, -0.00, -1.00, 830.0, 879.0)">L</text><text xml:space="preserve" font-family="HelveticaNeue-Light" font-size="100.0" fill="#FEFFFE" transform="matrix(1.00, 0.00, -0.00, -1.00, 883.7, 879.0)">a</text><text xml:space="preserve" font-family="HelveticaNeue-Light" font-size="100.0" fill="#FEFFFE" transform="matrix(1.00, 0.00, -0.00, -1.00, 935.6, 879.0)">n</text><text xml:space="preserve" font-family="HelveticaNeue-Light" font-size="100.0" fill="#FEFFFE" transform="matrix(1.00, 0.00, -0.00, -1.00, 989.3, 879.0)">g</text><text xml:space="preserve" font-family="HelveticaNeue-Light" font-size="100.0" fill="#FEFFFE" transform="matrix(1.00, 0.00, -0.00, -1.00, 1044.9, 879.0)">u</text><text xml:space="preserve" font-family="HelveticaNeue-Light" font-size="100.0" fill="#FEFFFE" transform="matrix(1.00, 0.00, -0.00, -1.00, 1098.6, 879.0)">a</text><text xml:space="preserve" font-family="HelveticaNeue-Light" font-size="100.0" fill="#FEFFFE" transform="matrix(1.00, 0.00, -0.00, -1.00, 1150.5, 879.0)">g</text><text xml:space="preserve" font-family="HelveticaNeue-Light" font-size="100.0" fill="#FEFFFE" transform="matrix(1.00, 0.00, -0.00, -1.00, 1206.1, 879.0)">e</text><image xlink:href="../../9028DC33-BC08-4AC0-B5D6-28AA16FCBFE6/assets/3B3D1DCEFDA3A2A101220181FD18EBA6.png" width="156.00" height="56.00" transform="matrix(1.00, 0.00, -0.00, -1.00, 524.0, 751.0)"></image><g><clipPath id="clip-27"><path d="M 505.4 663.2 L 703.3 663.2 L 703.3 786.6 L 505.4 786.6 Z M 505.4 663.2 "></path></clipPath><g clip-path="url(#clip-27)"><text xml:space="preserve" font-family="HelveticaNeue-Light" font-size="65.0" fill="#FEFFFE" transform="matrix(1.00, 0.00, -0.00, -1.00, 529.0, 703.0)">A</text><text xml:space="preserve" font-family="HelveticaNeue-Light" font-size="65.0" fill="#FEFFFE" transform="matrix(1.00, 0.00, -0.00, -1.00, 570.0, 703.0)">t</text><text xml:space="preserve" font-family="HelveticaNeue-Light" font-size="65.0" fill="#FEFFFE" transform="matrix(1.00, 0.00, -0.00, -1.00, 589.2, 703.0)">o</text><text xml:space="preserve" font-family="HelveticaNeue-Light" font-size="65.0" fill="#FEFFFE" transform="matrix(1.00, 0.00, -0.00, -1.00, 625.3, 703.0)">m</text></g></g><image xlink:href="../../9028DC33-BC08-4AC0-B5D6-28AA16FCBFE6/assets/F6C17412BBBA25301D4816D1A1835FA5.png" width="240.00" height="56.00" transform="matrix(1.00, 0.00, -0.00, -1.00, 486.0, 647.0)"></image><g><clipPath id="clip-28"><path d="M 462.1 558.6 L 746.6 558.6 L 746.6 682.1 L 462.1 682.1 Z M 462.1 558.6 "></path></clipPath><g clip-path="url(#clip-28)"><text xml:space="preserve" font-family="HelveticaNeue-Light" font-size="65.0" fill="#FEFFFE" transform="matrix(1.00, 0.00, -0.00, -1.00, 486.0, 599.0)">P</text><text xml:space="preserve" font-family="HelveticaNeue-Light" font-size="65.0" fill="#FEFFFE" transform="matrix(1.00, 0.00, -0.00, -1.00, 527.0, 599.0)">a</text><text xml:space="preserve" font-family="HelveticaNeue-Light" font-size="65.0" fill="#FEFFFE" transform="matrix(1.00, 0.00, -0.00, -1.00, 560.7, 599.0)">r</text><text xml:space="preserve" font-family="HelveticaNeue-Light" font-size="65.0" fill="#FEFFFE" transform="matrix(1.00, 0.00, -0.00, -1.00, 581.2, 599.0)">t</text><text xml:space="preserve" font-family="HelveticaNeue-Light" font-size="65.0" fill="#FEFFFE" transform="matrix(1.00, 0.00, -0.00, -1.00, 600.4, 599.0)">i</text><text xml:space="preserve" font-family="HelveticaNeue-Light" font-size="65.0" fill="#FEFFFE" transform="matrix(1.00, 0.00, -0.00, -1.00, 612.4, 599.0)">c</text><text xml:space="preserve" font-family="HelveticaNeue-Light" font-size="65.0" fill="#FEFFFE" transform="matrix(1.00, 0.00, -0.00, -1.00, 646.2, 599.0)">l</text><text xml:space="preserve" font-family="HelveticaNeue-Light" font-size="65.0" fill="#FEFFFE" transform="matrix(1.00, 0.00, -0.00, -1.00, 658.2, 599.0)">e</text><text xml:space="preserve" font-family="HelveticaNeue-Light" font-size="65.0" fill="#FEFFFE" transform="matrix(1.00, 0.00, -0.00, -1.00, 691.9, 599.0)">s</text></g></g><image xlink:href="../../9028DC33-BC08-4AC0-B5D6-28AA16FCBFE6/assets/77518F7D0BCD088F7123D15916B61221.png" width="177.00" height="59.00" transform="matrix(1.00, 0.00, -0.00, -1.00, 517.0, 543.0)"></image><g><clipPath id="clip-29"><path d="M 495.8 454.0 L 712.9 454.0 L 712.9 577.5 L 495.8 577.5 Z M 495.8 454.0 "></path></clipPath><g clip-path="url(#clip-29)"><text xml:space="preserve" font-family="HelveticaNeue-Light" font-size="65.0" fill="#FEFFFE" transform="matrix(1.00, 0.00, -0.00, -1.00, 519.0, 494.0)">Q</text><text xml:space="preserve" font-family="HelveticaNeue-Light" font-size="65.0" fill="#FEFFFE" transform="matrix(1.00, 0.00, -0.00, -1.00, 567.2, 494.0)">u</text><text xml:space="preserve" font-family="HelveticaNeue-Light" font-size="65.0" fill="#FEFFFE" transform="matrix(1.00, 0.00, -0.00, -1.00, 602.1, 494.0)">a</text><text xml:space="preserve" font-family="HelveticaNeue-Light" font-size="65.0" fill="#FEFFFE" transform="matrix(1.00, 0.00, -0.00, -1.00, 635.8, 494.0)">r</text><text xml:space="preserve" font-family="HelveticaNeue-Light" font-size="65.0" fill="#FEFFFE" transform="matrix(1.00, 0.00, -0.00, -1.00, 656.3, 494.0)">k</text></g></g><image xlink:href="../../9028DC33-BC08-4AC0-B5D6-28AA16FCBFE6/assets/D794905FDA0BAFB8274A641EB1014E0A.png" width="104.00" height="56.00" transform="matrix(1.00, 0.00, -0.00, -1.00, 1342.0, 647.0)"></image><g><clipPath id="clip-30"><path d="M 1318.1 558.6 L 1466.6 558.6 L 1466.6 682.1 L 1318.1 682.1 Z M 1318.1 558.6 "></path></clipPath><g clip-path="url(#clip-30)"><text xml:space="preserve" font-family="HelveticaNeue-Light" font-size="65.0" fill="#FEFFFE" transform="matrix(1.00, 0.00, -0.00, -1.00, 1342.0, 599.0)">H</text><text xml:space="preserve" font-family="HelveticaNeue-Light" font-size="65.0" fill="#FEFFFE" transform="matrix(1.00, 0.00, -0.00, -1.00, 1387.8, 599.0)">o</text><text xml:space="preserve" font-family="HelveticaNeue-Light" font-size="65.0" fill="#FEFFFE" transform="matrix(1.00, 0.00, -0.00, -1.00, 1423.9, 599.0)">t</text></g></g><image xlink:href="../../9028DC33-BC08-4AC0-B5D6-28AA16FCBFE6/assets/C9E170D0FAFEB1A3E1BFB5E67F8656FA.png" width="296.00" height="57.00" transform="matrix(1.00, 0.00, -0.00, -1.00, 1243.0, 752.0)"></image><g><clipPath id="clip-31"><path d="M 1224.6 663.2 L 1560.1 663.2 L 1560.1 786.6 L 1224.6 786.6 Z M 1224.6 663.2 "></path></clipPath><g clip-path="url(#clip-31)"><text xml:space="preserve" font-family="HelveticaNeue-Light" font-size="65.0" fill="#FEFFFE" transform="matrix(1.00, 0.00, -0.00, -1.00, 1248.0, 703.0)">T</text><text xml:space="preserve" font-family="HelveticaNeue-Light" font-size="65.0" fill="#FEFFFE" transform="matrix(1.00, 0.00, -0.00, -1.00, 1285.7, 703.0)">i</text><text xml:space="preserve" font-family="HelveticaNeue-Light" font-size="65.0" fill="#FEFFFE" transform="matrix(1.00, 0.00, -0.00, -1.00, 1297.7, 703.0)">m</text><text xml:space="preserve" font-family="HelveticaNeue-Light" font-size="65.0" fill="#FEFFFE" transform="matrix(1.00, 0.00, -0.00, -1.00, 1351.9, 703.0)">e</text><text xml:space="preserve" font-family="HelveticaNeue-Light" font-size="65.0" fill="#FEFFFE" transform="matrix(1.00, 0.00, -0.00, -1.00, 1385.6, 703.0)"> </text><text xml:space="preserve" font-family="HelveticaNeue-Light" font-size="65.0" fill="#FEFFFE" transform="matrix(1.00, 0.00, -0.00, -1.00, 1403.7, 703.0)">S</text><text xml:space="preserve" font-family="HelveticaNeue-Light" font-size="65.0" fill="#FEFFFE" transform="matrix(1.00, 0.00, -0.00, -1.00, 1444.6, 703.0)">l</text><text xml:space="preserve" font-family="HelveticaNeue-Light" font-size="65.0" fill="#FEFFFE" transform="matrix(1.00, 0.00, -0.00, -1.00, 1456.7, 703.0)">i</text><text xml:space="preserve" font-family="HelveticaNeue-Light" font-size="65.0" fill="#FEFFFE" transform="matrix(1.00, 0.00, -0.00, -1.00, 1468.7, 703.0)">c</text><text xml:space="preserve" font-family="HelveticaNeue-Light" font-size="65.0" fill="#FEFFFE" transform="matrix(1.00, 0.00, -0.00, -1.00, 1502.4, 703.0)">e</text></g></g><image xlink:href="../../9028DC33-BC08-4AC0-B5D6-28AA16FCBFE6/assets/4C6785E31DC5F1FAFD58DF37974FCB4E.png" width="145.00" height="56.00" transform="matrix(1.00, 0.00, -0.00, -1.00, 531.0, 437.0)"></image><g><clipPath id="clip-32"><path d="M 511.9 349.4 L 696.8 349.4 L 696.8 472.9 L 511.9 472.9 Z M 511.9 349.4 "></path></clipPath><g clip-path="url(#clip-32)"><text xml:space="preserve" font-family="HelveticaNeue-Light" font-size="65.0" fill="#FEFFFE" transform="matrix(1.00, 0.00, -0.00, -1.00, 536.0, 389.0)">T</text><text xml:space="preserve" font-family="HelveticaNeue-Light" font-size="65.0" fill="#FEFFFE" transform="matrix(1.00, 0.00, -0.00, -1.00, 573.7, 389.0)">i</text><text xml:space="preserve" font-family="HelveticaNeue-Light" font-size="65.0" fill="#FEFFFE" transform="matrix(1.00, 0.00, -0.00, -1.00, 585.7, 389.0)">m</text><text xml:space="preserve" font-family="HelveticaNeue-Light" font-size="65.0" fill="#FEFFFE" transform="matrix(1.00, 0.00, -0.00, -1.00, 639.9, 389.0)">e</text></g></g><image xlink:href="../../9028DC33-BC08-4AC0-B5D6-28AA16FCBFE6/assets/25CF136AB3FEE55EFC41273A21DDB459.png" width="244.00" height="56.00" transform="matrix(1.00, 0.00, -0.00, -1.00, 484.0, 207.0)"></image><g><clipPath id="clip-33"><path d="M 460.3 119.4 L 748.4 119.4 L 748.4 242.8 L 460.3 242.8 Z M 460.3 119.4 "></path></clipPath><g clip-path="url(#clip-33)"><text xml:space="preserve" font-family="HelveticaNeue-Light" font-size="65.0" fill="#FEFFFE" transform="matrix(1.00, 0.00, -0.00, -1.00, 484.0, 159.0)">U</text><text xml:space="preserve" font-family="HelveticaNeue-Light" font-size="65.0" fill="#FEFFFE" transform="matrix(1.00, 0.00, -0.00, -1.00, 528.5, 159.0)">n</text><text xml:space="preserve" font-family="HelveticaNeue-Light" font-size="65.0" fill="#FEFFFE" transform="matrix(1.00, 0.00, -0.00, -1.00, 563.4, 159.0)">i</text><text xml:space="preserve" font-family="HelveticaNeue-Light" font-size="65.0" fill="#FEFFFE" transform="matrix(1.00, 0.00, -0.00, -1.00, 575.5, 159.0)">v</text><text xml:space="preserve" font-family="HelveticaNeue-Light" font-size="65.0" fill="#FEFFFE" transform="matrix(1.00, 0.00, -0.00, -1.00, 605.5, 159.0)">e</text><text xml:space="preserve" font-family="HelveticaNeue-Light" font-size="65.0" fill="#FEFFFE" transform="matrix(1.00, 0.00, -0.00, -1.00, 639.3, 159.0)">r</text><text xml:space="preserve" font-family="HelveticaNeue-Light" font-size="65.0" fill="#FEFFFE" transform="matrix(1.00, 0.00, -0.00, -1.00, 659.8, 159.0)">s</text><text xml:space="preserve" font-family="HelveticaNeue-Light" font-size="65.0" fill="#FEFFFE" transform="matrix(1.00, 0.00, -0.00, -1.00, 691.0, 159.0)">e</text></g></g><image xlink:href="../../9028DC33-BC08-4AC0-B5D6-28AA16FCBFE6/assets/51C5DB22740A9102C457CD89A566C963.png" width="184.00" height="69.00" transform="matrix(1.00, 0.00, -0.00, -1.00, 513.0, 324.0)"></image><g><clipPath id="clip-34"><path d="M 490.9 234.6 L 717.7 234.6 L 717.7 358.1 L 490.9 358.1 Z M 490.9 234.6 "></path></clipPath><g clip-path="url(#clip-34)"><text xml:space="preserve" font-family="HelveticaNeue-Light" font-size="65.0" fill="#FEFFFE" transform="matrix(1.00, 0.00, -0.00, -1.00, 515.0, 275.0)">S</text><text xml:space="preserve" font-family="HelveticaNeue-Light" font-size="65.0" fill="#FEFFFE" transform="matrix(1.00, 0.00, -0.00, -1.00, 556.0, 275.0)">p</text><text xml:space="preserve" font-family="HelveticaNeue-Light" font-size="65.0" fill="#FEFFFE" transform="matrix(1.00, 0.00, -0.00, -1.00, 593.3, 275.0)">a</text><text xml:space="preserve" font-family="HelveticaNeue-Light" font-size="65.0" fill="#FEFFFE" transform="matrix(1.00, 0.00, -0.00, -1.00, 627.0, 275.0)">c</text><text xml:space="preserve" font-family="HelveticaNeue-Light" font-size="65.0" fill="#FEFFFE" transform="matrix(1.00, 0.00, -0.00, -1.00, 660.7, 275.0)">e</text></g></g><image xlink:href="../../9028DC33-BC08-4AC0-B5D6-28AA16FCBFE6/assets/D29E4AAB6ADA5CE0FFFA7B985C2C74CB.png" width="134.00" height="57.00" transform="matrix(1.00, 0.00, -0.00, -1.00, 1325.0, 533.0)"></image><g><clipPath id="clip-35"><path d="M 1303.0 443.6 L 1481.6 443.6 L 1481.6 567.0 L 1303.0 567.0 Z M 1303.0 443.6 "></path></clipPath><g clip-path="url(#clip-35)"><text xml:space="preserve" font-family="HelveticaNeue-Light" font-size="65.0" fill="#FEFFFE" transform="matrix(1.00, 0.00, -0.00, -1.00, 1327.0, 484.0)">C</text><text xml:space="preserve" font-family="HelveticaNeue-Light" font-size="65.0" fill="#FEFFFE" transform="matrix(1.00, 0.00, -0.00, -1.00, 1372.8, 484.0)">o</text><text xml:space="preserve" font-family="HelveticaNeue-Light" font-size="65.0" fill="#FEFFFE" transform="matrix(1.00, 0.00, -0.00, -1.00, 1408.9, 484.0)">l</text><text xml:space="preserve" font-family="HelveticaNeue-Light" font-size="65.0" fill="#FEFFFE" transform="matrix(1.00, 0.00, -0.00, -1.00, 1420.9, 484.0)">d</text></g></g><image xlink:href="../../9028DC33-BC08-4AC0-B5D6-28AA16FCBFE6/assets/0462FADAA15B711A27279E2F042B44E7.png" width="200.00" height="57.00" transform="matrix(1.00, 0.00, -0.00, -1.00, 1293.0, 418.0)"></image><g><clipPath id="clip-36"><path d="M 1271.7 328.5 L 1512.9 328.5 L 1512.9 452.0 L 1271.7 452.0 Z M 1271.7 328.5 "></path></clipPath><g clip-path="url(#clip-36)"><text xml:space="preserve" font-family="HelveticaNeue-Light" font-size="65.0" fill="#FEFFFE" transform="matrix(1.00, 0.00, -0.00, -1.00, 1295.0, 369.0)">G</text><text xml:space="preserve" font-family="HelveticaNeue-Light" font-size="65.0" fill="#FEFFFE" transform="matrix(1.00, 0.00, -0.00, -1.00, 1343.2, 369.0)">l</text><text xml:space="preserve" font-family="HelveticaNeue-Light" font-size="65.0" fill="#FEFFFE" transform="matrix(1.00, 0.00, -0.00, -1.00, 1355.2, 369.0)">a</text><text xml:space="preserve" font-family="HelveticaNeue-Light" font-size="65.0" fill="#FEFFFE" transform="matrix(1.00, 0.00, -0.00, -1.00, 1388.9, 369.0)">c</text><text xml:space="preserve" font-family="HelveticaNeue-Light" font-size="65.0" fill="#FEFFFE" transform="matrix(1.00, 0.00, -0.00, -1.00, 1422.7, 369.0)">i</text><text xml:space="preserve" font-family="HelveticaNeue-Light" font-size="65.0" fill="#FEFFFE" transform="matrix(1.00, 0.00, -0.00, -1.00, 1434.7, 369.0)">e</text><text xml:space="preserve" font-family="HelveticaNeue-Light" font-size="65.0" fill="#FEFFFE" transform="matrix(1.00, 0.00, -0.00, -1.00, 1468.4, 369.0)">r</text></g></g><image xlink:href="../../9028DC33-BC08-4AC0-B5D6-28AA16FCBFE6/assets/C5BF574AE89D84FF8D0195F18C8E7189.png" width="276.00" height="69.00" transform="matrix(1.00, 0.00, -0.00, -1.00, 1256.0, 302.0)"></image><g><clipPath id="clip-37"><path d="M 1232.0 213.5 L 1552.6 213.5 L 1552.6 337.0 L 1232.0 337.0 Z M 1232.0 213.5 "></path></clipPath><g clip-path="url(#clip-37)"><text xml:space="preserve" font-family="HelveticaNeue-Light" font-size="65.0" fill="#FEFFFE" transform="matrix(1.00, 0.00, -0.00, -1.00, 1256.0, 254.0)">E</text><text xml:space="preserve" font-family="HelveticaNeue-Light" font-size="65.0" fill="#FEFFFE" transform="matrix(1.00, 0.00, -0.00, -1.00, 1294.5, 254.0)">a</text><text xml:space="preserve" font-family="HelveticaNeue-Light" font-size="65.0" fill="#FEFFFE" transform="matrix(1.00, 0.00, -0.00, -1.00, 1328.3, 254.0)">r</text><text xml:space="preserve" font-family="HelveticaNeue-Light" font-size="65.0" fill="#FEFFFE" transform="matrix(1.00, 0.00, -0.00, -1.00, 1348.8, 254.0)">t</text><text xml:space="preserve" font-family="HelveticaNeue-Light" font-size="65.0" fill="#FEFFFE" transform="matrix(1.00, 0.00, -0.00, -1.00, 1368.0, 254.0)">h</text><text xml:space="preserve" font-family="HelveticaNeue-Light" font-size="65.0" fill="#FEFFFE" transform="matrix(1.00, 0.00, -0.00, -1.00, 1402.9, 254.0)">l</text><text xml:space="preserve" font-family="HelveticaNeue-Light" font-size="65.0" fill="#FEFFFE" transform="matrix(1.00, 0.00, -0.00, -1.00, 1414.9, 254.0)">i</text><text xml:space="preserve" font-family="HelveticaNeue-Light" font-size="65.0" fill="#FEFFFE" transform="matrix(1.00, 0.00, -0.00, -1.00, 1427.0, 254.0)">n</text><text xml:space="preserve" font-family="HelveticaNeue-Light" font-size="65.0" fill="#FEFFFE" transform="matrix(1.00, 0.00, -0.00, -1.00, 1461.9, 254.0)">g</text><text xml:space="preserve" font-family="HelveticaNeue-Light" font-size="65.0" fill="#FEFFFE" transform="matrix(1.00, 0.00, -0.00, -1.00, 1498.0, 254.0)">s</text></g></g><image xlink:href="../../9028DC33-BC08-4AC0-B5D6-28AA16FCBFE6/assets/53FAF870B006AFA77D41954808E588CB.png" width="151.00" height="69.00" transform="matrix(1.00, 0.00, -0.00, -1.00, 1315.0, 208.0)"></image><g><clipPath id="clip-38"><path d="M 1296.1 120.1 L 1488.6 120.1 L 1488.6 242.1 L 1296.1 242.1 Z M 1296.1 120.1 "></path></clipPath><g clip-path="url(#clip-38)"><text xml:space="preserve" font-family="HelveticaNeue-LightItalic" font-style="italic" font-size="65.0" fill="#FEFFFE" transform="matrix(1.00, 0.00, -0.00, -1.00, 1319.0, 160.0)">B</text><text xml:space="preserve" font-family="HelveticaNeue-LightItalic" font-style="italic" font-size="65.0" fill="#FEFFFE" transform="matrix(1.00, 0.00, -0.00, -1.00, 1362.4, 160.0)">u</text><text xml:space="preserve" font-family="HelveticaNeue-LightItalic" font-style="italic" font-size="65.0" fill="#FEFFFE" transform="matrix(1.00, 0.00, -0.00, -1.00, 1397.3, 160.0)">g</text><text xml:space="preserve" font-family="HelveticaNeue-LightItalic" font-style="italic" font-size="65.0" fill="#FEFFFE" transform="matrix(1.00, 0.00, -0.00, -1.00, 1433.4, 160.0)">s</text></g></g><g><clipPath id="clip-39"><path d="M 1296.1 120.1 L 1488.6 120.1 L 1488.6 242.1 L 1296.1 242.1 Z M 1296.1 120.1 "></path></clipPath><g clip-path="url(#clip-39)"><path d="M 4.5 49.1 L 150.2 49.1 " fill="none" stroke="#FEFFFE" stroke-width="3.31" stroke-miterlimit="0.00" transform="matrix(1.00, 0.00, 0.00, -1.00, 1315.0, 226.2)"></path></g></g><image xlink:href="../../9028DC33-BC08-4AC0-B5D6-28AA16FCBFE6/assets/198F0D6F31F1B4995FD7993DDCC96253.png" width="336.00" height="48.00" transform="matrix(1.00, 0.00, -0.00, -1.00, 1495.0, 199.0)"></image><g><clipPath id="clip-40"><path d="M 1480.0 138.7 L 1846.4 138.7 L 1846.4 224.4 L 1480.0 224.4 Z M 1480.0 138.7 "></path></clipPath><g clip-path="url(#clip-40)"><text xml:space="preserve" font-family="ComicSansMS" font-size="37.0" fill="#F38F18" transform="matrix(1.00, 0.00, -0.00, -1.00, 1497.0, 169.0)">S</text><text xml:space="preserve" font-family="ComicSansMS" font-size="37.0" fill="#F38F18" transform="matrix(1.00, 0.00, -0.00, -1.00, 1522.7, 169.0)">p</text><text xml:space="preserve" font-family="ComicSansMS" font-size="37.0" fill="#F38F18" transform="matrix(1.00, 0.00, -0.00, -1.00, 1542.4, 169.0)">i</text><text xml:space="preserve" font-family="ComicSansMS" font-size="37.0" fill="#F38F18" transform="matrix(1.00, 0.00, -0.00, -1.00, 1552.8, 169.0)">d</text><text xml:space="preserve" font-family="ComicSansMS" font-size="37.0" fill="#F38F18" transform="matrix(1.00, 0.00, -0.00, -1.00, 1574.6, 169.0)">e</text><text xml:space="preserve" font-family="ComicSansMS" font-size="37.0" fill="#F38F18" transform="matrix(1.00, 0.00, -0.00, -1.00, 1594.8, 169.0)">r</text><text xml:space="preserve" font-family="ComicSansMS" font-size="37.0" fill="#F38F18" transform="matrix(1.00, 0.00, -0.00, -1.00, 1612.6, 169.0)">s</text><text xml:space="preserve" font-family="ComicSansMS" font-size="37.0" fill="#F38F18" transform="matrix(1.00, 0.00, -0.00, -1.00, 1630.6, 169.0)"> </text><text xml:space="preserve" font-family="ComicSansMS" font-size="37.0" fill="#F38F18" transform="matrix(1.00, 0.00, -0.00, -1.00, 1641.6, 169.0)">F</text><text xml:space="preserve" font-family="ComicSansMS" font-size="37.0" fill="#F38F18" transform="matrix(1.00, 0.00, -0.00, -1.00, 1664.1, 169.0)">r</text><text xml:space="preserve" font-family="ComicSansMS" font-size="37.0" fill="#F38F18" transform="matrix(1.00, 0.00, -0.00, -1.00, 1681.9, 169.0)">o</text><text xml:space="preserve" font-family="ComicSansMS" font-size="37.0" fill="#F38F18" transform="matrix(1.00, 0.00, -0.00, -1.00, 1701.3, 169.0)">m</text><text xml:space="preserve" font-family="ComicSansMS" font-size="37.0" fill="#F38F18" transform="matrix(1.00, 0.00, -0.00, -1.00, 1730.0, 169.0)"> </text><text xml:space="preserve" font-family="ComicSansMS" font-size="37.0" fill="#F38F18" transform="matrix(1.00, 0.00, -0.00, -1.00, 1741.0, 169.0)">M</text><text xml:space="preserve" font-family="ComicSansMS" font-size="37.0" fill="#F38F18" transform="matrix(1.00, 0.00, -0.00, -1.00, 1773.7, 169.0)">a</text><text xml:space="preserve" font-family="ComicSansMS" font-size="37.0" fill="#F38F18" transform="matrix(1.00, 0.00, -0.00, -1.00, 1792.6, 169.0)">r</text><text xml:space="preserve" font-family="ComicSansMS" font-size="37.0" fill="#F38F18" transform="matrix(1.00, 0.00, -0.00, -1.00, 1810.4, 169.0)">s</text></g></g></g></svg>