<?xml version="1.0" encoding="UTF-8" standalone="no"?><svg xmlns="http://www.w3.org/2000/svg" xmlns:xlink="http://www.w3.org/1999/xlink" clip-rule="evenodd" stroke-miterlimit="4.00" viewBox="0 0 96 62"><desc>SVG generated by Keynote</desc><defs></defs><g transform="matrix(1.00, 0.00, -0.00, -1.00, 0.0, 62.0)"><g><clipPath id="clip-320"><path d="M 2.0 2.0 L 94.0 2.0 L 94.0 60.0 L 2.0 60.0 Z M 2.0 2.0 "></path></clipPath><g clip-path="url(#clip-320)"><path d="M 9.7 52.4 L 86.3 52.4 L 86.3 6.6 L 9.7 6.6 Z M 9.3 51.8 " fill="#FEFFFF"></path><path d="M 365.5 342.5 L 390.5 342.5 L 390.5 357.5 L 365.5 357.5 Z M 365.4 342.7 " fill="none" stroke="#000000" stroke-width="1.00" stroke-miterlimit="0.00" stroke-linecap="round" stroke-linejoin="round" transform="matrix(3.07, 0.00, 0.00, -3.05, -1111.2, 1097.9)"></path><text xml:space="preserve" font-family="Helvetica" font-size="9.0" fill="#000000" transform="matrix(3.07, 0.00, -0.00, -3.05, 14.6, 19.5)">v</text><text xml:space="preserve" font-family="Helvetica" font-size="9.0" fill="#000000" transform="matrix(3.07, 0.00, -0.00, -3.05, 28.4, 19.5)">a</text><text xml:space="preserve" font-family="Helvetica" font-size="9.0" fill="#000000" transform="matrix(3.07, 0.00, -0.00, -3.05, 43.8, 19.5)">l</text><text xml:space="preserve" font-family="Helvetica" font-size="9.0" fill="#000000" transform="matrix(3.07, 0.00, -0.00, -3.05, 49.9, 19.5)">u</text><text xml:space="preserve" font-family="Helvetica" font-size="9.0" fill="#000000" transform="matrix(3.07, 0.00, -0.00, -3.05, 65.3, 19.5)">e</text></g></g></g></svg>